<?xml version="1.0" encoding="UTF-8" standalone="no"?>
<!-- Generator: Adobe Illustrator 13.0.2, SVG Export Plug-In . SVG Version: 6.00 Build 14948)  -->

<svg
   xmlns:dc="http://purl.org/dc/elements/1.1/"
   xmlns:cc="http://creativecommons.org/ns#"
   xmlns:rdf="http://www.w3.org/1999/02/22-rdf-syntax-ns#"
   xmlns:svg="http://www.w3.org/2000/svg"
   xmlns="http://www.w3.org/2000/svg"
   xmlns:sodipodi="http://sodipodi.sourceforge.net/DTD/sodipodi-0.dtd"
   xmlns:inkscape="http://www.inkscape.org/namespaces/inkscape"
   version="1.1"
   id="Layer_1"
   x="0px"
   y="0px"
   width="423"
   height="395"
   viewBox="-19.686 -22.411 423 395"
   enable-background="new -19.686 -22.411 470 490"
   xml:space="preserve"
   inkscape:version="0.92.0 r15299"
   sodipodi:docname="Circuit_Yas-Island.svg"><metadata
     id="metadata473"><rdf:RDF><cc:Work
         rdf:about=""><dc:format>image/svg+xml</dc:format><dc:type
           rdf:resource="http://purl.org/dc/dcmitype/StillImage" /></cc:Work></rdf:RDF></metadata><defs
     id="defs471" /><sodipodi:namedview
     pagecolor="#ffffff"
     bordercolor="#666666"
     borderopacity="1"
     objecttolerance="10"
     gridtolerance="10"
     guidetolerance="10"
     inkscape:pageopacity="0"
     inkscape:pageshadow="2"
     inkscape:window-width="3840"
     inkscape:window-height="1949"
     id="namedview469"
     showgrid="false"
     inkscape:zoom="2.75"
     inkscape:cx="250"
     inkscape:cy="260"
     inkscape:window-x="-8"
     inkscape:window-y="-8"
     inkscape:window-maximized="1"
     inkscape:current-layer="Layer_1" /><path
     style="fill:none;stroke:#8c8c8c;stroke-width:2.5;stroke-linecap:butt;stroke-linejoin:round;stroke-miterlimit:4;stroke-dasharray:none;stroke-opacity:1"
     d="m 32.324527,136.98583 -18.718854,51.01805 1.835181,21.65515 -0.734072,32.66623 c 0,0 -1.028266,26.11171 0.496803,43.06921 1.525069,16.9575 9.175909,50.221 9.175909,50.221 0,0 1.091953,3.73188 4.144903,6.36939 3.05295,2.63751 8.527074,1.19016 8.527074,1.19016"
     id="path4232"
     inkscape:connector-curvature="0"
     sodipodi:nodetypes="cccczczc" /><path
     style="fill:none;stroke:#aaaaaa;stroke-width:7;stroke-linecap:round;stroke-linejoin:round;stroke-miterlimit:4;stroke-dasharray:none;stroke-opacity:1"
     d="m 61.503911,134.04954 -3.67036,-16.33312 -18.535333,10.82757"
     id="path4230"
     inkscape:connector-curvature="0"
     sodipodi:nodetypes="ccc" /><path
     style="fill:none;stroke:#aaaaaa;stroke-width:7;stroke-linecap:round;stroke-linejoin:miter;stroke-miterlimit:4;stroke-dasharray:none;stroke-opacity:1"
     d="m 62.788541,94.042577 28.078275,-6.9737"
     id="path4228"
     inkscape:connector-curvature="0"
     sodipodi:nodetypes="cc" /><path
     style="fill:none;stroke:#aaaaaa;stroke-width:7;stroke-linecap:butt;stroke-linejoin:round;stroke-miterlimit:4;stroke-dasharray:none;stroke-opacity:1"
     d="m 281.90925,22.470481 27.16069,-7.157207 -2.20221,-8.4418369"
     id="path4226"
     inkscape:connector-curvature="0"
     sodipodi:nodetypes="ccc" /><path
     style="fill:none;stroke:#aaaaaa;stroke-width:6;stroke-linecap:round;stroke-linejoin:miter;stroke-miterlimit:4;stroke-dasharray:none;stroke-opacity:1"
     d="m 277.3213,71.836877 c 0,0 3.84731,-5.08397 5.18438,-8.25833 1.33708,-3.17435 1.63203,-6.9463 2.98218,-10.09349 1.35015,-3.14719 3.8978,-6.90898 6.69841,-8.80887 2.80061,-1.89989 5.61573,-2.18101 8.90063,-2.4775 3.2849,-0.29649 6.72778,1.09925 10.50642,0.96347 3.77864,-0.13578 11.97456,-1.97281 11.97456,-1.97281"
     id="path4222"
     inkscape:connector-curvature="0"
     sodipodi:nodetypes="czzzzzc" /><path
     style="fill:none;stroke:#aaaaaa;stroke-width:6;stroke-linecap:butt;stroke-linejoin:round;stroke-miterlimit:4;stroke-dasharray:none;stroke-opacity:1"
     d="m 297.87533,42.106937 -2.20221,-9.17592 -20.37052,5.32203 -2.9363,-12.846273 9.54295,-2.569254 -2.56925,-9.175909 h -0.36704"
     id="path4224"
     inkscape:connector-curvature="0"
     sodipodi:nodetypes="ccccccc" /><path
     style="fill:none;stroke:#aaaaaa;stroke-width:7;stroke-linecap:round;stroke-linejoin:round;stroke-miterlimit:4;stroke-dasharray:none;stroke-opacity:1"
     d="m 256.2167,78.994077 c 0,0 6.48076,-7.54079 7.15721,-10.64405 0.67645,-3.10326 -1.00935,-6.14786 -1.00935,-6.14786 l -7.616,-15.69081 c 0,0 7.40466,-15.54248 6.23962,-18.53533 -1.16504,-2.992846 -23.49033,-4.404435 -23.49033,-4.404435"
     id="path4220"
     inkscape:connector-curvature="0"
     sodipodi:nodetypes="czcczc" /><path
     style="fill:none;stroke:#aaaaaa;stroke-width:6;stroke-linecap:round;stroke-linejoin:miter;stroke-miterlimit:4;stroke-dasharray:none;stroke-opacity:1"
     d="m 231.25823,25.039737 c 0,0 -5.54481,4.261916 -7.4037,7.5112 -1.85889,3.249284 -4.38268,9.376293 -6.75869,12.112206 -2.37601,2.735913 -4.28497,4.953294 -8.59387,6.069134 -4.3089,1.11584 -8.01505,0.84229 -12.06767,-0.43 -4.05262,-1.27229 -8.10885,-4.477767 -12.8908,-5.809609 -4.78195,-1.331842 -14.31442,-2.20222 -14.31442,-2.20222"
     id="path4234"
     inkscape:connector-curvature="0"
     sodipodi:nodetypes="czzzzzc" /><path
     style="fill:#4d4d4d;stroke:#aaaaaa;stroke-width:7;stroke-linecap:round;stroke-linejoin:miter;stroke-miterlimit:4;stroke-dasharray:none;stroke-opacity:1"
     d="M 341.9197,24.122146 370.73205,-0.10225289"
     id="path4218"
     inkscape:connector-curvature="0"
     sodipodi:nodetypes="cc" /><path
     d="m 78.932106,104.30657 c 0,0 11.49204,-15.823113 22.245044,-3.53311 l 73.9307,81.91201 7.86415,11.44103 c 0,0 8.2222,7.43307 13.16372,-3.27247"
     id="path3"
     style="fill:none;stroke:#000000;stroke-width:2.70000005;stroke-linecap:round;stroke-linejoin:round;stroke-miterlimit:4;stroke-dasharray:none"
     inkscape:connector-curvature="0"
     sodipodi:nodetypes="ccccc" /><path
     d="m 235.32694,103.76289 c 0,0 -3.07994,17.06861 -2.46894,28.00861 0.609,10.94 2.25507,18.7536 -13.54593,33.9476 -22.80942,20.12414 -22.91582,23.83826 -22.91582,23.83826"
     id="path5"
     inkscape:connector-curvature="0"
     style="fill:none;stroke:#000000;stroke-width:3;stroke-linecap:round;stroke-linejoin:round;stroke-miterlimit:4;stroke-dasharray:none"
     sodipodi:nodetypes="cccc" /><path
     d="m 47.485001,337.3755 c 3.814,-1.552 8.24,2.811 10.911,6.118 1.479,1.83 4.105,2.191 6.603,0.478 6.563,-4.511 18.733995,-12.955 20.661995,-14.885 2.662,-2.661 7.986,-6.211 2.952,-11.566 -5.524,-5.875 -42.634995,-48.188 -44.362995,-50.455 -1.728,-2.267 -4.714,-6.369 -4.917,-8.795 -0.202,-2.427 -0.448,-21.449 -0.541,-27.397 -0.094,-5.949 0.449,-7.87 2.44,-9.675 1.991,-1.807 15.384,-14.603 19.057,-17.115 3.673,-2.518 6.897,2.839 14.512,11.509 7.616995,8.67 9.297995,7.962 12.034995,6.66 2.737,-1.299 16.528004,-11.314 21.178004,-14.146 4.651,-2.832 4.759,-6.354 3.854,-8.388 -0.906,-2.034 -7.478,-15.442 -7.478,-15.442 0,0 -33.642999,-37.059 -37.725999,-41.469 -4.082,-4.415 -5.422,-8.05 -3.669,-11.109 1.753,-3.058 15.536995,-30.845 15.536995,-30.845 0,0 1.516,-4.310003 6.005,-8.667003 7.262,-6.829 11.137,-6.918 14.75,-2.935 3.612004,3.982 81.617004,91.496003 88.251004,98.407003 6.633,6.912 11.21,6.429 14.567,2.938 3.358,-3.492 25.771,-24.103 33.66,-31.051 7.891,-6.949 8.895,-12.587 7.98,-16.695 -0.91,-4.106 -4.746,-18.815 -6.246,-23.978 -1.502,-5.163 -0.91466,-18.66369 2.753,-24.394003 8.34127,-14.29293 13.507,-14.245 33.962,-20.601 11.108,-3.451 25.999,-11.303 32.055,-16.994 6.052,-5.692 38.09074,-35.052271 38.09074,-35.052271 0,0 -2.50074,-4.928729 -3.60874,-9.388729 -1.104,-4.4579999 2.53,-5.7989999 2.53,-5.7989999 l 24.523,-6.09199999 c 0,0 7.864,-1.62500001 6.32,-7.68800001 -1.541,-6.0620001 -8.671,-3.1080001 -8.671,-3.1080001 l -223.581,58.352 -31.86052,11.59973 -54.439479,14.92627 c -3.825,1.401 -8.141,3.208 -5.472,6.333 2.669,3.125 5.81,6.678 7.265,8.866 1.454,2.188 5.06,4.096 1.195,8.334 -3.865,4.237003 -12.460109,14.826293 -18.185109,25.644293 -7.561182,13.38526 -17.308964,42.16213 -19.186746,92.58955 -1.14,15.727 -0.937775,45.49945 -0.833109,60.78949 0.104667,15.29004 7.746964,51.80967 10.996964,61.13767 2.082,5.978 10.915,1.173 16.133,-0.952 z"
     id="path25"
     inkscape:connector-curvature="0"
     style="fill:none;stroke:#000000;stroke-width:7.30000019;stroke-linecap:round;stroke-linejoin:round;stroke-miterlimit:4;stroke-dasharray:none"
     sodipodi:nodetypes="cccccscccccccccccccscscccccccccccccccscccczcc" /><polygon
     points="165.884,161.959 159.067,168.036 174.496,178.485 "
     id="polygon27"
     transform="translate(-36.164092,-61.150791)"
     style="fill:#d2232a" /><polygon
     points="238.018,62.24 223.004,73.281 241.456,70.696 "
     id="polygon29"
     style="fill:#d2232a"
     transform="translate(-23.966,-51.288503)" /><polygon
     points="114.432,346.016 98.255,336.764 108.095,352.586 "
     id="polygon31"
     style="fill:#d2232a"
     transform="translate(-23.966,-51.288503)" /><path
     d="m 338.468,7.3844971 c -0.44,1.558 0.467,3.1779999 2.021,3.6179999 1.561,0.44 3.181,-0.464 3.619,-2.0229999 0.44,-1.556 -0.463,-3.176 -2.022,-3.617 -1.556,-0.441 -3.178,0.465 -3.618,2.022 z"
     id="path33"
     inkscape:connector-curvature="0"
     style="fill:#ffffff" /><circle
     cx="342.32199"
     cy="23.886499"
     r="2.9319999"
     id="circle35"
     style="fill:#ffffff" /><circle
     cx="240.543"
     cy="94.058495"
     r="2.931"
     id="circle37"
     style="fill:#ffffff" /><circle
     cx="280.30701"
     cy="71.720497"
     r="2.931"
     id="circle39"
     style="fill:#ffffff" /><circle
     cx="95.218994"
     cy="86.612495"
     r="2.931"
     id="circle41"
     style="fill:#ffffff" /><circle
     cx="62.189999"
     cy="135.26851"
     r="2.931"
     id="circle43"
     style="fill:#ffffff" /><circle
     cx="60.02"
     cy="94.907494"
     r="2.9319999"
     id="circle45"
     style="fill:#ffffff" /><circle
     cx="39.653"
     cy="124.2505"
     r="2.931"
     id="circle47"
     style="fill:#ffffff" /><circle
     cx="-16.753"
     cy="282.29449"
     r="2.9330001"
     id="circle51"
     style="fill:#ffffff" /><circle
     cx="33.837002"
     cy="341.08649"
     r="2.9319999"
     id="circle55"
     style="fill:#ffffff" /><circle
     cx="49.521"
     cy="336.93549"
     r="2.9319999"
     id="circle57"
     style="fill:#ffffff" /><circle
     cx="90.428993"
     cy="322.18948"
     r="2.9319999"
     id="circle59"
     style="fill:#ffffff" /><circle
     cx="61.493999"
     cy="345.0275"
     r="2.9319999"
     id="circle61"
     style="fill:#ffffff" /><circle
     cx="49.391003"
     cy="78.718498"
     r="2.9319999"
     id="circle63"
     style="fill:#ffffff" /><circle
     cx="112.036"
     cy="203.5135"
     r="2.931"
     id="circle65"
     style="fill:#ffffff" /><circle
     cx="83.354996"
     cy="223.18251"
     r="2.931"
     id="circle67"
     style="fill:#ffffff" /><circle
     cx="62.182003"
     cy="203.4035"
     r="2.931"
     id="circle69"
     style="fill:#ffffff" /><circle
     cx="39.451"
     cy="223.5385"
     r="2.9319999"
     id="circle71"
     style="fill:#ffffff" /><circle
     cx="39.438"
     cy="259.42947"
     r="2.9319999"
     id="circle73"
     style="fill:#ffffff" /><rect
     x="-27.0525"
     y="-185.9619"
     transform="rotate(138.63674)"
     width="2.8518672"
     height="2.8458674"
     id="rect75"
     style="fill:#ffffff" /><rect
     x="-24.303783"
     y="-185.95856"
     transform="rotate(138.67717)"
     width="2.8529959"
     height="2.850996"
     id="rect77" /><rect
     x="-21.327318"
     y="-185.96478"
     transform="rotate(138.64861)"
     width="2.8471067"
     height="2.8501067"
     id="rect79"
     style="fill:#ffffff" /><polygon
     points="165.753,186.221 167.637,188.36 169.779,186.475 167.889,184.337 "
     id="polygon81"
     transform="translate(-33.049686,-59.07452)" /><polygon
     points="163.594,188.118 165.477,190.254 167.62,188.372 165.733,186.23 "
     id="polygon83"
     transform="translate(-33.049686,-59.07452)"
     style="fill:#ffffff" /><rect
     x="-12.836265"
     y="-185.96095"
     transform="rotate(138.68526)"
     width="2.8530216"
     height="2.8510218"
     id="rect85" /><rect
     x="-9.689065"
     y="-185.96347"
     transform="rotate(138.60388)"
     width="2.8501678"
     height="2.8511679"
     id="rect87"
     style="fill:#ffffff" /><polygon
     points="157.123,193.817 159.004,195.953 161.147,194.075 159.261,191.932 "
     id="polygon89"
     transform="translate(-33.049686,-59.07452)" /><rect
     x="-26.956606"
     y="-188.84476"
     transform="rotate(138.61197)"
     width="2.8551934"
     height="2.8491931"
     id="rect91" /><polygon
     points="171.967,184.578 173.847,186.719 175.986,184.834 174.104,182.693 "
     id="polygon93"
     transform="translate(-33.049686,-59.07452)"
     style="fill:#ffffff" /><rect
     x="-21.436552"
     y="-188.80531"
     transform="rotate(138.67717)"
     width="2.8499959"
     height="2.8499959"
     id="rect95" /><rect
     x="-18.457701"
     y="-188.84995"
     transform="rotate(138.64482)"
     width="2.850893"
     height="2.8518929"
     id="rect97"
     style="fill:#ffffff" /><rect
     x="-15.686755"
     y="-188.83722"
     transform="rotate(138.67717)"
     width="2.8529959"
     height="2.854996"
     id="rect99" /><polygon
     points="163.337,192.174 165.22,194.313 167.356,192.431 165.479,190.29 "
     id="polygon101"
     transform="translate(-33.049686,-59.07452)"
     style="fill:#ffffff" /><rect
     x="-9.6528301"
     y="-188.86235"
     transform="rotate(138.592)"
     width="2.8529286"
     height="2.8529286"
     id="rect103" /><rect
     x="-6.7099943"
     y="-188.84503"
     transform="rotate(138.57153)"
     width="2.8530669"
     height="2.8490667"
     id="rect105"
     style="fill:#ffffff" /><polygon
     points="176.017,184.834 177.906,186.975 180.043,185.092 178.164,182.95 "
     id="polygon107"
     transform="translate(-33.049686,-59.07452)"
     style="fill:#ffffff" /><rect
     x="-29.828819"
     y="-185.99168"
     transform="rotate(138.61626)"
     width="2.8500047"
     height="2.8500047"
     id="rect109" /><rect
     x="-29.741566"
     y="-188.85994"
     transform="rotate(138.58771)"
     width="2.8481171"
     height="2.8471169"
     id="rect111"
     style="fill:#ffffff" /><rect
     x="-30.087238"
     y="-191.68855"
     transform="rotate(138.69334)"
     width="2.8510478"
     height="2.8510478"
     id="rect113" /><rect
     x="-24.289686"
     y="-191.71132"
     transform="rotate(138.661)"
     width="2.8459444"
     height="2.8509443"
     id="rect115" /><rect
     x="-21.173492"
     y="-191.74025"
     transform="rotate(138.60009)"
     width="2.851954"
     height="2.847954"
     id="rect117"
     style="fill:#ffffff" /><rect
     x="-18.432276"
     y="-191.71342"
     transform="rotate(138.64052)"
     width="2.8540814"
     height="2.8490813"
     id="rect119" /><rect
     x="-15.490857"
     y="-191.7162"
     transform="rotate(138.61626)"
     width="2.8480048"
     height="2.8490047"
     id="rect121"
     style="fill:#ffffff" /><rect
     x="-12.557855"
     y="-191.71152"
     transform="rotate(138.60388)"
     width="2.8501678"
     height="2.8471675"
     id="rect123" /><polygon
     points="163.081,196.23 164.96,198.37 167.099,196.486 165.216,194.346 "
     id="polygon125"
     transform="translate(-33.049686,-59.07452)"
     style="fill:#ffffff" /><rect
     x="-7.1457744"
     y="-191.70149"
     transform="rotate(138.70143)"
     width="2.8510737"
     height="2.8510737"
     id="rect127" /><circle
     cx="194.75299"
     cy="192.84351"
     r="2.9319999"
     id="circle131"
     style="fill:#ffffff" /><circle
     cx="194.81702"
     cy="212.52048"
     r="10.172"
     id="circle135"
     style="fill:#ffffff;stroke:#000000;stroke-width:1.04700005" /><path
     d="m 192.326,215.5635 h 1.538 v -6.778 c -0.612,0 -1.198,0.04 -1.715,0.108 v -1.156 c 0.898,-0.178 1.674,-0.437 2.314,-0.803 h 1.129 v 8.629 h 1.538 v 1.389 h -4.805 z"
     id="path137"
     inkscape:connector-curvature="0" /><circle
     cx="262.237"
     cy="148.07549"
     r="10.172"
     id="circle207"
     style="fill:#ffffff;stroke:#000000;stroke-width:1.04700005" /><path
     d="m 258.671,150.7245 c 0.612,-1.007 1.553,-1.77 2.641,-2.613 1.334,-1.034 2.18,-1.688 2.18,-2.79 0,-0.815 -0.545,-1.319 -1.416,-1.319 -0.896,0 -1.553,0.599 -1.66,1.538 l -1.688,-0.313 c 0.328,-1.715 1.594,-2.735 3.418,-2.735 1.904,0 3.144,1.211 3.144,2.913 0,1.401 -0.871,2.354 -2.448,3.524 -1.186,0.885 -2.07,1.416 -2.369,2.015 h 4.766 v 1.565 h -6.562 v -1.784 h -0.006 z"
     id="path209"
     inkscape:connector-curvature="0" /><circle
     cx="223.196"
     cy="86.849495"
     r="10.172"
     id="circle211"
     style="fill:#ffffff;stroke:#000000;stroke-width:1.04700005" /><path
     d="m 220.623,88.627497 c 0.558,0.871 1.198,1.293 2.015,1.293 1.008,0 1.701,-0.667 1.701,-1.538 0,-1.076 -0.855,-1.606 -2.6,-1.606 -0.109,0 -0.219,0 -0.327,0 v -1.482 c 0.136,0.014 0.272,0.014 0.408,0.014 1.483,0 2.246,-0.503 2.246,-1.388 0,-0.708 -0.544,-1.211 -1.429,-1.211 -0.735,0 -1.361,0.326 -1.824,0.979 l -1.211,-0.953 c 0.666,-0.938 1.769,-1.47 3.13,-1.47 1.892,0 3.062,1.034 3.062,2.504 0,1.021 -0.49,1.756 -1.443,2.191 1.132,0.327 1.758,1.211 1.758,2.504 0,1.837 -1.279,2.979 -3.375,2.979 -1.62,0 -2.805,-0.652 -3.525,-1.945 z"
     id="path213"
     inkscape:connector-curvature="0" /><circle
     cx="287.41599"
     cy="88.187492"
     r="10.172"
     id="circle215"
     style="fill:#ffffff;stroke:#000000;stroke-width:1.04700005" /><path
     d="m 287.811,90.361497 h -4.409 v -1.77 l 4.219,-5.866 h 1.838 v 6.207 h 1.415 v 1.429 h -1.415 v 2.341 h -1.646 z m 0.027,-1.416 v -4.288 l -3.089,4.288 z"
     id="path217"
     inkscape:connector-curvature="0" /><circle
     cx="326.36084"
     cy="15.519535"
     r="10.172"
     id="circle219"
     style="fill:#ffffff;stroke:#000000;stroke-width:1.04700005" /><circle
     cx="354.99911"
     cy="34.706348"
     r="10.172"
     id="circle221"
     style="fill:#ffffff;stroke:#000000;stroke-width:1.04700005" /><path
     d="m 326.64789,14.204033 c 1.742,0 2.994,1.307 2.994,3.13 0,2.11 -1.293,3.362 -3.43,3.362 -2.232,0 -3.484,-1.606 -3.484,-4.573 0,-3.539 1.633,-5.607 4.11,-5.607 0.967,0 1.838,0.23 2.545,0.749 l -0.748,1.334 c -0.626,-0.396 -1.171,-0.612 -1.812,-0.612 -1.211,0 -2.205,1.102 -2.312,2.994 0.627,-0.519 1.321,-0.777 2.137,-0.777 z m -0.38,5.008 c 0.952,0 1.646,-0.708 1.646,-1.729 0,-1.13 -0.681,-1.824 -1.658,-1.824 -0.846,0 -1.554,0.476 -1.799,1.211 0.068,1.512 0.748,2.342 1.811,2.342 z"
     id="path223"
     inkscape:connector-curvature="0" /><circle
     cx="37.032001"
     cy="61.062496"
     r="10.172"
     id="circle225"
     style="fill:#ffffff;stroke:#000000;stroke-width:1.04700005" /><path
     d="m 33.643001,57.927497 c 0,-1.484 1.184,-2.45 3.212,-2.45 2.069,0 3.226,0.98 3.226,2.545 0,0.98 -0.504,1.742 -1.498,2.205 1.28,0.667 1.851,1.47 1.851,2.654 0,1.701 -1.307,2.775 -3.688,2.775 -2.218,0 -3.498,-1.062 -3.498,-2.734 0,-1.186 0.626,-2.028 1.919,-2.654 -1.061,-0.599 -1.524,-1.293 -1.524,-2.341 z m 1.402,4.927 c 0,0.79 0.667,1.348 1.742,1.348 1.198,0 1.892,-0.53 1.892,-1.36 0,-0.721 -0.64,-1.32 -1.919,-1.796 -1.13,0.378 -1.715,1.019 -1.715,1.808 z m 3.334,-4.859 c 0,-0.694 -0.544,-1.131 -1.47,-1.131 -0.98,0 -1.538,0.409 -1.538,1.062 0,0.762 0.531,1.293 1.552,1.538 0.993,-0.313 1.456,-0.763 1.456,-1.469 z"
     id="path227"
     inkscape:connector-curvature="0" /><circle
     cx="37.819"
     cy="95.164497"
     r="10.172"
     id="circle229"
     style="fill:#ffffff;stroke:#000000;stroke-width:1.04700005" /><path
     d="m 37.043001,96.057497 c -1.742,0 -2.995,-1.293 -2.995,-3.117 0,-2.109 1.293,-3.361 3.43,-3.361 2.191,0 3.484,1.619 3.484,4.572 0,3.539 -1.633,5.607 -4.111,5.607 -1.007,0 -1.864,-0.258 -2.531,-0.749 l 0.735,-1.333 c 0.626,0.395 1.17,0.612 1.81,0.612 1.211,0 2.205,-1.116 2.314,-3.009 -0.625,0.519 -1.32,0.778 -2.136,0.778 z m 0.381,-5.009 c -0.953,0 -1.647,0.722 -1.647,1.742 0,1.13 0.681,1.823 1.661,1.823 0.844,0 1.552,-0.489 1.797,-1.225 -0.069,-1.51 -0.749,-2.34 -1.811,-2.34 z"
     id="path231"
     inkscape:connector-curvature="0" /><circle
     cx="21.292"
     cy="123.4945"
     r="10.172"
     id="circle233"
     style="fill:#ffffff;stroke:#000000;stroke-width:1.04700005" /><path
     d="m 15.018001,126.5395 h 1.538 v -6.778 c -0.612,0 -1.198,0.041 -1.715,0.109 v -1.157 c 0.898,-0.177 1.674,-0.437 2.314,-0.804 h 1.13 v 8.63 h 1.538 v 1.388 h -4.804 z"
     id="path235"
     inkscape:connector-curvature="0" /><path
     d="m 24.913001,117.9095 c 2.328,0 3.552,1.729 3.552,5.091 0,3.36 -1.225,5.09 -3.552,5.09 -2.327,0 -3.552,-1.729 -3.552,-5.09 0,-3.362 1.224,-5.091 3.552,-5.091 z m 0,8.656 c 1.17,0 1.783,-1.197 1.783,-3.565 0,-2.368 -0.613,-3.58 -1.783,-3.58 -1.157,0 -1.796,1.211 -1.796,3.58 0,2.367 0.639,3.565 1.796,3.565 z"
     id="path237"
     inkscape:connector-curvature="0" /><circle
     cx="19.347"
     cy="353.01749"
     r="10.172"
     id="circle239"
     style="fill:#ffffff;stroke:#000000;stroke-width:1.04700005" /><path
     d="m 13.072001,356.0605 h 1.538 v -6.777 c -0.612,0 -1.198,0.041 -1.715,0.108 v -1.156 c 0.898,-0.178 1.674,-0.437 2.314,-0.804 h 1.13 v 8.629 h 1.538 v 1.39 h -4.804 z"
     id="path241"
     inkscape:connector-curvature="0" /><path
     d="m 20.639001,356.0605 h 1.538 v -6.777 c -0.612,0 -1.198,0.041 -1.715,0.108 v -1.156 c 0.898,-0.178 1.674,-0.437 2.314,-0.804 h 1.129 v 8.629 h 1.538 v 1.39 h -4.805 z"
     id="path243"
     inkscape:connector-curvature="0" /><circle
     cx="49.761997"
     cy="319.32449"
     r="10.172"
     id="circle245"
     style="fill:#ffffff;stroke:#000000;stroke-width:1.04700005" /><path
     d="m 43.488001,322.3655 h 1.538 v -6.776 c -0.612,0 -1.198,0.041 -1.715,0.108 v -1.156 c 0.898,-0.178 1.674,-0.438 2.314,-0.805 h 1.13 v 8.629 h 1.538 v 1.391 h -4.804 z"
     id="path247"
     inkscape:connector-curvature="0" /><path
     d="m 49.980001,321.9725 c 0.613,-1.007 1.552,-1.77 2.641,-2.612 1.334,-1.035 2.178,-1.688 2.178,-2.791 0,-0.814 -0.544,-1.318 -1.416,-1.318 -0.898,0 -1.552,0.599 -1.661,1.538 l -1.688,-0.316 c 0.327,-1.715 1.592,-2.734 3.416,-2.734 1.906,0 3.145,1.211 3.145,2.912 0,1.401 -0.871,2.354 -2.45,3.524 -1.184,0.886 -2.069,1.416 -2.368,2.015 h 4.764 v 1.565 h -6.561 z"
     id="path249"
     inkscape:connector-curvature="0" /><circle
     cx="60.063"
     cy="258.6705"
     r="10.172"
     id="circle251"
     style="fill:#ffffff;stroke:#000000;stroke-width:1.04700005" /><path
     d="m 53.788001,261.7145 h 1.538 v -6.778 c -0.612,0 -1.198,0.041 -1.715,0.109 v -1.157 c 0.898,-0.177 1.674,-0.437 2.314,-0.803 h 1.13 v 8.629 h 1.538 v 1.39 h -4.804 z"
     id="path253"
     inkscape:connector-curvature="0" /><path
     d="m 61.778001,260.6525 c 0.367,0.723 0.966,1.104 1.742,1.104 0.994,0 1.755,-0.815 1.755,-2.082 0,-1.062 -0.667,-1.756 -1.66,-1.756 -0.653,0 -1.184,0.312 -1.497,0.885 l -1.402,-0.327 0.409,-5.24 h 5.281 v 1.58 h -3.961 l -0.108,2.205 c 0.381,-0.367 0.912,-0.559 1.674,-0.559 1.797,0 3.062,1.307 3.062,3.293 0,2.149 -1.348,3.512 -3.525,3.512 -1.538,0 -2.667,-0.652 -3.307,-1.863 z"
     id="path255"
     inkscape:connector-curvature="0" /><circle
     cx="62.547001"
     cy="185.96251"
     r="10.172"
     id="circle257"
     style="fill:#ffffff;stroke:#000000;stroke-width:1.04700005" /><path
     d="m 56.272001,189.0065 h 1.538 v -6.777 c -0.612,0 -1.198,0.04 -1.715,0.108 v -1.157 c 0.898,-0.177 1.674,-0.436 2.314,-0.803 h 1.129 v 8.629 h 1.538 v 1.389 h -4.805 z"
     id="path259"
     inkscape:connector-curvature="0" /><path
     d="m 67.433001,182.1475 h -4.627 v -1.62 h 6.683 v 1.089 l -3.934,8.861 h -1.933 z"
     id="path261"
     inkscape:connector-curvature="0" /><circle
     cx="56.052998"
     cy="231.41551"
     r="10.172"
     id="circle263"
     style="fill:#ffffff;stroke:#000000;stroke-width:1.04700005" /><path
     d="m 49.778001,234.4585 h 1.538 v -6.778 c -0.612,0 -1.198,0.041 -1.715,0.109 v -1.157 c 0.898,-0.177 1.674,-0.438 2.314,-0.803 h 1.129 v 8.629 h 1.538 v 1.389 h -4.805 z"
     id="path265"
     inkscape:connector-curvature="0" /><path
     d="m 60.150001,229.5185 c 1.742,0 2.994,1.308 2.994,3.131 0,2.109 -1.293,3.361 -3.43,3.361 -2.232,0 -3.484,-1.605 -3.484,-4.572 0,-3.539 1.633,-5.606 4.11,-5.606 0.966,0 1.837,0.229 2.545,0.749 l -0.749,1.333 c -0.626,-0.396 -1.171,-0.612 -1.811,-0.612 -1.211,0 -2.205,1.103 -2.314,2.994 0.628,-0.521 1.322,-0.778 2.139,-0.778 z m -0.382,5.007 c 0.953,0 1.647,-0.707 1.647,-1.729 0,-1.13 -0.681,-1.824 -1.661,-1.824 -0.844,0 -1.551,0.477 -1.796,1.213 0.068,1.51 0.749,2.34 1.81,2.34 z"
     id="path267"
     inkscape:connector-curvature="0" /><circle
     cx="91.765999"
     cy="240.3445"
     r="10.172"
     id="circle269"
     style="fill:#ffffff;stroke:#000000;stroke-width:1.04700005" /><path
     d="m 85.491996,243.3865 h 1.538 v -6.778 c -0.612,0 -1.198,0.041 -1.715,0.109 v -1.156 c 0.898,-0.178 1.674,-0.437 2.314,-0.804 h 1.13 v 8.629 h 1.538 v 1.39 h -4.804 z"
     id="path271"
     inkscape:connector-curvature="0" /><path
     d="m 92.160996,237.2075 c 0,-1.482 1.184,-2.45 3.212,-2.45 2.069,0 3.226,0.979 3.226,2.545 0,0.979 -0.504,1.742 -1.498,2.205 1.28,0.667 1.851,1.47 1.851,2.653 0,1.7 -1.307,2.776 -3.688,2.776 -2.218,0 -3.498,-1.062 -3.498,-2.735 0,-1.185 0.626,-2.027 1.919,-2.653 -1.062,-0.599 -1.524,-1.293 -1.524,-2.341 z m 1.402,4.927 c 0,0.79 0.667,1.349 1.742,1.349 1.198,0 1.892,-0.531 1.892,-1.36 0,-0.724 -0.64,-1.32 -1.919,-1.798 -1.13,0.38 -1.715,1.02 -1.715,1.809 z m 3.334,-4.861 c 0,-0.691 -0.544,-1.129 -1.47,-1.129 -0.98,0 -1.538,0.408 -1.538,1.062 0,0.762 0.531,1.293 1.552,1.538 0.994,-0.312 1.456,-0.762 1.456,-1.471 z"
     id="path273"
     inkscape:connector-curvature="0" /><circle
     cx="126.634"
     cy="212.44649"
     r="10.172"
     id="circle275"
     style="fill:#ffffff;stroke:#000000;stroke-width:1.04700005" /><path
     d="m 120.359,215.4885 h 1.538 v -6.777 c -0.612,0 -1.198,0.04 -1.715,0.106 v -1.155 c 0.898,-0.179 1.674,-0.437 2.314,-0.804 h 1.129 v 8.629 h 1.538 v 1.39 h -4.805 z"
     id="path277"
     inkscape:connector-curvature="0" /><path
     d="m 129.642,213.3385 c -1.742,0 -2.995,-1.293 -2.995,-3.115 0,-2.111 1.293,-3.363 3.43,-3.363 2.191,0 3.484,1.621 3.484,4.574 0,3.539 -1.633,5.606 -4.11,5.606 -1.007,0 -1.865,-0.26 -2.532,-0.748 l 0.735,-1.334 c 0.626,0.396 1.17,0.611 1.81,0.611 1.211,0 2.205,-1.115 2.314,-3.008 -0.625,0.518 -1.32,0.777 -2.136,0.777 z m 0.381,-5.009 c -0.953,0 -1.647,0.722 -1.647,1.74 0,1.131 0.681,1.824 1.661,1.824 0.844,0 1.552,-0.49 1.797,-1.226 -0.069,-1.508 -0.75,-2.338 -1.811,-2.338 z"
     id="path279"
     inkscape:connector-curvature="0" /><circle
     cx="81.585999"
     cy="133.7155"
     r="10.172"
     id="circle281"
     style="fill:#ffffff;stroke:#000000;stroke-width:1.04700005" /><path
     d="m 74.236001,136.3635 c 0.613,-1.007 1.552,-1.77 2.641,-2.612 1.333995,-1.034 2.177995,-1.688 2.177995,-2.79 0,-0.816 -0.544,-1.32 -1.416,-1.32 -0.897995,0 -1.551995,0.599 -1.660995,1.538 l -1.688,-0.313 c 0.327,-1.715 1.592,-2.734 3.416995,-2.734 1.905,0 3.144,1.211 3.144,2.913 0,1.4 -0.871,2.354 -2.45,3.523 -1.183995,0.885 -2.068995,1.416 -2.367995,2.016 h 4.763995 v 1.564 h -6.560995 z"
     id="path283"
     inkscape:connector-curvature="0" /><path
     d="m 85.206996,128.1295 c 2.328,0 3.552,1.729 3.552,5.091 0,3.361 -1.225,5.09 -3.552,5.09 -2.327,0 -3.552,-1.729 -3.552,-5.09 0,-3.363 1.224,-5.091 3.552,-5.091 z m 0,8.655 c 1.17,0 1.783,-1.196 1.783,-3.564 0,-2.368 -0.613,-3.58 -1.783,-3.58 -1.157,0 -1.796,1.212 -1.796,3.58 0,2.368 0.639,3.564 1.796,3.564 z"
     id="path285"
     inkscape:connector-curvature="0" /><circle
     cx="117.705"
     cy="80.146492"
     r="10.172"
     id="circle287"
     style="fill:#ffffff;stroke:#000000;stroke-width:1.04700005" /><path
     d="m 110.355,82.796497 c 0.613,-1.007 1.552,-1.77 2.641,-2.613 1.334,-1.034 2.178,-1.688 2.178,-2.79 0,-0.815 -0.544,-1.32 -1.416,-1.32 -0.898,0 -1.552,0.6 -1.661,1.538 l -1.688,-0.312 c 0.327,-1.715 1.592,-2.736 3.417,-2.736 1.905,0 3.144,1.211 3.144,2.913 0,1.402 -0.871,2.355 -2.45,3.525 -1.184,0.885 -2.069,1.416 -2.368,2.014 h 4.764 v 1.565 h -6.561 z"
     id="path289"
     inkscape:connector-curvature="0" /><path
     d="m 118.998,83.191497 h 1.538 v -6.777 c -0.612,0 -1.198,0.041 -1.715,0.108 v -1.157 c 0.898,-0.177 1.674,-0.436 2.314,-0.803 h 1.129 v 8.629 h 1.538 v 1.389 h -4.805 z"
     id="path291"
     inkscape:connector-curvature="0" /><circle
     cx="69.605995"
     cy="361.69247"
     r="10.172"
     id="circle293"
     style="fill:#ffffff;stroke:#000000;stroke-width:1.04700005" /><path
     d="m 63.331001,364.7365 h 1.538 v -6.777 c -0.612,0 -1.198,0.04 -1.715,0.108 v -1.157 c 0.898,-0.177 1.674,-0.437 2.314,-0.804 h 1.129 v 8.63 h 1.538 v 1.389 h -4.805 z"
     id="path295"
     inkscape:connector-curvature="0" /><path
     d="m 70.818001,363.4715 c 0.558,0.871 1.198,1.293 2.015,1.293 1.007,0 1.701,-0.667 1.701,-1.538 0,-1.074 -0.857,-1.604 -2.6,-1.604 -0.109,0 -0.218,0 -0.327,0 v -1.482 c 0.136,0.014 0.272,0.014 0.408,0.014 1.484,0 2.246,-0.504 2.246,-1.389 0,-0.708 -0.544,-1.212 -1.429,-1.212 -0.735,0 -1.361,0.327 -1.824,0.979 l -1.211,-0.953 c 0.667,-0.938 1.769,-1.47 3.13,-1.47 1.892,0 3.062,1.033 3.062,2.504 0,1.021 -0.49,1.756 -1.443,2.19 1.13,0.327 1.756,1.212 1.756,2.505 0,1.837 -1.279,2.979 -3.375,2.979 -1.62,0 -2.804,-0.652 -3.525,-1.945 z"
     id="path297"
     inkscape:connector-curvature="0" /><path
     d="m 117.319,325.7615 c 0,5.617 -4.554,10.169 -10.172,10.169 -5.617,0 -10.172004,-4.552 -10.172004,-10.169 0,-5.618 4.555004,-10.172 10.172004,-10.172 5.618,0 10.172,4.554 10.172,10.172 z"
     id="path299"
     inkscape:connector-curvature="0"
     style="fill:#ffffff;stroke:#000000;stroke-width:1.04700005" /><path
     d="m 100.872,328.8045 h 1.538 v -6.778 c -0.612,0 -1.198,0.041 -1.715,0.109 v -1.156 c 0.898,-0.178 1.674,-0.437 2.314,-0.804 h 1.13 v 8.629 h 1.538 v 1.39 h -4.804 z"
     id="path301"
     inkscape:connector-curvature="0" /><path
     d="m 111.326,327.9345 h -4.41 v -1.77 l 4.22,-5.867 h 1.837 v 6.207 h 1.416 v 1.43 h -1.416 v 2.342 h -1.647 z m 0.027,-1.416 v -4.287 l -3.09,4.287 z"
     id="path303"
     inkscape:connector-curvature="0" /><circle
     cx="243.71399"
     cy="148.0865"
     r="2.9319999"
     id="circle317"
     style="fill:#ffffff" /><circle
     cx="373.974"
     cy="-7.7175035"
     r="2.9319999"
     id="circle337"
     style="fill:#ffffff" /><circle
     cx="392.16299"
     cy="-11.7155"
     r="10.172"
     id="circle339"
     style="fill:#ffffff;stroke:#000000;stroke-width:1.04700005" /><path
     d="m 393.266,-15.532503 h -4.628 v -1.62 h 6.684 v 1.089 l -3.934,8.8600001 h -1.935 z"
     id="path341"
     inkscape:connector-curvature="0" /><path
     d="m 352.86507,37.325397 c 0.367,0.722 0.966,1.103 1.742,1.103 0.993,0 1.756,-0.815 1.756,-2.082 0,-1.062 -0.667,-1.756 -1.661,-1.756 -0.653,0 -1.184,0.313 -1.497,0.885 l -1.399,-0.326 0.406,-5.24 h 5.281 v 1.579 h -3.961 l -0.108,2.205 c 0.383,-0.368 0.911,-0.559 1.676,-0.559 1.796,0 3.062,1.308 3.062,3.294 0,2.15 -1.348,3.512 -3.523,3.512 -1.538,0 -2.668,-0.653 -3.31,-1.864 z"
     id="path465"
     inkscape:connector-curvature="0" /></svg>