<svg id="510e0202-a7ad-4147-b5e3-65862e123c39" data-name="Capa 1" xmlns="http://www.w3.org/2000/svg" viewBox="0 0 691.97 510.23"><title>Mesa de trabajo 1</title><path d="M161.69,425.52c-9.75,8.68-21.7,44.2-23.19,49.24-2.46,8.33-8.39,9.78-10.82,9.07-5.91-1.72-82.78-41.9-86.7-43.8-4.21-2-5.39-1-8.71-3.4-2.89-2.1.41-11.35-.31-16.93-.35-2.74-6-46.79-3.41-58.08,1.37-6,13.76-57.53,22.82-63.6C72.2,284,128.63,254.49,154,248.76c8.4-1.89,7,15.92,12.72,18.42,6.19,2.71,8.47-.8,12.79-.38,6.32.61,3.92.62,9.54,4.55,3.28,2.28,4.92-4.71,7.58,1.64,3.86,9.23,15.64,55.07,18.91,54.67,7-.86.64-6,9.25-13.64,9.29-8.21,6.75-4.55,12.63-5.81,4-.85,62.69-47.81,71.25-51.9,4.71-2.26-2.45-10.05-2.17-13,.41-4.12,1-4.3,5.51-7,11.78-7.2,19.15-12.63,30.94-19.84,2.27-1.39,6.39-5.25,10.91-7.45,17.16-8.36,99.4-45.25,109.6-50.24,3.66-1.79,7.5-3.67,6.92-7.64s-20.84-45.76-23.7-52c-1.19-2.59-3.3-5.65-2.17-8.27,1.42-3.33,3.05-2.82,7.81-4.94,48.11-21.45,100.7-42.61,150.19-62.49,4.31-1.73,10.45-5,13-4.17,4.34,1.46,4.34,3.26,6.57,8.28,33,74.57,43.06,90.23,37.52,92.6-28.75,12.29-190.23,80.3-297.43,124.54-11.15,4.6-36.32,16.13-39.42,18.11-12.25,7.84-95,69.79-96.91,73.54-2.94,5.87-10.54,41-16.31,44.6Z" fill="none" stroke="#000" stroke-miterlimit="10" stroke-width="8.24"/><path d="M637.58,66.54c2.89,5.23,2.78,20.18,4.83,24.78,9.28,20.86,8.86,22.11,6.35,23.17-63,26.59-80.65,34-86.32,36.38-7.41,3.16-6.18,5.54-10.29,7.39-10.64,4.82-50.58,19.45-77.82,38" fill="none" stroke="#000" stroke-miterlimit="10" stroke-width="3.18"/><path d="M591.36,170.17l5.69,12.55,20.07-16.5Z" fill="red"/><path d="M605.47,128.92l3.51,8.25,8.24-3.51-3.51-8.24Z"/><path d="M613.71,125.42l3.51,8.24,8.24-3.51-3.5-8.24Z" fill="#fff"/><path d="M622,121.91l3.5,8.24,8.24-3.51-3.5-8.24Z"/><path d="M609,137.09l3.51,8.24,8.24-3.5-3.51-8.24Z" fill="#fff"/><path d="M625.43,130.08l3.51,8.24,8.24-3.51-3.51-8.24Z" fill="#fff"/><path d="M617.16,133.51l3.51,8.24,8.24-3.5L625.4,130Z"/><path d="M612.43,145.26l3.5,8.24,8.24-3.5-3.5-8.25Z"/><path d="M620.67,141.75l3.5,8.25,8.25-3.51-3.51-8.24Z" fill="#fff"/><path d="M628.91,138.25l3.51,8.24,8.24-3.51-3.51-8.24Z"/><path d="M615.9,153.43l3.51,8.24,8.24-3.51-3.51-8.24Z" fill="#fff"/><path d="M632.38,146.42l3.51,8.24,8.24-3.51-3.5-8.24Z" fill="#fff"/><path d="M624.11,149.85l3.51,8.24,8.24-3.51-3.51-8.24Z"/><path d="M619,161.58l3.51,8.24,8.24-3.51-3.51-8.24Z"/><path d="M627.27,158.07l3.51,8.24L639,162.8l-3.51-8.24Z" fill="#fff"/><path d="M635.51,154.56,639,162.8l8.24-3.5-3.51-8.24Z"/><circle cx="681.47" cy="106.72" r="10.5" fill="#fff" stroke="#000" stroke-miterlimit="10" stroke-width="0.61"/><g style="isolation:isolate"><path d="M682.18,110.37h-.86v-5.5a4,4,0,0,1-.82.59,5.78,5.78,0,0,1-.9.45v-.83a5.4,5.4,0,0,0,1.26-.83,3.16,3.16,0,0,0,.77-.94h.55Z"/></g><circle cx="660.4" cy="115.84" r="3.63" fill="#fff" stroke="#000" stroke-miterlimit="10" stroke-width="0.81"/><circle cx="638.32" cy="10.5" r="10.5" fill="#fff" stroke="#000" stroke-miterlimit="10" stroke-width="0.61"/><g style="isolation:isolate"><path d="M640.32,13.31v.83h-4.64a1.36,1.36,0,0,1,.1-.6,3.07,3.07,0,0,1,.57-.93,7.86,7.86,0,0,1,1.12-1.07A9,9,0,0,0,639,10.05a1.75,1.75,0,0,0,.4-1,1.17,1.17,0,0,0-.36-.87,1.51,1.51,0,0,0-2,0,1.41,1.41,0,0,0-.37,1l-.89-.09a2.19,2.19,0,0,1,.68-1.51,2.34,2.34,0,0,1,1.6-.52,2.2,2.2,0,0,1,1.6.56A1.84,1.84,0,0,1,640.31,9a2.15,2.15,0,0,1-.17.82,3.36,3.36,0,0,1-.57.86A16.85,16.85,0,0,1,638.24,12c-.52.43-.85.73-1,.88a3,3,0,0,0-.37.47Z"/></g><circle cx="617.25" cy="19.62" r="3.63" fill="#fff" stroke="#000" stroke-miterlimit="10" stroke-width="0.81"/><circle cx="426.06" cy="84.8" r="10.5" transform="translate(274.11 491.78) rotate(-80.78)" fill="#fff" stroke="#000" stroke-miterlimit="10" stroke-width="0.61"/><g style="isolation:isolate"><path d="M423.52,86.59l.87-.12a2,2,0,0,0,.5,1.06,1.23,1.23,0,0,0,.87.32,1.4,1.4,0,0,0,1-.42,1.42,1.42,0,0,0,.42-1,1.32,1.32,0,0,0-.39-1,1.33,1.33,0,0,0-1-.39,2.2,2.2,0,0,0-.61.1l.09-.76h.14a1.77,1.77,0,0,0,1-.29,1,1,0,0,0,.44-.88,1,1,0,0,0-.32-.79,1.25,1.25,0,0,0-1.66,0,1.57,1.57,0,0,0-.44.94l-.86-.15a2.25,2.25,0,0,1,.72-1.34,2.06,2.06,0,0,1,1.39-.48,2.21,2.21,0,0,1,1.06.25,1.77,1.77,0,0,1,1,1.58,1.46,1.46,0,0,1-.24.82,1.75,1.75,0,0,1-.73.6,1.56,1.56,0,0,1,1,.6,1.81,1.81,0,0,1,.34,1.13,2.07,2.07,0,0,1-.67,1.56,2.37,2.37,0,0,1-1.69.64,2.25,2.25,0,0,1-1.54-.55A2.2,2.2,0,0,1,423.52,86.59Z"/></g><circle cx="444.72" cy="90.88" r="3.63" fill="#fff" stroke="#000" stroke-miterlimit="10" stroke-width="0.81"/><circle cx="491.74" cy="144.13" r="10.5" fill="#fff" stroke="#000" stroke-miterlimit="10" stroke-width="0.61"/><g style="isolation:isolate"><path d="M492,147.77v-1.68h-3v-.79l3.2-4.55h.71v4.55h.95v.79h-.95v1.68Zm0-2.47v-3.17l-2.2,3.17Z"/></g><circle cx="470.67" cy="153.25" r="3.63" fill="#fff" stroke="#000" stroke-miterlimit="10" stroke-width="0.81"/><circle cx="298.82" cy="220.7" r="10.5" fill="#fff" stroke="#000" stroke-miterlimit="10" stroke-width="0.61"/><g style="isolation:isolate"><path d="M296.28,222.5l.91-.07a1.6,1.6,0,0,0,.47,1,1.27,1.27,0,0,0,.88.34,1.4,1.4,0,0,0,1.06-.47A1.82,1.82,0,0,0,300,222a1.57,1.57,0,0,0-.42-1.16,1.42,1.42,0,0,0-1.08-.43,1.51,1.51,0,0,0-.76.19,1.37,1.37,0,0,0-.52.49l-.81-.11.68-3.6h3.49v.82h-2.8l-.38,1.89a2.23,2.23,0,0,1,1.33-.44,2.11,2.11,0,0,1,1.55.63,2.26,2.26,0,0,1,.63,1.64,2.55,2.55,0,0,1-.55,1.65,2.49,2.49,0,0,1-3.41.32A2.09,2.09,0,0,1,296.28,222.5Z"/></g><circle cx="307.03" cy="240.77" r="3.63" fill="#fff" stroke="#000" stroke-miterlimit="10" stroke-width="0.81"/><circle cx="289.14" cy="248.69" r="10.5" fill="#fff" stroke="#000" stroke-miterlimit="10" stroke-width="0.61"/><g style="isolation:isolate"><path d="M291.08,247l-.85.06a1.66,1.66,0,0,0-.33-.73A1.12,1.12,0,0,0,289,246a1.16,1.16,0,0,0-.73.23,2,2,0,0,0-.64.86,4.59,4.59,0,0,0-.24,1.63,2,2,0,0,1,1.7-.94,2,2,0,0,1,1.47.64,2.25,2.25,0,0,1,.61,1.64,2.72,2.72,0,0,1-.29,1.23,2.07,2.07,0,0,1-.78.87,2.15,2.15,0,0,1-1.13.3,2.2,2.2,0,0,1-1.76-.79,4,4,0,0,1-.68-2.62,4.71,4.71,0,0,1,.75-3,2.19,2.19,0,0,1,1.77-.8,1.86,1.86,0,0,1,2,1.75Zm-3.52,3a2,2,0,0,0,.19.85,1.41,1.41,0,0,0,.53.62,1.36,1.36,0,0,0,.71.21,1.19,1.19,0,0,0,.94-.44,1.69,1.69,0,0,0,.4-1.2,1.61,1.61,0,0,0-.39-1.14,1.29,1.29,0,0,0-1-.42,1.32,1.32,0,0,0-1,.42A1.51,1.51,0,0,0,287.56,250.06Z"/></g><circle cx="309.89" cy="254.92" r="3.63" fill="#fff" stroke="#000" stroke-miterlimit="10" stroke-width="0.81"/><circle cx="197.02" cy="328.27" r="10.5" fill="#fff" stroke="#000" stroke-miterlimit="10" stroke-width="0.61"/><g style="isolation:isolate"><path d="M194.54,325.81V325h4.55v.67a9.61,9.61,0,0,0-1.33,1.9,11.48,11.48,0,0,0-1,2.44,9.24,9.24,0,0,0-.33,1.93h-.89a8.59,8.59,0,0,1,.33-2,10.62,10.62,0,0,1,.89-2.26,9.66,9.66,0,0,1,1.24-1.84Z"/></g><circle cx="219.77" cy="322.54" r="3.63" fill="#fff" stroke="#000" stroke-miterlimit="10" stroke-width="0.81"/><circle cx="210.01" cy="261.4" r="10.5" fill="#fff" stroke="#000" stroke-miterlimit="10" stroke-width="0.61"/><g style="isolation:isolate"><path d="M208.8,261.23a1.64,1.64,0,0,1-.79-.56,1.4,1.4,0,0,1-.26-.87,1.7,1.7,0,0,1,.55-1.29,2.33,2.33,0,0,1,2.95,0,1.75,1.75,0,0,1,.56,1.3,1.43,1.43,0,0,1-.26.85,1.61,1.61,0,0,1-.78.56,1.94,1.94,0,0,1,1,.68,1.9,1.9,0,0,1,.33,1.12,2,2,0,0,1-.63,1.52,2.6,2.6,0,0,1-3.36,0,2.05,2.05,0,0,1-.63-1.53,1.87,1.87,0,0,1,.34-1.15A1.71,1.71,0,0,1,208.8,261.23Zm-.45,1.78a1.54,1.54,0,0,0,.18.72,1.21,1.21,0,0,0,.52.53,1.46,1.46,0,0,0,.74.19,1.38,1.38,0,0,0,1-.4,1.34,1.34,0,0,0,.4-1,1.41,1.41,0,0,0-.41-1,1.43,1.43,0,0,0-1-.41,1.38,1.38,0,0,0-1.41,1.41Zm.28-3.24a1.1,1.1,0,0,0,.32.81,1.15,1.15,0,0,0,.84.32,1.13,1.13,0,0,0,.81-.31,1.11,1.11,0,0,0,0-1.57,1.09,1.09,0,0,0-.81-.32,1.12,1.12,0,0,0-.82.31A1,1,0,0,0,208.63,259.77Z"/></g><circle cx="195.49" cy="271.32" r="3.63" fill="#fff" stroke="#000" stroke-miterlimit="10" stroke-width="0.81"/><circle cx="180.07" cy="286.08" r="10.5" fill="#fff" stroke="#000" stroke-miterlimit="10" stroke-width="0.61"/><g style="isolation:isolate"><path d="M177.66,288.09l.82-.07a1.51,1.51,0,0,0,.41.85,1.13,1.13,0,0,0,.76.26,1.35,1.35,0,0,0,.7-.18,1.44,1.44,0,0,0,.49-.49,2.8,2.8,0,0,0,.32-.82,4.64,4.64,0,0,0,.13-1.05,1.36,1.36,0,0,0,0-.18,2,2,0,0,1-3.15.3,2.64,2.64,0,0,1,0-3.39,2.07,2.07,0,0,1,1.58-.65A2.23,2.23,0,0,1,181,283a2.25,2.25,0,0,1,.86,1,5.05,5.05,0,0,1,.3,2,6.26,6.26,0,0,1-.3,2.15,2.45,2.45,0,0,1-.87,1.21,2.21,2.21,0,0,1-1.35.42,2,2,0,0,1-1.35-.46A1.93,1.93,0,0,1,177.66,288.09Zm3.53-3.09a1.66,1.66,0,0,0-.4-1.18,1.24,1.24,0,0,0-.95-.44,1.32,1.32,0,0,0-1,.47,1.76,1.76,0,0,0-.43,1.22,1.52,1.52,0,0,0,.41,1.09,1.33,1.33,0,0,0,1,.42,1.27,1.27,0,0,0,1-.42A1.64,1.64,0,0,0,181.19,285Z"/></g><circle cx="187.56" cy="269.83" r="3.63" fill="#fff" stroke="#000" stroke-miterlimit="10" stroke-width="0.81"/><circle cx="181.67" cy="250.29" r="10.5" fill="#fff" stroke="#000" stroke-miterlimit="10" stroke-width="0.61"/><g style="isolation:isolate"><path d="M179.44,253.94h-.86v-5.5a4.47,4.47,0,0,1-.82.6,5,5,0,0,1-.91.44v-.83a5.24,5.24,0,0,0,1.27-.82,3.37,3.37,0,0,0,.76-.94h.56Z"/><path d="M181.65,250.48a6.2,6.2,0,0,1,.26-2,2.47,2.47,0,0,1,.76-1.17,2.2,2.2,0,0,1,2.26-.18,1.92,1.92,0,0,1,.71.65,3.6,3.6,0,0,1,.43,1,6.67,6.67,0,0,1,.16,1.66,6.39,6.39,0,0,1-.25,2,2.58,2.58,0,0,1-.76,1.18,2,2,0,0,1-1.28.41,1.93,1.93,0,0,1-1.6-.73A4.62,4.62,0,0,1,181.65,250.48Zm.89,0a4.41,4.41,0,0,0,.4,2.3,1.16,1.16,0,0,0,2,0,6.84,6.84,0,0,0,0-4.61,1.21,1.21,0,0,0-1-.57,1.1,1.1,0,0,0-1,.51A4.39,4.39,0,0,0,182.54,250.48Z"/></g><circle cx="179.01" cy="266.68" r="3.63" fill="#fff" stroke="#000" stroke-miterlimit="10" stroke-width="0.81"/><circle cx="149.02" cy="274.68" r="10.5" fill="#fff" stroke="#000" stroke-miterlimit="10" stroke-width="0.61"/><g style="isolation:isolate"><path d="M146.79,278.33h-.86v-5.5a4,4,0,0,1-.82.59,5.43,5.43,0,0,1-.91.45V273a5,5,0,0,0,1.27-.83,3.16,3.16,0,0,0,.77-.94h.55Z"/><path d="M151.52,278.33h-.86v-5.5a4,4,0,0,1-.82.59,5.43,5.43,0,0,1-.91.45V273a5,5,0,0,0,1.27-.83,3.16,3.16,0,0,0,.77-.94h.55Z"/></g><circle cx="166.31" cy="266.65" r="3.63" fill="#fff" stroke="#000" stroke-miterlimit="10" stroke-width="0.81"/><circle cx="145.88" cy="232.33" r="10.5" fill="#fff" stroke="#000" stroke-miterlimit="10" stroke-width="0.61"/><g style="isolation:isolate"><path d="M143.65,236h-.86v-5.49a4.47,4.47,0,0,1-.82.59,5.43,5.43,0,0,1-.91.45v-.84a5,5,0,0,0,1.27-.82,3.29,3.29,0,0,0,.77-.94h.55Z"/><path d="M150.39,235.14V236h-4.64a1.58,1.58,0,0,1,.1-.6,3.34,3.34,0,0,1,.57-.93,8.63,8.63,0,0,1,1.13-1.06,10.28,10.28,0,0,0,1.55-1.49,1.84,1.84,0,0,0,.4-1,1.12,1.12,0,0,0-.37-.86,1.29,1.29,0,0,0-.95-.36,1.35,1.35,0,0,0-1,.38,1.39,1.39,0,0,0-.38,1l-.89-.09a2.17,2.17,0,0,1,.69-1.51,2.31,2.31,0,0,1,1.59-.52,2.23,2.23,0,0,1,1.6.56,1.82,1.82,0,0,1,.59,1.39,2,2,0,0,1-.17.83,3,3,0,0,1-.57.86,14,14,0,0,1-1.33,1.23c-.52.44-.85.73-1,.89a2.89,2.89,0,0,0-.36.46Z"/></g><circle cx="156.58" cy="248.13" r="3.63" fill="#fff" stroke="#000" stroke-miterlimit="10" stroke-width="0.81"/><circle cx="35.05" cy="288.53" r="10.5" fill="#fff" stroke="#000" stroke-miterlimit="10" stroke-width="0.61"/><g style="isolation:isolate"><path d="M32.81,292.17H32v-5.49a4.47,4.47,0,0,1-.82.59,5.78,5.78,0,0,1-.9.45v-.84a5.07,5.07,0,0,0,1.26-.82,3.29,3.29,0,0,0,.77-.94h.55Z"/><path d="M35,290.32l.86-.12a2,2,0,0,0,.5,1.06,1.23,1.23,0,0,0,.87.32,1.4,1.4,0,0,0,1-.42,1.42,1.42,0,0,0,.42-1,1.3,1.3,0,0,0-.39-1,1.32,1.32,0,0,0-1-.39,2.2,2.2,0,0,0-.61.1l.09-.76H37a1.77,1.77,0,0,0,1-.29,1,1,0,0,0,.45-.88,1,1,0,0,0-.33-.79,1.25,1.25,0,0,0-1.66,0,1.51,1.51,0,0,0-.43.94l-.87-.15a2.25,2.25,0,0,1,.72-1.34,2.09,2.09,0,0,1,1.4-.48,2.27,2.27,0,0,1,1.06.25A1.78,1.78,0,0,1,39,286a1.73,1.73,0,0,1,.25.91,1.48,1.48,0,0,1-.24.82,1.75,1.75,0,0,1-.73.6,1.6,1.6,0,0,1,1,.59,1.84,1.84,0,0,1,.35,1.14,2.11,2.11,0,0,1-.67,1.56,2.41,2.41,0,0,1-1.7.64,2.25,2.25,0,0,1-1.54-.55A2.14,2.14,0,0,1,35,290.32Z"/></g><circle cx="50.59" cy="298.93" r="3.63" fill="#fff" stroke="#000" stroke-miterlimit="10" stroke-width="0.81"/><circle cx="10.5" cy="359.68" r="10.5" fill="#fff" stroke="#000" stroke-miterlimit="10" stroke-width="0.61"/><g style="isolation:isolate"><path d="M8.26,363.33H7.4v-5.5a4.47,4.47,0,0,1-.82.6,6.71,6.71,0,0,1-.91.44V358a5,5,0,0,0,1.27-.83,3.11,3.11,0,0,0,.76-.94h.56Z"/><path d="M13.23,363.33v-1.68h-3v-.8l3.2-4.55h.71v4.55h1v.8h-1v1.68Zm0-2.48v-3.16L11,360.85Z"/></g><circle cx="28.99" cy="360.92" r="3.63" fill="#fff" stroke="#000" stroke-miterlimit="10" stroke-width="0.81"/><circle cx="50.07" cy="423.91" r="10.5" fill="#fff" stroke="#000" stroke-miterlimit="10" stroke-width="0.61"/><g style="isolation:isolate"><path d="M47.84,427.55H47v-5.49a4.36,4.36,0,0,1-.81.59,5.84,5.84,0,0,1-.91.45v-.84a5.07,5.07,0,0,0,1.26-.82,3.13,3.13,0,0,0,.77-.94h.56Z"/><path d="M50.05,425.71l.9-.07a1.6,1.6,0,0,0,.47,1,1.27,1.27,0,0,0,.88.33,1.39,1.39,0,0,0,1.06-.46,1.82,1.82,0,0,0,.43-1.25,1.61,1.61,0,0,0-.42-1.17,1.59,1.59,0,0,0-1.83-.23,1.39,1.39,0,0,0-.53.49l-.81-.11.68-3.6h3.49v.82h-2.8l-.38,1.89a2.25,2.25,0,0,1,1.33-.44,2.11,2.11,0,0,1,1.55.63,2.24,2.24,0,0,1,.63,1.64,2.55,2.55,0,0,1-.55,1.65,2.49,2.49,0,0,1-3.41.32A2,2,0,0,1,50.05,425.71Z"/></g><circle cx="31.53" cy="435.42" r="3.63" fill="#fff" stroke="#000" stroke-miterlimit="10" stroke-width="0.81"/><circle cx="143.01" cy="499.43" r="10.5" fill="#fff" stroke="#000" stroke-miterlimit="10" stroke-width="0.61"/><g style="isolation:isolate"><path d="M140.78,503.08h-.87v-5.5a4,4,0,0,1-.81.59,5.84,5.84,0,0,1-.91.45v-.83a5.4,5.4,0,0,0,1.26-.83,3,3,0,0,0,.77-.94h.56Z"/><path d="M147.46,497.77l-.86.07a1.55,1.55,0,0,0-.32-.74,1.14,1.14,0,0,0-.87-.37,1.21,1.21,0,0,0-.72.23,2,2,0,0,0-.64.87,4.32,4.32,0,0,0-.24,1.62,2,2,0,0,1,.76-.7,2.07,2.07,0,0,1,.94-.23,2,2,0,0,1,1.47.63,2.31,2.31,0,0,1,.61,1.64,2.66,2.66,0,0,1-.29,1.23,2.07,2.07,0,0,1-.78.87,2.18,2.18,0,0,1-1.13.31,2.21,2.21,0,0,1-1.76-.8,4,4,0,0,1-.68-2.61,4.68,4.68,0,0,1,.75-3,2.17,2.17,0,0,1,1.77-.81,2,2,0,0,1,1.36.47A2,2,0,0,1,147.46,497.77Zm-3.52,3a1.92,1.92,0,0,0,.19.85,1.35,1.35,0,0,0,.53.62,1.24,1.24,0,0,0,.71.22,1.22,1.22,0,0,0,.94-.44,1.77,1.77,0,0,0,.39-1.2,1.66,1.66,0,0,0-.38-1.15,1.29,1.29,0,0,0-1-.42,1.32,1.32,0,0,0-1,.42A1.53,1.53,0,0,0,143.94,500.8Z"/></g><circle cx="133.34" cy="482.79" r="3.63" fill="#fff" stroke="#000" stroke-miterlimit="10" stroke-width="0.81"/><circle cx="175.68" cy="437.49" r="10.5" fill="#fff" stroke="#000" stroke-miterlimit="10" stroke-width="0.61"/><g style="isolation:isolate"><path d="M173.44,441.14h-.86v-5.5a4,4,0,0,1-.82.59,5.37,5.37,0,0,1-.9.45v-.84a5.07,5.07,0,0,0,1.26-.82,3.16,3.16,0,0,0,.77-.94h.55Z"/><path d="M175.71,435v-.83h4.55v.67a9.61,9.61,0,0,0-1.33,1.9,11.62,11.62,0,0,0-1,2.43,9.45,9.45,0,0,0-.33,1.94h-.89a8.59,8.59,0,0,1,.33-2,10.41,10.41,0,0,1,.89-2.26,9.66,9.66,0,0,1,1.24-1.84Z"/></g><circle cx="161.46" cy="426.01" r="3.63" fill="#fff" stroke="#000" stroke-miterlimit="10" stroke-width="0.81"/><circle cx="196.74" cy="369.19" r="10.5" fill="#fff" stroke="#000" stroke-miterlimit="10" stroke-width="0.61"/><g style="isolation:isolate"><path d="M194.5,372.84h-.86v-5.5a4,4,0,0,1-.82.59,5.78,5.78,0,0,1-.9.45v-.83a5.4,5.4,0,0,0,1.26-.83,3.16,3.16,0,0,0,.77-.94h.55Z"/><path d="M198,369a1.67,1.67,0,0,1-.8-.56,1.52,1.52,0,0,1-.25-.88,1.67,1.67,0,0,1,.55-1.28,2.29,2.29,0,0,1,2.94,0,1.7,1.7,0,0,1,.56,1.3,1.44,1.44,0,0,1-.25.85,1.61,1.61,0,0,1-.78.56,1.8,1.8,0,0,1,1.32,1.8,2,2,0,0,1-.64,1.51,2.57,2.57,0,0,1-3.35,0,2,2,0,0,1-.64-1.54,1.86,1.86,0,0,1,.35-1.14A1.71,1.71,0,0,1,198,369Zm-.45,1.78a1.61,1.61,0,0,0,.17.71,1.29,1.29,0,0,0,.52.54,1.61,1.61,0,0,0,.75.19,1.42,1.42,0,0,0,1-.4,1.36,1.36,0,0,0,.4-1,1.39,1.39,0,0,0-.41-1,1.45,1.45,0,0,0-1-.41,1.4,1.4,0,0,0-1,.4A1.37,1.37,0,0,0,197.59,370.81Zm.28-3.24a1.06,1.06,0,0,0,.32.81,1.22,1.22,0,0,0,1.65,0,1,1,0,0,0,.32-.77,1.06,1.06,0,0,0-.33-.79,1.11,1.11,0,0,0-.82-.33,1.14,1.14,0,0,0-.82.32A1,1,0,0,0,197.87,367.57Z"/></g><circle cx="212.45" cy="377.22" r="3.63" fill="#fff" stroke="#000" stroke-miterlimit="10" stroke-width="0.81"/><circle cx="242.24" cy="344.51" r="10.5" fill="#fff" stroke="#000" stroke-miterlimit="10" stroke-width="0.61"/><g style="isolation:isolate"><path d="M240,348.16h-.87v-5.5a4,4,0,0,1-.81.59,5.84,5.84,0,0,1-.91.45v-.83a5.4,5.4,0,0,0,1.26-.83,3.16,3.16,0,0,0,.77-.94H240Z"/><path d="M242.34,346.53l.83-.07a1.42,1.42,0,0,0,.41.84,1.07,1.07,0,0,0,.76.27,1.27,1.27,0,0,0,.7-.19,1.6,1.6,0,0,0,.49-.48,3.26,3.26,0,0,0,.32-.82A4.73,4.73,0,0,0,246,345s0-.09,0-.17a2,2,0,0,1-1.68.92,2,2,0,0,1-1.47-.63,2.3,2.3,0,0,1-.6-1.66,2.39,2.39,0,0,1,.63-1.73,2.1,2.1,0,0,1,1.57-.65,2.32,2.32,0,0,1,1.26.37,2.36,2.36,0,0,1,.86,1,5.17,5.17,0,0,1,.29,2,6.23,6.23,0,0,1-.29,2.14,2.44,2.44,0,0,1-.87,1.22,2.21,2.21,0,0,1-1.35.42,1.86,1.86,0,0,1-2-1.75Zm3.54-3.1a1.72,1.72,0,0,0-.4-1.18,1.23,1.23,0,0,0-.95-.43,1.29,1.29,0,0,0-1,.47,1.69,1.69,0,0,0-.43,1.21,1.5,1.5,0,0,0,.41,1.09,1.33,1.33,0,0,0,1,.42,1.29,1.29,0,0,0,1-.42A1.63,1.63,0,0,0,245.88,343.43Z"/></g><circle cx="226.37" cy="335.67" r="3.63" fill="#fff" stroke="#000" stroke-miterlimit="10" stroke-width="0.81"/><circle cx="338.81" cy="274.7" r="10.5" fill="#fff" stroke="#000" stroke-miterlimit="10" stroke-width="0.61"/><g style="isolation:isolate"><path d="M337.86,277.52v.83h-4.64a1.52,1.52,0,0,1,.1-.6,3.24,3.24,0,0,1,.57-.94,9.17,9.17,0,0,1,1.12-1.06,9.37,9.37,0,0,0,1.55-1.49,1.77,1.77,0,0,0,.41-1,1.16,1.16,0,0,0-.37-.86,1.31,1.31,0,0,0-1-.35,1.34,1.34,0,0,0-1,.37,1.41,1.41,0,0,0-.38,1l-.89-.09a2.18,2.18,0,0,1,.69-1.52,2.34,2.34,0,0,1,1.59-.52,2.23,2.23,0,0,1,1.6.56,1.83,1.83,0,0,1,.59,1.39,2.2,2.2,0,0,1-.17.83,3.54,3.54,0,0,1-.57.86,15.21,15.21,0,0,1-1.33,1.24c-.52.43-.85.73-1,.88a2.46,2.46,0,0,0-.36.47Z"/><path d="M338.79,274.88a6.42,6.42,0,0,1,.25-2,2.49,2.49,0,0,1,.76-1.17,2,2,0,0,1,1.28-.42,2.13,2.13,0,0,1,1,.23,1.84,1.84,0,0,1,.7.66,3.43,3.43,0,0,1,.44,1,7.25,7.25,0,0,1,.16,1.66,6.42,6.42,0,0,1-.26,2,2.47,2.47,0,0,1-.76,1.17,1.91,1.91,0,0,1-1.27.42,2,2,0,0,1-1.6-.73A4.68,4.68,0,0,1,338.79,274.88Zm.88,0a4.36,4.36,0,0,0,.41,2.3,1.18,1.18,0,0,0,1,.58,1.19,1.19,0,0,0,1-.58,6.81,6.81,0,0,0,0-4.6,1.21,1.21,0,0,0-1-.57,1.08,1.08,0,0,0-.95.5A4.42,4.42,0,0,0,339.67,274.88Z"/></g><circle cx="326.59" cy="260.82" r="3.63" fill="#fff" stroke="#000" stroke-miterlimit="10" stroke-width="0.81"/></svg>