<?xml version="1.0" encoding="UTF-8" standalone="no"?>
<!-- Created with Inkscape (http://www.inkscape.org/) -->

<svg
   xmlns:dc="http://purl.org/dc/elements/1.1/"
   xmlns:cc="http://creativecommons.org/ns#"
   xmlns:rdf="http://www.w3.org/1999/02/22-rdf-syntax-ns#"
   xmlns:svg="http://www.w3.org/2000/svg"
   xmlns="http://www.w3.org/2000/svg"
   xmlns:xlink="http://www.w3.org/1999/xlink"
   xmlns:sodipodi="http://sodipodi.sourceforge.net/DTD/sodipodi-0.dtd"
   xmlns:inkscape="http://www.inkscape.org/namespaces/inkscape"
   width="1000"
   height="1000"
   id="svg2"
   version="1.1"
   inkscape:version="0.92.0 r15299"
   sodipodi:docname="2014_Interlagos_circuit_map.svg"
   inkscape:export-filename="C:\Users\Simeon Stocco\Documents\Racing\Formula 1\Other\2014 Interlagos Circuit Map.png"
   inkscape:export-xdpi="120"
   inkscape:export-ydpi="120">
  <defs
     id="defs4">
    <pattern
       inkscape:collect="always"
       xlink:href="#pattern5622"
       id="pattern4239"
       patternTransform="matrix(-0.72551744,-0.68820394,0.68820394,-0.72551744,-230.22316,-149.21591)" />
    <pattern
       patternUnits="userSpaceOnUse"
       width="10.793857"
       height="10.773841"
       patternTransform="matrix(-0.5630234,-0.534067,0.534067,-0.5630234,1593.7246,910.57043)"
       id="pattern4256">
      <g
         id="g4248"
         transform="matrix(0.5878912,6.0987118e-3,-6.0987118e-3,0.5878912,-595.3809,-720.7077)">
        <rect
           style="opacity:1;fill:black;fill-opacity:1;stroke:none;stroke-width:0.5;stroke-linecap:round;stroke-linejoin:round;stroke-miterlimit:4;stroke-dasharray:none;stroke-dashoffset:0;stroke-opacity:1"
           id="rect4250"
           width="18.172573"
           height="18.095789"
           x="1025.5348"
           y="1215.2814" />
        <rect
           style="opacity:1;fill:white;fill-opacity:1;stroke:none;stroke-width:0.5;stroke-linecap:round;stroke-linejoin:round;stroke-miterlimit:4;stroke-dasharray:none;stroke-dashoffset:0;stroke-opacity:1"
           id="rect4252"
           width="9.0746527"
           height="9.0746527"
           x="1025.5348"
           y="1215.2814" />
        <rect
           style="opacity:1;fill:white;fill-opacity:1;stroke:none;stroke-width:0.5;stroke-linecap:round;stroke-linejoin:round;stroke-miterlimit:4;stroke-dasharray:none;stroke-dashoffset:0;stroke-opacity:1"
           id="rect4254"
           width="9.0746527"
           height="9.0746527"
           x="1034.6412"
           y="1224.3444" />
      </g>
    </pattern>
    <pattern
       inkscape:collect="always"
       xlink:href="#pattern4256"
       id="pattern5622"
       patternTransform="matrix(-0.5630234,-0.534067,0.534067,-0.5630234,390.30316,988.55513)" />
    <pattern
       patternUnits="userSpaceOnUse"
       width="10.793857"
       height="10.773841"
       patternTransform="matrix(-0.5630234,-0.534067,0.534067,-0.5630234,1593.7246,910.57043)"
       id="pattern3338">
      <g
         id="g3340"
         transform="matrix(0.5878912,6.0987118e-3,-6.0987118e-3,0.5878912,-595.3809,-720.7077)">
        <rect
           style="opacity:1;fill:black;fill-opacity:1;stroke:none;stroke-width:0.5;stroke-linecap:round;stroke-linejoin:round;stroke-miterlimit:4;stroke-dasharray:none;stroke-dashoffset:0;stroke-opacity:1"
           id="rect3342"
           width="18.172573"
           height="18.095789"
           x="1025.5348"
           y="1215.2814" />
        <rect
           style="opacity:1;fill:white;fill-opacity:1;stroke:none;stroke-width:0.5;stroke-linecap:round;stroke-linejoin:round;stroke-miterlimit:4;stroke-dasharray:none;stroke-dashoffset:0;stroke-opacity:1"
           id="rect3344"
           width="9.0746527"
           height="9.0746527"
           x="1025.5348"
           y="1215.2814" />
        <rect
           style="opacity:1;fill:white;fill-opacity:1;stroke:none;stroke-width:0.5;stroke-linecap:round;stroke-linejoin:round;stroke-miterlimit:4;stroke-dasharray:none;stroke-dashoffset:0;stroke-opacity:1"
           id="rect3346"
           width="9.0746527"
           height="9.0746527"
           x="1034.6412"
           y="1224.3444" />
      </g>
    </pattern>
  </defs>
  <sodipodi:namedview
     id="base"
     pagecolor="#ffffff"
     bordercolor="#666666"
     borderopacity="1.0"
     inkscape:pageopacity="0.0"
     inkscape:pageshadow="2"
     inkscape:zoom="1.5"
     inkscape:cx="852.8023"
     inkscape:cy="501.69922"
     inkscape:document-units="px"
     inkscape:current-layer="layer1"
     showgrid="false"
     inkscape:window-width="1360"
     inkscape:window-height="706"
     inkscape:window-x="-8"
     inkscape:window-y="-8"
     inkscape:window-maximized="1" />
  <metadata
     id="metadata7">
    <rdf:RDF>
      <cc:Work
         rdf:about="">
        <dc:format>image/svg+xml</dc:format>
        <dc:type
           rdf:resource="http://purl.org/dc/dcmitype/StillImage" />
        <dc:title />
      </cc:Work>
    </rdf:RDF>
  </metadata>
  <g
     inkscape:label="Layer 1"
     inkscape:groupmode="layer"
     id="layer1"
     transform="translate(0,-52.362183)">
    <path
       style="fill:none"
       d="m 289.75916,811.12558 c 17.81981,63.71558 34.16344,127.99898 53.58286,191.11202 3.20443,10.4144 7.76591,16.6058 13.65726,25.6817 5.1229,7.892 11.22957,13.0604 18.75403,17.96 5.2759,3.4356 13.4784,4.5213 19.64703,3.5723 5.44099,-0.8371 11.11249,-4.7886 15.18182,-8.9306 12.6009,-12.8258 21.5857,-26.9656 34.82886,-38.5 5.21316,-4.54046 10.27956,-3.06096 17.06695,-2.77816 7.50137,0.3125 15.13931,4.76236 22.32619,8.03736 16.33004,7.4416 35.548,19.5801 52.3292,24.4281 10.01023,2.8918 21.51454,0.1858 32.14971,-0.8931 9.90492,-1.0048 20.23298,-1.9475 29.47058,-5.3583 10.11177,-3.7336 19.8052,-9.6418 28.57752,-16.0748 13.55387,-9.93946 28.36254,-19.83426 38.40105,-33.04274 12.58536,-16.55964 22.36865,-37.6894 27.2604,-58.15641 17.00345,-71.14235 34.06766,-143.44038 50.43475,-216.00921 24.11773,-106.93375 52.71692,-212.28343 75.12435,-319.34115 1.70486,-8.14547 1.53062,-17.41121 -0.89305,-25.00536 -2.04158,-6.39696 -8.71646,-14.63698 -14.39711,-18.23087 -8.90578,-5.63429 -20.49971,-8.5846 -31.25666,-10.71656 -22.28582,-4.41704 -44.86878,-10.62808 -67.55589,-12.40356 -11.54637,-0.90363 -24.11966,1.72635 -35.1446,4.36616 -10.11052,2.4208 -19.67826,8.53847 -28.57752,14.28879 -10.45011,6.75232 -22.09442,13.19171 -29.47057,23.21921 -57.22096,77.78884 -108.59532,160.8874 -164.32078,240.22981 -6.78788,9.66466 -13.82,20.41907 -23.21924,26.79143 -8.16404,5.53494 -19.41468,7.39416 -29.47057,8.93048 -11.37725,1.73818 -23.7128,3.2931 -34.82885,0.89304 -15.08002,-3.25591 -30.45284,-10.03358 -43.75933,-17.86095 -6.93587,-4.07993 -13.53477,-10.61314 -16.96789,-17.86095 -7.28345,-15.37606 -11.31702,-33.05543 -15.18182,-50.0107 -5.36338,-23.52957 -10.44475,-47.66308 -12.50272,-71.44379 -0.62121,-7.17829 -0.6702,-12.43352 2.57082,-18.59147 1.88419,-3.57994 5.12716,-6.97545 8.65958,-9.57916 1.55306,-1.14479 3.16207,-2.1365 4.73611,-2.92355 3.77637,-1.88815 9.241,-1.96522 13.39574,-0.89304 5.07343,1.30932 9.66216,5.13447 14.28879,8.03746 10.55512,6.62287 20.10202,15.70639 31.25661,20.54012 6.70634,2.90606 17.34759,1.44602 24.22068,-0.16257 7.11802,-1.66587 14.02381,-7.33536 19.64704,-12.50265 5.39103,-4.95392 9.06013,-13.39129 11.18553,-20.07114 2.04216,-6.41822 1.33539,-14.87893 -0.89304,-21.43316 -2.83218,-8.32991 -8.86121,-11.50244 -14.92025,-18.16739 -11.80189,-12.98212 -26.61683,-23.38728 -39.2941,-35.72193 -9.35123,-9.0985 -17.85438,-20.20368 -23.94975,-31.4191 -8.78878,-16.1713 -12.88778,-35.46634 -17.86094,-53.58286 -3.36199,-12.24712 -6.1298,-22.70733 -4.30275,-34.03488 1.14981,-7.12881 9.66954,-14.65844 16.07486,-17.86107 4.31125,-2.15566 10.08045,0.17693 14.49615,2.7334 6.89623,3.99259 13.2959,12.10071 19.12391,18.17672 22.15413,23.09685 39.21239,45.2321 63.55962,64.92162 9.88626,7.99495 24.07534,10.81906 36.61495,13.39568 9.19122,1.88857 19.39236,1.93372 28.57753,0 13.4387,-2.82921 26.71432,-9.33068 37.39965,-17.44612 12.83159,-9.7455 22.28387,-25.20527 31.25668,-39.29415 24.96301,-39.19638 46.40761,-79.95884 68.02485,-120.87719 3.38809,-6.41319 6.19356,-15.30544 4.46523,-21.43314 -1.54618,-5.4819 -8.43993,-10.66627 -14.28877,-13.39575 -25.40782,-11.85698 -48.08884,-18.672437 -75.06088,-26.890447 -11.13133,-3.3916 -23.32571,-5.80467 -34.82886,-4.46525 -31.9585,3.72119 -64.2308,12.46627 -94.92461,22.488747 -27.65198,9.02923 -50.97607,23.63458 -75.69239,38.7709 -13.68479,8.38058 -26.58274,20.09561 -35.72186,33.04276 -8.72181,12.35582 -14.90505,27.29117 -18.80818,42.23483 -16.93459,64.83535 -29.64182,128.77669 -44.65244,194.57608 -5.39821,23.66344 -11.95348,46.60094 -12.40362,70.75821 -0.44289,23.76962 0.75618,48.2491 6.25139,71.44378 20.10551,84.86406 46.99275,168.49983 70.55076,252.73252 z"
       id="path2840"
       sodipodi:nodetypes="csssssssssssssssssssssssssssssssssssssssssssssssssssssssssssssssssss"
       inkscape:connector-curvature="0" />
    <path
       style="fill:none"
       d="m 252.63225,304.3705 c -3.73284,24.97038 -13.96109,75.19787 -18.97256,96.84619 -5.08897,21.98279 -11.40224,43.38939 -11.40224,65.71557 0,22.32625 1.38631,46.25796 6.35034,68.24159 11.70619,51.84163 28.06534,103.25534 42.39733,154.49722 29.12966,104.14846 57.4301,209.03748 90.19783,311.67353 3.25181,10.1856 5.6439,16.192 13.12489,22.0554 3.53329,2.7693 10.95868,1.6728 15.18179,-0.8931 19.29381,-11.7228 33.32591,-25.85146 53.15877,-36.28986 8.44698,-4.4458 20.46845,-5.25117 29.47058,-2.6791 11.83565,3.3816 27.70137,16.93786 39.6733,21.48726 17.79633,6.7625 37.40919,8.4922 56.262,9.2911 16.27373,0.6895 35.37583,-3.3659 49.43337,-10.8249 15.11535,-8.02036 26.9076,-23.44573 37.13809,-37.82367 11.79801,-16.58103 18.31562,-36.39603 25.4743,-55.68474 14.27446,-38.46173 26.5546,-82.35966 37.56217,-121.98694 11.31862,-40.74702 19.90378,-80.56487 30.16694,-115.97109"
       id="path2842"
       sodipodi:nodetypes="cssssssssssssssss"
       inkscape:connector-curvature="0" />
    <path
       style="fill:none;stroke:none"
       d="m 397.09276,394.04579 c 29.14106,30.76235 18.73636,74.12576 -21.03237,90.601"
       id="path6224"
       sodipodi:nodetypes="cc"
       inkscape:connector-curvature="0" />
    <path
       style="fill:none;stroke:none"
       d="m 334.80459,116.5804 c -51.55841,21.65669 -76.36915,58.32893 -84.93834,118.91379"
       id="path6292"
       sodipodi:nodetypes="cc"
       inkscape:connector-curvature="0" />
    <rect
       clip-path="none"
       id="rect4262"
       y="-249.70775"
       x="1320.5175"
       height="0"
       width="0"
       style="fill:url(#pattern4239);stroke:none"
       transform="matrix(0.89255153,0.45094541,0.45094541,-0.89255153,0,0)" />
    <path
       style="fill:none;stroke:#000000;stroke-width:12;stroke-linecap:butt;stroke-linejoin:miter;stroke-miterlimit:4;stroke-dasharray:none;stroke-opacity:1"
       d="m 222.2228,551.89246 95.86637,402.09942 c 5.26259,22.07326 10.80201,39.17756 21.97282,55.72832 4.45187,6.5959 10.10345,13.078 17.32144,16.4286 7.39298,3.4318 16.36684,4.5454 24.30357,2.6902 6.14916,-1.4373 12.77575,-6.5416 15.95476,-10.2151 11.09917,-12.8255 16.20963,-16.9964 25.93433,-26.32466 4.08925,-3.9225 9.94081,-6.7409 15.68743,-7.5662 8.12949,-1.1675 16.1691,1.531 23.22607,5.148 22.38774,11.47456 34.11879,21.40376 53.37598,25.91056 15.78549,3.6944 32.56694,2.5414 48.63456,0.3824 12.1795,-1.6365 24.28623,-4.9434 35.48161,-10.0111 12.58603,-5.6973 25.17868,-12.60926 34.77847,-22.54456 17.15365,-17.75323 27.12782,-36.76368 38.12646,-63.49168 4.06266,-9.87276 7.53483,-21.16812 10.03281,-30.41598 L 816.20143,396.28359 c 4.9418,-18.2952 -1.01535,-52.36818 -28.01924,-60.55319 -2.13561,-0.64731 -9.09544,-2.80698 -15.89286,-4.10714 l -47.86765,-9.15573 c -9.99185,-1.91116 -22.75889,-4.40117 -30.66044,-4.0892 -10.36306,0.40916 -16.70118,1.28624 -27.38271,4.21175 -11.2479,3.08063 -16.18949,5.75556 -25.60225,11.53843 -9.53493,5.85793 -23.02609,15.86498 -30.49981,26.81853 0,0 -100.83013,136.10368 -168.04441,228.12192 -5.80739,7.95048 -17.30624,20.63842 -26.9915,26.18701 -22.20368,12.72028 -73.91798,14.42051 -105.19125,-11.24692 -14.23472,-11.6831 -23.26024,-33.65849 -25.91818,-44.57647 -7.33749,-30.14016 -12.04546,-53.13897 -13.17628,-62.92661 -1.26917,-10.98523 -2.33595,-32.94324 0.43111,-43.64976 1.74746,-6.76142 5.81917,-13.05383 11.53318,-17.06888 5.28015,-3.71018 17.73777,-5.50903 26.57868,-0.27575 17.61143,10.42489 18.18663,14.03401 30.02846,21.88724 7.93802,5.26431 18.96125,5.78497 28.30357,3.92858 7.74307,-1.53861 14.89395,-6.35077 20.43148,-11.97734 4.37536,-4.44572 7.73276,-10.231 9.20495,-16.29242 1.77884,-7.32402 1.32809,-15.38035 -0.85325,-22.59474 -2.20649,-7.29755 -8.82743,-16.44516 -11.9448,-19.50453 -17.07819,-16.76047 -22.52682,-22.33031 -36.30267,-36.86312 -13.85469,-14.61598 -29.0077,-43.21147 -32.33757,-62.19374 l -6.0863,-34.69554 c -1.89157,-10.78304 -1.15577,-15.52243 0.0681,-20.18447 1.11228,-4.23705 3.82439,-8.30159 7.36059,-10.88714 3.80879,-2.78486 8.90649,-4.65823 13.57841,-3.99838 7.33481,1.03596 13.59162,5.85674 18.74539,11.93583 l 46.66631,55.04498 c 11.99105,14.14398 25.12825,24.63716 41.51884,29.48797 39.5011,11.69037 85.71748,-5.34643 109.5041,-43.52737 l 74.6954,-119.89683 c 4.93307,-7.91829 7.18592,-17.34823 3.68868,-25.5745 -2.8557,-6.71724 -10.47108,-12.80021 -15.93679,-15.21041 0,0 -20.06427,-9.07809 -29.20983,-12.63595 -15.33338,-5.965077 -28.61701,-11.067397 -44.97985,-16.092757 -7.30682,-2.24407 -15.08107,-2.881528 -22.7219,-3.089552 -8.11866,-0.221033 -16.27007,0.656222 -24.28572,1.964282 -19.79075,3.22963 -39.49882,6.33635 -58.64539,11.93891 -13.66163,3.997577 -26.79647,10.196877 -39.83675,15.382517 -12.35732,4.91406 -24.28272,10.90958 -35.98214,17.23215 -9.3041,5.02809 -14.74783,8.1364 -23.35479,14.28199 -10.91937,7.79672 -23.47195,19.28054 -31.90301,29.71792 -11.09249,13.73214 -23.92223,37.95064 -28.17838,55.08249 -18.17029,73.13902 -34.80949,141.74662 -41.38525,171.00688 -5.21063,23.1858 -12.29672,53.06052 -13.68873,76.65573 -1.35145,22.90781 -0.48547,46.48486 6.56382,76.0522 z"
       id="path5074"
       inkscape:connector-curvature="0"
       sodipodi:nodetypes="sssssssssssssssssssssssssssssssssssssssssssssssssssssssssssssss" />
    <path
       sodipodi:type="star"
       style="display:inline;fill:#ff0000;fill-opacity:1;stroke:#ffffff;stroke-width:0.867217;stroke-linecap:round;stroke-linejoin:miter;stroke-miterlimit:4;stroke-dasharray:none;stroke-dashoffset:0;stroke-opacity:1"
       id="path3463"
       sodipodi:sides="3"
       sodipodi:cx="1683.6964"
       sodipodi:cy="1391.4535"
       sodipodi:r1="14.134234"
       sodipodi:r2="7.0671172"
       sodipodi:arg1="0.52359878"
       sodipodi:arg2="1.5707963"
       inkscape:flatsided="true"
       inkscape:rounded="0"
       inkscape:randomized="0"
       d="m 1695.937,1398.5206 -24.4812,0 12.2406,-21.2013 z"
       transform="matrix(0.67327378,-0.186689,-0.56583863,-2.0406368,-121.91316,3870.1175)"
       clip-path="none" />
    <path
       style="fill:none;stroke:#000000;stroke-width:4;stroke-linecap:butt;stroke-linejoin:miter;stroke-miterlimit:4;stroke-dasharray:none;stroke-opacity:1"
       d="m 234.97484,387.41871 c -5.40506,25.703 -12.57051,57.31844 -5.85805,91.21616 l 12.90949,65.19252 c 3.81851,19.28334 -4.20843,30.69921 0.53572,50.35715 l 44.65125,183.50253 52.6542,206.95497 c 3.09495,12.1646 12.76461,18.55686 17.42514,19.44546 8.12276,1.5487 12.88608,-0.2075 20.32932,-4.54566 l 61.75672,-35.99414 c 11.70082,-6.81968 28.30549,-4.36034 42.54153,2.78536 19.29524,9.68513 36.16901,23.66368 56.35613,26.78008 25.92133,4.0015 44.50271,2.9963 70.35714,-9.6429 15.19638,-7.42887 28.20611,-20.42737 36.6789,-35.06739 34.7982,-60.12734 66.24137,-175.97246 66.24137,-175.97246"
       id="path5100"
       inkscape:connector-curvature="0"
       sodipodi:nodetypes="cssscssssssssc" />
    <g
       transform="matrix(-1.1105282,-0.81443102,0.81443102,-1.1105282,718.90989,1322.5571)"
       id="g4557">
      <rect
         width="3.6360872"
         height="3.794178"
         x="503.13138"
         y="-225.66817"
         transform="matrix(0.765001,0.644028,-0.644028,0.765001,0,0)"
         id="rect4559"
         style="fill:#000000;fill-opacity:1;fill-rule:nonzero;stroke:none" />
      <rect
         width="3.6360872"
         height="3.794178"
         x="503.13843"
         y="-210.80884"
         transform="matrix(0.765001,0.644028,-0.644028,0.765001,0,0)"
         id="rect4561"
         style="fill:#000000;fill-opacity:1;fill-rule:nonzero;stroke:none" />
      <rect
         width="3.6360872"
         height="3.794178"
         x="503.22794"
         y="-233.16934"
         transform="matrix(0.765001,0.644028,-0.644028,0.765001,0,0)"
         id="rect4563"
         style="fill:#000000;fill-opacity:1;fill-rule:nonzero;stroke:none" />
      <rect
         width="3.6360872"
         height="3.794178"
         x="503.10162"
         y="-221.97508"
         transform="matrix(0.765001,0.644028,-0.644028,0.765001,0,0)"
         id="rect4565"
         style="fill:#ffffff;fill-opacity:1;fill-rule:nonzero;stroke:none" />
      <rect
         width="3.6360872"
         height="3.794178"
         x="503.14481"
         y="-229.39552"
         transform="matrix(0.765001,0.644028,-0.644028,0.765001,0,0)"
         id="rect4567"
         style="fill:#ffffff;fill-opacity:1;fill-rule:nonzero;stroke:none" />
      <rect
         width="3.6360872"
         height="3.794178"
         x="503.1427"
         y="-214.46121"
         transform="matrix(0.765001,0.644028,-0.644028,0.765001,0,0)"
         id="rect4569"
         style="fill:#ffffff;fill-opacity:1;fill-rule:nonzero;stroke:none" />
      <rect
         width="3.6360872"
         height="3.794178"
         x="503.14166"
         y="-206.99403"
         transform="matrix(0.765001,0.644028,-0.644028,0.765001,0,0)"
         id="rect4571"
         style="fill:#ffffff;fill-opacity:1;fill-rule:nonzero;stroke:none" />
      <rect
         width="3.6360872"
         height="3.794178"
         x="506.87115"
         y="-233.22285"
         transform="matrix(0.765001,0.644028,-0.644028,0.765001,0,0)"
         id="rect4573"
         style="fill:#ffffff;fill-opacity:1;fill-rule:nonzero;stroke:none" />
      <rect
         width="3.6360872"
         height="3.794178"
         x="503.1145"
         y="-203.19873"
         transform="matrix(0.765001,0.644028,-0.644028,0.765001,0,0)"
         id="rect4575"
         style="fill:#000000;fill-opacity:1;fill-rule:nonzero;stroke:none" />
      <rect
         width="3.6360872"
         height="3.794178"
         x="503.12387"
         y="-218.21779"
         transform="matrix(0.765001,0.644028,-0.644028,0.765001,0,0)"
         id="rect4577"
         style="fill:#000000;fill-opacity:1;fill-rule:nonzero;stroke:none" />
      <rect
         width="3.6360872"
         height="3.794178"
         x="506.6814"
         y="-221.93484"
         transform="matrix(0.765001,0.644028,-0.644028,0.765001,0,0)"
         id="rect4579"
         style="fill:#000000;fill-opacity:1;fill-rule:nonzero;stroke:none" />
      <rect
         width="3.6360872"
         height="3.794178"
         x="506.68845"
         y="-207.07552"
         transform="matrix(0.765001,0.644028,-0.644028,0.765001,0,0)"
         id="rect4581"
         style="fill:#000000;fill-opacity:1;fill-rule:nonzero;stroke:none" />
      <rect
         width="3.6360872"
         height="3.794178"
         x="506.77795"
         y="-229.43602"
         transform="matrix(0.765001,0.644028,-0.644028,0.765001,0,0)"
         id="rect4583"
         style="fill:#000000;fill-opacity:1;fill-rule:nonzero;stroke:none" />
      <rect
         width="3.6360872"
         height="3.794178"
         x="506.65164"
         y="-218.24176"
         transform="matrix(0.765001,0.644028,-0.644028,0.765001,0,0)"
         id="rect4585"
         style="fill:#ffffff;fill-opacity:1;fill-rule:nonzero;stroke:none" />
      <rect
         width="3.6360872"
         height="3.794178"
         x="506.69482"
         y="-225.6622"
         transform="matrix(0.765001,0.644028,-0.644028,0.765001,0,0)"
         id="rect4587"
         style="fill:#ffffff;fill-opacity:1;fill-rule:nonzero;stroke:none" />
      <rect
         width="3.6360872"
         height="3.794178"
         x="506.69272"
         y="-210.72789"
         transform="matrix(0.765001,0.644028,-0.644028,0.765001,0,0)"
         id="rect4589"
         style="fill:#ffffff;fill-opacity:1;fill-rule:nonzero;stroke:none" />
      <rect
         width="3.6360872"
         height="3.794178"
         x="506.69168"
         y="-203.26071"
         transform="matrix(0.765001,0.644028,-0.644028,0.765001,0,0)"
         id="rect4591"
         style="fill:#ffffff;fill-opacity:1;fill-rule:nonzero;stroke:none" />
      <rect
         width="3.6360872"
         height="3.794178"
         x="506.67389"
         y="-214.48447"
         transform="matrix(0.765001,0.644028,-0.644028,0.765001,0,0)"
         id="rect4593"
         style="fill:#000000;fill-opacity:1;fill-rule:nonzero;stroke:none" />
      <rect
         width="3.6360872"
         height="3.794178"
         x="510.23587"
         y="-225.71014"
         transform="matrix(0.765001,0.644028,-0.644028,0.765001,0,0)"
         id="rect4595"
         style="fill:#000000;fill-opacity:1;fill-rule:nonzero;stroke:none" />
      <rect
         width="3.6360872"
         height="3.794178"
         x="510.24292"
         y="-210.85081"
         transform="matrix(0.765001,0.644028,-0.644028,0.765001,0,0)"
         id="rect4597"
         style="fill:#000000;fill-opacity:1;fill-rule:nonzero;stroke:none" />
      <rect
         width="3.6360872"
         height="3.794178"
         x="510.33243"
         y="-233.21132"
         transform="matrix(0.765001,0.644028,-0.644028,0.765001,0,0)"
         id="rect4599"
         style="fill:#000000;fill-opacity:1;fill-rule:nonzero;stroke:none" />
      <rect
         width="3.6360872"
         height="3.794178"
         x="510.20612"
         y="-222.01706"
         transform="matrix(0.765001,0.644028,-0.644028,0.765001,0,0)"
         id="rect4601"
         style="fill:#ffffff;fill-opacity:1;fill-rule:nonzero;stroke:none" />
      <rect
         width="3.6360872"
         height="3.794178"
         x="510.2493"
         y="-229.4375"
         transform="matrix(0.765001,0.644028,-0.644028,0.765001,0,0)"
         id="rect4603"
         style="fill:#ffffff;fill-opacity:1;fill-rule:nonzero;stroke:none" />
      <rect
         width="3.6360872"
         height="3.794178"
         x="510.24719"
         y="-214.50319"
         transform="matrix(0.765001,0.644028,-0.644028,0.765001,0,0)"
         id="rect4605"
         style="fill:#ffffff;fill-opacity:1;fill-rule:nonzero;stroke:none" />
      <rect
         width="3.6360872"
         height="3.794178"
         x="510.24615"
         y="-207.03601"
         transform="matrix(0.765001,0.644028,-0.644028,0.765001,0,0)"
         id="rect4607"
         style="fill:#ffffff;fill-opacity:1;fill-rule:nonzero;stroke:none" />
      <rect
         width="3.6360872"
         height="3.794178"
         x="510.22836"
         y="-218.25977"
         transform="matrix(0.765001,0.644028,-0.644028,0.765001,0,0)"
         id="rect4609"
         style="fill:#000000;fill-opacity:1;fill-rule:nonzero;stroke:none" />
      <rect
         width="3.6360872"
         height="3.794178"
         x="510.32791"
         y="-203.24594"
         transform="matrix(0.765001,0.644028,-0.644028,0.765001,0,0)"
         id="rect4611"
         style="fill:#000000;fill-opacity:1;fill-rule:nonzero;stroke:none" />
    </g>
    <path
       sodipodi:type="star"
       style="display:inline;fill:#ff0000;fill-opacity:1;stroke:#ffffff;stroke-width:0.867217;stroke-linecap:round;stroke-linejoin:miter;stroke-miterlimit:4;stroke-dasharray:none;stroke-dashoffset:0;stroke-opacity:1"
       id="path3463-9"
       sodipodi:sides="3"
       sodipodi:cx="1683.6964"
       sodipodi:cy="1391.4535"
       sodipodi:r1="14.134234"
       sodipodi:r2="7.0671172"
       sodipodi:arg1="0.52359878"
       sodipodi:arg2="1.5707963"
       inkscape:flatsided="true"
       inkscape:rounded="0"
       inkscape:randomized="0"
       d="m 1695.937,1398.5206 -24.4812,0 12.2406,-21.2013 z"
       transform="matrix(-0.67431778,-0.18288221,-0.55430094,2.043801,2736.1054,-2081.3848)"
       clip-path="none" />
    <path
       sodipodi:type="star"
       style="display:inline;fill:#ff0000;fill-opacity:1;stroke:#ffffff;stroke-width:0.867217;stroke-linecap:round;stroke-linejoin:miter;stroke-miterlimit:4;stroke-dasharray:none;stroke-dashoffset:0;stroke-opacity:1"
       id="path3463-4"
       sodipodi:sides="3"
       sodipodi:cx="1683.6964"
       sodipodi:cy="1391.4535"
       sodipodi:r1="14.134234"
       sodipodi:r2="7.0671172"
       sodipodi:arg1="0.52359878"
       sodipodi:arg2="1.5707963"
       inkscape:flatsided="true"
       inkscape:rounded="0"
       inkscape:randomized="0"
       d="m 1695.937,1398.5206 -24.4812,0 12.2406,-21.2013 z"
       transform="matrix(-0.59925933,-0.35921947,-1.0887645,1.816305,3109.5465,-1650.4635)"
       clip-path="none" />
    <text
       xml:space="preserve"
       style="font-style:normal;font-variant:normal;font-weight:normal;font-stretch:normal;font-size:40px;line-height:100%;font-family:Arial;-inkscape-font-specification:Arial;text-align:center;letter-spacing:-0.01px;word-spacing:0px;text-anchor:middle;fill:#000000;fill-opacity:1;stroke:none"
       x="307.85715"
       y="1031.6479"
       id="text3068"><tspan
         sodipodi:role="line"
         id="tspan3070"
         x="307.85214"
         y="1031.6479">1</tspan></text>
    <text
       xml:space="preserve"
       style="font-style:normal;font-variant:normal;font-weight:normal;font-stretch:normal;font-size:40px;line-height:100%;font-family:Arial;-inkscape-font-specification:Arial;text-align:center;letter-spacing:-0.01px;word-spacing:0px;text-anchor:middle;fill:#000000;fill-opacity:1;stroke:none"
       x="437.14285"
       y="949.505"
       id="text3072"><tspan
         sodipodi:role="line"
         id="tspan3074"
         x="437.13785"
         y="949.505">2</tspan></text>
    <text
       xml:space="preserve"
       style="font-style:normal;font-variant:normal;font-weight:normal;font-stretch:normal;font-size:40px;line-height:100%;font-family:Arial;-inkscape-font-specification:Arial;text-align:center;letter-spacing:-0.01px;word-spacing:0px;text-anchor:middle;fill:#000000;fill-opacity:1;stroke:none"
       x="580"
       y="975.2193"
       id="text3076"><tspan
         sodipodi:role="line"
         id="tspan3078"
         x="579.995"
         y="975.2193">3</tspan></text>
    <text
       xml:space="preserve"
       style="font-style:normal;font-variant:normal;font-weight:normal;font-stretch:normal;font-size:40px;line-height:100%;font-family:Arial;-inkscape-font-specification:Arial;text-align:center;letter-spacing:-0.01px;word-spacing:0px;text-anchor:middle;fill:#000000;fill-opacity:1;stroke:none"
       x="841.42859"
       y="350.93362"
       id="text3080"><tspan
         sodipodi:role="line"
         id="tspan3082"
         x="841.42358"
         y="350.93362">4</tspan></text>
    <text
       xml:space="preserve"
       style="font-style:normal;font-variant:normal;font-weight:normal;font-stretch:normal;font-size:40px;line-height:100%;font-family:Arial;-inkscape-font-specification:Arial;text-align:center;letter-spacing:-0.01px;word-spacing:0px;text-anchor:middle;fill:#000000;fill-opacity:1;stroke:none"
       x="670.00006"
       y="375.21933"
       id="text3084"><tspan
         sodipodi:role="line"
         id="tspan3086"
         x="669.99506"
         y="375.21933">5</tspan></text>
    <text
       xml:space="preserve"
       style="font-style:normal;font-variant:normal;font-weight:normal;font-stretch:normal;font-size:40px;line-height:100%;font-family:Arial;-inkscape-font-specification:Arial;text-align:center;letter-spacing:-0.01px;word-spacing:0px;text-anchor:middle;fill:#000000;fill-opacity:1;stroke:none"
       x="392.85715"
       y="600.93359"
       id="text3088"><tspan
         sodipodi:role="line"
         id="tspan3090"
         x="392.85214"
         y="600.93359">6</tspan></text>
    <text
       xml:space="preserve"
       style="font-style:normal;font-variant:normal;font-weight:normal;font-stretch:normal;font-size:40px;line-height:100%;font-family:Arial;-inkscape-font-specification:Arial;text-align:center;letter-spacing:-0.01px;word-spacing:0px;text-anchor:middle;fill:#000000;fill-opacity:1;stroke:none"
       x="296.42856"
       y="484.50504"
       id="text3092"><tspan
         sodipodi:role="line"
         id="tspan3094"
         x="296.42355"
         y="484.50504">8</tspan></text>
    <text
       xml:space="preserve"
       style="font-style:normal;font-variant:normal;font-weight:normal;font-stretch:normal;font-size:40px;line-height:100%;font-family:Arial;-inkscape-font-specification:Arial;text-align:center;letter-spacing:-0.01px;word-spacing:0px;text-anchor:middle;fill:#000000;fill-opacity:1;stroke:none"
       x="418.57144"
       y="472.36218"
       id="text3096"><tspan
         sodipodi:role="line"
         id="tspan3098"
         x="418.56644"
         y="472.36218">9</tspan></text>
    <text
       xml:space="preserve"
       style="font-style:normal;font-variant:normal;font-weight:normal;font-stretch:normal;font-size:40px;line-height:100%;font-family:Arial;-inkscape-font-specification:Arial;text-align:center;letter-spacing:-0.01px;word-spacing:0px;text-anchor:middle;fill:#000000;fill-opacity:1;stroke:none"
       x="319.28571"
       y="581.64789"
       id="text3100"><tspan
         sodipodi:role="line"
         id="tspan3102"
         x="319.2807"
         y="581.64789">7</tspan></text>
    <text
       xml:space="preserve"
       style="font-style:normal;font-variant:normal;font-weight:normal;font-stretch:normal;font-size:40px;line-height:100%;font-family:Arial;-inkscape-font-specification:Arial;text-align:center;letter-spacing:-0.01px;word-spacing:0px;text-anchor:middle;fill:#000000;fill-opacity:1;stroke:none"
       x="370.71429"
       y="217.36218"
       id="text3104"><tspan
         sodipodi:role="line"
         id="tspan3106"
         x="370.70929"
         y="217.36218">10</tspan></text>
    <text
       xml:space="preserve"
       style="font-style:normal;font-variant:normal;font-weight:normal;font-stretch:normal;font-size:40px;line-height:100%;font-family:Arial;-inkscape-font-specification:Arial;text-align:center;letter-spacing:-0.01px;word-spacing:0px;text-anchor:middle;fill:#000000;fill-opacity:1;stroke:none"
       x="478.57141"
       y="365.93362"
       id="text3108"><tspan
         sodipodi:role="line"
         id="tspan3110"
         x="478.56641"
         y="365.93362">11</tspan></text>
    <text
       xml:space="preserve"
       style="font-style:normal;font-variant:normal;font-weight:normal;font-stretch:normal;font-size:40px;line-height:100%;font-family:Arial;-inkscape-font-specification:Arial;text-align:center;letter-spacing:-0.01px;word-spacing:0px;text-anchor:middle;fill:#000000;fill-opacity:1;stroke:none"
       x="663.57141"
       y="139.50504"
       id="text3112"><tspan
         sodipodi:role="line"
         id="tspan3114"
         x="663.56641"
         y="139.50504">12</tspan></text>
    <text
       xml:space="preserve"
       style="font-style:normal;font-variant:normal;font-weight:normal;font-stretch:normal;font-size:40px;line-height:100%;font-family:Arial;-inkscape-font-specification:Arial;text-align:center;letter-spacing:-0.01px;word-spacing:0px;text-anchor:middle;fill:#000000;fill-opacity:1;stroke:none"
       x="505.71426"
       y="131.6479"
       id="text3116"><tspan
         sodipodi:role="line"
         id="tspan3118"
         x="505.70926"
         y="131.6479">13</tspan></text>
    <text
       xml:space="preserve"
       style="font-style:normal;font-variant:normal;font-weight:normal;font-stretch:normal;font-size:40px;line-height:100%;font-family:Arial;-inkscape-font-specification:Arial;text-align:center;letter-spacing:-0.01px;word-spacing:0px;text-anchor:middle;fill:#000000;fill-opacity:1;stroke:none"
       x="269.28574"
       y="155.21931"
       id="text3120"><tspan
         sodipodi:role="line"
         id="tspan3122"
         x="269.28073"
         y="155.21931">14</tspan></text>
    <text
       xml:space="preserve"
       style="font-style:normal;font-variant:normal;font-weight:normal;font-stretch:normal;font-size:40px;line-height:100%;font-family:Arial;-inkscape-font-specification:Arial;text-align:center;letter-spacing:-0.01px;word-spacing:0px;text-anchor:middle;fill:#000000;fill-opacity:1;stroke:none"
       x="174.28572"
       y="527.36218"
       id="text3124"><tspan
         sodipodi:role="line"
         id="tspan3126"
         x="174.28072"
         y="527.36218">15</tspan></text>
  </g>
</svg>
