<?xml version="1.0" encoding="UTF-8" standalone="no"?>
<svg xmlns="http://www.w3.org/2000/svg" xmlns:xlink="http://www.w3.org/1999/xlink" clip-rule="evenodd" stroke-miterlimit="10" viewBox="0 0 577.29 481.89">
    <desc>SVG generated by Lineform</desc>
    <defs/>
    <g>
        <path d="M 228.06 210.56 C 250.77 204.27 275.26 205.70 280.56 227.65 C 283.47 239.74 276.32 254.72 259.34 260.94 " stroke="#B3B3B3" stroke-width="5.00" fill="none"/>
        <path d="M 363.19 211.53 C 369.91 208.29 369.11 210.22 373.19 213.55 C 376.38 216.15 381.78 216.90 383.94 214.25 C 388.97 208.08 408.32 186.47 424.81 182.44 " stroke="#B3B3B3" stroke-width="5.00" fill="none"/>
        <path d="M 355.98 232.95 C 366.23 231.55 374.79 230.12 374.24 218.75 C 373.89 211.60 368.77 208.65 362.13 212.02 " stroke="#B3B3B3" stroke-width="5.00" fill="none"/>
        <path d="M 399.57 229.06 C 386.65 229.64 385.69 221.48 385.73 215.61 C 385.77 210.77 412.06 183.99 423.68 182.83 " stroke="#B3B3B3" stroke-width="5.00" fill="none"/>
        <path d="M 120.79 211.69 L 111.17 207.30 L 123.86 191.91 Z M 120.79 211.69 " fill-rule="non-zero" fill="#FF0000"/>
        <path d="M 228.73 37.93 C 214.58 36.85 210.42 50.55 205.64 62.28 C 199.04 78.50 190.85 99.29 186.61 109.76 C 171.37 147.33 160.88 174.80 156.41 184.38 C 152.93 191.85 148.51 199.40 145.28 208.53 C 143.79 212.75 142.02 218.56 141.70 223.93 C 141.52 226.88 139.42 230.62 136.92 232.19 C 125.97 239.02 118.52 264.01 111.45 279.69 " stroke="#000000" stroke-width="3.00" fill="none"/>
        <path d="M 205.25 44.99 C 208.69 36.47 223.02 33.88 229.82 36.38 C 237.56 39.23 243.80 50.70 241.84 58.71 C 240.12 65.74 227.10 94.97 222.31 106.54 C 206.33 145.12 220.66 161.60 207.72 178.74 C 203.07 184.90 179.61 190.16 163.88 196.03 C 156.56 198.76 149.99 207.83 153.13 216.97 C 158.01 231.19 172.42 228.65 179.83 226.29 C 215.76 214.89 232.63 207.33 250.64 206.27 C 277.15 204.72 291.19 211.59 319.33 217.39 C 338.15 221.28 358.02 216.15 370.95 207.11 C 372.60 205.96 392.22 193.36 397.57 190.84 C 406.53 186.63 418.72 182.06 430.81 182.45 C 449.84 183.07 466.07 183.64 484.26 184.54 C 495.05 185.08 512.83 188.12 524.14 204.45 C 532.47 216.47 539.15 236.78 526.24 256.97 C 509.65 282.92 501.77 286.16 476.64 337.96 C 471.00 349.58 455.52 352.40 426.30 345.17 C 407.60 340.54 380.08 323.06 380.34 309.79 C 379.94 308.59 380.56 297.65 402.22 289.74 C 410.73 286.63 427.59 287.43 452.43 277.41 C 470.75 270.03 472.23 258.51 470.69 250.42 C 468.06 236.59 457.15 232.63 439.28 230.94 C 414.33 228.58 404.77 228.37 380.50 230.28 C 307.93 235.98 261.78 258.64 227.06 277.03 C 220.85 280.33 218.71 274.72 215.20 268.62 C 209.50 258.74 203.26 256.73 194.71 259.41 C 185.81 262.20 182.46 269.16 184.64 282.69 C 190.95 321.81 195.48 344.88 201.65 376.75 C 207.82 408.57 189.99 417.15 177.28 417.79 C 123.09 420.51 111.84 413.13 94.08 393.13 C 82.93 380.57 76.46 358.58 89.80 326.14 C 128.61 231.78 158.63 159.62 196.60 65.30 Z M 201.87 59.51 " stroke="#000000" stroke-width="8.00" fill="none"/>
        <g>
            <path d="M 154.44 199.02 L 148.09 196.38 L 150.73 190.03 L 157.08 192.67 Z M 154.44 199.02 " fill-rule="non-zero" fill="#000000"/>
            <path d="M 157.08 192.67 L 150.73 190.03 L 153.37 183.68 L 159.72 186.32 Z M 157.08 192.67 " fill-rule="non-zero" fill="#FFFFFF"/>
            <path d="M 159.72 186.32 L 153.37 183.68 L 156.01 177.33 L 162.36 179.97 Z M 159.72 186.32 " fill-rule="non-zero" fill="#000000"/>
            <path d="M 148.15 196.40 L 141.80 193.77 L 144.43 187.41 L 150.79 190.05 Z M 148.15 196.40 " fill-rule="non-zero" fill="#FFFFFF"/>
            <path d="M 153.42 183.70 L 147.07 181.06 L 149.71 174.71 L 156.06 177.35 Z M 153.42 183.70 " fill-rule="non-zero" fill="#FFFFFF"/>
            <path d="M 150.84 190.08 L 144.49 187.44 L 147.13 181.09 L 153.48 183.72 Z M 150.84 190.08 " fill-rule="non-zero" fill="#000000"/>
            <path d="M 141.85 193.79 L 135.50 191.15 L 138.14 184.80 L 144.49 187.44 Z M 141.85 193.79 " fill-rule="non-zero" fill="#000000"/>
            <path d="M 144.49 187.44 L 138.14 184.80 L 140.78 178.45 L 147.13 181.09 Z M 144.49 187.44 " fill-rule="non-zero" fill="#FFFFFF"/>
            <path d="M 147.13 181.09 L 140.78 178.45 L 143.41 172.10 L 149.77 174.74 Z M 147.13 181.09 " fill-rule="non-zero" fill="#000000"/>
            <path d="M 135.56 191.17 L 129.20 188.54 L 131.84 182.18 L 138.19 184.82 Z M 135.56 191.17 " fill-rule="non-zero" fill="#FFFFFF"/>
            <path d="M 140.83 178.47 L 134.48 175.83 L 137.12 169.48 L 143.47 172.12 Z M 140.83 178.47 " fill-rule="non-zero" fill="#FFFFFF"/>
            <path d="M 138.25 184.85 L 131.90 182.21 L 134.54 175.86 L 140.89 178.49 Z M 138.25 184.85 " fill-rule="non-zero" fill="#000000"/>
            <path d="M 129.28 188.83 L 122.93 186.19 L 125.57 179.84 L 131.92 182.48 Z M 129.28 188.83 " fill-rule="non-zero" fill="#000000"/>
            <path d="M 131.92 182.48 L 125.57 179.84 L 128.20 173.49 L 134.56 176.13 Z M 131.92 182.48 " fill-rule="non-zero" fill="#FFFFFF"/>
            <path d="M 134.56 176.13 L 128.20 173.49 L 130.84 167.14 L 137.19 169.77 Z M 134.56 176.13 " fill-rule="non-zero" fill="#000000"/>
        </g>
        <ellipse cx="243.23" cy="20.55" rx="10.38" ry="10.38" fill="#FFFFFF" stroke="#000000" stroke-width="0.60"/>
        <text xml:space="preserve" font-family="Liberation Sans" font-size="10.00" transform="matrix(0.970512, 0, 0, 0.970512, 0, 0)">
            <tspan x="247.62" y="24.89">1</tspan>
        </text>
        <text xml:space="preserve" font-family="Liberation Sans" font-size="7.00" transform="matrix(1.8681, 0, 0, 1.8681, 0, 0)" opacity="0.49">
            <tspan x="77.04" y="12.88">Tarzanbocht</tspan>
        </text>
        <text xml:space="preserve" font-family="Liberation Sans" font-size="7.00" transform="matrix(1.8681, 0, 0, 1.8681, 0, 0)" opacity="0.49">
            <tspan x="117.17" y="85.74">Gerlachbocht</tspan>
        </text>
        <text xml:space="preserve" font-family="Liberation Sans" font-size="7.00" transform="matrix(1.8681, 0, 0, 1.8681, 0, 0)" opacity="0.49">
            <tspan x="75.98" y="131.96">Hugenholtzbocht</tspan>
        </text>
        <text xml:space="preserve" font-family="Liberation Sans" font-size="7.00" transform="matrix(1.8681, 0, 0, 1.8681, 0, 0)" opacity="0.49">
            <tspan x="70.97" y="159.10">Audi S</tspan>
        </text>
        <text xml:space="preserve" font-family="Liberation Sans" font-size="7.00" transform="matrix(1.8681, 0, 0, 1.8681, 0, 0)" opacity="0.49">
            <tspan x="30.40" y="227.94">Arie</tspan>
            <tspan x="30.40" y="234.94">Luyendijkbocht</tspan>
        </text>
        <text xml:space="preserve" font-family="Liberation Sans" font-size="7.00" transform="matrix(1.8681, 0, 0, 1.8681, 0, 0)" opacity="0.49">
            <tspan x="114.36" y="217.01">Kumhobocht</tspan>
        </text>
        <text xml:space="preserve" font-family="Liberation Sans" font-size="7.00" transform="matrix(1.8681, 0, 0, 1.8681, 0, 0)" opacity="0.49">
            <tspan x="134.92" y="94.35">Hunserug</tspan>
        </text>
        <text xml:space="preserve" font-family="Liberation Sans" font-size="7.00" transform="matrix(1.8681, 0, 0, 1.8681, 0, 0)" opacity="0.49">
            <tspan x="169.12" y="80.81">Rob </tspan>
            <tspan x="169.12" y="87.81">Slotemaker-</tspan>
            <tspan x="169.12" y="94.81">bocht</tspan>
        </text>
        <text xml:space="preserve" font-family="Liberation Sans" font-size="7.00" transform="matrix(1.8681, 0, 0, 1.8681, 0, 0)" opacity="0.49">
            <tspan x="270.92" y="93.21">Scheivlak</tspan>
        </text>
        <text xml:space="preserve" font-family="Liberation Sans" font-size="7.00" transform="matrix(1.8681, 0, 0, 1.8681, 0, 0)" opacity="0.49">
            <tspan x="228.72" y="211.87">Marlborobocht</tspan>
        </text>
        <text xml:space="preserve" font-family="Liberation Sans" font-size="7.00" transform="matrix(1.8681, 0, 0, 1.8681, 0, 0)" opacity="0.49">
            <tspan x="157.91" y="180.13">Renaultbocht</tspan>
        </text>
        <text xml:space="preserve" font-family="Liberation Sans" font-size="7.00" transform="matrix(1.8681, 0, 0, 1.8681, 0, 0)" opacity="0.49">
            <tspan x="183.52" y="138.26">Vodafoneboch</tspan>
        </text>
        <ellipse cx="237.28" cy="126.58" rx="10.38" ry="10.38" fill="#FFFFFF" stroke="#000000" stroke-width="0.60"/>
        <text xml:space="preserve" font-family="Liberation Sans" font-size="10.00" transform="matrix(0.970512, 0, 0, 0.970512, 0, 0)">
            <tspan x="241.49" y="134.14">2</tspan>
        </text>
        <ellipse cx="172.69" cy="211.85" rx="10.38" ry="10.38" fill="#FFFFFF" stroke="#000000" stroke-width="0.60"/>
        <text xml:space="preserve" font-family="Liberation Sans" font-size="10.00" transform="matrix(0.970512, 0, 0, 0.970512, 0, 0)">
            <tspan x="174.93" y="222.00">4</tspan>
        </text>
        <ellipse cx="229.97" cy="175.03" rx="10.38" ry="10.38" fill="#FFFFFF" stroke="#000000" stroke-width="0.60"/>
        <text xml:space="preserve" font-family="Liberation Sans" font-size="10.00" transform="matrix(0.970512, 0, 0, 0.970512, 0, 0)">
            <tspan x="233.96" y="184.06">3</tspan>
        </text>
        <ellipse cx="258.02" cy="188.55" rx="10.38" ry="10.38" fill="#FFFFFF" stroke="#000000" stroke-width="0.60"/>
        <text xml:space="preserve" font-family="Liberation Sans" font-size="10.00" transform="matrix(0.970512, 0, 0, 0.970512, 0, 0)">
            <tspan x="262.86" y="198.00">5</tspan>
        </text>
        <ellipse cx="338.23" cy="197.55" rx="10.38" ry="10.38" fill="#FFFFFF" stroke="#000000" stroke-width="0.60"/>
        <text xml:space="preserve" font-family="Liberation Sans" font-size="10.00" transform="matrix(0.970512, 0, 0, 0.970512, 0, 0)">
            <tspan x="345.51" y="207.27">6</tspan>
        </text>
        <ellipse cx="412.23" cy="162.55" rx="10.38" ry="10.38" fill="#FFFFFF" stroke="#000000" stroke-width="0.60"/>
        <text xml:space="preserve" font-family="Liberation Sans" font-size="10.00" transform="matrix(0.970512, 0, 0, 0.970512, 0, 0)">
            <tspan x="421.76" y="171.21">7</tspan>
        </text>
        <ellipse cx="540.23" cy="198.55" rx="10.38" ry="10.38" fill="#FFFFFF" stroke="#000000" stroke-width="0.60"/>
        <text xml:space="preserve" font-family="Liberation Sans" font-size="10.00" transform="matrix(0.970512, 0, 0, 0.970512, 0, 0)">
            <tspan x="553.65" y="208.30">8</tspan>
        </text>
        <ellipse cx="485.23" cy="357.55" rx="10.38" ry="10.38" fill="#FFFFFF" stroke="#000000" stroke-width="0.60"/>
        <text xml:space="preserve" font-family="Liberation Sans" font-size="10.00" transform="matrix(0.970512, 0, 0, 0.970512, 0, 0)">
            <tspan x="496.98" y="372.13">9</tspan>
        </text>
        <ellipse cx="351.23" cy="310.55" rx="10.38" ry="10.38" fill="#FFFFFF" stroke="#000000" stroke-width="0.60"/>
        <text xml:space="preserve" font-family="Liberation Sans" font-size="10.00" transform="matrix(0.970512, 0, 0, 0.970512, 0, 0)">
            <tspan x="355.91" y="323.70">10</tspan>
        </text>
        <ellipse cx="449.23" cy="253.55" rx="10.38" ry="10.38" fill="#FFFFFF" stroke="#000000" stroke-width="0.60"/>
        <text xml:space="preserve" font-family="Liberation Sans" font-size="10.00" transform="matrix(0.970512, 0, 0, 0.970512, 0, 0)">
            <tspan x="456.88" y="264.97">11</tspan>
        </text>
        <ellipse cx="224.23" cy="294.55" rx="10.38" ry="10.38" fill="#FFFFFF" stroke="#000000" stroke-width="0.60"/>
        <text xml:space="preserve" font-family="Liberation Sans" font-size="10.00" transform="matrix(0.970512, 0, 0, 0.970512, 0, 0)">
            <tspan x="225.05" y="307.22">12</tspan>
        </text>
        <ellipse cx="200.97" cy="276.55" rx="10.38" ry="10.38" fill="#FFFFFF" stroke="#000000" stroke-width="0.60"/>
        <text xml:space="preserve" font-family="Liberation Sans" font-size="10.00" transform="matrix(0.970512, 0, 0, 0.970512, 0, 0)">
            <tspan x="201.07" y="288.67">13</tspan>
        </text>
        <ellipse cx="209.23" cy="424.55" rx="10.38" ry="10.38" fill="#FFFFFF" stroke="#000000" stroke-width="0.60"/>
        <text xml:space="preserve" font-family="Liberation Sans" font-size="10.00" transform="matrix(0.970512, 0, 0, 0.970512, 0, 0)">
            <tspan x="209.59" y="441.17">14</tspan>
        </text>
        <ellipse cx="69.50" cy="397.60" rx="10.38" ry="10.38" fill="#FFFFFF" stroke="#000000" stroke-width="0.60"/>
        <text xml:space="preserve" font-family="Liberation Sans" font-size="10.00" transform="matrix(0.970512, 0, 0, 0.970512, 0, 0)">
            <tspan x="65.61" y="413.39">15</tspan>
        </text>
    </g>
</svg>