<?xml version="1.0" encoding="UTF-8"?>
<svg width="2e3" height="1250" version="1.1" viewBox="0 0 529.17 330.73" xmlns="http://www.w3.org/2000/svg" xmlns:cc="http://creativecommons.org/ns#" xmlns:dc="http://purl.org/dc/elements/1.1/" xmlns:rdf="http://www.w3.org/1999/02/22-rdf-syntax-ns#" xmlns:xlink="http://www.w3.org/1999/xlink">
 <defs>
  <marker id="marker5029" overflow="visible" orient="auto">
   <path transform="matrix(.8 0 0 .8 10 0)" d="m0 0 5-5-17.5 5 17.5 5z" fill="#cf000f" fill-rule="evenodd" stroke="#cf000f" stroke-width="1pt"/>
  </marker>
  <marker id="marker1562" overflow="visible" orient="auto">
   <path transform="matrix(.8 0 0 .8 10 0)" d="m0 0 5-5-17.5 5 17.5 5z" fill-rule="evenodd" stroke="#000" stroke-width="1pt"/>
  </marker>
  <marker id="marker1512" overflow="visible" orient="auto">
   <path transform="matrix(.8 0 0 .8 10 0)" d="m0 0 5-5-17.5 5 17.5 5z" fill-rule="evenodd" stroke="#000" stroke-width="1pt"/>
  </marker>
  <marker id="Arrow2Lstart" overflow="visible" orient="auto">
   <path transform="matrix(1.1,0,0,1.1,1.1,0)" d="m8.7186 4.0337-10.926-4.0177 10.926-4.0177c-1.7455 2.3721-1.7354 5.6175-6e-7 8.0354z" fill-rule="evenodd" stroke="#000" stroke-linejoin="round" stroke-width=".625"/>
  </marker>
  <marker id="Arrow2Lstart-0" overflow="visible" orient="auto">
   <path transform="matrix(1.1,0,0,1.1,1.1,0)" d="m8.7186 4.0337-10.926-4.0177 10.926-4.0177c-1.7455 2.3721-1.7354 5.6175-6e-7 8.0354z" fill-rule="evenodd" stroke="#000" stroke-linejoin="round" stroke-width=".625"/>
  </marker>
  <marker id="marker1562-7" overflow="visible" orient="auto">
   <path transform="matrix(.8 0 0 .8 10 0)" d="m0 0 5-5-17.5 5 17.5 5z" fill-rule="evenodd" stroke="#000" stroke-width="1pt"/>
  </marker>
  <marker id="Arrow2Lstart-7" overflow="visible" orient="auto">
   <path transform="matrix(1.1,0,0,1.1,1.1,0)" d="m8.7186 4.0337-10.926-4.0177 10.926-4.0177c-1.7455 2.3721-1.7354 5.6175-6e-7 8.0354z" fill-rule="evenodd" stroke="#000" stroke-linejoin="round" stroke-width=".625"/>
  </marker>
  <marker id="Arrow2Lstart-9" overflow="visible" orient="auto">
   <path transform="matrix(1.1,0,0,1.1,1.1,0)" d="m8.7186 4.0337-10.926-4.0177 10.926-4.0177c-1.7455 2.3721-1.7354 5.6175-6e-7 8.0354z" fill-rule="evenodd" stroke="#000" stroke-linejoin="round" stroke-width=".625"/>
  </marker>
  <marker id="marker1562-7-8" overflow="visible" orient="auto">
   <path transform="matrix(.8 0 0 .8 10 0)" d="m0 0 5-5-17.5 5 17.5 5z" fill-rule="evenodd" stroke="#000" stroke-width="1pt"/>
  </marker>
  <marker id="marker5029-5" overflow="visible" orient="auto">
   <path transform="matrix(.8 0 0 .8 10 0)" d="m0 0 5-5-17.5 5 17.5 5z" fill="#cf000f" fill-rule="evenodd" stroke="#cf000f" stroke-width="1pt"/>
  </marker>
  <marker id="marker5029-6" overflow="visible" orient="auto">
   <path transform="matrix(.8 0 0 .8 10 0)" d="m0 0 5-5-17.5 5 17.5 5z" fill="#cf000f" fill-rule="evenodd" stroke="#cf000f" stroke-width="1pt"/>
  </marker>
  <marker id="marker5029-0" overflow="visible" orient="auto">
   <path transform="matrix(.8 0 0 .8 10 0)" d="m0 0 5-5-17.5 5 17.5 5z" fill="#cf000f" fill-rule="evenodd" stroke="#cf000f" stroke-width="1pt"/>
  </marker>
  <pattern id="pattern4599" patternTransform="matrix(2.4813 0 0 2.4813 388.69 -226.65)" xlink:href="#Checkerboard"/>
  <pattern id="Checkerboard" width="2" height="2" patternTransform="translate(0) scale(10)" patternUnits="userSpaceOnUse">
   <rect width="1" height="1"/>
   <rect x="1" y="1" width="1" height="1"/>
  </pattern>
 </defs>
 <metadata>
  <rdf:RDF>
   <cc:Work rdf:about="">
    <dc:format>image/svg+xml</dc:format>
    <dc:type rdf:resource="http://purl.org/dc/dcmitype/StillImage"/>
    <dc:title/>
   </cc:Work>
  </rdf:RDF>
 </metadata>
 <g transform="translate(-13.196 -81.859)">
  <path d="m501.11 113.99c-9.1344 5.9216-27.403 17.765-38.302 24.82-10.898 7.0556-14.426 9.3234-18.521 12.284-4.0948 2.9609-8.7564 6.6146-24.884 19.97-16.127 13.355-43.719 36.411-57.895 48.313-14.176 11.901-14.936 12.648-15.495 13.294s-0.91463 1.1917-1.1262 1.7151c-0.21159 0.52348-0.2784 1.0246-0.26165 1.4924 0.0168 0.46777 0.11698 0.90208 0.32865 1.3364 0.21166 0.43431 0.53461 0.86862 1.0469 1.4031s1.2139 1.1693 1.7818 1.7484 1.0022 1.1025 1.2973 1.5424c0.29505 0.4399 0.45096 0.79625 0.53442 1.147 0.0835 0.35077 0.0946 0.69599 0.0256 1.1513s-0.21806 1.0208-0.44614 1.5476c-0.22809 0.52682-0.53518 1.015-0.8671 1.4115-0.33191 0.39651-0.68868 0.70139-1.2067 1.0153-0.518 0.31391-1.1973 0.63685-2.0659 0.92083-0.8686 0.28399-1.9265 0.52898-3.0346 0.72387-1.108 0.1949-2.2662 0.33967-3.2626 0.4466-0.99641 0.10692-1.8311 0.176-3.0359 0.20268-1.2048 0.0267-2.7796 0.011-4.4806 0.0425s-3.5278 0.11024-4.8428 0.24409-2.1183 0.32283-2.9294 0.54331c-0.8111 0.22049-1.63 0.47247-2.6931 0.86619-1.0631 0.39373-2.3702 0.92919-3.7326 1.5513-1.3623 0.62209-2.7797 1.3308-4.2444 2.1182s-2.9766 1.6536-4.6302 2.6695-3.449 2.1812-5.1736 3.2443-3.3781 2.0237-4.9924 2.9766c-1.6143 0.95282-3.1892 1.8977-4.6617 2.7797s-2.8427 1.7009-4.142 2.4596c-1.2994 0.75875-2.5279 1.4573-3.7881 2.1741s-2.552 1.4518-3.8215 2.1979c-1.2696 0.74614-2.5168 1.5034-3.7752 2.205-1.2584 0.70159-2.5279 1.3475-3.764 1.96s-2.4388 1.1916-3.3854 1.6148-1.637 0.69044-2.1549 0.93823-0.8631 0.47609-1.1944 0.70438c-0.33131 0.2283-0.64869 0.45659-0.94384 0.72667-0.29514 0.27008-0.56797 0.58188-0.71832 0.8799-0.15034 0.29801-0.17817 0.58197-0.16701 1.1722 0.0112 0.59026 0.0613 1.4867 0.0807 2.4027 0.0195 0.91596 8e-3 1.8514-0.0306 2.8481-0.039 0.99671-0.1058 2.0546-0.21419 2.9995-0.10838 0.94493-0.25832 1.7768-0.43173 2.4408s-0.37025 1.1601-0.63012 1.7428c-0.25987 0.58272-0.58271 1.252-1.0079 1.9607s-0.9528 1.4568-1.3386 2.0001-0.62995 0.88194-1.0336 1.3355c-0.40363 0.45361-0.96679 1.0222-1.5992 1.6072-0.63238 0.58499-1.334 1.1863-2.0745 1.7543-0.74056 0.56795-1.5201 1.1025-2.2996 1.5925s-1.559 0.93544-2.411 1.3308c-0.8519 0.39533-1.7762 0.74054-2.7951 1.0301-1.019 0.28955-2.1326 0.52341-3.2547 0.646-1.1222 0.12258-2.2529 0.13385-3.2592 0.108-1.0063-0.0259-1.8883-0.0888-2.7387-0.23056-0.85044-0.14172-1.6694-0.3622-2.512-0.59843s-1.7088-0.48821-2.5513-0.70871c-0.84259-0.22049-1.6615-0.40948-2.5356-0.55912-0.87408-0.14963-1.8032-0.25987-2.6695-0.29927-0.86622-0.0394-1.6694-8e-3 -2.512 0.10234-0.84262 0.11024-1.7245 0.29922-2.5356 0.52758-0.81111 0.22836-1.5513 0.49608-2.3152 0.81107-0.76385 0.31499-1.5513 0.67721-2.3073 1.0788-0.75599 0.40161-1.4804 0.84257-2.2459 1.3636-0.76547 0.52104-1.5719 1.1221-2.4651 1.7568-0.8932 0.63463-1.8732 1.3028-2.7307 1.9487-0.85751 0.64591-1.5925 1.2695-2.2718 1.96-0.67934 0.69048-1.303 1.4477-1.8709 2.2718-0.56797 0.82412-1.0802 1.715-1.4589 2.528-0.37863 0.81299-0.62363 1.548-0.83521 2.3498-0.21159 0.80184-0.38976 1.6704-0.55681 2.5725-0.16704 0.90205-0.32295 1.8375-0.47886 2.6059-0.15592 0.76839-0.31182 1.3697-0.47887 1.9042s-0.34523 1.0022-0.57908 1.4142c-0.23384 0.41198-0.52339 0.76835-0.90201 1.2027-0.37863 0.4343-0.84634 0.94655-1.4365 1.4254-0.59019 0.47884-1.3029 0.92428-2.1715 1.3697s-1.8931 0.89088-2.9622 1.3363c-1.0691 0.44545-2.1827 0.89089-4.4301 1.744s-5.6285 2.1137-7.6813 2.87c-2.0528 0.75632-2.7773 1.0083-3.4466 1.1658-0.6693 0.1575-1.2835 0.2205-2.0631 0.24414-0.77957 0.0236-1.7245 8e-3 -2.5907-0.0236-0.8662-0.0315-1.6536-0.0787-2.2442-0.15745-0.59058-0.0787-0.9843-0.18896-1.441-0.3543s-0.97643-0.38583-1.4962-0.63779c-0.51973-0.25197-1.0394-0.53543-1.6379-0.92127-0.59847-0.38583-1.2757-0.87404-1.8702-1.4056-0.59456-0.5315-1.1064-1.1063-1.6182-1.7048s-1.0237-1.2206-1.5277-1.819c-0.50396-0.59847-1-1.1733-1.4922-1.6852-0.49214-0.51187-0.98035-0.96071-1.4371-1.3505-0.45672-0.38981-0.88193-0.72052-1.378-1.0631-0.49609-0.34256-1.063-0.69691-1.6103-0.98436-0.54728-0.28746-1.0749-0.50794-1.5906-0.68908-0.51579-0.18113-1.0198-0.32287-1.6025-0.42133-0.58273-0.0985-1.2442-0.15358-1.8505-0.17329-0.60636-0.0197-1.1576-4e-3 -1.8112 0.0905s-1.4096 0.26771-2.2206 0.47638c-0.81109 0.20868-1.6773 0.45279-2.449 0.67328-0.77171 0.22048-1.4489 0.41734-2.1891 0.61814-0.74021 0.20081-1.5434 0.40555-2.5828 0.61817-1.0394 0.21263-2.3151 0.43311-3.5907 0.59061-1.2757 0.15749-2.5513 0.25198-4.1656 0.28349-1.6143 0.0315-3.5671 0-5.583-8e-3 -2.0159-8e-3 -4.0947 8e-3 -5.4649 0.0552-1.3702 0.0472-2.0316 0.12599-2.9249 0.24704s-2.0184 0.2844-3.2381 0.52198-2.5337 0.54939-3.8923 0.90575c-1.3586 0.35636-2.7618 0.75725-4.3209 1.2472-1.5591 0.49-3.274 1.0691-4.9779 1.6816s-3.3965 1.2584-5.1227 1.9154c-1.7261 0.65704-3.4856 1.3252-5.2897 2.0491-1.8041 0.72387-3.6527 1.5034-10.109 4.3317-6.4566 2.8283-17.521 7.7051-26.518 11.656s-15.926 6.9742-19.517 8.5648c-3.5908 1.5907-3.8428 1.7482-4.1814 1.9923-0.33862 0.24411-0.76384 0.57484-1.2048 0.97646-0.441 0.40163-0.8977 0.87408-1.3466 1.3781s-0.88983 1.0394-1.2914 1.5986c-0.40162 0.55912-0.76384 1.1418-1.071 1.7876-0.30711 0.64576-0.55909 1.3544-0.71657 1.9136-0.15748 0.55912-0.22047 0.96859-0.25195 1.7718-0.03148 0.80323-0.03148 2.0001 0.12607 3.079s0.47252 2.0395 0.80328 2.8506 0.67724 1.4725 1.1025 2.1104c0.42526 0.63782 0.92921 1.252 1.4962 1.8268 0.567 0.57482 1.197 1.1103 1.9057 1.5985 0.70873 0.48818 1.4962 0.92915 2.1419 1.252s1.1497 0.52756 1.9844 0.6535c0.83469 0.12593 2.0001 0.17317 3.0946 0.17316 1.0946-1e-5 2.1182-0.0473 3.1419-0.17326 1.0237-0.12601 2.0473-0.33074 3.0238-0.57486s1.9056-0.5276 2.8663-0.91346c0.96067-0.38585 1.9528-0.87406 2.9529-1.4489 1-0.57484 2.008-1.2363 2.831-1.8556 0.82305-0.61934 1.4612-1.1966 2.1144-1.8304 0.65318-0.63385 1.3213-1.3243 2.0452-2.1484s1.5034-1.7818 2.205-2.7172c0.70158-0.93544 1.3252-1.8486 1.882-2.6727 0.55681-0.82408 1.0468-1.559 1.5702-2.3052 0.52341-0.74614 1.0802-1.5034 1.715-2.2496 0.63478-0.74615 1.3475-1.4811 1.9734-2.1502 0.62592-0.66901 1.165-1.272 1.8677-1.983s1.5688-1.5299 2.5296-2.3646c0.96071-0.83472 2.0159-1.6852 3.1183-2.512 1.1025-0.82683 2.2521-1.63 3.5436-2.4175 1.2915-0.78747 2.7246-1.5592 4.3704-2.3466s3.5042-1.5906 5.2366-2.2206c1.7324-0.62997 3.3388-1.0867 4.8822-1.4568 1.5434-0.3701 3.0238-0.65358 4.4019-0.88193 1.3781-0.22836 2.6537-0.4016 3.701-0.49607 1.0473-0.0945 1.8663-0.11021 3.079-0.11808 1.2127-8e-3 2.819-8e-3 3.9766 0.0158 1.1576 0.0236 1.8662 0.0709 2.6616 0.16538 0.79534 0.0945 1.6773 0.23624 2.6773 0.38585 1.0001 0.14961 2.1182 0.3071 3.1026 0.44097 0.98432 0.13386 1.8348 0.2441 2.7797 0.29921 0.94494 0.0551 1.9844 0.0551 3.0474 0.0315 1.0631-0.0236 2.1497-0.0709 3.386-0.17325 1.2363-0.10238 2.6222-0.25986 3.8034-0.44886s2.1576-0.40948 3.0868-0.68509c0.92917-0.27562 1.8111-0.60634 2.9293-1.008 1.1182-0.4016 2.4726-0.87405 3.575-1.2127 1.1025-0.3386 1.9529-0.54334 2.6616-0.65356 0.70875-0.11022 1.2757-0.12595 1.9293-0.0708 0.65362 0.0552 1.3938 0.18114 1.945 0.33869 0.55123 0.15755 0.91345 0.34654 1.4568 0.68517s1.2678 0.82684 1.9134 1.4163c0.64567 0.58944 1.2126 1.28 1.7355 1.9538 0.5229 0.67382 1.0018 1.3309 1.4584 1.9322 0.45659 0.60136 0.89089 1.147 1.3698 1.676 0.47888 0.52897 1.0023 1.0412 1.5925 1.5201 0.59023 0.47883 1.2473 0.92428 1.9489 1.3419 0.7016 0.41759 1.4477 0.80735 2.0825 1.1192 0.63477 0.31181 1.1582 0.54566 1.715 0.70151 0.55681 0.15586 1.147 0.23381 1.9433 0.30062 0.79625 0.0668 1.7985 0.12249 2.7339 0.15033 0.93544 0.0278 1.804 0.0278 2.7729-0.0501 0.96885-0.078 2.0379-0.23388 3.2406-0.49003 1.2027-0.25614 2.539-0.61249 4.009-1.0579 1.47-0.44546 3.0736-0.97999 4.6326-1.5591 1.5591-0.57909 3.0736-1.2027 4.5102-1.8264 1.4366-0.62364 2.7952-1.2472 4.087-1.8932 1.2918-0.64591 2.5168-1.3141 3.7418-2.0379 1.225-0.72386 2.45-1.5034 3.5413-2.2606 1.0913-0.75726 2.049-1.4922 3.0147-2.2996s1.9392-1.687 3.1347-2.8198c1.1955-1.1328 2.6129-2.5187 3.9201-3.8258s2.5041-2.5356 3.8742-3.9373c1.3702-1.4017 2.9136-2.9765 4.457-4.457s3.0868-2.8663 4.52-4.142c1.4332-1.2757 2.756-2.4411 3.9058-3.3703 1.1497-0.92921 2.1261-1.6222 3.2916-2.4096 1.1654-0.78746 2.5198-1.6694 3.6066-2.2994s1.9056-1.008 2.8191-1.4174c0.91345-0.40948 1.9214-0.85044 3.0711-1.3229 1.1497-0.47247 2.4411-0.97642 3.9373-1.5119s3.197-1.1024 4.9137-1.6379c1.7167-0.53547 3.449-1.0394 5.1499-1.6536s3.3702-1.3387 4.9609-2.1261c1.5906-0.78746 3.1025-1.6379 4.474-2.4413 1.3715-0.80343 2.6026-1.5598 3.9643-2.506s2.8539-2.082 4.2348-3.1845c1.3809-1.1025 2.6504-2.1716 3.8197-3.2295 1.1693-1.0579 2.2384-2.1047 3.3854-3.3742 1.147-1.2695 2.372-2.7617 3.4003-4.1279 1.0283-1.3662 1.8598-2.6063 2.6851-3.8248s1.6442-2.4154 2.5104-3.5652 1.7796-2.2521 2.8663-3.512c1.0867-1.2599 2.3466-2.6773 3.5908-3.953 1.2442-1.2757 2.4726-2.4096 3.575-3.3546 1.1025-0.94496 2.0789-1.7009 3.2443-2.5671s2.5198-1.8426 3.9845-2.8191c1.4647-0.97645 3.0396-1.9529 4.9452-3.0238 1.9057-1.071 4.142-2.2364 6.3447-3.2933 2.2027-1.0569 4.3717-2.0053 6.4029-2.8025s3.9243-1.443 5.8843-2.0333c1.96-0.59022 3.9868-1.1248 6.2252-1.637 2.2384-0.51226 4.6884-1.0022 6.8933-1.3809 2.205-0.37863 4.165-0.64589 5.7129-0.81293 1.548-0.16703 2.6838-0.23385 3.5747-0.31181 0.8909-0.078 1.5368-0.16705 2.1604-0.35638s1.2249-0.47887 1.7595-0.74614c0.53453-0.26727 1.0022-0.51227 1.4811-0.89088 0.47881-0.3786 0.96879-0.89086 1.5145-1.5368s1.147-1.4254 1.637-2.1715c0.48999-0.7461 0.86861-1.4588 1.147-2.1047 0.2784-0.64587 0.45657-1.2249 0.62362-1.8931s0.32296-1.4254 0.51228-2.1716c0.18931-0.74615 0.41203-1.4811 0.70158-2.3386 0.28954-0.85751 0.6459-1.8375 1.0691-2.7507 0.42318-0.91321 0.91316-1.7595 1.4923-2.5837 0.57911-0.82413 1.2473-1.6259 1.8932-2.3052s1.2695-1.2361 2.0714-1.8375 1.7818-1.2473 3.7195-2.5391 4.8331-3.2295 6.5926-4.3988c1.7595-1.1693 2.3831-1.5702 3.2407-1.9822 0.85754-0.41206 1.9489-0.83523 2.8398-1.1804 0.89091-0.34523 1.5813-0.61249 2.5725-0.76838 0.99119-0.15589 2.283-0.20043 3.7196-0.16701 1.4366 0.0334 3.0179 0.14479 5.4201 0.43069 2.4021 0.28591 5.625 0.74631 8.7011 1.1498 3.0761 0.40345 6.0054 0.74992 8.982 1.0964s6.0003 0.69295 8.7092 0.88193c2.7088 0.18897 5.1026 0.22047 7.15 0.20472 2.0474-0.0158 3.7482-0.0787 5.6066-0.29926 1.8584-0.2205 3.8742-0.59847 5.7956-1.0552 1.9214-0.45673 3.7482-0.99218 5.52-1.5828 1.7718-0.59059 3.4884-1.2363 5.1972-1.945 1.7088-0.70871 3.4096-1.4804 5.1893-2.4175 1.7796-0.93708 3.638-2.0395 5.7169-3.3939 2.0789-1.3544 4.3782-2.9608 6.717-4.6144 2.3387-1.6537 4.7168-3.3545 6.8508-4.9137s4.0238-2.9766 5.8192-4.394c1.7954-1.4174 3.4962-2.8348 5.0869-4.2207 1.5906-1.3859 3.071-2.7403 4.5357-4.142 1.4647-1.4017 2.9136-2.8505 4.5042-4.5987 1.5907-1.7482 3.323-3.7955 4.9294-5.8114 1.6064-2.0159 3.0868-4.0002 4.583-6.1578 1.4962-2.1576 3.008-4.4884 4.2302-6.4547 1.2222-1.9663 2.1546-3.5679 3.1776-5.5047 1.023-1.9368 2.1366-4.2085 3.1612-6.5026s1.96-4.6104 2.7618-6.7262c0.80182-2.1159 1.47-4.0313 2.205-6.4145s1.5368-5.234 2.3386-8.1294c0.80181-2.8954 1.6036-5.8354 2.2914-8.3736 0.68784-2.5382 1.2617-4.6746 1.8321-6.798 0.57042-2.1234 1.1374-4.2337 1.5154-5.7771s0.56697-2.5198 0.61425-3.4647c0.0473-0.9449-0.0472-1.8583-0.40937-2.8663-0.36216-1.0079-0.99211-2.1103-1.6063-2.9608s-1.2126-1.4489-1.8898-1.9372-1.4331-0.86625-2.3781-1.0868c-0.94496-0.22055-2.0789-0.28355-3.1026-0.15759-1.0238 0.12596-1.9372 0.44093-3.3074 1.2914-1.3702 0.85047-3.1971 2.2364-4.1106 2.9293-0.91347 0.69297-0.91348 0.69278-10.048 6.6144z" fill="none" stroke="#000" stroke-width="3.9688"/>
  <g transform="translate(11.493 14.967)" fill="none">
   <circle cx="326.19" cy="201.46" r="6.5753" fill="none" stroke="#000" stroke-width=".52917"/>
  </g>
  <g transform="translate(11.493 15.234)">
   <text x="323.30005" y="204.65117" fill="#000000" font-family="sans-serif" font-size="9.6229px" stroke-width=".24057" style="line-height:1.25" xml:space="preserve"><tspan x="323.30005" y="204.65117" stroke-width=".24057">1</tspan></text>
  </g>
  <g fill="none" stroke="#000">
   <g stroke-width=".52917">
    <circle cx="322.86" cy="231.19" r="6.5753"/>
    <circle cx="306.29" cy="240.01" r="6.5753"/>
    <circle cx="258.18" cy="274.49" r="6.5753"/>
    <circle cx="249.9" cy="297.74" r="6.5753"/>
    <circle cx="226.64" cy="296.94" r="6.5753"/>
    <circle cx="200.18" cy="305.76" r="6.5753"/>
    <circle cx="185.49" cy="308.96" r="6.5753"/>
    <circle cx="171.32" cy="313.51" r="6.5753"/>
    <circle cx="153.15" cy="314.84" r="6.5753"/>
    <circle cx="137.38" cy="322.59" r="6.5753"/>
    <circle cx="118.4" cy="324.2" r="6.5753"/>
   </g>
   <g>
    <path d="m342.63 230.29c-0.77386-2.0691-1.5476-4.1379-2.3213-6.2064" marker-start="url(#Arrow2Lstart)" stroke-width=".60657"/>
    <path d="m322.22 247.96c-2.5432-1.1752-5.086-2.3504-7.6284-3.5253" marker-start="url(#Arrow2Lstart-0)" stroke-width=".76926"/>
    <g stroke-width=".79375">
     <path d="m342.41 243.96c-3.9788-2.4927-7.9573-4.9852-11.936-7.4775" marker-start="url(#marker1512)"/>
     <path d="m198.73 329.05c-3.2034-4.3859-6.4065-8.7715-9.6095-13.157" marker-start="url(#marker1562)"/>
     <path d="m176.34 336.91c-0.83209-5.3671-1.6641-10.734-2.4961-16.1" marker-start="url(#marker1562-7)"/>
    </g>
    <path d="m204.73 318.63c-1.0007-1.7232-2.0012-3.4461-3.0016-5.1688" marker-start="url(#Arrow2Lstart-7)" stroke-width=".54715"/>
    <path d="m158.35 328.05c-0.73613-1.9682-1.4722-3.9361-2.2081-5.9038" marker-start="url(#Arrow2Lstart-9)" stroke-width=".577"/>
   </g>
  </g>
  <g transform="translate(-3.9055 30.047)">
   <text x="323.30005" y="204.65117" fill="#000000" font-family="sans-serif" font-size="9.6229px" stroke-width=".24057" style="line-height:1.25" xml:space="preserve"><tspan x="323.30005" y="204.65117" stroke-width=".24057">2</tspan></text>
  </g>
  <g transform="translate(-19.942 39.134)">
   <text x="323.30005" y="204.65117" fill="#000000" font-family="sans-serif" font-size="9.6229px" stroke-width=".24057" style="line-height:1.25" xml:space="preserve"><tspan x="323.30005" y="204.65117" stroke-width=".24057">3</tspan></text>
  </g>
  <g transform="translate(-68.05 73.345)">
   <text x="323.30005" y="204.65117" fill="#000000" font-family="sans-serif" font-size="9.6229px" stroke-width=".24057" style="line-height:1.25" xml:space="preserve"><tspan x="323.30005" y="204.65117" stroke-width=".24057">4</tspan></text>
  </g>
  <g transform="translate(-76.068 96.33)">
   <text x="323.30005" y="204.65117" fill="#000000" font-family="sans-serif" font-size="9.6229px" stroke-width=".24057" style="line-height:1.25" xml:space="preserve"><tspan x="323.30005" y="204.65117" stroke-width=".24057">5</tspan></text>
  </g>
  <g transform="translate(-99.588 95.795)">
   <text x="323.30005" y="204.65117" fill="#000000" font-family="sans-serif" font-size="9.6229px" stroke-width=".24057" style="line-height:1.25" xml:space="preserve"><tspan x="323.30005" y="204.65117" stroke-width=".24057">6</tspan></text>
  </g>
  <g transform="translate(-126.05 104.35)">
   <text x="323.30005" y="204.65117" fill="#000000" font-family="sans-serif" font-size="9.6229px" stroke-width=".24057" style="line-height:1.25" xml:space="preserve"><tspan x="323.30005" y="204.65117" stroke-width=".24057">7</tspan></text>
  </g>
  <g transform="translate(-141.01 108.62)">
   <text x="323.30005" y="204.65117" fill="#000000" font-family="sans-serif" font-size="9.6229px" stroke-width=".24057" style="line-height:1.25" xml:space="preserve"><tspan x="323.30005" y="204.65117" stroke-width=".24057">8</tspan></text>
  </g>
  <g transform="translate(-154.65 112.9)">
   <text x="323.30005" y="204.65117" fill="#000000" font-family="sans-serif" font-size="9.6229px" stroke-width=".24057" style="line-height:1.25" xml:space="preserve"><tspan x="323.30005" y="204.65117" stroke-width=".24057">9</tspan></text>
  </g>
  <g transform="translate(-173.09 113.97)">
   <text x="321.4332" y="203.43608" fill="#000000" font-family="sans-serif" font-size="7.6243px" stroke-width=".19061" style="line-height:1.25" xml:space="preserve"><tspan x="321.4332" y="203.43608" stroke-width=".19061">10</tspan></text>
  </g>
  <text x="132.26329" y="324.82956" fill="#000000" font-family="sans-serif" font-size="7.6243px" stroke-width=".19061" style="line-height:1.25" xml:space="preserve"><tspan x="132.26329" y="324.82956" stroke-width=".19061">11</tspan></text>
  <text x="113.55441" y="327.50223" fill="#000000" font-family="sans-serif" font-size="7.6243px" stroke-width=".19061" style="line-height:1.25" xml:space="preserve"><tspan x="113.55441" y="327.50223" stroke-width=".19061">12</tspan></text>
  <g fill="none" stroke="#000" stroke-width=".52917">
   <circle cx="39.823" cy="380.86" r="6.5753"/>
   <circle cx="89.803" cy="370.44" r="6.5753"/>
   <circle cx="125.62" cy="368.83" r="6.5753"/>
   <circle cx="141.92" cy="377.38" r="6.5753"/>
   <circle cx="161.97" cy="375.25" r="6.5753"/>
   <circle cx="190.83" cy="370.17" r="6.5753"/>
   <circle cx="233.59" cy="336.49" r="6.5753"/>
   <circle cx="272.35" cy="317.78" r="6.5753"/>
   <circle cx="311.64" cy="279.83" r="6.5753"/>
   <circle cx="361.88" cy="261.92" r="6.5753"/>
   <circle cx="371.5" cy="244.28" r="6.5753"/>
   <circle cx="386.74" cy="233.86" r="6.5753"/>
   <circle cx="444.2" cy="234.13" r="6.5753"/>
   <circle cx="519.04" cy="174.26" r="6.5753"/>
   <circle cx="515.83" cy="116.8" r="6.5753"/>
  </g>
  <g fill="#000000" font-family="sans-serif" font-size="7.6243px" stroke-width=".19061">
   <text x="34.706184" y="383.95566" style="line-height:1.25" xml:space="preserve"><tspan x="34.706184" y="383.95566" fill="#000000" stroke-width=".19061">13</tspan></text>
   <text x="84.952866" y="373.26489" style="line-height:1.25" xml:space="preserve"><tspan x="84.952866" y="373.26489" stroke-width=".19061">14</tspan></text>
   <text x="120.49971" y="371.92856" style="line-height:1.25" xml:space="preserve"><tspan x="120.49971" y="371.92856" stroke-width=".19061">15</tspan></text>
   <text x="136.80315" y="379.94666" style="line-height:1.25" xml:space="preserve"><tspan x="136.80315" y="379.94666" stroke-width=".19061">16</tspan></text>
   <text x="156.84836" y="378.07574" style="line-height:1.25" xml:space="preserve"><tspan x="156.84836" y="378.07574" stroke-width=".19061">17</tspan></text>
   <text x="185.98074" y="373.26489" style="line-height:1.25" xml:space="preserve"><tspan x="185.98074" y="373.26489" stroke-width=".19061">18</tspan></text>
   <text x="228.47659" y="339.32166" style="line-height:1.25" xml:space="preserve"><tspan x="228.47659" y="339.32166" stroke-width=".19061">19</tspan></text>
   <text x="266.96341" y="320.88007" style="line-height:1.25" xml:space="preserve"><tspan x="266.96341" y="320.88007" stroke-width=".19061">20</tspan></text>
  </g>
  <path d="m146.09 356.84c-1.1079 4.3639-2.2157 8.7275-3.3235 13.091" fill="none" marker-start="url(#marker1562-7-8)" stroke="#000" stroke-width=".658"/>
  <g fill="#000000" font-family="sans-serif" font-size="7.6243px" stroke-width=".19061">
   <text x="306.74081" y="282.33554" style="line-height:1.25" xml:space="preserve"><tspan x="306.74081" y="282.33554" stroke-width=".19061">21</tspan></text>
   <text x="357.25476" y="264.69577" style="line-height:1.25" xml:space="preserve"><tspan x="357.25476" y="264.69577" stroke-width=".19061">22</tspan></text>
   <text x="366.34192" y="246.7887" style="line-height:1.25" xml:space="preserve"><tspan x="366.34192" y="246.7887" stroke-width=".19061">23</tspan></text>
   <text x="382.11084" y="236.89972" style="line-height:1.25" xml:space="preserve"><tspan x="382.11084" y="236.89972" stroke-width=".19061">24</tspan></text>
   <text x="439.03925" y="236.63246" style="line-height:1.25" xml:space="preserve"><tspan x="439.03925" y="236.63246" stroke-width=".19061">25</tspan></text>
   <text x="514.40918" y="176.76408" style="line-height:1.25" xml:space="preserve"><tspan x="514.40918" y="176.76408" stroke-width=".19061">26</tspan></text>
   <text x="511.202" y="119.83567" style="line-height:1.25" xml:space="preserve"><tspan x="511.202" y="119.83567" stroke-width=".19061">27</tspan></text>
  </g>
  <circle cx="361.88" cy="158.22" r="0" fill="#0c0028" stroke="#ff000f" stroke-width=".26458"/>
  <g fill="none" stroke="#cf000f" stroke-width=".79375">
   <path d="m377.39 193.21c0.71082-0.537 1.4217-1.074 2.1325-1.6111" marker-start="url(#marker5029)"/>
   <path d="m72.738 342.26c0.79213-0.40762 1.5843-0.81525 2.3765-1.2229" marker-start="url(#marker5029-5)"/>
   <path d="m223.05 345.17c-0.57913 0.67694-1.1583 1.3539-1.7375 2.0309" marker-start="url(#marker5029-6)"/>
   <path d="m469.18 221.71c-0.73822 0.49867-1.4764 0.99735-2.2147 1.4961" marker-start="url(#marker5029-0)"/>
  </g>
  <rect transform="rotate(46.827)" x="401.45" y="-212.39" width="24.759" height="9.3785" fill="#fff" style="mix-blend-mode:normal"/>
  <rect transform="rotate(46.827)" x="401.45" y="-212.39" width="24.759" height="9.3785" fill="url(#pattern4599)" stroke="#000" stroke-width=".31842" style="mix-blend-mode:normal"/>
 </g>
</svg>
