<?xml version="1.0" encoding="UTF-8" standalone="no"?>
<svg xmlns="http://www.w3.org/2000/svg" xmlns:xlink="http://www.w3.org/1999/xlink" clip-rule="evenodd" stroke-miterlimit="10" viewBox="0 0 538.58 425.20">
    <desc>SVG generated by Lineform</desc>
    <defs/>
    <g>
        <path d="M 126.76 53.14 C 164.88 59.00 175.25 60.69 213.38 66.54 C 230.85 69.22 242.10 91.68 238.39 112.11 C 234.65 132.76 210.27 147.12 191.89 144.13 C 158.18 138.65 128.93 134.17 95.23 128.58 C 70.50 124.48 55.81 104.12 58.80 84.15 C 63.15 55.04 83.45 46.40 99.43 48.99 Z M 97.62 48.72 " stroke="#B3B3B3" stroke-width="7.00" fill="none" id="Graphic 6"/>
        <path d="M 391.92 288.22 C 386.54 296.01 380.36 300.14 372.25 297.96 C 365.15 296.06 362.34 287.75 364.33 278.20 " stroke="#B3B3B3" stroke-width="7.00" fill="none" id="Graphic 7"/>
        <path d="M 183.64 61.90 C 289.76 78.26 346.39 83.90 381.75 89.64 C 405.33 93.47 447.05 100.24 457.82 102.99 C 467.64 105.50 467.84 105.24 466.89 112.57 C 466.08 118.72 465.59 121.60 464.53 127.79 C 464.05 130.63 466.30 131.85 470.13 135.52 C 472.43 137.73 474.55 139.25 474.16 141.25 C 470.27 161.23 468.21 164.27 463.25 174.94 C 460.92 179.97 458.73 182.51 456.04 187.35 C 439.70 213.60 423.35 239.85 407.00 266.10 C 398.34 280.01 388.34 293.12 378.89 306.42 C 377.94 307.75 376.69 309.52 376.86 311.15 C 377.15 313.83 386.36 318.16 389.07 319.91 C 391.80 321.68 392.57 322.81 392.20 325.66 C 391.94 327.72 389.57 329.03 387.97 330.15 C 380.15 335.62 372.64 340.77 364.83 346.23 C 363.77 346.97 362.43 347.44 361.23 346.96 C 359.92 346.44 358.16 345.14 356.63 344.24 C 355.07 343.31 355.31 341.56 355.57 339.76 C 359.51 312.78 363.50 284.92 367.43 257.95 C 367.91 254.70 366.49 251.22 363.70 249.48 C 358.46 246.24 354.87 243.69 349.76 240.57 C 344.57 237.40 340.65 229.82 338.81 224.02 C 336.55 216.87 330.70 209.97 323.55 208.59 C 312.72 206.49 301.89 204.86 291.07 202.94 C 284.72 201.81 278.42 199.05 275.60 191.32 C 273.94 186.80 272.70 182.69 271.13 178.13 C 269.98 174.81 266.17 172.75 263.08 171.07 C 252.91 165.52 242.32 159.90 232.14 154.35 C 224.98 150.45 216.63 148.29 208.57 146.99 C 180.73 142.47 153.11 137.99 125.27 133.48 C 120.41 132.69 115.47 130.95 114.66 123.47 C 113.37 111.48 112.51 99.54 111.36 87.58 C 111.15 85.33 111.05 82.50 108.31 81.42 C 106.54 80.72 104.44 81.03 103.30 82.55 C 101.57 84.83 99.73 86.86 98.01 89.15 C 96.47 91.19 92.49 91.14 90.16 90.08 C 87.54 88.88 85.16 86.62 82.31 86.23 C 76.49 85.45 71.05 85.18 65.23 84.39 C 62.68 84.05 60.10 80.93 60.37 78.37 C 60.64 75.76 60.90 75.02 61.58 73.19 C 64.37 65.71 69.91 57.39 76.86 53.30 C 83.24 49.53 90.69 47.24 99.22 48.81 Z M 276.84 75.24 " stroke="#000000" stroke-width="8.00" fill="none" id="Graphic 5"/>
        <path d="M 62.33 73.35 C 66.27 64.70 75.22 59.08 79.38 58.90 C 93.31 58.29 108.43 57.91 119.28 59.60 C 150.10 64.41 179.28 68.54 207.31 72.98 C 223.95 75.61 240.97 73.31 261.85 76.17 " stroke="#000000" stroke-width="3.03" fill="none" id="Graphic 8"/>
        <path d="M 151.91 32.62 C 151.33 37.39 150.76 42.17 150.18 46.94 C 159.16 45.66 168.13 44.38 177.10 43.10 Z M 151.91 32.62 " fill-rule="non-zero" fill="#FF0000" id="Graphic 28 (1)"/>
        <g>
            <path d="M 173.78 73.11 L 174.85 65.70 L 182.25 66.77 L 181.18 74.18 Z M 173.78 73.11 " fill-rule="non-zero" fill="#000000" id="Rect 24"/>
            <path d="M 181.18 74.18 L 182.26 66.77 L 189.66 67.85 L 188.59 75.25 Z M 181.18 74.18 " fill-rule="non-zero" fill="#FFFFFF" id="Rect 24 (1)"/>
            <path d="M 188.59 75.25 L 189.66 67.85 L 197.06 68.92 L 195.99 76.33 Z M 188.59 75.25 " fill-rule="non-zero" fill="#000000" id="Rect 24 (2)"/>
            <path d="M 174.84 65.77 L 175.91 58.36 L 183.32 59.43 L 182.25 66.84 Z M 174.84 65.77 " fill-rule="non-zero" fill="#FFFFFF" id="Rect 24 (3)"/>
            <path d="M 189.65 67.91 L 190.72 60.51 L 198.13 61.58 L 197.05 68.99 Z M 189.65 67.91 " fill-rule="non-zero" fill="#FFFFFF" id="Rect 24 (4)"/>
            <path d="M 182.24 66.90 L 183.31 59.50 L 190.71 60.57 L 189.64 67.98 Z M 182.24 66.90 " fill-rule="non-zero" fill="#000000" id="Rect 24 (5)"/>
            <path d="M 175.90 58.43 L 176.98 51.02 L 184.38 52.09 L 183.31 59.50 Z M 175.90 58.43 " fill-rule="non-zero" fill="#000000" id="Rect 24 (11)"/>
            <path d="M 183.31 59.50 L 184.38 52.09 L 191.79 53.17 L 190.71 60.57 Z M 183.31 59.50 " fill-rule="non-zero" fill="#FFFFFF" id="Rect 24 (11)"/>
            <path d="M 190.71 60.57 L 191.79 53.17 L 199.19 54.24 L 198.12 61.65 Z M 190.71 60.57 " fill-rule="non-zero" fill="#000000" id="Rect 24 (11)"/>
            <path d="M 176.97 51.09 L 178.04 43.68 L 185.45 44.76 L 184.37 52.16 Z M 176.97 51.09 " fill-rule="non-zero" fill="#FFFFFF" id="Rect 24 (11)"/>
            <path d="M 191.78 53.23 L 192.85 45.83 L 200.26 46.90 L 199.18 54.31 Z M 191.78 53.23 " fill-rule="non-zero" fill="#FFFFFF" id="Rect 24 (11)"/>
            <path d="M 184.36 52.22 L 185.44 44.82 L 192.84 45.89 L 191.77 53.30 Z M 184.36 52.22 " fill-rule="non-zero" fill="#000000" id="Rect 24 (11)"/>
            <path d="M 177.75 43.84 L 178.83 36.43 L 186.23 37.51 L 185.16 44.91 Z M 177.75 43.84 " fill-rule="non-zero" fill="#000000" id="Rect 24 (17)"/>
            <path d="M 185.16 44.91 L 186.23 37.51 L 193.64 38.58 L 192.56 45.99 Z M 185.16 44.91 " fill-rule="non-zero" fill="#FFFFFF" id="Rect 24 (17)"/>
            <path d="M 192.56 45.99 L 193.64 38.58 L 201.04 39.65 L 199.97 47.06 Z M 192.56 45.99 " fill-rule="non-zero" fill="#000000" id="Rect 24 (17)"/>
        </g>
        <ellipse cx="480.68" cy="94.22" rx="10.50" ry="10.50" fill="#FFFFFF" stroke="#000000" stroke-width="0.61" id="Oval 36 (1)"/>
        <text xml:space="preserve" font-family="Liberation Sans" font-size="10.00" transform="matrix(0.981308, 0, 0, 0.981308, 0, 0)" id="Rect 37 (1)">
            <tspan x="487.06" y="99.73">1</tspan>
        </text>
        <ellipse cx="466.61" cy="106.46" rx="3.63" ry="3.63" fill="#FFFFFF" stroke="#000000" stroke-width="0.81" id="Oval 39 (12)"/>
        <ellipse cx="464.63" cy="129.17" rx="3.63" ry="3.63" fill="#FFFFFF" stroke="#000000" stroke-width="0.81" id="Oval 39 (12)"/>
        <ellipse cx="473.76" cy="139.41" rx="3.63" ry="3.63" fill="#FFFFFF" stroke="#000000" stroke-width="0.81" id="Oval 39 (12)"/>
        <ellipse cx="377.40" cy="310.50" rx="3.63" ry="3.63" fill="#FFFFFF" stroke="#000000" stroke-width="0.81" id="Oval 39 (12)"/>
        <ellipse cx="392.32" cy="324.19" rx="3.63" ry="3.63" fill="#FFFFFF" stroke="#000000" stroke-width="0.81" id="Oval 39 (12)"/>
        <ellipse cx="359.01" cy="345.65" rx="3.63" ry="3.63" fill="#FFFFFF" stroke="#000000" stroke-width="0.81" id="Oval 39 (12)"/>
        <ellipse cx="367.01" cy="252.96" rx="3.63" ry="3.63" fill="#FFFFFF" stroke="#000000" stroke-width="0.81" id="Oval 39 (12)"/>
        <ellipse cx="345.87" cy="236.90" rx="3.63" ry="3.63" fill="#FFFFFF" stroke="#000000" stroke-width="0.81" id="Oval 39 (12)"/>
        <ellipse cx="332.38" cy="213.68" rx="3.63" ry="3.63" fill="#FFFFFF" stroke="#000000" stroke-width="0.81" id="Oval 39 (12)"/>
        <ellipse cx="279.88" cy="197.68" rx="3.63" ry="3.63" fill="#FFFFFF" stroke="#000000" stroke-width="0.81" id="Oval 39 (12)"/>
        <ellipse cx="269.88" cy="175.66" rx="3.63" ry="3.63" fill="#FFFFFF" stroke="#000000" stroke-width="0.81" id="Oval 39 (12)"/>
        <ellipse cx="118.38" cy="131.68" rx="3.63" ry="3.63" fill="#FFFFFF" stroke="#000000" stroke-width="0.81" id="Oval 39 (12)"/>
        <ellipse cx="107.89" cy="81.16" rx="3.63" ry="3.63" fill="#FFFFFF" stroke="#000000" stroke-width="0.81" id="Oval 39 (12)"/>
        <ellipse cx="93.38" cy="91.17" rx="3.63" ry="3.63" fill="#FFFFFF" stroke="#000000" stroke-width="0.81" id="Oval 39 (12)"/>
        <ellipse cx="60.67" cy="80.31" rx="3.63" ry="3.63" fill="#FFFFFF" stroke="#000000" stroke-width="0.81" id="Oval 39 (12)"/>
        <ellipse cx="82.30" cy="86.56" rx="3.63" ry="3.63" fill="#FFFFFF" stroke="#000000" stroke-width="0.81" id="Oval 39 (12)"/>
        <ellipse cx="442.70" cy="131.67" rx="10.50" ry="10.50" fill="#FFFFFF" stroke="#000000" stroke-width="0.61" id="Oval 36 (1)"/>
        <text xml:space="preserve" font-family="Liberation Sans" font-size="10.00" transform="matrix(0.981308, 0, 0, 0.981308, 0, 0)" id="Rect 37 (1)">
            <tspan x="448.35" y="137.90">2</tspan>
        </text>
        <ellipse cx="492.19" cy="137.79" rx="10.50" ry="10.50" fill="#FFFFFF" stroke="#000000" stroke-width="0.61" id="Oval 36 (1)"/>
        <text xml:space="preserve" font-family="Liberation Sans" font-size="10.00" transform="matrix(0.981308, 0, 0, 0.981308, 0, 0)" id="Rect 37 (1)">
            <tspan x="498.78" y="144.13">3</tspan>
        </text>
        <ellipse cx="401.42" cy="303.92" rx="10.50" ry="10.50" fill="#FFFFFF" stroke="#000000" stroke-width="0.61" id="Oval 36 (1)"/>
        <text xml:space="preserve" font-family="Liberation Sans" font-size="10.00" transform="matrix(0.981308, 0, 0, 0.981308, 0, 0)" id="Rect 37 (1)">
            <tspan x="406.28" y="313.42">4</tspan>
        </text>
        <ellipse cx="405.58" cy="333.54" rx="10.50" ry="10.50" fill="#FFFFFF" stroke="#000000" stroke-width="0.61" id="Oval 36 (1)"/>
        <text xml:space="preserve" font-family="Liberation Sans" font-size="10.00" transform="matrix(0.981308, 0, 0, 0.981308, 0, 0)" id="Rect 37 (1)">
            <tspan x="410.52" y="343.61">5</tspan>
        </text>
        <ellipse cx="351.04" cy="361.39" rx="10.50" ry="10.50" fill="#FFFFFF" stroke="#000000" stroke-width="0.61" id="Oval 36 (1)"/>
        <text xml:space="preserve" font-family="Liberation Sans" font-size="10.00" transform="matrix(0.981308, 0, 0, 0.981308, 0, 0)" id="Rect 37 (1)">
            <tspan x="354.95" y="371.99">6</tspan>
        </text>
        <ellipse cx="384.36" cy="243.57" rx="10.50" ry="10.50" fill="#FFFFFF" stroke="#000000" stroke-width="0.61" id="Oval 36 (1)"/>
        <text xml:space="preserve" font-family="Liberation Sans" font-size="10.00" transform="matrix(0.981308, 0, 0, 0.981308, 0, 0)" id="Rect 37 (1)">
            <tspan x="388.90" y="251.92">7</tspan>
        </text>
        <ellipse cx="331.40" cy="250.97" rx="10.50" ry="10.50" fill="#FFFFFF" stroke="#000000" stroke-width="0.61" id="Oval 36 (1)"/>
        <text xml:space="preserve" font-family="Liberation Sans" font-size="10.00" transform="matrix(0.981308, 0, 0, 0.981308, 0, 0)" id="Rect 37 (1)">
            <tspan x="334.93" y="259.47">8</tspan>
        </text>
        <ellipse cx="347.80" cy="202.02" rx="10.50" ry="10.50" fill="#FFFFFF" stroke="#000000" stroke-width="0.61" id="Oval 36 (1)"/>
        <text xml:space="preserve" font-family="Liberation Sans" font-size="10.00" transform="matrix(0.981308, 0, 0, 0.981308, 0, 0)" id="Rect 37 (1)">
            <tspan x="351.64" y="209.58">9</tspan>
        </text>
        <ellipse cx="270.67" cy="214.56" rx="10.50" ry="10.50" fill="#FFFFFF" stroke="#000000" stroke-width="0.61" id="Oval 36 (1)"/>
        <text xml:space="preserve" font-family="Liberation Sans" font-size="10.00" transform="matrix(0.981308, 0, 0, 0.981308, 0, 0)" id="Rect 37 (1)">
            <tspan x="270.26" y="222.36">10</tspan>
        </text>
        <ellipse cx="108.59" cy="149.05" rx="10.50" ry="10.50" fill="#FFFFFF" stroke="#000000" stroke-width="0.61" id="Oval 36 (1)"/>
        <text xml:space="preserve" font-family="Liberation Sans" font-size="10.00" transform="matrix(0.981308, 0, 0, 0.981308, 0, 0)" id="Rect 37 (1)">
            <tspan x="105.10" y="155.60">12</tspan>
        </text>
        <ellipse cx="124.58" cy="75.54" rx="10.50" ry="10.50" fill="#FFFFFF" stroke="#000000" stroke-width="0.61" id="Oval 36 (1)"/>
        <text xml:space="preserve" font-family="Liberation Sans" font-size="10.00" transform="matrix(0.981308, 0, 0, 0.981308, 0, 0)" id="Rect 37 (1)">
            <tspan x="121.39" y="80.70">13</tspan>
        </text>
        <ellipse cx="94.09" cy="108.94" rx="10.50" ry="10.50" fill="#FFFFFF" stroke="#000000" stroke-width="0.61" id="Oval 36 (1)"/>
        <text xml:space="preserve" font-family="Liberation Sans" font-size="10.00" transform="matrix(0.981308, 0, 0, 0.981308, 0, 0)" id="Rect 37 (1)">
            <tspan x="90.32" y="114.73">14</tspan>
        </text>
        <ellipse cx="39.54" cy="80.93" rx="10.50" ry="10.50" fill="#FFFFFF" stroke="#000000" stroke-width="0.61" id="Oval 36 (1)"/>
        <text xml:space="preserve" font-family="Liberation Sans" font-size="10.00" transform="matrix(0.981308, 0, 0, 0.981308, 0, 0)" id="Rect 37 (1)">
            <tspan x="34.73" y="86.19">16</tspan>
        </text>
        <ellipse cx="87.68" cy="71.50" rx="10.50" ry="10.50" fill="#FFFFFF" stroke="#000000" stroke-width="0.61" id="Oval 36 (1)"/>
        <text xml:space="preserve" font-family="Liberation Sans" font-size="10.00" transform="matrix(0.981308, 0, 0, 0.981308, 0, 0)" id="Rect 37 (1)">
            <tspan x="83.79" y="76.58">15</tspan>
        </text>
        <ellipse cx="284.70" cy="164.10" rx="10.50" ry="10.50" fill="#FFFFFF" stroke="#000000" stroke-width="0.61" id="Oval 36 (1)"/>
        <text xml:space="preserve" font-family="Liberation Sans" font-size="10.00" transform="matrix(0.981308, 0, 0, 0.981308, 0, 0)" id="Rect 37 (1)">
            <tspan x="284.94" y="170.94">11</tspan>
        </text>
        <ellipse cx="59.63" cy="38.16" rx="10.50" ry="10.50" fill="#FFFFFF" stroke="#000000" stroke-width="0.61" id="Oval 36 (1)"/>
        <text xml:space="preserve" font-family="Liberation Sans" font-size="10.00" transform="matrix(0.981308, 0, 0, 0.981308, 0, 0)" id="Rect 37 (1)">
            <tspan x="55.20" y="42.60">17</tspan>
        </text>
        <ellipse cx="72.06" cy="57.20" rx="3.63" ry="3.63" fill="#FFFFFF" stroke="#000000" stroke-width="0.81" id="Oval 39 (12)"/>
    </g>
</svg>