<?xml version="1.0" encoding="UTF-8"?>
<svg width="1103" height="538" version="1.1" xmlns="http://www.w3.org/2000/svg" xmlns:cc="http://creativecommons.org/ns#" xmlns:dc="http://purl.org/dc/elements/1.1/" xmlns:rdf="http://www.w3.org/1999/02/22-rdf-syntax-ns#" xmlns:xlink="http://www.w3.org/1999/xlink">
 <defs>
  <pattern id="pattern1876" patternTransform="translate(604.71 537.66)" xlink:href="#pattern5252"/>
  <pattern id="pattern5255" patternTransform="matrix(9.7434 0 0 10.862 -692.45 -355.09)" xlink:href="#pattern5250"/>
  <pattern id="pattern5250" patternTransform="matrix(9.7434 0 0 10.862 3.9516 178.41)" xlink:href="#Checkerboard"/>
  <pattern id="Checkerboard" width="2" height="2" patternTransform="translate(0) scale(10)" patternUnits="userSpaceOnUse">
   <rect width="1" height="1"/>
   <rect x="1" y="1" width="1" height="1"/>
  </pattern>
  <pattern id="pattern5252" width="23.0625" height="77.09375" patternTransform="translate(696.41 533.5)" patternUnits="userSpaceOnUse">
   <rect x=".52008" y=".51819" width="22.025" height="76.056" ry="0" fill="url(#pattern5255)" stroke="#000" stroke-width="1.0288"/>
  </pattern>
 </defs>
 <metadata>
  <rdf:RDF>
   <cc:Work rdf:about="">
    <dc:format>image/svg+xml</dc:format>
    <dc:type rdf:resource="http://purl.org/dc/dcmitype/StillImage"/>
    <dc:title/>
    <cc:license rdf:resource="http://creativecommons.org/licenses/by-sa/4.0/"/>
   </cc:Work>
   <cc:License rdf:about="http://creativecommons.org/licenses/by-sa/4.0/">
    <cc:permits rdf:resource="http://creativecommons.org/ns#Reproduction"/>
    <cc:permits rdf:resource="http://creativecommons.org/ns#Distribution"/>
    <cc:requires rdf:resource="http://creativecommons.org/ns#Notice"/>
    <cc:requires rdf:resource="http://creativecommons.org/ns#Attribution"/>
    <cc:permits rdf:resource="http://creativecommons.org/ns#DerivativeWorks"/>
    <cc:requires rdf:resource="http://creativecommons.org/ns#ShareAlike"/>
   </cc:License>
  </rdf:RDF>
 </metadata>
 <g transform="translate(28.649 -99.655)">
  <g fill="none">
   <g stroke="#b2b2b2">
    <path transform="translate(-28.649 99.655)" d="m559.8 353.34s11.431-5.4951 16.351-9.4119c2.7469-2.1868 5.3546-4.7118 7.1674-7.7187 2.0106-3.335 3.2714-7.5671 3.8594-11.027s0.55889-6.2907 0-9.3728-1.927-5.9596-3.308-8.8214-5.3519-9.4396-5.3519-9.4396" stroke-width="12.402"/>
    <path transform="translate(-28.649 99.655)" d="m427.55 262.72s-17.499-8.875-21.703-13.071-6.9412-6.5579-8.8883-11.027-3.5821-10.489-3.308-15.437 2.19-9.0325 4.4107-13.232 5.3906-8.1473 8.8214-11.578 12.748-8.4316 12.748-8.4316" stroke-miterlimit="4.2" stroke-width="11.693"/>
    <path transform="translate(-28.649 99.655)" d="m812.8 294.6s1.8797 1.7471 13.004-4.21c11.124-5.9571 48.624-38.538 48.624-38.538s3.1717-3.611 4.6391-8.6599c1.4674-5.049 0-13.043 0-13.043" stroke-width="12.047"/>
    <path transform="translate(-28.649 99.655)" d="m1023.8 274.84s3.8971 10.702 3.308 24.983-34.734 137.28-34.734 137.28-2.7814 10.948-7.0728 18.3c-4.2914 7.3521-10.113 10.637-10.113 10.637" stroke-width="12.047"/>
   </g>
   <path transform="translate(-28.649 99.655)" d="m844.65 477.35-81.598-13.232-396.96-1.654-89.317-2.7567-106.22 10.381" stroke="#000" stroke-width="4.6063"/>
  </g>
  <path d="m359.52 267.42 2.8972-16.804 34.766 16.224z" fill="#f00" stroke="#f00" stroke-width=".74315px"/>
  <path transform="translate(-28.649 99.655)" d="m56.788 337.31c0.95445-4.956 5.5134-13.783 5.5134-13.783l47.966-82.149s6.825-8.2324 10.475-9.3728 6.157-2.3473 9.2113-1.6263c3.0543 0.72102 6.821 3.5109 8.9829 6.037s3.8594 8.2701 3.8594 8.2701l17.643 67.263s5.6423 10.164 9.3728 14.335 8.7858 8.1898 12.681 10.475 4.6171 2.4482 9.9241 3.8594 22.054 3.308 22.054 3.308l65.609 2.7567 86.009 3.8594 71.674 3.308h82.701l69.469-2.2053 44.658 0.55133s7.723-1.1817 10.475-3.8594 4.2686-7.2192 4.4107-11.027-1.2454-7.5982-3.308-10.475-8.2701-6.0647-8.2701-6.0647l-152.17-58.993s-11.484-2.4487-18.746-2.6621-14.005 0.66514-24.81 1.5594-39.696 6.6161-39.696 6.6161l-92.625 13.783s-9.0144-0.12893-15.437-2.2054-11.889-3.615-22.054-11.578-44.658-70.571-44.658-70.571-3.0792-7.4489-1.1027-17.643 4.2357-10.835 9.3728-15.827 19.848-5.1235 19.848-5.1235 60.867 8.6075 97.587 15.989 122.4 29.221 122.4 29.221 15.393 2.6653 23.156 2.7567c7.7629 0.0914 15.874-0.11697 23.156-2.2054s12.446-5.0707 19.848-9.9241 23.708-19.848 23.708-19.848 80.871-88.476 86.009-92.074 7.0171-7.4067 18.612-11.255 16.613-3.8185 24.944-4.7337 20.206-0.32494 27.016 0.55134 9.5382 0.58005 13.783 3.308 7.9425 7.796 9.9241 12.681 1.654 15.437 1.654 15.437l-0.55134 121.85s-0.11693 10.439 2.2054 17.643 3.8887 16.378 12.681 27.016 13.773 12.468 19.848 16.54 105.6 47.847 110.82 49.069 11.459 1.6401 15.989 0 8.7232-3.9417 11.484-7.4904 3.6482-8.5124 4.5053-13.46 0.26055-12.133-1.654-15.989-71.123-103.65-71.123-103.65-4.6993-14.178-3.308-21.502 4.7949-15.073 10.019-19.848 12.774-8.3921 19.982-10.609c7.7016-2.369 15.986-3.085 24.031-2.6229 8.2789 0.47555 17.061 1.7672 24.259 5.5134s13.112 10.919 17.643 15.989 9.9241 13.783 9.9241 13.783l73.879 110.82s9.3085 19.5 12.129 29.221 4.4931 18.207 4.9621 28.67-0.8348 23.3-2.7567 33.632-3.9334 18.336-8.2701 28.118-11.429 20.747-18.194 29.772-10.484 15.578-22.053 24.259c-11.569 8.6814-27.362 18.913-48.518 23.708s-15.975 2.2071-38.594 2.7567-97.036-2.2054-97.036-2.2054l-682.01-7.1674s-18.077-0.70749-23.708-3.308c-5.631-2.6005-8.0785-5.2052-9.9241-8.8214" fill="none" stroke="#000" stroke-width="13.819"/>
  <rect x="696.36" y="532.9" width="22.605" height="76.636" fill="#fff"/>
  <path d="m771.36 607.61 0.0392-14.893-45.842 7.4971z" fill="#f00" stroke="#f00" stroke-width="1px"/>
  <g fill="#fff" stroke="#000" stroke-linecap="round">
   <g stroke-width="1.4173">
    <path transform="translate(-105.52 172.78)" d="m169.98 415.59a13.645 14.035 0 0 1-13.645 14.035 13.645 14.035 0 0 1-13.645-14.035 13.645 14.035 0 0 1 13.645-14.035 13.645 14.035 0 0 1 13.645 14.035z"/>
    <path transform="translate(-159.25 20.905)" d="m169.98 415.59a13.645 14.035 0 0 1-13.645 14.035 13.645 14.035 0 0 1-13.645-14.035 13.645 14.035 0 0 1 13.645-14.035 13.645 14.035 0 0 1 13.645 14.035z"/>
    <path transform="translate(-81.28 -110.09)" d="m169.98 415.59a13.645 14.035 0 0 1-13.645 14.035 13.645 14.035 0 0 1-13.645-14.035 13.645 14.035 0 0 1 13.645-14.035 13.645 14.035 0 0 1 13.645 14.035z"/>
    <path transform="translate(-23.581 34.16)" d="m169.98 415.59a13.645 14.035 0 0 1-13.645 14.035 13.645 14.035 0 0 1-13.645-14.035 13.645 14.035 0 0 1 13.645-14.035 13.645 14.035 0 0 1 13.645 14.035z"/>
    <path transform="translate(479.33 57.551)" d="m169.98 415.59a13.645 14.035 0 0 1-13.645 14.035 13.645 14.035 0 0 1-13.645-14.035 13.645 14.035 0 0 1 13.645-14.035 13.645 14.035 0 0 1 13.645 14.035z"/>
    <path transform="translate(289.81 -30.798)" d="m169.98 415.59a13.645 14.035 0 0 1-13.645 14.035 13.645 14.035 0 0 1-13.645-14.035 13.645 14.035 0 0 1 13.645-14.035 13.645 14.035 0 0 1 13.645 14.035z"/>
    <path transform="translate(109.05 -13.455)" d="m169.98 415.59a13.645 14.035 0 0 1-13.645 14.035 13.645 14.035 0 0 1-13.645-14.035 13.645 14.035 0 0 1 13.645-14.035 13.645 14.035 0 0 1 13.645 14.035z"/>
    <path transform="translate(36.581 -180.85)" d="m169.98 415.59a13.645 14.035 0 0 1-13.645 14.035 13.645 14.035 0 0 1-13.645-14.035 13.645 14.035 0 0 1 13.645-14.035 13.645 14.035 0 0 1 13.645 14.035z"/>
   </g>
   <ellipse cx="604.76" cy="155.2" rx="13.645" ry="14.035" stroke-width="1.4173"/>
   <g stroke-width="1.4173">
    <path transform="translate(543.27 -46.93)" d="m169.98 415.59a13.645 14.035 0 0 1-13.645 14.035 13.645 14.035 0 0 1-13.645-14.035 13.645 14.035 0 0 1 13.645-14.035 13.645 14.035 0 0 1 13.645 14.035z"/>
    <path transform="translate(735.86 37.279)" d="m169.98 415.59a13.645 14.035 0 0 1-13.645 14.035 13.645 14.035 0 0 1-13.645-14.035 13.645 14.035 0 0 1 13.645-14.035 13.645 14.035 0 0 1 13.645 14.035z"/>
    <path transform="translate(656.21 -187.76)" d="m169.98 415.59a13.645 14.035 0 0 1-13.645 14.035 13.645 14.035 0 0 1-13.645-14.035 13.645 14.035 0 0 1 13.645-14.035 13.645 14.035 0 0 1 13.645 14.035z"/>
    <path transform="translate(878.54 95.757)" d="m169.98 415.59a13.645 14.035 0 0 1-13.645 14.035 13.645 14.035 0 0 1-13.645-14.035 13.645 14.035 0 0 1 13.645-14.035 13.645 14.035 0 0 1 13.645 14.035z"/>
   </g>
  </g>
  <g>
   <g aria-label="1">
    <path d="m47.779 581.27 3.8672-1.8867h0.38672v13.418q0 1.3359 0.10547 1.6641 0.11719 0.32812 0.46875 0.5039 0.35156 0.17579 1.4297 0.19922v0.4336h-5.9766v-0.4336q1.125-0.0234 1.4531-0.1875 0.32812-0.17578 0.45703-0.45703 0.12891-0.29297 0.12891-1.7226v-8.5781q0-1.7344-0.11719-2.2266-0.08203-0.375-0.30469-0.55078-0.21094-0.17578-0.51562-0.17578-0.43359 0-1.207 0.36328z"/>
   </g>
   <g aria-label="2">
    <path d="m2.6271 440.06-1.1133 3.0586h-9.375v-0.4336q4.1367-3.7734 5.8242-6.1641 1.6875-2.3906 1.6875-4.3711 0-1.5117-0.92578-2.4844-0.92578-0.97265-2.2148-0.97265-1.1719 0-2.1094 0.6914-0.92578 0.67969-1.3711 2.0039h-0.43359q0.29297-2.168 1.5-3.3281 1.2188-1.1602 3.0352-1.1602 1.9336 0 3.2227 1.2422 1.3008 1.2422 1.3008 2.9297 0 1.207-0.5625 2.4141-0.86719 1.8984-2.8125 4.0195-2.918 3.1875-3.6445 3.8438h4.1484q1.2656 0 1.7695-0.0937 0.51562-0.0937 0.92578-0.375 0.41016-0.29297 0.71484-0.82032z"/>
   </g>
   <g aria-label="3">
    <path d="m69.643 300.04q0.67969-1.6055 1.7109-2.4727 1.043-0.8789 2.5898-0.8789 1.9102 0 2.9297 1.2422 0.77344 0.92578 0.77344 1.9805 0 1.7344-2.1797 3.5859 1.4648 0.57422 2.2148 1.6406 0.75 1.0664 0.75 2.5078 0 2.0625-1.3125 3.5742-1.7109 1.9688-4.957 1.9688-1.6055 0-2.1914-0.39844-0.57422-0.39844-0.57422-0.85547 0-0.33984 0.26953-0.59765 0.28125-0.25782 0.66797-0.25782 0.29297 0 0.59766 0.0937 0.19922 0.0586 0.90234 0.4336 0.70312 0.36328 0.97266 0.43359 0.43359 0.12891 0.92578 0.12891 1.1953 0 2.0742-0.92578 0.89062-0.92579 0.89062-2.1914 0-0.92578-0.41016-1.8047-0.30469-0.65625-0.66797-0.99609-0.50391-0.46875-1.3828-0.84375-0.87891-0.38672-1.793-0.38672h-0.375v-0.35156q0.92578-0.11719 1.8516-0.66797 0.9375-0.55078 1.3594-1.3242t0.42188-1.6992q0-1.207-0.76172-1.9453-0.75-0.75-1.875-0.75-1.8164 0-3.0352 1.9453z"/>
   </g>
   <g aria-label="4">
    <path d="m138.46 451.29v1.6641h-2.1328v4.1953h-1.9336v-4.1953h-6.7266v-1.5l7.3711-10.523h1.2891v10.359zm-4.0664 0v-7.8867l-5.5781 7.8867z"/>
   </g>
   <g aria-label="5">
    <path d="m639.45 463.87-0.91406 1.9922h-4.7812l-1.043 2.1328q3.1055 0.45704 4.9219 2.3086 1.5586 1.5938 1.5586 3.75 0 1.2539-0.51562 2.3203-0.50391 1.0664-1.2774 1.8164t-1.7226 1.207q-1.3477 0.64453-2.7656 0.64453-1.4297 0-2.0859-0.48047-0.64453-0.49219-0.64453-1.0781 0-0.32813 0.26953-0.57422 0.26953-0.25782 0.67969-0.25782 0.30469 0 0.52734 0.0937 0.23438 0.0937 0.78516 0.48047 0.87891 0.60938 1.7812 0.60938 1.3711 0 2.4023-1.0312 1.043-1.043 1.043-2.5312 0-1.4414-0.92578-2.6836-0.92578-1.2539-2.5547-1.9336-1.2773-0.52734-3.4805-0.60937l3.0469-6.1758z"/>
   </g>
   <g aria-label="6">
    <path d="m450.83 376.53v0.4336q-1.5469 0.15234-2.5312 0.62109-0.97266 0.45703-1.9336 1.4062-0.94922 0.94922-1.582 2.1211-0.62109 1.1602-1.043 2.7656 1.6875-1.1602 3.3867-1.1602 1.6289 0 2.8242 1.3125t1.1953 3.375q0 1.9922-1.207 3.6328-1.4531 1.9922-3.8438 1.9922-1.6289 0-2.7656-1.0781-2.2266-2.0977-2.2266-5.4375 0-2.1328 0.85547-4.0547 0.85547-1.9219 2.4375-3.4102 1.5938-1.4883 3.0469-2.0039 1.4531-0.51563 2.707-0.51563zm-7.2891 8.2031q-0.21093 1.582-0.21093 2.5547 0 1.125 0.41015 2.4492 0.42188 1.3125 1.2422 2.0859 0.59766 0.55078 1.4531 0.55078 1.0195 0 1.8164-0.96093 0.8086-0.96094 0.8086-2.7422 0-2.0039-0.79688-3.4688-0.79687-1.4648-2.2617-1.4648-0.44531 0-0.96094 0.1875-0.5039 0.1875-1.5 0.80859z"/>
   </g>
   <g aria-label="7">
    <path d="m263.05 394.04h8.5195v0.44532l-5.2969 15.773h-1.3125l4.7461-14.309h-4.3711q-1.3242 0-1.8867 0.31641-0.98437 0.53906-1.582 1.6641l-0.33984-0.12891z"/>
   </g>
   <g aria-label="8">
    <path d="m191.67 235.4q-1.8867-1.5469-2.4375-2.4844-0.53906-0.9375-0.53906-1.9453 0-1.5469 1.1953-2.6602 1.1953-1.125 3.1758-1.125 1.9219 0 3.0938 1.043 1.1719 1.043 1.1719 2.3789 0 0.89063-0.63281 1.8164t-2.6367 2.1797q2.0625 1.5938 2.7305 2.5078 0.89063 1.1953 0.89063 2.5195 0 1.6758-1.2774 2.8711-1.2773 1.1836-3.3516 1.1836-2.2617 0-3.5273-1.418-1.0078-1.1367-1.0078-2.4844 0-1.0547 0.70313-2.0859 0.71484-1.043 2.4492-2.2969zm1.8398-1.2539q1.4062-1.2656 1.7812-1.9922 0.375-0.73828 0.375-1.6641 0-1.2305-0.6914-1.9219-0.69141-0.70313-1.8867-0.70313-1.1953 0-1.9453 0.69141t-0.75 1.6172q0 0.60937 0.30469 1.2188 0.31641 0.60937 0.89063 1.1602zm-1.2891 1.6992q-0.97266 0.82032-1.4414 1.793-0.46875 0.96094-0.46875 2.0859 0 1.5117 0.82032 2.4258 0.83203 0.90234 2.1094 0.90234 1.2656 0 2.0273-0.71484 0.76172-0.71484 0.76172-1.7344 0-0.84375-0.44531-1.5117-0.83203-1.2422-3.3633-3.2461z"/>
   </g>
   <g aria-label="10">
    <path d="m595.65 148.28 3.8672-1.8867h0.38671v13.418q0 1.3359 0.10547 1.6641 0.11719 0.32812 0.46875 0.5039 0.35157 0.17578 1.4297 0.19922v0.4336h-5.9766v-0.4336q1.125-0.0234 1.4531-0.1875 0.32813-0.17578 0.45703-0.45703 0.12891-0.29297 0.12891-1.7227v-8.5781q0-1.7344-0.11719-2.2266-0.082-0.375-0.30468-0.55078-0.21094-0.17579-0.51563-0.17579-0.43359 0-1.207 0.36329z"/>
    <path d="m605.7 154.76q0-2.7188 0.82031-4.6758 0.82031-1.9688 2.1797-2.9297 1.0547-0.76171 2.1797-0.76171 1.8281 0 3.2812 1.8633 1.8164 2.3086 1.8164 6.2578 0 2.7656-0.79688 4.6992-0.79687 1.9336-2.0391 2.8125-1.2305 0.86719-2.3789 0.86719-2.2734 0-3.7852-2.6836-1.2773-2.2617-1.2773-5.4492zm2.2969 0.29297q0 3.2812 0.80859 5.3555 0.66797 1.7461 1.9922 1.7461 0.63281 0 1.3125-0.5625 0.67969-0.57421 1.0312-1.9102 0.53906-2.0156 0.53906-5.6836 0-2.7188-0.5625-4.5352-0.42187-1.3477-1.0898-1.9102-0.48047-0.38672-1.1602-0.38672-0.79687 0-1.418 0.71485-0.84375 0.97265-1.1484 3.0586t-0.30469 4.1133z"/>
   </g>
   <g aria-label="12">
    <path d="m689.94 361.34 3.8672-1.8867h0.38672v13.418q0 1.3359 0.10547 1.6641 0.11719 0.32813 0.46875 0.50391t1.4297 0.19922v0.43359h-5.9766v-0.43359q1.125-0.0234 1.4531-0.1875 0.32812-0.17578 0.45703-0.45703 0.12891-0.29297 0.12891-1.7227v-8.5781q0-1.7344-0.11719-2.2266-0.082-0.375-0.30469-0.55078-0.21094-0.17578-0.51562-0.17578-0.4336 0-1.207 0.36328z"/>
    <path d="m710.13 372.61-1.1133 3.0586h-9.375v-0.43359q4.1367-3.7734 5.8242-6.1641 1.6875-2.3906 1.6875-4.3711 0-1.5117-0.92578-2.4844-0.92579-0.97266-2.2148-0.97266-1.1719 0-2.1094 0.69141-0.92578 0.67968-1.3711 2.0039h-0.43359q0.29297-2.168 1.5-3.3281 1.2188-1.1602 3.0352-1.1602 1.9336 0 3.2226 1.2422 1.3008 1.2422 1.3008 2.9297 0 1.207-0.5625 2.4141-0.86718 1.8984-2.8125 4.0195-2.918 3.1875-3.6445 3.8438h4.1484q1.2656 0 1.7695-0.0937 0.51563-0.0937 0.92578-0.375 0.41016-0.29297 0.71485-0.82031z"/>
   </g>
   <g aria-label="13">
    <path d="m883.31 446.72 3.8672-1.8867h0.38672v13.418q0 1.3359 0.10547 1.6641 0.11719 0.32812 0.46875 0.5039 0.35156 0.17579 1.4297 0.19922v0.4336h-5.9766v-0.4336q1.125-0.0234 1.4531-0.1875 0.32813-0.17578 0.45703-0.45703 0.12891-0.29297 0.12891-1.7226v-8.5781q0-1.7344-0.11719-2.2266-0.082-0.375-0.30469-0.55078-0.21093-0.17578-0.51562-0.17578-0.43359 0-1.207 0.36328z"/>
    <path d="m893.71 448.18q0.67968-1.6055 1.7109-2.4727 1.043-0.8789 2.5898-0.8789 1.9102 0 2.9297 1.2422 0.77343 0.92579 0.77343 1.9805 0 1.7344-2.1797 3.5859 1.4648 0.57422 2.2148 1.6406 0.75 1.0664 0.75 2.5078 0 2.0625-1.3125 3.5742-1.7109 1.9688-4.957 1.9688-1.6055 0-2.1914-0.39844-0.57422-0.39844-0.57422-0.85547 0-0.33984 0.26953-0.59766 0.28125-0.25781 0.66797-0.25781 0.29297 0 0.59766 0.0937 0.19922 0.0586 0.90234 0.4336 0.70313 0.36328 0.97266 0.43359 0.43359 0.12891 0.92578 0.12891 1.1953 0 2.0742-0.92579 0.89062-0.92578 0.89062-2.1914 0-0.92578-0.41015-1.8047-0.30469-0.65625-0.66797-0.99609-0.50391-0.46875-1.3828-0.84375-0.87891-0.38672-1.793-0.38672h-0.375v-0.35156q0.92578-0.11719 1.8516-0.66797 0.9375-0.55078 1.3594-1.3242 0.42187-0.77344 0.42187-1.6992 0-1.207-0.76172-1.9453-0.75-0.75-1.875-0.75-1.8164 0-3.0352 1.9453z"/>
   </g>
   <g aria-label="14">
    <path d="m802.87 221.84 3.8672-1.8867h0.38672v13.418q0 1.3359 0.10547 1.6641 0.11719 0.32812 0.46875 0.50391 0.35156 0.17578 1.4297 0.19921v0.4336h-5.9766v-0.4336q1.125-0.0234 1.4531-0.1875 0.32813-0.17578 0.45703-0.45703 0.12891-0.29297 0.12891-1.7226v-8.5781q0-1.7344-0.11719-2.2266-0.082-0.375-0.30469-0.55078-0.21093-0.17578-0.51562-0.17578-0.4336 0-1.207 0.36328z"/>
    <path d="m823.23 230.31v1.6641h-2.1328v4.1953h-1.9336v-4.1953h-6.7266v-1.5l7.3711-10.523h1.2891v10.359zm-4.0664 0v-7.8867l-5.5781 7.8867z"/>
   </g>
   <g aria-label="15">
    <path d="m1025.2 505.2 3.8672-1.8867h0.3867v13.418q0 1.3359 0.1055 1.6641 0.1172 0.32812 0.4687 0.50391 0.3516 0.17578 1.4297 0.19921v0.4336h-5.9765v-0.4336q1.125-0.0234 1.4531-0.1875 0.3281-0.17578 0.457-0.45703 0.1289-0.29297 0.1289-1.7226v-8.5781q0-1.7344-0.1172-2.2266-0.082-0.375-0.3046-0.55078-0.211-0.17578-0.5157-0.17578-0.4336 0-1.207 0.36328z"/>
    <path d="m1044.8 503.64-0.9141 1.9922h-4.7812l-1.043 2.1328q3.1055 0.45703 4.9219 2.3086 1.5586 1.5938 1.5586 3.75 0 1.2539-0.5156 2.3203-0.504 1.0664-1.2774 1.8164t-1.7226 1.207q-1.3477 0.64453-2.7657 0.64453-1.4297 0-2.0859-0.48047-0.6445-0.49219-0.6445-1.0781 0-0.32812 0.2695-0.57421 0.2695-0.25782 0.6797-0.25782 0.3047 0 0.5273 0.0937 0.2344 0.0937 0.7852 0.48047 0.8789 0.60938 1.7812 0.60938 1.3711 0 2.4024-1.0312 1.0429-1.043 1.0429-2.5312 0-1.4414-0.9257-2.6836-0.9258-1.2539-2.5547-1.9336-1.2774-0.52734-3.4805-0.60938l3.0469-6.1758z"/>
   </g>
   <g aria-label="Primeira">
    <path d="m75.513 593.27v4.6289q0 1.5 0.32812 1.8633 0.44531 0.51563 1.3477 0.51563h0.60938v0.43359h-6.8086v-0.43359h0.59766q1.0078 0 1.4414-0.65625 0.23438-0.36329 0.23438-1.7227v-10.266q0-1.5-0.31641-1.8633-0.45703-0.51562-1.3594-0.51562h-0.59766v-0.4336h5.8242q2.1328 0 3.3633 0.44532 1.2305 0.43359 2.0742 1.4766t0.84375 2.4727q0 1.9453-1.2891 3.1641-1.2773 1.2188-3.6211 1.2188-0.57422 0-1.2422-0.082-0.66797-0.082-1.4297-0.2461zm0-0.66797q0.62109 0.11719 1.1016 0.17579 0.48047 0.0586 0.82031 0.0586 1.2188 0 2.0977-0.9375 0.89062-0.94922 0.89062-2.4492 0-1.0312-0.42188-1.9102-0.42188-0.89062-1.1953-1.3242-0.77344-0.44532-1.7578-0.44532-0.59766 0-1.5352 0.22266z"/>
    <path d="m87.83 589.66v2.4141q1.3477-2.4141 2.7656-2.4141 0.64453 0 1.0664 0.39844 0.42188 0.38671 0.42188 0.90234 0 0.45703-0.30469 0.77344-0.30469 0.3164-0.72656 0.3164-0.41016 0-0.92578-0.39843-0.50391-0.41016-0.75-0.41016-0.21094 0-0.45703 0.23437-0.52734 0.48047-1.0898 1.582v5.1445q0 0.89062 0.22266 1.3476 0.15234 0.31641 0.53906 0.52735 0.38672 0.21093 1.1133 0.21093v0.42188h-5.4961v-0.42188q0.82031 0 1.2188-0.25781 0.29297-0.1875 0.41016-0.59765 0.05859-0.19922 0.05859-1.1367v-4.1602q0-1.875-0.08203-2.2266-0.07031-0.36328-0.28125-0.52735-0.19922-0.16406-0.50391-0.16406-0.36328 0-0.82031 0.17578l-0.11719-0.42187 3.2461-1.3125z"/>
    <path d="m95.412 584.05q0.49219 0 0.83203 0.35156 0.35156 0.33984 0.35156 0.83203t-0.35156 0.84375q-0.33984 0.35156-0.83203 0.35156-0.49219 0-0.84375-0.35156-0.35156-0.35156-0.35156-0.84375t0.33984-0.83203q0.35156-0.35156 0.85547-0.35156zm0.97266 5.6133v8.625q0 1.0078 0.14062 1.3476 0.15234 0.32813 0.43359 0.49219 0.29297 0.16406 1.0547 0.16406v0.42188h-5.2148v-0.42188q0.78516 0 1.0547-0.15234 0.26953-0.15234 0.42188-0.50391 0.16406-0.35156 0.16406-1.3476v-4.1367q0-1.7461-0.10547-2.2617-0.08203-0.375-0.25781-0.51562-0.17578-0.15235-0.48047-0.15235-0.32812 0-0.79688 0.17578l-0.16406-0.42187 3.2344-1.3125z"/>
    <path d="m102.54 591.95q1.1719-1.1719 1.3828-1.3476 0.52734-0.44531 1.1367-0.69141 0.60937-0.24609 1.207-0.24609 1.0078 0 1.7344 0.58594 0.72657 0.58593 0.97266 1.6992 1.207-1.4062 2.0391-1.8398 0.83203-0.44531 1.7109-0.44531 0.85547 0 1.5117 0.44531 0.66797 0.43359 1.0547 1.4297 0.25781 0.67969 0.25781 2.1328v4.6172q0 1.0078 0.15234 1.3828 0.11719 0.25781 0.4336 0.44531 0.3164 0.17578 1.0312 0.17578v0.42188h-5.2969v-0.42188h0.22266q0.6914 0 1.0781-0.26953 0.26953-0.1875 0.38672-0.59765 0.0469-0.19922 0.0469-1.1367v-4.6172q0-1.3125-0.31641-1.8516-0.45703-0.75-1.4648-0.75-0.6211 0-1.2539 0.3164-0.62109 0.30469-1.5117 1.1484l-0.0234 0.12891 0.0234 0.5039v5.1211q0 1.1016 0.11719 1.3711 0.12891 0.26953 0.46875 0.45703 0.33984 0.17578 1.1602 0.17578v0.42188h-5.4258v-0.42188q0.89063 0 1.2188-0.21093 0.33985-0.21094 0.46875-0.63282 0.0586-0.19921 0.0586-1.1602v-4.6172q0-1.3125-0.38672-1.8867-0.51563-0.75-1.4414-0.75-0.63281 0-1.2539 0.33985-0.97266 0.51562-1.5 1.1602v5.7539q0 1.0547 0.14062 1.3711 0.15235 0.31641 0.4336 0.48047 0.29296 0.15234 1.1719 0.15234v0.42188h-5.3086v-0.42188q0.73828 0 1.0313-0.15234 0.29297-0.16406 0.44531-0.50391 0.15234-0.35156 0.15234-1.3476v-4.1016q0-1.7695-0.10547-2.2852-0.082-0.38672-0.25781-0.52734-0.17578-0.15235-0.48047-0.15235-0.32812 0-0.78516 0.17578l-0.17578-0.42187 3.2344-1.3125h0.50391z"/>
    <path d="m119.82 594.02q-0.0117 2.3906 1.1602 3.75 1.1719 1.3594 2.7539 1.3594 1.0547 0 1.8281-0.57422 0.78516-0.58594 1.3125-1.9922l0.36328 0.23438q-0.24609 1.6055-1.4297 2.9297-1.1836 1.3125-2.9648 1.3125-1.9336 0-3.3164-1.5-1.3711-1.5117-1.3711-4.0547 0-2.7539 1.4062-4.2891 1.418-1.5469 3.5508-1.5469 1.8047 0 2.9648 1.1953 1.1602 1.1836 1.1602 3.1758zm0-0.67968h4.9688q-0.0586-1.0312-0.24609-1.4531-0.29297-0.65625-0.87891-1.0312-0.57422-0.375-1.207-0.375-0.97265 0-1.7461 0.76172-0.76172 0.75-0.89063 2.0977z"/>
    <path d="m131.4 584.05q0.49219 0 0.83203 0.35156 0.35156 0.33984 0.35156 0.83203t-0.35156 0.84375q-0.33984 0.35156-0.83203 0.35156t-0.84375-0.35156-0.35156-0.84375 0.33984-0.83203q0.35156-0.35156 0.85547-0.35156zm0.97265 5.6133v8.625q0 1.0078 0.14063 1.3476 0.15234 0.32813 0.43359 0.49219 0.29297 0.16406 1.0547 0.16406v0.42188h-5.2148v-0.42188q0.78515 0 1.0547-0.15234 0.26954-0.15234 0.42188-0.50391 0.16406-0.35156 0.16406-1.3476v-4.1367q0-1.7461-0.10547-2.2617-0.082-0.375-0.25781-0.51562-0.17578-0.15235-0.48047-0.15235-0.32812 0-0.79687 0.17578l-0.16407-0.42187 3.2344-1.3125z"/>
    <path d="m138.48 589.66v2.4141q1.3477-2.4141 2.7656-2.4141 0.64453 0 1.0664 0.39844 0.42188 0.38671 0.42188 0.90234 0 0.45703-0.30469 0.77344-0.30469 0.3164-0.72656 0.3164-0.41016 0-0.92578-0.39843-0.50391-0.41016-0.75-0.41016-0.21094 0-0.45703 0.23437-0.52735 0.48047-1.0898 1.582v5.1445q0 0.89062 0.22266 1.3476 0.15234 0.31641 0.53906 0.52735 0.38672 0.21093 1.1133 0.21093v0.42188h-5.4961v-0.42188q0.82031 0 1.2188-0.25781 0.29297-0.1875 0.41016-0.59765 0.0586-0.19922 0.0586-1.1367v-4.1602q0-1.875-0.082-2.2266-0.0703-0.36328-0.28125-0.52735-0.19922-0.16406-0.50391-0.16406-0.36328 0-0.82031 0.17578l-0.11719-0.42187 3.2461-1.3125z"/>
    <path d="m149.41 599.17q-1.6524 1.2774-2.0742 1.4766-0.63281 0.29297-1.3477 0.29297-1.1133 0-1.8398-0.76172-0.71485-0.76172-0.71485-2.0039 0-0.78516 0.35157-1.3594 0.48047-0.79688 1.6641-1.5 1.1953-0.70313 3.9609-1.7109v-0.42188q0-1.6055-0.51563-2.2031-0.5039-0.59766-1.4766-0.59766-0.73828 0-1.1719 0.39844-0.44531 0.39844-0.44531 0.91406l0.0234 0.67969q0 0.53906-0.28125 0.83203-0.26953 0.29297-0.71484 0.29297-0.4336 0-0.71485-0.30469-0.26953-0.30469-0.26953-0.83203 0-1.0078 1.0312-1.8516t2.8945-0.84375q1.4297 0 2.3438 0.48047 0.69141 0.36328 1.0195 1.1367 0.21094 0.5039 0.21094 2.0625v3.6445q0 1.5352 0.0586 1.8867 0.0586 0.33984 0.1875 0.45703 0.14063 0.11718 0.31641 0.11718 0.1875 0 0.32813-0.082 0.24609-0.15234 0.94921-0.85547v0.65625q-1.3125 1.7578-2.5078 1.7578-0.57422 0-0.91406-0.39844t-0.35156-1.3594zm0-0.76171v-4.0898q-1.7695 0.70313-2.2852 0.9961-0.92578 0.51562-1.3242 1.0781t-0.39844 1.2305q0 0.84375 0.50391 1.4062 0.50391 0.55078 1.1602 0.55078 0.89062 0 2.3438-1.1719z"/>
   </g>
   <g transform="translate(-28.649 99.655)" aria-label="Lagos">
    <path d="m139.46 208.87 0.38672 0.082-1.3594 4.3125h-12.305v-0.4336h0.59765q1.0078 0 1.4414-0.65625 0.24609-0.375 0.24609-1.7344v-10.254q0-1.4883-0.32812-1.8633-0.45703-0.51562-1.3594-0.51562h-0.59765v-0.4336h7.1953v0.4336q-1.2656-0.0117-1.7812 0.23437-0.50391 0.2461-0.69141 0.6211t-0.1875 1.793v9.9844q0 0.97266 0.1875 1.3359 0.14063 0.24609 0.4336 0.36328t1.8281 0.11719h1.1602q1.8281 0 2.5664-0.26954 0.73828-0.26953 1.3476-0.94921 0.60938-0.69141 1.2188-2.168z"/>
    <path d="m147.2 211.71q-1.6524 1.2774-2.0742 1.4766-0.63281 0.29296-1.3477 0.29296-1.1133 0-1.8398-0.76171-0.71485-0.76172-0.71485-2.0039 0-0.78516 0.35157-1.3594 0.48047-0.79687 1.6641-1.5 1.1953-0.70312 3.9609-1.7109v-0.42188q0-1.6055-0.51563-2.2031-0.5039-0.59766-1.4766-0.59766-0.73828 0-1.1719 0.39844-0.44531 0.39844-0.44531 0.91406l0.0234 0.67969q0 0.53906-0.28125 0.83203-0.26953 0.29297-0.71484 0.29297-0.4336 0-0.71485-0.30469-0.26953-0.30469-0.26953-0.83203 0-1.0078 1.0312-1.8516t2.8945-0.84375q1.4297 0 2.3438 0.48047 0.69141 0.36328 1.0195 1.1367 0.21094 0.50391 0.21094 2.0625v3.6445q0 1.5352 0.0586 1.8867 0.0586 0.33985 0.1875 0.45704 0.14063 0.11718 0.31641 0.11718 0.1875 0 0.32813-0.082 0.24609-0.15234 0.94921-0.85547v0.65625q-1.3125 1.7578-2.5078 1.7578-0.57422 0-0.91406-0.39844t-0.35156-1.3594zm0-0.76172v-4.0898q-1.7695 0.70313-2.2852 0.99609-0.92578 0.51563-1.3242 1.0781t-0.39844 1.2305q0 0.84375 0.50391 1.4062 0.50391 0.55078 1.1602 0.55078 0.89062 0 2.3438-1.1719z"/>
    <path d="m154.64 209.35q-0.98437-0.48047-1.5117-1.3359-0.52734-0.86719-0.52734-1.9102 0-1.5938 1.1953-2.7422 1.207-1.1484 3.082-1.1484 1.5352 0 2.6602 0.75h2.2734q0.5039 0 0.58594 0.0352 0.082 0.0234 0.11718 0.0937 0.0703 0.10547 0.0703 0.375 0 0.30469-0.0586 0.42188-0.0352 0.0586-0.1289 0.0937-0.082 0.0352-0.58594 0.0352h-1.3945q0.65625 0.84375 0.65625 2.1562 0 1.5-1.1484 2.5664t-3.082 1.0664q-0.79688 0-1.6289-0.23438-0.51562 0.44531-0.70312 0.78516-0.17578 0.32812-0.17578 0.5625 0 0.19922 0.1875 0.38672 0.19921 0.1875 0.76171 0.26953 0.32813 0.0469 1.6406 0.082 2.4141 0.0586 3.1289 0.16406 1.0898 0.15235 1.7344 0.8086 0.65625 0.65625 0.65625 1.6172 0 1.3242-1.2422 2.4844-1.8281 1.7109-4.7695 1.7109-2.2617 0-3.8203-1.0195-0.87891-0.58593-0.87891-1.2188 0-0.28125 0.12891-0.5625 0.19922-0.43359 0.82031-1.207 0.082-0.10547 1.1953-1.2656-0.60937-0.36328-0.86718-0.64453-0.2461-0.29297-0.2461-0.65625 0-0.41016 0.32813-0.96094 0.33984-0.55078 1.5469-1.5586zm2.0391-6.5742q-0.86719 0-1.4531 0.6914-0.58594 0.69141-0.58594 2.1211 0 1.8516 0.79688 2.8711 0.60937 0.77344 1.5469 0.77344 0.89063 0 1.4648-0.66797t0.57422-2.0977q0-1.8633-0.8086-2.918-0.59765-0.77343-1.5352-0.77343zm-2.1562 10.488q-0.55079 0.59765-0.83204 1.1133-0.28125 0.51562-0.28125 0.94922 0 0.5625 0.67969 0.98437 1.1719 0.72657 3.3867 0.72657 2.1094 0 3.1055-0.75 1.0078-0.73829 1.0078-1.582 0-0.60937-0.59765-0.86718-0.60938-0.25782-2.4141-0.30469-2.6367-0.0703-4.0547-0.26953z"/>
    <path d="m169.02 202.21q2.4375 0 3.9141 1.8516 1.2539 1.582 1.2539 3.6328 0 1.4414-0.69141 2.918-0.6914 1.4766-1.9102 2.2266-1.207 0.75-2.6953 0.75-2.4258 0-3.8555-1.9336-1.207-1.6289-1.207-3.6562 0-1.4766 0.72657-2.9297 0.73828-1.4648 1.9336-2.1562 1.1953-0.70312 2.5312-0.70312zm-0.36328 0.76172q-0.6211 0-1.2539 0.375-0.62109 0.36328-1.0078 1.2891t-0.38672 2.3789q0 2.3438 0.92578 4.043 0.9375 1.6992 2.4609 1.6992 1.1367 0 1.875-0.9375t0.73828-3.2226q0-2.8594-1.2305-4.5-0.83203-1.125-2.1211-1.125z"/>
    <path d="m182.71 202.21v3.6562h-0.38672q-0.44531-1.7227-1.1484-2.3438-0.6914-0.6211-1.7695-0.6211-0.82031 0-1.3242 0.4336-0.5039 0.43359-0.5039 0.96093 0 0.65625 0.375 1.125 0.36328 0.48047 1.4766 1.0195l1.7109 0.83203q2.3789 1.1602 2.3789 3.0586 0 1.4648-1.1133 2.3672-1.1016 0.89062-2.4726 0.89062-0.98438 0-2.25-0.35156-0.38672-0.11719-0.63282-0.11719-0.26953 0-0.42187 0.30469h-0.38672v-3.832h0.38672q0.32812 1.6406 1.2539 2.4727 0.92579 0.83203 2.0742 0.83203 0.8086 0 1.3125-0.46875 0.51563-0.48047 0.51563-1.1484 0-0.80859-0.57422-1.3594-0.5625-0.55078-2.2617-1.3945t-2.2266-1.5234q-0.52735-0.66797-0.52735-1.6875 0-1.3242 0.90235-2.2148 0.91406-0.89062 2.3555-0.89062 0.63281 0 1.5352 0.26953 0.59766 0.17578 0.79688 0.17578 0.1875 0 0.29297-0.082t0.24609-0.36328z"/>
   </g>
   <g aria-label="Torre Vip">
    <path d="m534.92 466.84 0.17578 3.7266h-0.44531q-0.1289-0.98438-0.35156-1.4062-0.36328-0.67969-0.97266-0.9961-0.59765-0.32812-1.582-0.32812h-2.2383v12.141q0 1.4648 0.31641 1.8281 0.44531 0.49219 1.3711 0.49219h0.55078v0.43359h-6.7383v-0.43359h0.5625q1.0078 0 1.4297-0.60938 0.25781-0.375 0.25781-1.7109v-12.141h-1.9102q-1.1133 0-1.582 0.16406-0.60937 0.22266-1.043 0.85547-0.43359 0.63281-0.51562 1.7109h-0.44531l0.1875-3.7266z"/>
    <path d="m540.02 471.68q2.4375 0 3.9141 1.8516 1.2539 1.582 1.2539 3.6328 0 1.4414-0.69141 2.918-0.6914 1.4766-1.9102 2.2266-1.207 0.75-2.6953 0.75-2.4258 0-3.8555-1.9336-1.207-1.6289-1.207-3.6562 0-1.4766 0.72657-2.9297 0.73828-1.4648 1.9336-2.1562 1.1953-0.70312 2.5312-0.70312zm-0.36328 0.76172q-0.6211 0-1.2539 0.375-0.62109 0.36328-1.0078 1.2891t-0.38672 2.3789q0 2.3438 0.92578 4.043 0.9375 1.6992 2.4609 1.6992 1.1367 0 1.875-0.9375t0.73828-3.2226q0-2.8594-1.2305-4.5-0.83203-1.125-2.1211-1.125z"/>
    <path d="m549.91 471.68v2.4141q1.3477-2.4141 2.7656-2.4141 0.64453 0 1.0664 0.39844 0.42187 0.38672 0.42187 0.90234 0 0.45703-0.30469 0.77344-0.30468 0.3164-0.72656 0.3164-0.41016 0-0.92578-0.39843-0.50391-0.41016-0.75-0.41016-0.21094 0-0.45703 0.23438-0.52735 0.48046-1.0898 1.582v5.1445q0 0.89062 0.22266 1.3476 0.15234 0.31641 0.53906 0.52735t1.1133 0.21094v0.42187h-5.4961v-0.42187q0.82031 0 1.2188-0.25782 0.29297-0.1875 0.41016-0.59765 0.0586-0.19922 0.0586-1.1367v-4.1602q0-1.875-0.082-2.2266-0.0703-0.36328-0.28125-0.52734-0.19922-0.16407-0.50391-0.16407-0.36328 0-0.82031 0.17578l-0.11719-0.42187 3.2461-1.3125z"/>
    <path d="m557.9 471.68v2.4141q1.3477-2.4141 2.7656-2.4141 0.64453 0 1.0664 0.39844 0.42188 0.38672 0.42188 0.90234 0 0.45703-0.30469 0.77344-0.30469 0.3164-0.72656 0.3164-0.41016 0-0.92578-0.39843-0.50391-0.41016-0.75-0.41016-0.21094 0-0.45703 0.23438-0.52735 0.48046-1.0898 1.582v5.1445q0 0.89062 0.22266 1.3476 0.15234 0.31641 0.53906 0.52735t1.1133 0.21094v0.42187h-5.4961v-0.42187q0.82031 0 1.2188-0.25782 0.29297-0.1875 0.41015-0.59765 0.0586-0.19922 0.0586-1.1367v-4.1602q0-1.875-0.082-2.2266-0.0703-0.36328-0.28125-0.52734-0.19922-0.16407-0.50391-0.16407-0.36328 0-0.82031 0.17578l-0.11719-0.42187 3.2461-1.3125z"/>
    <path d="m564.56 476.04q-0.0117 2.3906 1.1602 3.75 1.1719 1.3594 2.7539 1.3594 1.0547 0 1.8281-0.57422 0.78516-0.58594 1.3125-1.9922l0.36328 0.23438q-0.24609 1.6055-1.4297 2.9297-1.1836 1.3125-2.9648 1.3125-1.9336 0-3.3164-1.5-1.3711-1.5117-1.3711-4.0547 0-2.7539 1.4062-4.2891 1.418-1.5469 3.5508-1.5469 1.8047 0 2.9648 1.1953 1.1602 1.1836 1.1602 3.1758zm0-0.67968h4.9688q-0.0586-1.0312-0.24609-1.4531-0.29297-0.65625-0.87891-1.0312-0.57422-0.375-1.207-0.375-0.97266 0-1.7461 0.76172-0.76172 0.75-0.89063 2.0977z"/>
    <path d="m595.26 466.84v0.43359q-0.84375 0.15234-1.2774 0.53906-0.62109 0.57422-1.1016 1.7578l-5.543 13.523h-0.43359l-5.9531-13.699q-0.45703-1.0547-0.64453-1.2891-0.29297-0.36328-0.72656-0.5625-0.42188-0.21094-1.1484-0.26953v-0.43359h6.4922v0.43359q-1.1016 0.10547-1.4297 0.375-0.32812 0.26953-0.32812 0.69141 0 0.58593 0.53906 1.8281l4.043 9.3164 3.75-9.1992q0.55078-1.3594 0.55078-1.8867 0-0.33984-0.33984-0.64453-0.33985-0.31641-1.1484-0.44531-0.0586-0.0117-0.19922-0.0352v-0.43359z"/>
    <path d="m597.59 466.07q0.49219 0 0.83203 0.35156 0.35156 0.33984 0.35156 0.83203t-0.35156 0.84375q-0.33984 0.35156-0.83203 0.35156t-0.84375-0.35156-0.35156-0.84375 0.33984-0.83203q0.35156-0.35156 0.85547-0.35156zm0.97265 5.6133v8.625q0 1.0078 0.14063 1.3477 0.15234 0.32812 0.43359 0.49218 0.29297 0.16407 1.0547 0.16407v0.42187h-5.2148v-0.42187q0.78515 0 1.0547-0.15235 0.26954-0.15234 0.42188-0.5039 0.16406-0.35157 0.16406-1.3477v-4.1367q0-1.7461-0.10547-2.2617-0.082-0.375-0.25781-0.51562-0.17578-0.15235-0.48047-0.15235-0.32812 0-0.79687 0.17578l-0.16407-0.42187 3.2344-1.3125z"/>
    <path d="m600.76 473.06 3.3047-1.3359h0.44531v2.5078q0.83203-1.418 1.6641-1.9805 0.84375-0.57422 1.7695-0.57422 1.6172 0 2.6953 1.2656 1.3242 1.5469 1.3242 4.0312 0 2.7774-1.5938 4.5938-1.3125 1.4883-3.3047 1.4883-0.86719 0-1.5-0.2461-0.46875-0.17578-1.0547-0.70312v3.2695q0 1.1016 0.12891 1.3945 0.14062 0.30469 0.46875 0.48047 0.33984 0.17578 1.2188 0.17578v0.43359h-5.625v-0.43359h0.29297q0.64453 0.0117 1.1016-0.24609 0.22265-0.12891 0.33984-0.42188 0.12891-0.28125 0.12891-1.4531v-10.148q0-1.043-0.0937-1.3242t-0.30469-0.42188q-0.19922-0.14062-0.55078-0.14062-0.28125 0-0.71484 0.16406zm3.75 1.8633v4.0078q0 1.3008 0.10547 1.7109 0.16406 0.67969 0.79687 1.1953 0.64454 0.51562 1.6172 0.51562 1.1719 0 1.8984-0.91406 0.94922-1.1953 0.94922-3.3633 0-2.4609-1.0781-3.7852-0.75-0.91406-1.7812-0.91406-0.5625 0-1.1133 0.28125-0.42187 0.21094-1.3945 1.2656z"/>
   </g>
   <g aria-label="Samsung">
    <path d="m223.84 223.34v5.4961h-0.4336q-0.21094-1.582-0.76172-2.5195-0.53906-0.9375-1.5469-1.4883t-2.0859-0.55078q-1.2188 0-2.0156 0.75-0.79688 0.73828-0.79688 1.6875 0 0.72656 0.50391 1.3242 0.72656 0.87891 3.457 2.3438 2.2266 1.1953 3.0352 1.8398 0.82032 0.63282 1.2539 1.5 0.44531 0.86719 0.44531 1.8164 0 1.8047-1.4062 3.1172-1.3945 1.3008-3.5976 1.3008-0.69141 0-1.3008-0.10547-0.36329-0.0586-1.5117-0.42188-1.1367-0.375-1.4414-0.375-0.29297 0-0.46875 0.17579-0.16406 0.17578-0.24609 0.72656h-0.4336v-5.4492h0.4336q0.30468 1.7109 0.82031 2.5664 0.51562 0.84375 1.5703 1.4062 1.0664 0.5625 2.332 0.5625 1.4648 0 2.3086-0.77344 0.85547-0.77344 0.85547-1.8281 0-0.58593-0.32813-1.1836-0.31641-0.59766-0.99609-1.1133-0.45703-0.35156-2.4961-1.4883-2.0391-1.1484-2.9062-1.8281-0.85547-0.67969-1.3008-1.5t-0.44531-1.8047q0-1.7109 1.3125-2.9414 1.3125-1.2422 3.3398-1.2422 1.2656 0 2.6836 0.62109 0.65625 0.29297 0.92578 0.29297 0.30469 0 0.49219-0.17578 0.19921-0.1875 0.3164-0.73828z"/>
    <path d="m233.02 238.04q-1.6524 1.2774-2.0742 1.4766-0.63281 0.29297-1.3477 0.29297-1.1133 0-1.8398-0.76172-0.71485-0.76171-0.71485-2.0039 0-0.78516 0.35157-1.3594 0.48047-0.79687 1.6641-1.5 1.1953-0.70312 3.9609-1.7109v-0.42188q0-1.6055-0.51563-2.2031-0.5039-0.59766-1.4766-0.59766-0.73828 0-1.1719 0.39844-0.44531 0.39843-0.44531 0.91406l0.0234 0.67969q0 0.53906-0.28125 0.83203-0.26953 0.29297-0.71484 0.29297-0.4336 0-0.71485-0.30469-0.26953-0.30469-0.26953-0.83203 0-1.0078 1.0312-1.8516t2.8945-0.84375q1.4297 0 2.3438 0.48046 0.69141 0.36329 1.0195 1.1367 0.21094 0.50391 0.21094 2.0625v3.6445q0 1.5352 0.0586 1.8867 0.0586 0.33985 0.1875 0.45703 0.14063 0.11719 0.31641 0.11719 0.1875 0 0.32813-0.082 0.24609-0.15234 0.94921-0.85547v0.65625q-1.3125 1.7578-2.5078 1.7578-0.57422 0-0.91406-0.39843-0.33984-0.39844-0.35156-1.3594zm0-0.76172v-4.0898q-1.7695 0.70312-2.2852 0.99609-0.92578 0.51563-1.3242 1.0781t-0.39844 1.2305q0 0.84375 0.50391 1.4062 0.50391 0.55078 1.1602 0.55078 0.89062 0 2.3438-1.1719z"/>
    <path d="m240.77 230.82q1.1719-1.1719 1.3828-1.3476 0.52735-0.44532 1.1367-0.69141 0.60938-0.24609 1.207-0.24609 1.0078 0 1.7344 0.58593 0.72656 0.58594 0.97265 1.6992 1.207-1.4062 2.0391-1.8398 0.83203-0.44531 1.7109-0.44531 0.85547 0 1.5117 0.44531 0.66797 0.43359 1.0547 1.4297 0.25781 0.67968 0.25781 2.1328v4.6172q0 1.0078 0.15235 1.3828 0.11718 0.25781 0.43359 0.44531 0.31641 0.17578 1.0312 0.17578v0.42188h-5.2969v-0.42188h0.22266q0.69141 0 1.0781-0.26953 0.26953-0.1875 0.38671-0.59766 0.0469-0.19921 0.0469-1.1367v-4.6172q0-1.3125-0.31641-1.8516-0.45703-0.75-1.4648-0.75-0.62109 0-1.2539 0.3164-0.62109 0.30469-1.5117 1.1484l-0.0234 0.12891 0.0234 0.5039v5.1211q0 1.1016 0.11719 1.3711 0.12891 0.26953 0.46875 0.45703 0.33985 0.17578 1.1602 0.17578v0.42188h-5.4258v-0.42188q0.89062 0 1.2188-0.21094 0.33984-0.21093 0.46875-0.63281 0.0586-0.19922 0.0586-1.1602v-4.6172q0-1.3125-0.38672-1.8867-0.51562-0.75-1.4414-0.75-0.63282 0-1.2539 0.33984-0.97266 0.51563-1.5 1.1602v5.7539q0 1.0547 0.14062 1.3711 0.15235 0.31641 0.4336 0.48047 0.29297 0.15234 1.1719 0.15234v0.42188h-5.3086v-0.42188q0.73828 0 1.0312-0.15234 0.29297-0.16406 0.44531-0.50391 0.15235-0.35156 0.15235-1.3476v-4.1016q0-1.7695-0.10547-2.2852-0.082-0.38672-0.25782-0.52735-0.17578-0.15234-0.48046-0.15234-0.32813 0-0.78516 0.17578l-0.17578-0.42187 3.2344-1.3125h0.50391z"/>
    <path d="m263.19 228.54v3.6562h-0.38672q-0.44531-1.7227-1.1484-2.3438-0.6914-0.6211-1.7695-0.6211-0.82031 0-1.3242 0.4336-0.5039 0.43359-0.5039 0.96093 0 0.65625 0.375 1.125 0.36328 0.48047 1.4766 1.0195l1.7109 0.83204q2.3789 1.1602 2.3789 3.0586 0 1.4648-1.1133 2.3672-1.1016 0.89062-2.4727 0.89062-0.98437 0-2.25-0.35156-0.38671-0.11719-0.63281-0.11719-0.26953 0-0.42187 0.30469h-0.38672v-3.832h0.38672q0.32812 1.6406 1.2539 2.4726 0.92578 0.83204 2.0742 0.83204 0.8086 0 1.3125-0.46875 0.51563-0.48047 0.51563-1.1484 0-0.8086-0.57422-1.3594-0.5625-0.55078-2.2617-1.3945t-2.2266-1.5234q-0.52735-0.66796-0.52735-1.6875 0-1.3242 0.90235-2.2148 0.91406-0.89062 2.3555-0.89062 0.63281 0 1.5352 0.26953 0.59766 0.17578 0.79688 0.17578 0.1875 0 0.29297-0.082 0.10546-0.082 0.24609-0.36328z"/>
    <path d="m275 228.85v6.5039q0 1.8633 0.082 2.2852 0.0937 0.41016 0.28125 0.57422 0.19922 0.16407 0.45703 0.16407 0.36328 0 0.82031-0.19922l0.16407 0.41015-3.2109 1.3242h-0.52735v-2.2734q-1.3828 1.5-2.1094 1.8867t-1.5352 0.38672q-0.90234 0-1.5703-0.51562-0.65625-0.52735-0.91406-1.3477t-0.25781-2.3203v-4.793q0-0.76172-0.16407-1.0547-0.16406-0.29297-0.49218-0.44531-0.31641-0.16406-1.1602-0.15234v-0.4336h3.7617v7.1836q0 1.5 0.51562 1.9688 0.52735 0.46875 1.2656 0.46875 0.5039 0 1.1367-0.31641 0.64453-0.31641 1.5234-1.207v-6.082q0-0.91407-0.33984-1.2305-0.32812-0.32813-1.3828-0.35156v-0.4336z"/>
    <path d="m280.72 230.81q1.8867-2.2734 3.5976-2.2734 0.87891 0 1.5117 0.44531 0.63282 0.43359 1.0078 1.4414 0.25781 0.70313 0.25781 2.1562v4.582q0 1.0195 0.16406 1.3828 0.12891 0.29297 0.41016 0.45703 0.29297 0.16406 1.0664 0.16406v0.42188h-5.3086v-0.42188h0.22266q0.75 0 1.043-0.22265 0.30469-0.23438 0.42188-0.67969 0.0469-0.17578 0.0469-1.1016v-4.3945q0-1.4648-0.38671-2.1211-0.375-0.66797-1.2774-0.66797-1.3945 0-2.7773 1.5234v5.6602q0 1.0898 0.1289 1.3476 0.16407 0.33985 0.44532 0.50391 0.29297 0.15234 1.1719 0.15234v0.42188h-5.3086v-0.42188h0.23437q0.82032 0 1.1016-0.41015 0.29296-0.42188 0.29296-1.5938v-3.9844q0-1.9336-0.0937-2.3555-0.082-0.42187-0.26953-0.57422-0.17578-0.15234-0.48047-0.15234-0.32812 0-0.78515 0.17578l-0.17578-0.42187 3.2344-1.3125h0.50391z"/>
    <path d="m292.47 235.68q-0.98438-0.48046-1.5117-1.3359-0.52735-0.86719-0.52735-1.9102 0-1.5938 1.1953-2.7422 1.207-1.1484 3.082-1.1484 1.5352 0 2.6602 0.75h2.2734q0.50391 0 0.58594 0.0352 0.082 0.0234 0.11719 0.0937 0.0703 0.10547 0.0703 0.375 0 0.30469-0.0586 0.42188-0.0352 0.0586-0.1289 0.0937-0.082 0.0352-0.58594 0.0352h-1.3945q0.65625 0.84375 0.65625 2.1562 0 1.5-1.1484 2.5664t-3.082 1.0664q-0.79687 0-1.6289-0.23438-0.51562 0.44531-0.70312 0.78516-0.17578 0.32812-0.17578 0.5625 0 0.19922 0.1875 0.38672 0.19922 0.1875 0.76172 0.26953 0.32812 0.0469 1.6406 0.082 2.4141 0.0586 3.1289 0.16406 1.0898 0.15234 1.7344 0.80859 0.65625 0.65625 0.65625 1.6172 0 1.3242-1.2422 2.4844-1.8281 1.7109-4.7695 1.7109-2.2617 0-3.8203-1.0195-0.8789-0.58593-0.8789-1.2188 0-0.28125 0.1289-0.5625 0.19922-0.43359 0.82031-1.207 0.082-0.10547 1.1953-1.2656-0.60938-0.36328-0.86719-0.64453-0.24609-0.29297-0.24609-0.65625 0-0.41016 0.32812-0.96094 0.33984-0.55078 1.5469-1.5586zm2.0391-6.5742q-0.86719 0-1.4531 0.6914-0.58593 0.69141-0.58593 2.1211 0 1.8516 0.79687 2.8711 0.60938 0.77344 1.5469 0.77344 0.89062 0 1.4648-0.66797t0.57422-2.0977q0-1.8633-0.8086-2.918-0.59765-0.77343-1.5352-0.77343zm-2.1562 10.488q-0.55078 0.59765-0.83203 1.1133-0.28125 0.51562-0.28125 0.94922 0 0.5625 0.67968 0.98437 1.1719 0.72656 3.3867 0.72656 2.1094 0 3.1055-0.75 1.0078-0.73828 1.0078-1.582 0-0.60937-0.59765-0.86718-0.60938-0.25782-2.4141-0.30469-2.6367-0.0703-4.0547-0.26953z"/>
   </g>
   <g aria-label="Craig Jones">
    <path d="m418.05 315.96 0.36329 5.4024h-0.36329q-0.72656-2.4258-2.0742-3.4922-1.3477-1.0664-3.2344-1.0664-1.582 0-2.8594 0.8086-1.2774 0.79687-2.0156 2.5547-0.72656 1.7578-0.72656 4.3711 0 2.1562 0.6914 3.7383 0.69141 1.582 2.0742 2.4258 1.3945 0.84375 3.1758 0.84375 1.5469 0 2.7305-0.65625 1.1836-0.66797 2.6016-2.6367l0.36328 0.23438q-1.1953 2.1211-2.7891 3.1055-1.5938 0.98437-3.7852 0.98437-3.9492 0-6.1172-2.9297-1.6172-2.1797-1.6172-5.1328 0-2.3789 1.0664-4.3711 1.0664-1.9922 2.9297-3.082 1.875-1.1016 4.0898-1.1016 1.7227 0 3.3984 0.84375 0.49219 0.25782 0.70312 0.25782 0.31641 0 0.55078-0.22266 0.30469-0.31641 0.4336-0.87891z"/>
    <path d="m423.5 321.16v2.4141q1.3477-2.4141 2.7656-2.4141 0.64453 0 1.0664 0.39844 0.42188 0.38671 0.42188 0.90234 0 0.45703-0.30469 0.77344-0.30469 0.3164-0.72656 0.3164-0.41016 0-0.92578-0.39843-0.50391-0.41016-0.75-0.41016-0.21094 0-0.45703 0.23437-0.52735 0.48047-1.0898 1.582v5.1445q0 0.89062 0.22266 1.3476 0.15234 0.31641 0.53906 0.52735 0.38672 0.21093 1.1133 0.21093v0.42188h-5.4961v-0.42188q0.82031 0 1.2188-0.25781 0.29297-0.1875 0.41016-0.59765 0.0586-0.19922 0.0586-1.1367v-4.1602q0-1.875-0.082-2.2266-0.0703-0.36328-0.28125-0.52735-0.19922-0.16406-0.50391-0.16406-0.36328 0-0.82031 0.17578l-0.11719-0.42187 3.2461-1.3125z"/>
    <path d="m434.43 330.67q-1.6524 1.2774-2.0742 1.4766-0.63281 0.29297-1.3477 0.29297-1.1133 0-1.8398-0.76172-0.71485-0.76172-0.71485-2.0039 0-0.78516 0.35157-1.3594 0.48047-0.79688 1.6641-1.5 1.1953-0.70313 3.9609-1.7109v-0.42188q0-1.6055-0.51563-2.2031-0.5039-0.59766-1.4766-0.59766-0.73828 0-1.1719 0.39844-0.44531 0.39844-0.44531 0.91406l0.0234 0.67969q0 0.53906-0.28125 0.83203-0.26953 0.29297-0.71484 0.29297-0.4336 0-0.71485-0.30469-0.26953-0.30469-0.26953-0.83203 0-1.0078 1.0312-1.8516t2.8945-0.84375q1.4297 0 2.3438 0.48047 0.69141 0.36328 1.0195 1.1367 0.21094 0.5039 0.21094 2.0625v3.6445q0 1.5352 0.0586 1.8867 0.0586 0.33984 0.1875 0.45703 0.14063 0.11718 0.31641 0.11718 0.1875 0 0.32813-0.082 0.24609-0.15234 0.94921-0.85547v0.65625q-1.3125 1.7578-2.5078 1.7578-0.57422 0-0.91406-0.39844t-0.35156-1.3594zm0-0.76171v-4.0898q-1.7695 0.70313-2.2852 0.9961-0.92578 0.51562-1.3242 1.0781t-0.39844 1.2305q0 0.84375 0.50391 1.4062 0.50391 0.55078 1.1602 0.55078 0.89062 0 2.3438-1.1719z"/>
    <path d="m441.73 315.55q0.49219 0 0.83203 0.35156 0.35156 0.33984 0.35156 0.83203t-0.35156 0.84375q-0.33984 0.35156-0.83203 0.35156t-0.84375-0.35156-0.35156-0.84375 0.33984-0.83203q0.35156-0.35156 0.85547-0.35156zm0.97265 5.6133v8.625q0 1.0078 0.14063 1.3476 0.15234 0.32813 0.43359 0.49219 0.29297 0.16406 1.0547 0.16406v0.42188h-5.2148v-0.42188q0.78515 0 1.0547-0.15234 0.26954-0.15234 0.42188-0.50391 0.16406-0.35156 0.16406-1.3476v-4.1367q0-1.7461-0.10547-2.2617-0.082-0.375-0.25781-0.51562-0.17578-0.15235-0.48047-0.15235-0.32812 0-0.79687 0.17578l-0.16407-0.42187 3.2344-1.3125z"/>
    <path d="m448.54 328.3q-0.98437-0.48047-1.5117-1.3359-0.52734-0.86719-0.52734-1.9102 0-1.5938 1.1953-2.7422 1.207-1.1484 3.082-1.1484 1.5352 0 2.6602 0.75h2.2734q0.5039 0 0.58593 0.0352 0.082 0.0234 0.11719 0.0937 0.0703 0.10547 0.0703 0.375 0 0.30469-0.0586 0.42188-0.0352 0.0586-0.12891 0.0937-0.082 0.0352-0.58593 0.0352h-1.3945q0.65625 0.84375 0.65625 2.1562 0 1.5-1.1484 2.5664-1.1484 1.0664-3.082 1.0664-0.79688 0-1.6289-0.23438-0.51562 0.44532-0.70312 0.78516-0.17579 0.32812-0.17579 0.5625 0 0.19922 0.1875 0.38672 0.19922 0.1875 0.76172 0.26953 0.32813 0.0469 1.6406 0.082 2.4141 0.0586 3.1289 0.16406 1.0898 0.15235 1.7344 0.8086 0.65625 0.65625 0.65625 1.6172 0 1.3242-1.2422 2.4844-1.8281 1.7109-4.7695 1.7109-2.2617 0-3.8203-1.0195-0.87891-0.58594-0.87891-1.2188 0-0.28125 0.12891-0.5625 0.19922-0.4336 0.82031-1.207 0.082-0.10546 1.1953-1.2656-0.60937-0.36328-0.86718-0.64453-0.2461-0.29297-0.2461-0.65625 0-0.41016 0.32813-0.96094 0.33984-0.55078 1.5469-1.5586zm2.0391-6.5742q-0.86718 0-1.4531 0.6914-0.58594 0.69141-0.58594 2.1211 0 1.8516 0.79688 2.8711 0.60937 0.77344 1.5469 0.77344 0.89063 0 1.4648-0.66797 0.57421-0.66797 0.57421-2.0977 0-1.8633-0.80859-2.918-0.59766-0.77344-1.5352-0.77344zm-2.1562 10.488q-0.55078 0.59766-0.83203 1.1133-0.28125 0.51563-0.28125 0.94922 0 0.5625 0.67969 0.98437 1.1719 0.72657 3.3867 0.72657 2.1094 0 3.1055-0.75 1.0078-0.73828 1.0078-1.582 0-0.60938-0.59766-0.86719-0.60937-0.25781-2.4141-0.30469-2.6367-0.0703-4.0547-0.26953z"/>
    <path d="m465.31 316.76v-0.4336h6.8086v0.4336h-0.57422q-0.97266 0-1.418 0.57422-0.28125 0.375-0.28125 1.8047v7.7695q0 1.793-0.39844 2.9062-0.38672 1.1133-1.3476 1.9453-0.96094 0.82031-2.3203 0.82031-1.1016 0-1.7344-0.53906-0.63281-0.55078-0.63281-1.2539 0-0.57422 0.29296-0.86719 0.38672-0.36328 0.90235-0.36328 0.375 0 0.66797 0.2461 0.30468 0.24609 0.76172 1.3125 0.26953 0.63281 0.6914 0.63281 0.31641 0 0.58594-0.38672 0.28125-0.38672 0.28125-1.3711v-10.852q0-1.207-0.15234-1.5938-0.11719-0.29296-0.49219-0.5039-0.50391-0.28125-1.0664-0.28125z"/>
    <path d="m478.26 321.16q2.4375 0 3.9141 1.8516 1.2539 1.582 1.2539 3.6328 0 1.4414-0.69141 2.918-0.6914 1.4766-1.9102 2.2266-1.207 0.75-2.6953 0.75-2.4258 0-3.8555-1.9336-1.207-1.6289-1.207-3.6562 0-1.4766 0.72656-2.9297 0.73828-1.4648 1.9336-2.1562 1.1953-0.70312 2.5312-0.70312zm-0.36328 0.76172q-0.62109 0-1.2539 0.375-0.62109 0.36328-1.0078 1.2891t-0.38672 2.3789q0 2.3438 0.92578 4.043 0.9375 1.6992 2.4609 1.6992 1.1367 0 1.875-0.9375t0.73828-3.2226q0-2.8594-1.2305-4.5-0.83203-1.125-2.1211-1.125z"/>
    <path d="m488.14 323.44q1.8867-2.2734 3.5976-2.2734 0.87891 0 1.5117 0.44531 0.63282 0.43359 1.0078 1.4414 0.25781 0.70312 0.25781 2.1562v4.582q0 1.0195 0.16406 1.3828 0.12891 0.29297 0.41016 0.45703 0.29297 0.16406 1.0664 0.16406v0.42188h-5.3086v-0.42188h0.22266q0.75 0 1.043-0.22265 0.30469-0.23438 0.42188-0.67969 0.0469-0.17578 0.0469-1.1016v-4.3945q0-1.4648-0.38671-2.1211-0.375-0.66797-1.2774-0.66797-1.3945 0-2.7773 1.5234v5.6602q0 1.0898 0.1289 1.3476 0.16407 0.33985 0.44532 0.50391 0.29297 0.15234 1.1719 0.15234v0.42188h-5.3086v-0.42188h0.23437q0.82032 0 1.1016-0.41015 0.29296-0.42188 0.29296-1.5938v-3.9844q0-1.9336-0.0937-2.3555-0.082-0.42187-0.26953-0.57421-0.17578-0.15235-0.48047-0.15235-0.32812 0-0.78515 0.17578l-0.17578-0.42187 3.2344-1.3125h0.50391z"/>
    <path d="m498.81 325.52q-0.0117 2.3906 1.1602 3.75 1.1719 1.3594 2.7539 1.3594 1.0547 0 1.8281-0.57422 0.78515-0.58594 1.3125-1.9922l0.36328 0.23438q-0.2461 1.6055-1.4297 2.9297-1.1836 1.3125-2.9648 1.3125-1.9336 0-3.3164-1.5-1.3711-1.5117-1.3711-4.0547 0-2.7539 1.4062-4.2891 1.418-1.5469 3.5508-1.5469 1.8047 0 2.9648 1.1953 1.1602 1.1836 1.1602 3.1758zm0-0.67968h4.9688q-0.0586-1.0312-0.24609-1.4531-0.29297-0.65625-0.87891-1.0312-0.57422-0.375-1.207-0.375-0.97266 0-1.7461 0.76172-0.76171 0.75-0.89062 2.0977z"/>
    <path d="m514.6 321.16v3.6562h-0.38672q-0.44532-1.7227-1.1484-2.3438-0.69141-0.6211-1.7695-0.6211-0.82031 0-1.3242 0.4336-0.50391 0.43359-0.50391 0.96094 0 0.65625 0.375 1.125 0.36328 0.48046 1.4766 1.0195l1.7109 0.83203q2.3789 1.1602 2.3789 3.0586 0 1.4648-1.1133 2.3672-1.1016 0.89062-2.4727 0.89062-0.98437 0-2.25-0.35156-0.38672-0.11719-0.63281-0.11719-0.26953 0-0.42188 0.30469h-0.38671v-3.832h0.38671q0.32813 1.6406 1.2539 2.4727t2.0742 0.83203q0.80859 0 1.3125-0.46875 0.51562-0.48047 0.51562-1.1484 0-0.80859-0.57421-1.3594-0.5625-0.55079-2.2617-1.3945t-2.2266-1.5234q-0.52734-0.66797-0.52734-1.6875 0-1.3242 0.90234-2.2148 0.91407-0.89062 2.3555-0.89062 0.63282 0 1.5352 0.26953 0.59766 0.17578 0.79687 0.17578 0.1875 0 0.29297-0.082t0.2461-0.36328z"/>
   </g>
   <g aria-label="Portimão">
    <path d="m632.92 145.59v4.6289q0 1.5 0.32813 1.8633 0.44531 0.51562 1.3477 0.51562h0.60937v0.4336h-6.8086v-0.4336h0.59765q1.0078 0 1.4414-0.65625 0.23437-0.36328 0.23437-1.7226v-10.266q0-1.5-0.3164-1.8633-0.45703-0.51562-1.3594-0.51562h-0.59765v-0.4336h5.8242q2.1328 0 3.3633 0.44531 1.2305 0.4336 2.0742 1.4766t0.84375 2.4726q0 1.9453-1.2891 3.1641-1.2773 1.2188-3.6211 1.2188-0.57422 0-1.2422-0.082t-1.4297-0.24609zm0-0.66797q0.6211 0.11719 1.1016 0.17578 0.48047 0.0586 0.82031 0.0586 1.2188 0 2.0977-0.9375 0.89062-0.94922 0.89062-2.4492 0-1.0312-0.42187-1.9102-0.42188-0.89062-1.1953-1.3242-0.77343-0.44531-1.7578-0.44531-0.59766 0-1.5352 0.22266z"/>
    <path d="m647.34 141.98q2.4375 0 3.9141 1.8516 1.2539 1.582 1.2539 3.6328 0 1.4414-0.6914 2.918-0.69141 1.4766-1.9102 2.2266-1.207 0.75-2.6953 0.75-2.4258 0-3.8555-1.9336-1.207-1.6289-1.207-3.6562 0-1.4766 0.72656-2.9297 0.73828-1.4648 1.9336-2.1562 1.1953-0.70312 2.5312-0.70312zm-0.36329 0.76171q-0.62109 0-1.2539 0.375-0.6211 0.36329-1.0078 1.2891-0.38672 0.92578-0.38672 2.3789 0 2.3438 0.92578 4.043 0.9375 1.6992 2.4609 1.6992 1.1367 0 1.875-0.9375 0.73828-0.9375 0.73828-3.2227 0-2.8594-1.2305-4.5-0.83203-1.125-2.1211-1.125z"/>
    <path d="m657.23 141.98v2.4141q1.3477-2.4141 2.7656-2.4141 0.64453 0 1.0664 0.39843 0.42188 0.38672 0.42188 0.90235 0 0.45703-0.30469 0.77343-0.30469 0.31641-0.72656 0.31641-0.41016 0-0.92578-0.39844-0.50391-0.41015-0.75-0.41015-0.21094 0-0.45704 0.23437-0.52734 0.48047-1.0898 1.582v5.1445q0 0.89063 0.22266 1.3477 0.15234 0.31641 0.53906 0.52734 0.38672 0.21094 1.1133 0.21094v0.42188h-5.4961v-0.42188q0.82031 0 1.2188-0.25781 0.29297-0.1875 0.41015-0.59766 0.0586-0.19922 0.0586-1.1367v-4.1602q0-1.875-0.082-2.2266-0.0703-0.36329-0.28125-0.52735-0.19922-0.16406-0.50391-0.16406-0.36328 0-0.82031 0.17578l-0.11719-0.42187 3.2461-1.3125z"/>
    <path d="m665.2 138.77v3.5273h2.5078v0.82031h-2.5078v6.9609q0 1.043 0.29297 1.4062 0.30469 0.36328 0.77344 0.36328 0.38672 0 0.75-0.23437 0.36328-0.2461 0.5625-0.71485h0.45703q-0.41016 1.1484-1.1602 1.7344-0.75 0.57422-1.5469 0.57422-0.53907 0-1.0547-0.29297-0.51563-0.30469-0.76172-0.85547-0.24609-0.5625-0.24609-1.7227v-7.2188h-1.6992v-0.38671q0.64453-0.25782 1.3125-0.86719 0.67969-0.6211 1.207-1.4648 0.26953-0.44531 0.75-1.6289z"/>
    <path d="m671.48 136.36q0.49219 0 0.83203 0.35157 0.35156 0.33984 0.35156 0.83203t-0.35156 0.84375q-0.33984 0.35156-0.83203 0.35156t-0.84375-0.35156-0.35156-0.84375 0.33984-0.83203q0.35156-0.35157 0.85547-0.35157zm0.97266 5.6133v8.625q0 1.0078 0.14062 1.3476 0.15235 0.32813 0.4336 0.49219 0.29296 0.16406 1.0547 0.16406v0.42188h-5.2148v-0.42188q0.78516 0 1.0547-0.15234 0.26953-0.15235 0.42187-0.50391 0.16406-0.35156 0.16406-1.3476v-4.1367q0-1.7461-0.10546-2.2617-0.082-0.375-0.25782-0.51563-0.17578-0.15234-0.48047-0.15234-0.32812 0-0.79687 0.17578l-0.16406-0.42187 3.2344-1.3125z"/>
    <path d="m678.61 144.26q1.1719-1.1719 1.3828-1.3476 0.52735-0.44532 1.1367-0.69141 0.60938-0.24609 1.207-0.24609 1.0078 0 1.7344 0.58593 0.72656 0.58594 0.97265 1.6992 1.207-1.4062 2.0391-1.8398 0.83203-0.44531 1.7109-0.44531 0.85547 0 1.5117 0.44531 0.66797 0.43359 1.0547 1.4297 0.25781 0.67968 0.25781 2.1328v4.6172q0 1.0078 0.15235 1.3828 0.11718 0.25781 0.43359 0.44531 0.31641 0.17578 1.0312 0.17578v0.42188h-5.2969v-0.42188h0.22265q0.69141 0 1.0781-0.26953 0.26953-0.1875 0.38672-0.59766 0.0469-0.19921 0.0469-1.1367v-4.6172q0-1.3125-0.31641-1.8516-0.45703-0.75-1.4648-0.75-0.62109 0-1.2539 0.3164-0.62109 0.30469-1.5117 1.1484l-0.0234 0.12891 0.0234 0.5039v5.1211q0 1.1016 0.11718 1.3711 0.12891 0.26953 0.46875 0.45703 0.33985 0.17578 1.1602 0.17578v0.42188h-5.4258v-0.42188q0.89062 0 1.2188-0.21094 0.33984-0.21093 0.46875-0.63281 0.0586-0.19922 0.0586-1.1602v-4.6172q0-1.3125-0.38672-1.8867-0.51562-0.75-1.4414-0.75-0.63282 0-1.2539 0.33984-0.97266 0.51563-1.5 1.1602v5.7539q0 1.0547 0.14063 1.3711 0.15234 0.31641 0.43359 0.48047 0.29297 0.15234 1.1719 0.15234v0.42188h-5.3086v-0.42188q0.73828 0 1.0312-0.15234 0.29297-0.16406 0.44531-0.50391 0.15235-0.35156 0.15235-1.3476v-4.1016q0-1.7695-0.10547-2.2852-0.082-0.38672-0.25781-0.52735-0.17579-0.15234-0.48047-0.15234-0.32813 0-0.78516 0.17578l-0.17578-0.42187 3.2344-1.3125h0.50391z"/>
    <path d="m700.17 151.48q-1.6523 1.2774-2.0742 1.4766-0.63281 0.29297-1.3476 0.29297-1.1133 0-1.8398-0.76172-0.71484-0.76171-0.71484-2.0039 0-0.78516 0.35156-1.3594 0.48047-0.79687 1.6641-1.5 1.1953-0.70312 3.9609-1.7109v-0.42188q0-1.6055-0.51562-2.2031-0.50391-0.59766-1.4766-0.59766-0.73828 0-1.1719 0.39844-0.44531 0.39843-0.44531 0.91406l0.0234 0.67969q0 0.53906-0.28125 0.83203-0.26953 0.29297-0.71484 0.29297-0.43359 0-0.71484-0.30469-0.26954-0.30469-0.26954-0.83203 0-1.0078 1.0312-1.8516t2.8945-0.84375q1.4297 0 2.3438 0.48046 0.6914 0.36329 1.0195 1.1367 0.21093 0.50391 0.21093 2.0625v3.6445q0 1.5352 0.0586 1.8867 0.0586 0.33985 0.1875 0.45703 0.14062 0.11719 0.3164 0.11719 0.1875 0 0.32813-0.082 0.24609-0.15234 0.94922-0.85547v0.65625q-1.3125 1.7578-2.5078 1.7578-0.57422 0-0.91407-0.39843-0.33984-0.39844-0.35156-1.3594zm0-0.76172v-4.0898q-1.7695 0.70312-2.2852 0.99609-0.92578 0.51563-1.3242 1.0781-0.39844 0.5625-0.39844 1.2305 0 0.84375 0.5039 1.4062 0.50391 0.55078 1.1602 0.55078 0.89063 0 2.3438-1.1719zm-4.8281-10.547h-0.375q0.0469-1.6055 0.66796-2.3203 0.6211-0.71485 1.5352-0.71485 0.48047 0 0.87891 0.15235 0.52734 0.19921 1.4883 0.84375 0.97265 0.63281 1.4414 0.63281 0.375 0 0.65625-0.31641 0.29297-0.3164 0.45704-1.3125h0.36328q0.0117 1.0898-0.29297 1.7344-0.29297 0.63281-0.84375 0.99609-0.53906 0.35156-1.0898 0.35156-0.92578 0-2.2969-0.9375-0.73828-0.5039-0.99609-0.60937-0.25782-0.10547-0.50391-0.10547-0.48047 0-0.76172 0.42187-0.12891 0.19922-0.32812 1.1836z"/>
    <path d="m709.99 141.98q2.4375 0 3.9141 1.8516 1.2539 1.582 1.2539 3.6328 0 1.4414-0.6914 2.918-0.69141 1.4766-1.9102 2.2266-1.207 0.75-2.6953 0.75-2.4258 0-3.8555-1.9336-1.207-1.6289-1.207-3.6562 0-1.4766 0.72656-2.9297 0.73828-1.4648 1.9336-2.1562 1.1953-0.70312 2.5312-0.70312zm-0.36328 0.76171q-0.62109 0-1.2539 0.375-0.6211 0.36329-1.0078 1.2891t-0.38672 2.3789q0 2.3438 0.92579 4.043 0.9375 1.6992 2.4609 1.6992 1.1367 0 1.875-0.9375t0.73828-3.2227q0-2.8594-1.2305-4.5-0.83204-1.125-2.1211-1.125z"/>
   </g>
   <g transform="translate(-28.649 99.655)" aria-label="Sagres">
    <path d="m868.34 104.38v5.4961h-0.43359q-0.21094-1.582-0.76172-2.5195-0.53906-0.9375-1.5469-1.4883-1.0078-0.55078-2.0859-0.55078-1.2188 0-2.0156 0.75-0.79687 0.73828-0.79687 1.6875 0 0.72657 0.5039 1.3242 0.72657 0.87891 3.457 2.3438 2.2266 1.1953 3.0352 1.8398 0.82031 0.63281 1.2539 1.5 0.44531 0.86718 0.44531 1.8164 0 1.8047-1.4062 3.1172-1.3945 1.3008-3.5977 1.3008-0.6914 0-1.3008-0.10547-0.36328-0.0586-1.5117-0.42187-1.1367-0.375-1.4414-0.375-0.29297 0-0.46875 0.17578-0.16407 0.17578-0.2461 0.72656h-0.43359v-5.4492h0.43359q0.30469 1.7109 0.82032 2.5664 0.51562 0.84375 1.5703 1.4062 1.0664 0.5625 2.332 0.5625 1.4648 0 2.3086-0.77344 0.85547-0.77344 0.85547-1.8281 0-0.58594-0.32812-1.1836-0.31641-0.59765-0.9961-1.1133-0.45703-0.35156-2.4961-1.4883-2.0391-1.1484-2.9062-1.8281-0.85547-0.67968-1.3008-1.5-0.44531-0.82031-0.44531-1.8047 0-1.7109 1.3125-2.9414 1.3125-1.2422 3.3398-1.2422 1.2656 0 2.6836 0.6211 0.65625 0.29297 0.92578 0.29297 0.30469 0 0.49219-0.17579 0.19922-0.1875 0.31641-0.73828z"/>
    <path d="m877.51 119.09q-1.6523 1.2774-2.0742 1.4766-0.63281 0.29297-1.3476 0.29297-1.1133 0-1.8398-0.76172-0.71484-0.76172-0.71484-2.0039 0-0.78516 0.35156-1.3594 0.48047-0.79688 1.6641-1.5 1.1953-0.70313 3.9609-1.7109v-0.42188q0-1.6055-0.51562-2.2031-0.50391-0.59766-1.4766-0.59766-0.73829 0-1.1719 0.39844-0.44531 0.39844-0.44531 0.91406l0.0234 0.67969q0 0.53906-0.28125 0.83203-0.26954 0.29297-0.71485 0.29297-0.43359 0-0.71484-0.30469-0.26953-0.30469-0.26953-0.83203 0-1.0078 1.0312-1.8516t2.8945-0.84375q1.4297 0 2.3438 0.48047 0.6914 0.36328 1.0195 1.1367 0.21094 0.5039 0.21094 2.0625v3.6445q0 1.5352 0.0586 1.8867 0.0586 0.33984 0.1875 0.45703 0.14063 0.11718 0.31641 0.11718 0.1875 0 0.32812-0.082 0.2461-0.15234 0.94922-0.85547v0.65622q-1.3125 1.7578-2.5078 1.7578-0.57422 0-0.91406-0.39844-0.33985-0.39844-0.35157-1.3594zm0-0.76171v-4.0898q-1.7695 0.70313-2.2852 0.9961-0.92578 0.51562-1.3242 1.0781t-0.39844 1.2305q0 0.84375 0.50391 1.4062 0.5039 0.55078 1.1602 0.55078 0.89063 0 2.3438-1.1719z"/>
    <path d="m884.95 116.72q-0.98438-0.48047-1.5117-1.3359-0.52734-0.86719-0.52734-1.9102 0-1.5938 1.1953-2.7422 1.207-1.1484 3.082-1.1484 1.5352 0 2.6602 0.75h2.2734q0.50391 0 0.58594 0.0352 0.082 0.0234 0.11719 0.0937 0.0703 0.10547 0.0703 0.375 0 0.30469-0.0586 0.42188-0.0352 0.0586-0.12891 0.0937-0.082 0.0352-0.58594 0.0352h-1.3945q0.65625 0.84375 0.65625 2.1562 0 1.5-1.1484 2.5664-1.1484 1.0664-3.082 1.0664-0.79687 0-1.6289-0.23438-0.51563 0.44532-0.70313 0.78516-0.17578 0.32812-0.17578 0.5625 0 0.19922 0.1875 0.38672 0.19922 0.1875 0.76172 0.26953 0.32813 0.0469 1.6406 0.082 2.4141 0.0586 3.1289 0.16406 1.0898 0.15235 1.7344 0.8086 0.65625 0.65625 0.65625 1.6172 0 1.3242-1.2422 2.4844-1.8281 1.7109-4.7695 1.7109-2.2617 0-3.8203-1.0195-0.87891-0.58594-0.87891-1.2188 0-0.28125 0.12891-0.5625 0.19921-0.4336 0.82031-1.207 0.082-0.10546 1.1953-1.2656-0.60937-0.36328-0.86719-0.64453-0.24609-0.29297-0.24609-0.65625 0-0.41016 0.32812-0.96094 0.33985-0.55078 1.5469-1.5586zm2.0391-6.5742q-0.86719 0-1.4531 0.6914-0.58594 0.69141-0.58594 2.1211 0 1.8516 0.79687 2.8711 0.60938 0.77344 1.5469 0.77344 0.89062 0 1.4648-0.66797t0.57422-2.0977q0-1.8633-0.80859-2.918-0.59766-0.77344-1.5352-0.77344zm-2.1562 10.488q-0.55078 0.59766-0.83203 1.1133-0.28125 0.51563-0.28125 0.94922 0 0.5625 0.67969 0.98437 1.1719 0.72657 3.3867 0.72657 2.1094 0 3.1055-0.75 1.0078-0.73828 1.0078-1.582 0-0.60938-0.59766-0.86719-0.60937-0.25781-2.4141-0.30469-2.6367-0.0703-4.0547-0.26953z"/>
    <path d="m897.22 109.59v2.4141q1.3477-2.4141 2.7656-2.4141 0.64453 0 1.0664 0.39844 0.42188 0.38671 0.42188 0.90234 0 0.45703-0.30469 0.77344-0.30469 0.3164-0.72656 0.3164-0.41016 0-0.92578-0.39843-0.50391-0.41016-0.75-0.41016-0.21094 0-0.45704 0.23437-0.52734 0.48047-1.0898 1.582v5.1445q0 0.89062 0.22266 1.3476 0.15234 0.31641 0.53906 0.52735 0.38672 0.21093 1.1133 0.21093v0.42188h-5.4961v-0.42188q0.82031 0 1.2188-0.25781 0.29297-0.1875 0.41015-0.59765 0.0586-0.19922 0.0586-1.1367v-4.1602q0-1.875-0.082-2.2266-0.0703-0.36328-0.28125-0.52735-0.19922-0.16406-0.50391-0.16406-0.36328 0-0.82031 0.17578l-0.11719-0.42187 3.2461-1.3125z"/>
    <path d="m903.88 113.95q-0.0117 2.3906 1.1602 3.75 1.1719 1.3594 2.7539 1.3594 1.0547 0 1.8281-0.57422 0.78515-0.58594 1.3125-1.9922l0.36328 0.23438q-0.24609 1.6055-1.4297 2.9297-1.1836 1.3125-2.9648 1.3125-1.9336 0-3.3164-1.5-1.3711-1.5117-1.3711-4.0547 0-2.7539 1.4062-4.2891 1.418-1.5469 3.5508-1.5469 1.8047 0 2.9648 1.1953 1.1602 1.1836 1.1602 3.1758zm0-0.67968h4.9688q-0.0586-1.0312-0.24609-1.4531-0.29297-0.65625-0.87891-1.0312-0.57422-0.375-1.207-0.375-0.97266 0-1.7461 0.76172-0.76172 0.75-0.89063 2.0977z"/>
    <path d="m919.66 109.59v3.6562h-0.38672q-0.44531-1.7227-1.1484-2.3438-0.69141-0.6211-1.7695-0.6211-0.82031 0-1.3242 0.4336-0.50391 0.43359-0.50391 0.96094 0 0.65625 0.375 1.125 0.36329 0.48046 1.4766 1.0195l1.7109 0.83203q2.3789 1.1602 2.3789 3.0586 0 1.4648-1.1133 2.3672-1.1016 0.89062-2.4727 0.89062-0.98437 0-2.25-0.35156-0.38672-0.11719-0.63281-0.11719-0.26953 0-0.42187 0.30469h-0.38672v-3.832h0.38672q0.32812 1.6406 1.2539 2.4727t2.0742 0.83203q0.80859 0 1.3125-0.46875 0.51563-0.48047 0.51563-1.1484 0-0.80859-0.57422-1.3594-0.5625-0.55079-2.2617-1.3945t-2.2266-1.5234q-0.52735-0.66797-0.52735-1.6875 0-1.3242 0.90235-2.2148 0.91406-0.89062 2.3555-0.89062 0.63282 0 1.5352 0.26953 0.59766 0.17578 0.79688 0.17578 0.1875 0 0.29296-0.082 0.10547-0.082 0.2461-0.36328z"/>
   </g>
   <g aria-label="Galp">
    <path d="m1027 532.08 0.4102 5.0156h-0.4102q-0.6211-1.875-1.6055-2.8242-1.4179-1.3711-3.6445-1.3711-3.0352 0-4.6172 2.4023-1.3242 2.0274-1.3242 4.8281 0 2.2734 0.8789 4.1484t2.2969 2.7539q1.4297 0.86719 2.9297 0.86719 0.8789 0 1.6992-0.22266 0.8203-0.22265 1.582-0.65625v-4.5938q0-1.1953-0.1875-1.5586-0.1758-0.375-0.5625-0.5625-0.375-0.19922-1.3359-0.19922v-0.44531h6.1523v0.44531h-0.293q-0.914 0-1.2539 0.60938-0.2343 0.43359-0.2343 1.7109v4.8633q-1.3477 0.72657-2.6602 1.0664t-2.918 0.33984q-4.6054 0-6.9961-2.9531-1.7929-2.2148-1.7929-5.1094 0-2.0976 1.0078-4.0195 1.1953-2.2852 3.2812-3.5156 1.7461-1.0195 4.125-1.0195 0.8672 0 1.5704 0.14062 0.7148 0.14063 2.0156 0.6211 0.6562 0.24609 0.8789 0.24609 0.2226 0 0.375-0.19922 0.164-0.21094 0.1992-0.80859z"/>
    <path d="m1036.4 546.79q-1.6524 1.2773-2.0742 1.4766-0.6328 0.29297-1.3477 0.29297-1.1133 0-1.8398-0.76172-0.7149-0.76172-0.7149-2.0039 0-0.78515 0.3516-1.3594 0.4805-0.79688 1.6641-1.5 1.1953-0.70313 3.9609-1.7109v-0.42187q0-1.6055-0.5156-2.2031-0.5039-0.59765-1.4766-0.59765-0.7383 0-1.1719 0.39843-0.4453 0.39844-0.4453 0.91407l0.024 0.67968q0 0.53907-0.2813 0.83203-0.2695 0.29297-0.7148 0.29297-0.4336 0-0.7149-0.30468-0.2695-0.30469-0.2695-0.83204 0-1.0078 1.0312-1.8516 1.0313-0.84375 2.8946-0.84375 1.4297 0 2.3437 0.48047 0.6914 0.36328 1.0195 1.1367 0.211 0.50391 0.211 2.0625v3.6445q0 1.5352 0.059 1.8867 0.059 0.33984 0.1875 0.45703 0.1406 0.11719 0.3164 0.11719 0.1875 0 0.3281-0.082 0.2461-0.15235 0.9492-0.85547v0.65625q-1.3125 1.7578-2.5078 1.7578-0.5742 0-0.914-0.39844-0.3399-0.39843-0.3516-1.3594zm0-0.76172v-4.0898q-1.7695 0.70312-2.2852 0.99609-0.9257 0.51562-1.3242 1.0781-0.3984 0.5625-0.3984 1.2305 0 0.84375 0.5039 1.4062 0.5039 0.55078 1.1601 0.55078 0.8907 0 2.3438-1.1719z"/>
    <path d="m1044.7 531.67v14.238q0 1.0078 0.1406 1.3359 0.1524 0.32812 0.4571 0.50391 0.3047 0.16406 1.1367 0.16406v0.42187h-5.2617v-0.42187q0.7382 0 1.0078-0.15235 0.2695-0.15234 0.4219-0.5039 0.1523-0.35156 0.1523-1.3477v-9.75q0-1.8164-0.082-2.2266-0.082-0.42188-0.2696-0.57422-0.1757-0.15234-0.457-0.15234-0.3047 0-0.7734 0.1875l-0.1993-0.41016 3.1993-1.3125z"/>
    <path d="m1046.9 538.67 3.3047-1.3359h0.4453v2.5078q0.8321-1.418 1.6641-1.9805 0.8437-0.57422 1.7695-0.57422 1.6172 0 2.6953 1.2656 1.3243 1.5469 1.3243 4.0312 0 2.7773-1.5938 4.5938-1.3125 1.4883-3.3047 1.4883-0.8672 0-1.5-0.2461-0.4687-0.17578-1.0547-0.70312v3.2695q0 1.1016 0.1289 1.3945 0.1407 0.30469 0.4688 0.48047 0.3398 0.17578 1.2187 0.17578v0.4336h-5.625v-0.4336h0.293q0.6445 0.0117 1.1016-0.24609 0.2226-0.12891 0.3398-0.42188 0.1289-0.28125 0.1289-1.4531v-10.148q0-1.043-0.094-1.3242t-0.3047-0.42187q-0.1992-0.14063-0.5508-0.14063-0.2812 0-0.7148 0.16406zm3.75 1.8633v4.0078q0 1.3008 0.1055 1.7109 0.1641 0.67968 0.7969 1.1953 0.6445 0.51562 1.6172 0.51562 1.1718 0 1.8984-0.91406 0.9492-1.1953 0.9492-3.3633 0-2.4609-1.0781-3.7852-0.75-0.91406-1.7813-0.91406-0.5625 0-1.1132 0.28125-0.4219 0.21094-1.3946 1.2656z"/>
   </g>
  </g>
  <path d="m65.626 559.38c-1.8456-3.6162-3.1876-3.7757-1.1027-11.027s17.63-20.287 20.951-27.016 3.1475-7.1307 2.7567-10.475-4.4107-8.2701-4.4107-8.2701l-47.966-36.388s-6.4044-8.7463-7.7187-13.783c-1.3144-5.0372-0.95445-10.481 0-15.437" fill="none" stroke="#b2b2b2" stroke-width="13.819"/>
  <path d="m99.261 571.5s-18.077-0.70749-23.708-3.308c-5.631-2.6005-8.0785-5.2052-9.9241-8.8214-1.3009-2.5489-2.6898-5.9586-2.6898-5.9586l-33.671-97.866-1.1304-3.1351c-1.3144-5.0372-0.95444-10.481 0-15.437 0.95445-4.956 5.5134-13.783 5.5134-13.783" fill="none" stroke="#000" stroke-width="13.819"/>
  <g>
   <ellipse cx="535.26" cy="317.9" rx="13.645" ry="14.035" fill="#fff" stroke="#000" stroke-linecap="round" stroke-width="1.4173"/>
   <g aria-label="9">
    <path d="m530.67 326.9v-0.4336q1.5234-0.0234 2.8359-0.70312 1.3125-0.69141 2.5312-2.4024 1.2305-1.7109 1.7109-3.7617-1.8398 1.1836-3.3281 1.1836-1.6758 0-2.8711-1.2891-1.1953-1.3008-1.1953-3.4453 0-2.0859 1.1953-3.7148 1.4414-1.9805 3.7617-1.9805 1.957 0 3.3516 1.6172 1.7109 2.0039 1.7109 4.9453 0 2.6484-1.3008 4.9453-1.3008 2.2852-3.6211 3.7969-1.8867 1.2422-4.1133 1.2422zm7.2656-8.168q0.21094-1.5234 0.21094-2.4375 0-1.1367-0.38672-2.4492-0.38672-1.3242-1.1016-2.0274-0.70313-0.70312-1.6055-0.70312-1.043 0-1.8281 0.9375-0.78515 0.9375-0.78515 2.7891 0 2.4727 1.043 3.8672 0.76171 1.0078 1.875 1.0078 0.53906 0 1.2773-0.25781t1.3008-0.72656z"/>
   </g>
   <ellipse cx="740.47" cy="163.25" rx="13.645" ry="14.035" fill="#fff" stroke="#000" stroke-linecap="round" stroke-width="1.4173"/>
   <g aria-label="11">
    <path d="m731.36 156.33 3.8672-1.8867h0.38672v13.418q0 1.3359 0.10547 1.6641 0.11719 0.32813 0.46875 0.50391t1.4297 0.19922v0.43359h-5.9766v-0.43359q1.125-0.0234 1.4531-0.1875 0.32812-0.17578 0.45703-0.45703 0.12891-0.29297 0.12891-1.7227v-8.5781q0-1.7344-0.11719-2.2266-0.082-0.375-0.30469-0.55078-0.21094-0.17578-0.51562-0.17578-0.4336 0-1.207 0.36328z"/>
    <path d="m742.47 156.33 3.8672-1.8867h0.38671v13.418q0 1.3359 0.10547 1.6641 0.11719 0.32813 0.46875 0.50391 0.35157 0.17578 1.4297 0.19922v0.43359h-5.9766v-0.43359q1.125-0.0234 1.4531-0.1875 0.32813-0.17578 0.45703-0.45703 0.12891-0.29297 0.12891-1.7227v-8.5781q0-1.7344-0.11719-2.2266-0.082-0.375-0.30468-0.55078-0.21094-0.17578-0.51563-0.17578-0.43359 0-1.207 0.36328z"/>
   </g>
  </g>
  <g fill="none">
   <path d="m608.5 576.94c-169.74-1.8144-339.49-3.6289-426.13-4.6316-86.639-1.0028-90.173-1.1939-93.618-1.5436-3.4443-0.34966-6.7988-0.85792-9.8823-1.7218-3.0835-0.8639-5.8959-2.0837-8.0476-3.2864-2.1517-1.2027-3.6426-2.3887-5.4727-5.489-1.8301-3.1003-3.9986-8.1151-10.245-26.374s-16.617-49.908-22.005-66.85c-5.3877-16.942-5.816-19.251-5.8167-21.822s0.42628-5.4044 1.1717-8.522c0.74544-3.1175 1.8093-6.5188 3.2561-9.9817 1.4468-3.4628 3.2766-6.9868 5.4791-10.68 2.2025-3.6935 4.7777-7.5563 12.245-20.085 7.4672-12.528 19.826-33.722 26.705-45.107 6.8787-11.385 8.2768-12.962 9.9587-14.496 1.6819-1.5339 3.6471-3.0248 6.1888-4.1091s5.659-1.762 8.5733-1.3889c2.9143 0.37314 5.625 1.7963 7.7596 3.5924 2.1346 1.7962 3.6932 3.9647 5.5228 9.1492 1.8295 5.1844 3.9303 13.384 6.2684 22.703 2.338 9.3184 4.9132 19.755 6.8496 27.493 1.9364 7.7386 3.2339 12.779 4.5894 16.744 1.3555 3.9645 2.7687 6.8527 4.7631 9.9233s4.5696 6.3234 7.3483 8.9324 5.7605 4.5742 8.7763 6.3023c3.0158 1.728 6.0653 3.2189 10.267 4.5403 4.2017 1.3213 9.5554 2.4734 17.315 3.2526 7.7596 0.77925 17.925 1.1858 57.367 2.7785 39.442 1.5926 108.16 4.3711 176.88 7.1496" stroke="#ff0606" stroke-dasharray="3, 3" stroke-width="3"/>
   <path d="m414.56 453.41c27.244-0.13554 54.487-0.27108 86.384-0.53046s68.446-0.64258 87.506-0.9476 20.63-0.53173 22.482-1.1873c1.8522-0.65556 3.9869-1.7398 5.6639-3.2136 1.677-1.4738 2.8968-3.3374 3.6593-5.4041s1.0674-4.3369 0.83045-6.607c-0.23694-2.2701-1.0163-4.5404-1.9818-6.3532-0.96547-1.8129-2.1175-3.1683-3.7912-4.5486s-3.8692-2.7851-8.9011-5.0555c-5.0319-2.2704-12.9-5.4061-38.262-15.238-25.362-9.8324-68.216-26.361-90.883-34.911-22.667-8.5507-25.147-9.1231-28.531-9.5652s-7.6731-0.75353-11.722-0.74163c-4.0494 0.0119-7.8589 0.34734-14.17 0.94617-6.3116 0.59883-15.125 1.461-24.565 2.7668-9.4404 1.3058-19.507 3.0552-32.783 5.08s-29.76 4.3249-44.344 6.5095c-14.584 2.1846-27.266 4.2535-35.744 5.2536-8.4778 1.0001-12.751 0.93111-17.226-0.0519-4.4746-0.98304-9.1506-2.8805-13.369-5.3031s-7.9798-5.3705-11.385-8.5386c-3.4055-3.1682-6.4551-6.5565-9.5387-10.707s-6.201-9.064-12.013-18.972c-5.8116-9.9078-14.317-24.81-18.875-33.433-4.5577-8.6237-5.167-10.969-5.404-14.276-0.23706-3.3075-0.10152-7.5768 0.67775-11.372 0.77927-3.7954 2.2024-7.116 4.6423-10.03 2.4399-2.9144 5.8961-5.4218 10.108-6.8864 4.2121-1.4646 9.1792-1.8863 33.335 1.8338 24.156 3.7202 67.499 11.582 104.16 19.117 36.664 7.5351 66.648 14.743 84.57 18.768 17.922 4.0252 23.782 4.8675 30.258 5.1928 6.4761 0.32522 13.568 0.13354 19.989-0.72911 6.4212-0.86266 12.172-2.3961 17.922-5.0796 5.7502-2.6835 11.501-6.5171 17.189-11.002s11.068-9.396 28.894-27.989c17.827-18.593 47.975-50.755 64.104-67.698 16.129-16.944 18.237-18.669 23.03-20.586 4.7924-1.9169 12.268-4.0253 21.085-5.2712 8.8175-1.2458 18.976-1.6292 27.41-1.1498 8.4341 0.47935 15.143 1.8211 19.647 3.5466 4.5044 1.7255 6.8046 3.834 9.0088 6.6135s4.3126 6.2297 5.2707 17.06c0.95804 10.83 0.76636 29.039 0.57469 47.248" stroke="#0ad6ff" stroke-dasharray="3, 3" stroke-width="3"/>
   <path d="m661.97 577.5c33.547 0.29767 67.093 0.59533 100.64 0.89298" stroke="#000" stroke-width="14"/>
   <path d="m693.6 563.59c9.4896 0.0359 18.978 0.0717 28.466 0.10756" stroke="#000" stroke-width="4.6"/>
   <path d="m719.48 239.97c-0.12088 28.726-0.24176 57.451-0.16981 72.905 0.0719 15.454 0.33658 17.638 1.044 20.934 0.70746 3.2962 1.8575 7.7047 3.2953 11.802s3.1628 7.8828 5.7747 11.98c2.6118 4.0972 6.1099 8.5057 9.9437 12.291s8.0027 6.9482 11.237 9.1285c3.2347 2.1803 5.5348 3.3782 24.291 11.719 18.757 8.3405 53.968 23.823 72.354 31.734 18.385 7.9107 19.944 8.2495 22.418 8.2833 2.4735 0.0337 5.8619-0.23736 8.7758-0.91513 2.9139-0.67776 5.3535-1.762 7.5897-3.219 2.2362-1.457 4.2692-3.2867 5.76-5.5228s2.4396-4.879 3.2528-7.8947c0.81326-3.0157 1.4909-6.404 1.6605-9.1824 0.16958-2.7784-0.16926-4.947-1.2872-7.6916s-3.0155-6.0653-12.097-19.585c-9.0812-13.52-25.345-37.239-36.568-53.526-11.223-16.287-17.403-25.14-20.961-30.664-3.558-5.5232-4.4931-7.7156-5.2319-10.811-0.7388-3.0955-1.2809-7.0938-1.1794-10.754s0.84695-6.9804 2.2362-10.437 3.4223-7.0482 5.7266-9.9963c2.3043-2.9482 4.8795-5.2523 8.031-7.2854s6.8787-3.7951 11.284-5.2522 9.4878-2.6091 14.605-3.185c5.1168-0.57596 10.267-0.57596 15.723-0.10147 5.4555 0.47449 11.216 1.4232 16.095 3.0161 4.8794 1.5928 8.8778 3.8292 13.045 7.3534s8.5049 8.3358 12.097 12.91c3.5917 4.5745 6.438 8.9117 19.876 29.328 13.438 20.416 37.468 56.911 50.813 77.957 13.345 21.047 16.004 26.645 18.271 32.1 2.2672 5.4549 4.1427 10.766 5.6055 16.167 1.4628 5.4004 2.5132 10.89 3.0383 17.802 0.5251 6.9125 0.5251 15.248 0.017 23.109-0.5084 7.8612-1.5249 15.248-3.3208 22.957-1.796 7.7087-4.3712 15.739-7.7088 23.414-3.3377 7.6748-7.4376 14.994-11.775 21.686s-8.9115 12.757-13.384 17.925c-4.4727 5.1674-8.8438 9.4367-14.807 14.045s-13.52 9.5553-20.314 13.367c-6.7938 3.812-12.825 6.4888-19.907 8.5728-7.0818 2.084-15.214 3.5748-35.748 4.0493-20.534 0.47446-53.469-0.0677-81.865-0.60984-28.396-0.54215-52.25-1.0843-84.58-1.5724-32.33-0.48813-73.133-0.92222-113.94-1.3563" stroke="#f5ff00" stroke-dasharray="3, 3" stroke-width="3"/>
  </g>
  <rect x="604.71" y="537.66" width="23.062" height="77.094" fill="#fff"/>
  <rect x="604.71" y="537.66" width="23.062" height="77.094" fill="url(#pattern1876)"/>
 </g>
</svg>
