<?xml version="1.0" encoding="UTF-8"?>
<svg width="2400" height="850" version="1.1" viewBox="0 0 635 224.9" xmlns="http://www.w3.org/2000/svg" xmlns:cc="http://creativecommons.org/ns#" xmlns:dc="http://purl.org/dc/elements/1.1/" xmlns:rdf="http://www.w3.org/1999/02/22-rdf-syntax-ns#" xmlns:xlink="http://www.w3.org/1999/xlink">
 <defs>
  <clipPath id="clipPath9724">
   <path d="m727.24 720.31h1818.4v763.76h-1818.4v-763.76z" fill="#6a6a6a" stroke="#010101" stroke-linecap="round" stroke-linejoin="round" stroke-width=".94263"/>
  </clipPath>
  <pattern id="pattern4912" width="18.181098" height="18.137641" patternTransform="matrix(.17379 0 0 .17379 763.48 1693.9)" patternUnits="userSpaceOnUse">
   <g transform="translate(-1025.5 -1215.3)">
    <rect x="1025.5" y="1215.3" width="18.173" height="18.096"/>
    <rect x="1025.5" y="1215.3" width="9.0747" height="9.0747" fill="#fff"/>
    <rect x="1034.6" y="1224.3" width="9.0747" height="9.0747" fill="#fff"/>
   </g>
  </pattern>
  <pattern id="pattern4166" patternTransform="matrix(.45625 1.0585e-8 -1.0585e-8 .45625 1606 1268.5)" xlink:href="#pattern4912"/>
 </defs>
 <metadata>
  <rdf:RDF>
   <cc:Work rdf:about="">
    <dc:format>image/svg+xml</dc:format>
    <dc:type rdf:resource="http://purl.org/dc/dcmitype/StillImage"/>
    <dc:title/>
   </cc:Work>
  </rdf:RDF>
 </metadata>
 <g fill="none">
  <g stroke="#c8c8c8">
   <path d="m138.29 146.71c5.0693 2.9843 11.119 7.0694 15.238 11.354 1.7706 1.8419 2.4886 4.8685 2.7274 7.4706 0.5518 6.0148 0.0385 12.286-0.35573 18.38-0.11974 1.8506-0.30334 3.8756-1.1858 5.4547-1.3706 2.4526-3.243 5.1719-5.5733 6.6406-2.3735 1.4959-9.3086 1.7392-12.155 1.6601" stroke-linejoin="round" stroke-width="3.9647"/>
   <path d="m197.54 197.68c-3.7283 0.0103-6.3574-0.29317-9.4291-0.91039-4.7735-0.95917-8.1694-1.8493-11.445-4.552-2.5166-2.0764-4.6682-5.5319-5.7225-8.7789-0.85314-2.6273-0.91604-5.897-0.13004-8.4537 1.0131-3.2958 2.931-6.7278 5.5274-9.104 2.2591-2.0675 5.5125-3.3941 8.5188-4.2269 3.4099-0.94465 7.4783-1.0947 12.03-0.81286" stroke-linejoin="round" stroke-width="4.3484"/>
   <path d="m534.17 137.12c1.7429 1.1025 3.4853 2.2047 5.2271 2.9462s3.483 1.1223 5.2241 1.0678c1.7411-0.0545 3.4823-0.54421 4.897-1.2516 1.4146-0.70735 2.5029-1.6324 3.2102-2.9109 0.70733-1.2785 1.0338-2.9109 0.68022-5.2506s-1.3874-5.3868-3.9449-12.869c-2.5574-7.4819-6.6383-19.398-8.83-25.644-2.1916-6.2458-2.494-6.821-2.9048-7.3587-0.41083-0.53772-0.93025-1.0379-1.5843-1.5381-0.65406-0.50024-1.4428-1.0004-2.9716-1.672s-3.7977-1.5144-6.0671-2.3574" stroke-width="4.3614"/>
   <path d="m338.31 25.361c7.3732 0.31772 21.929 4.7598 32.867 7.0335 12.463 2.5906 25.27 4.1141 37.304 7.8553 4.8817 1.5176 9.5182 4.193 13.246 7.5266 2.4955 2.2319 4.8394 6.9144 5.4559 8.8742 0.61354 1.9501 3.4632 11.456 3.8126 12.621 0.4076 1.3592 3.5277 5.9599 4.9958 7.4937 1.436 1.5002 7.3513 6.0531 11.06 8.3154" stroke-linejoin="round" stroke-width="4.3956"/>
  </g>
  <g>
   <path d="m623.92 133.27c-0.22618 8.4299-1.4599 16.317-3.0705 24.398-0.89604 4.4958-2.4182 7.4854-4.2713 11.544-1.6902 3.7014-4.4506 7.0224-7.1809 9.9769-2.0381 2.2053-4.2652 4.2393-6.7285 5.9256-2.5124 1.7199-5.3812 3.4417-8.1986 4.2931-3.9864 1.2046-8.3886 1.3069-12.609 1.4512-10.518 0.35961-21.311 0.7519-31.607 0.0604l-21.897-0.26569c-16.836 0.30337-7.7395 0.10129-17.053 0.0707-4.019-0.0138-9.2044 0.19318-13.243 0.19966-46.19 0.0741-92.51-0.74185-138.69-0.30693-15.88 0.14957-36.949 1.9984-52.817 2.763-10.066 0.48502-9.9924 0.95875-20.052 1.5721-7.1292 0.4347-19.161 1.8417-26.314 1.7761" stroke="#000" stroke-linejoin="round" stroke-width="2.2678"/>
   <path d="m590.59 46.404c4.271 1.6026 8.6483 3.2876 13.194 5.0935 8.8502 3.5164 15.803 12.764 18.947 19.153 3.5232 7.1607 4.4653 16.829 4.1091 25.274-0.57289 13.581-1.0271 26.255-1.5056 38.969" stroke="#c8c8c8" stroke-linejoin="round" stroke-width="5.0299"/>
   <path d="m606.7 85.602s0.21286 2.7154 0.31235 3.9277c0.0995 1.2123 0.35798 2.5576 1.1972 3.5431 0.83921 0.98543 1.2582 1.3864 2.9695 1.821 1.7114 0.43457 7.0662 0.12684 8.9262 0.54142 1.86 0.41459 2.1 0.67783 3.3243 1.5226 1.2243 0.84478 1.7211 1.4835 2.3007 2.96 0.57959 1.4765 0.53094 5.735 0.53094 5.735l0.22825 2.7605" stroke="#c9c9c9" stroke-width="4.6736"/>
   <path d="m505.04 197.52c-80.04 0.0287-240.12 0.0862-320.3 0.10062-80.177 0.0144-80.45-0.0143-80.896-0.10771-0.44545-0.0934-1.0634-0.25144-1.6884-0.46695-0.6251-0.21552-1.2574-0.48855-1.9831-0.84778-0.7257-0.35923-1.5448-0.80469-2.3279-1.2861-0.78318-0.48137-1.5304-0.99867-2.2849-1.6381-0.75446-0.63944-1.516-1.401-2.249-2.2345-0.7329-0.83346-1.437-1.7387-2.0406-2.7734-0.6036-1.0346-1.1065-2.1986-1.5377-3.4488-0.43114-1.2502-0.79038-2.5866-0.9916-3.5853s-0.24433-1.6597-0.24434-4.62c-1.3e-5 -2.9603 0.0431-8.2196 2.1e-5 -11.201-0.04308-2.9818-0.1724-3.6858-0.38075-4.5624-0.20835-0.87658-0.49574-1.9256-0.79747-2.7949-0.30174-0.86939-0.61787-1.5591-0.92682-2.2202-0.30896-0.66102-0.61072-1.2933-1.0346-2.0693-0.4239-0.77599-0.96995-1.6957-1.595-2.5651-0.62506-0.86941-1.3292-1.6885-2.1554-2.5866s-1.7747-1.8753-2.7159-2.6872c-0.94121-0.81195-1.8752-1.4586-2.8237-2.0478-0.94842-0.58919-1.9112-1.1209-3.1255-1.7172s-2.68-1.2574-7.9107-3.3842c-5.2308-2.1268-14.226-5.7192-19.361-7.7771-5.1345-2.0579-6.4079-2.5812-7.7864-3.1731-1.3785-0.59189-2.862-1.2524-4.0966-1.862-1.2346-0.60966-2.2202-1.1685-3.2363-1.7934s-2.0627-1.3158-3.1296-2.0881c-1.0669-0.77224-2.1541-1.6258-3.2363-2.5656-1.0822-0.9399-2.1592-1.9661-3.3227-3.1702s-2.4133-2.586-3.4446-3.8307c-1.0314-1.2447-1.8443-2.3523-2.6724-3.6072-0.82816-1.2549-1.6715-2.6571-2.4692-4.2422-0.79769-1.5851-1.5496-3.3531-2.2253-5.1161-0.67574-1.763-1.2752-3.5208-1.7528-5.2736-0.4776-1.7528-0.83323-3.5005-1.0974-5.3854-0.26421-1.8849-0.43695-3.9069-0.49794-5.8528-0.060988-1.9459-0.010186-3.8155 0.055853-5.2482s0.14733-2.4285 0.35054-3.6174c0.20321-1.1889 0.52836-2.5708 0.92464-4.0645 0.39628-1.4937 0.86369-3.0991 1.4632-4.8723 0.59951-1.7732 1.3311-3.7139 1.9814-5.2686 0.65031-1.5547 1.2193-2.7232 1.9509-4.0442 0.73161-1.321 1.6258-2.7943 2.459-4.0746 0.83322-1.2803 1.6055-2.3675 2.3777-3.4141 0.77226-1.0466 1.5445-2.0525 2.4438-3.1398 0.89927-1.0873 1.9255-2.2558 2.8959-3.2567 0.97041-1.0009 1.8849-1.8341 2.9264-2.7588 1.0415-0.92468 2.21-1.9408 3.3735-2.8705s2.3218-1.7731 3.592-2.6317c1.2702-0.85863 2.652-1.7325 4.1-2.6012 1.448-0.86879 2.962-1.7325 4.8113-2.7029 1.8493-0.97039 4.0339-2.0474 6.3322-3.0881s4.7101-2.0447 7.0009-2.9383c2.2909-0.89364 4.4607-1.6768 6.4911-2.3331 2.0304-0.65632 3.9213-1.1858 6.1522-1.7249 2.2309-0.53908 4.8016-1.0878 7.3876-1.5399 2.586-0.45216 5.1872-0.8078 7.5497-1.0161 2.3625-0.20829 4.4861-0.26925 24.026-0.29973 19.54-0.03048 56.494-0.03048 75.036-0.02284 18.541 0.0076 18.669 0.02286 19.243 0.18294 0.5744 0.16007 1.5956 0.4649 2.7173 0.88497 1.1218 0.42007 2.344 0.95529 3.5982 1.6612 1.2542 0.70595 2.5403 1.5825 3.6504 2.4807 1.1101 0.89817 2.0441 1.8178 2.8775 2.7303 0.83344 0.91251 1.5663 1.8178 2.3638 3.0105s1.6597 2.6728 2.2955 4.1278 1.0454 2.8848 1.3471 4.7062c0.30172 1.8214 0.49572 4.0343 0.54598 5.7443 0.0503 1.71-0.0431 2.9171-0.27667 4.4834-0.23353 1.5663-0.60714 3.4919-1.0993 5.2701-0.49218 1.7783-1.1029 3.4092-1.7962 4.9001-0.69335 1.4909-1.4693 2.8416-2.3132 4.1319s-1.7556 2.5202-2.8414 3.7651c-1.0858 1.2449-2.3458 2.5049-3.7582 3.775-1.4124 1.2701-2.9772 2.5504-4.3794 3.597s-2.6418 1.8595-3.9933 2.652-2.8146 1.5648-4.3997 2.3472c-1.5851 0.78241-3.2922 1.575-5.0398 2.2253s-3.536 1.1584-5.6292 1.6258c-2.0932 0.46742-4.4912 0.89418-6.6656 1.1482s-4.1254 0.33533-18.663 0.37599c-14.537 0.04065-41.66 0.04065-55.344 0.05833s-13.928 0.05308-14.438 0.18932c-0.51018 0.13624-1.2861 0.37334-2.1304 0.70385-0.84427 0.33051-1.7567 0.75442-2.522 1.1388-0.76522 0.3844-1.3831 0.72928-1.9939 1.1676-0.61077 0.43831-1.2143 0.96999-1.8215 1.6239s-1.2179 1.4298-1.7496 2.2382c-0.53171 0.80835-0.98435 1.649-1.3508 2.425-0.36644 0.77601-0.64665 1.4873-0.83704 2.2238-0.19039 0.73653-0.29097 1.4981-0.34843 2.5975-0.05746 1.0993-0.07183 2.5363-0.0216 3.5582 0.05022 1.0219 0.16495 1.6287 0.32395 2.2827s0.36222 1.3551 0.66202 2.1019c0.2998 0.74686 0.69607 1.5394 1.1534 2.2557 0.45731 0.71634 0.97551 1.3565 1.7224 2.1541s1.7223 1.7528 2.8756 2.6723c1.1533 0.91954 2.4844 1.8035 4.2329 2.9518 1.7485 1.1483 3.9143 2.5607 11.679 7.7217 7.7651 5.161 21.129 14.07 28.558 18.956 7.4293 4.8858 8.9237 5.748 10.979 6.8976 2.0549 1.1496 4.6702 2.5866 7.2568 3.8224 2.5866 1.2358 5.1444 2.2704 7.8029 3.2763 2.6585 1.0059 5.4174 1.983 7.9466 2.7446 2.5291 0.76159 4.8283 1.3076 7.2424 1.7962 2.4142 0.48856 4.9432 0.91966 7.1706 1.2502 2.2274 0.3305 4.1529 0.56042 13.307 0.67535 9.1538 0.11494 25.535 0.11494 34.049 0.0503 8.5142-0.0647 9.1608-0.19402 9.9654-0.50299s1.7674-0.79753 2.802-1.4082 2.1411-1.3436 3.1326-2.1483c0.99149-0.80469 1.868-1.6812 2.5865-2.5722 0.71848-0.8909 1.2789-1.7962 1.7746-2.7374 0.49577-0.94121 0.92685-1.9183 1.2502-3.0535 0.32334-1.1352 0.53888-2.4284 0.6826-6.1 0.14372-3.6716 0.21557-9.7212 0.31614-13.192s0.2299-4.3613 0.45981-5.4894c0.22992-1.1281 0.56042-2.4932 0.87656-3.7075 0.31614-1.2143 0.6179-2.2776 1.0274-3.4632 0.40954-1.1856 0.92686-2.4932 1.5376-3.7578 0.61074-1.2646 1.3148-2.486 2.2345-3.9446 0.91969-1.4586 2.0549-3.1542 3.3195-5.0008 1.2646-1.8466 2.6584-3.8439 9.7902-14.21 7.1318-10.366 20.001-29.1 26.781-38.955 6.7802-9.8548 7.4711-10.83 8.5686-12.07 1.0974-1.2397 2.6012-2.7435 4.3693-4.2474 1.7681-1.5039 3.8003-3.0077 5.6496-4.1254s3.5158-1.8493 5.6496-2.6013 4.7351-1.5242 7.2957-2.0119c2.5607-0.48771 5.0806-0.69093 7.1941-0.7722 2.1135-0.08127 3.8206-0.04062 5.7715 0.18296 1.951 0.22358 4.1457 0.63002 6.1576 1.1381s3.8409 1.1177 5.9747 2.0526c2.1338 0.93487 4.5725 2.1948 7.6615 3.9832 3.089 1.7884 6.8282 4.1051 38.714 23.147s91.917 54.809 122.16 72.753c30.239 17.944 30.686 18.066 31.621 18.168s2.3573 0.18285 3.8002 0.12185 2.906-0.26421 4.105-0.65034c1.1989-0.38614 2.1337-0.95515 3.1092-1.5851 0.97547-0.63 1.9916-1.321 3.0076-2.337s2.0322-2.3573 2.8044-3.7188c0.77223-1.3615 1.3006-2.7434 1.6461-4.4911 0.34551-1.7477 0.50808-3.8611 0.46747-5.9746-0.0406-2.1135-0.28445-4.227-0.56895-6.0966-0.28449-1.8696-0.60965-3.4954-1.0567-5.2025-0.44708-1.7071-1.0161-3.4954-1.5241-4.9383-0.50804-1.4429-0.95512-2.5402-1.646-3.9628s-1.6257-3.1702-2.7231-4.8977c-1.0974-1.7274-2.3573-3.4344-3.7392-5.0196s-2.8857-3.0483-4.5928-4.4913c-1.7071-1.4429-3.6173-2.8654-5.4463-4.1051s-3.5767-2.2964-5.3447-3.1703-3.5564-1.5648-5.995-2.4184c-2.4387-0.85355-5.5276-1.8696-8.0679-2.7435-2.5403-0.87386-4.5318-1.6054-5.995-2.1948-1.4632-0.58933-2.398-1.0364-3.4344-1.5851s-2.1744-1.199-3.2922-1.9915-2.2151-1.7273-3.3329-2.906-2.2558-2.6012-3.2516-4.0847c-0.99583-1.4835-1.8493-3.028-2.5404-4.8367s-1.2194-3.8815-1.4836-6.1373c-0.26424-2.2558-0.26424-4.6944-0.0814-6.5641 0.18287-1.8697 0.54866-3.1703 1.0161-4.5319 0.46741-1.3616 1.0364-2.7842 1.7884-4.2271 0.75193-1.4429 1.6867-2.9061 2.8655-4.3694 1.1787-1.4633 2.6012-2.9264 4.0442-4.0848 1.443-1.1584 2.9061-2.0119 4.4506-2.7842 1.5445-0.77225 3.1703-1.4632 4.918-1.9712 1.7478-0.50805 3.6174-0.8332 5.3448-0.9551 1.7274-0.1219 3.3126-0.04062 4.6742 0.14233 1.3616 0.18294 2.4996 0.46745 5.9951 1.5649 3.4955 1.0974 9.3481 3.0077 20.343 6.747 10.994 3.7393 27.13 9.3075 35.34 12.173 8.2102 2.8655 8.4947 3.028 8.9418 3.3329 0.44709 0.30486 1.0567 0.75194 1.6054 1.321 0.54865 0.56908 1.0364 1.26 1.4021 1.9307 0.36574 0.67065 0.60959 1.3209 0.79244 2.0119s0.30478 1.4225 0.34538 2.2964c0.0406 0.87383-5e-5 1.8899-0.63005 10.629-0.63001 8.7387-1.8493 25.199-2.3979 33.572-0.54859 8.3728-0.42666 8.6573-0.26408 9.0231 0.16259 0.3658 0.36581 0.81288 0.69106 1.2396 0.32524 0.42672 0.77232 0.83316 1.2398 1.1379s0.95517 0.50798 1.7071 0.69083c0.75192 0.18284 1.768 0.34541 3.9832 0.77219 2.2152 0.42678 5.6292 1.1177 7.6005 1.5852 1.9713 0.46747 2.4996 0.71133 2.967 0.97556 0.4674 0.26424 0.87382 0.54873 1.1785 0.95525 0.30472 0.40653 0.50793 0.9349 0.60946 1.5648 0.10153 0.62996 0.10153 1.3615 0.0202 8.0477-0.0813 6.6861-0.24387 19.326-0.36581 26.012-0.12195 6.686-0.20323 7.4176-0.38614 8.4743-0.18291 1.0568-0.46741 2.4386-0.95516 4.0847-0.48775 1.6461-1.1787 3.5563-1.951 5.365-0.77226 1.8087-1.6258 3.5157-2.6216 5.1618-0.99578 1.6461-2.1338 3.2312-3.7799 5.0398-1.6461 1.8087-3.8002 3.8408-5.9746 5.5682s-4.3692 3.1499-6.503 4.2676-4.2066 1.9306-6.3201 2.5606c-2.1135 0.63-4.2676 1.0771-6.1664 1.3674-1.8989 0.29028-3.5425 0.42371-4.3644 0.49043-0.82195 0.0667-0.82194 0.0667-80.862 0.0954z" stroke="#000" stroke-width="5.1212"/>
  </g>
  <g stroke-dasharray="1.70707, 1.70707" stroke-width="1.7071">
   <path d="m478.82 197.31c-125.02 0.16257-250.04 0.32515-312.84 0.3252-62.796 6e-5 -63.364-0.16251-64.106-0.48762s-1.6563-0.81283-2.774-1.453c-1.1177-0.64015-2.4386-1.4327-3.6072-2.4081-1.1686-0.97542-2.1847-2.1338-3.15-3.5055-0.96536-1.3718-1.8798-2.9568-2.4997-4.5826-0.61991-1.6258-0.94506-3.2922-1.1483-5.6191-0.20326-2.3269-0.28454-5.3142-0.30486-8.2305-0.02032-2.9163 0.02032-5.7613-0.11172-7.8037-0.13204-2.0424-0.43687-3.282-0.87376-4.5318s-1.0059-2.5098-1.768-3.8917c-0.76206-1.3819-1.7172-2.8857-2.713-4.3083-0.99578-1.4226-2.0322-2.7638-3.2616-3.973-1.2295-1.2092-2.652-2.2863-6.1982-4.0747-3.5463-1.7884-9.216-4.288-15.13-6.7572-5.9138-2.4692-12.071-4.9078-16.278-6.625-4.2067-1.7172-6.4624-2.713-8.4134-3.7189-1.951-1.0059-3.597-2.022-5.1618-3.0686-1.5648-1.0466-3.0483-2.1236-4.5116-3.3531s-2.9061-2.6114-4.2778-4.0339-2.6724-2.8857-3.8613-4.5217c-1.1889-1.6359-2.2659-3.4446-3.2821-5.487-1.0162-2.0424-1.9713-4.3184-2.8452-6.7063-0.87388-2.3879-1.6664-4.8875-2.205-7.4379-0.53858-2.5505-0.82309-5.1517-0.93488-7.7326-0.1118-2.581-0.05083-5.1415 0.21334-7.5193 0.26417-2.3778 0.73156-4.5725 1.3514-6.8588 0.61983-2.2863 1.3921-4.664 2.4183-7.1332 1.0263-2.4692 2.3066-5.0298 3.8104-7.5701s3.2312-5.0602 5.4464-7.7428c2.2152-2.6826 4.918-5.5276 8.068-8.2204 3.15-2.6927 6.747-5.233 10.588-7.5802 3.8409-2.3472 7.9256-4.5013 12.102-6.3304 4.1763-1.829 8.4439-3.3328 12.803-4.6233 4.3592-1.2905 8.8096-2.3675 12.63-3.028 3.8206-0.66045 7.0111-0.90431 24.762-1.0262 17.751-0.12192 50.062-0.12192 82.372-0.12192" stroke="#f6ff1b"/>
   <path d="m183.13 15.57c5.9054 0.03445 11.811 0.06891 15.259 0.21022 3.4487 0.14131 4.4409 0.38936 5.8672 1.0096 1.4263 0.6202 3.2867 1.6124 4.9611 2.6357 1.6744 1.0233 3.1627 2.0775 4.5889 3.5038 1.4263 1.4264 2.7905 3.2247 3.8757 5.0542 1.0852 1.8294 1.8913 3.6898 2.4184 6.0463s0.77509 5.2091 0.68203 8.1237c-0.0931 2.9146-0.52714 5.8912-1.0543 8.2477-0.52714 2.3565-1.1472 4.0928-2.1705 6.0772-1.0232 1.9844-2.4495 4.2168-4.1549 6.2943-1.7054 2.0774-3.6897 3.9998-5.7052 5.6431s-4.0618 3.0076-6.5114 4.4649c-2.4495 1.4573-5.3021 3.0076-7.9996 4.1549-2.6976 1.1473-5.24 1.8914-7.9686 2.5115-2.7286 0.62015-5.6432 1.1162-21.271 1.3643-15.628 0.24808-43.967 0.24808-58.819 0.34108-14.852 0.093-16.216 0.27904-17.612 0.89918-1.3954 0.62014-2.8217 1.6743-4.031 2.6976-1.2093 1.0233-2.2015 2.0154-3.0697 3.2248-0.86823 1.2093-1.6124 2.6356-2.1085 4.3411-0.49609 1.7055-0.74414 3.6899-0.68207 5.6743 0.06207 1.9845 0.43414 3.9689 1.2094 5.7983s1.9535 3.5037 3.69 5.1781c1.7365 1.6743 4.0309 3.3486 13.55 9.6431 9.5192 6.2944 26.262 17.209 35.72 23.286s11.627 7.3176 14.201 8.5888 5.5502 2.5735 8.7749 3.7518c3.2247 1.1782 6.6974 2.2324 10.387 3.2246 3.6898 0.99221 7.5966 1.9224 10.883 2.4495 3.2867 0.52708 5.9532 0.6511 15.41 0.71311 9.4572 0.062 25.704 0.062 34.231-0.0931 8.5268-0.15508 9.3329-0.46514 10.542-1.1163 1.2092-0.65115 2.8216-1.6433 4.4028-3.0386 1.5813-1.3953 3.1316-3.1936 4.1548-4.9919s1.5193-3.5966 1.7674-7.9066c0.24808-4.3099 0.24808-11.131 0.40309-15.224 0.15501-4.0929 0.46508-5.4572 0.89917-7.1626 0.4341-1.7054 0.99221-3.7518 1.9224-5.9844 0.93021-2.2326 2.2325-4.651 3.7208-7.0076 1.4883-2.3566 3.1627-4.651 11.101-16.186 7.9378-11.535 22.139-32.309 29.766-43.254s8.6819-12.062 10.263-13.457c1.5814-1.3953 3.6898-3.0697 5.8603-4.465 2.1705-1.3953 4.403-2.5116 6.9146-3.4107s5.3022-1.5813 8.5269-2.0464c3.2248-0.46508 6.8835-0.71314 10.046-0.58906 3.1627 0.12407 5.8293 0.62017 8.2168 1.2714 2.3876 0.65119 4.496 1.4574 7.0385 2.6667 2.5426 1.2093 5.5191 2.8216 35.061 20.467 29.542 17.645 85.647 51.323 141.75 85" stroke="#f00"/>
   <path d="m528.04 134.19c6.9618 4.0884 13.923 8.1766 17.776 10.221 3.8528 2.044 4.5969 2.044 6.1162 1.982 1.5193-0.062 3.8138-0.18605 5.9842-0.96125 2.1704-0.77519 4.2168-2.2015 5.9221-3.9068 1.7053-1.7053 3.0696-3.6897 3.9378-6.1392 0.86819-2.4494 1.2403-5.364 1.1163-8.6507s-0.7441-6.9454-1.7673-10.542c-1.0232-3.5968-2.4495-7.1315-4.2168-10.325-1.7673-3.1937-3.8758-6.0463-6.2633-8.6509-2.3875-2.6046-5.054-4.9611-7.5966-6.8835s-4.961-3.4107-9.9842-5.6123c-5.0232-2.2016-12.651-5.1161-17.364-7.1625s-6.5114-3.2246-8.0928-4.5269c-1.5814-1.3023-2.9456-2.7285-4.186-4.3719-1.2403-1.6433-2.3565-3.5037-3.1938-5.6122-0.83726-2.1085-1.3954-4.4649-1.6125-6.9145s-0.0931-4.9921 0.37201-7.4727c0.46509-2.4806 1.2712-4.8991 2.3565-7.1006s2.4495-4.1859 4.1239-5.9224c1.6744-1.7364 3.6588-3.2247 5.6433-4.403 1.9845-1.1783 3.9689-2.0465 6.3565-2.6976 2.3876-0.65113 5.1781-1.0852 7.2867-1.1782s3.5348 0.15509 15.721 4.1861c12.186 4.031 35.13 11.844 46.851 15.875 11.721 4.0309 12.217 4.2789 12.868 4.9922 0.65109 0.71326 1.4572 1.8915 1.9532 3.0698 0.49601 1.1783 0.68204 2.3565 0.0929 11.566-0.58918 9.2091-1.9534 26.448-2.6067 35.228-0.65322 8.7799-0.59548 9.0999-0.36916 9.5066s0.62097 0.89996 1.213 1.4645c0.59202 0.56453 1.3813 1.2004 2.4502 1.6607 1.0689 0.46032 2.4172 0.74534 4.5878 1.2058 2.1706 0.46043 5.1633 1.0962 6.8844 1.4745 1.7211 0.37822 2.1706 0.49881 2.6748 0.762 0.50428 0.2632 1.0633 0.66879 1.4689 1.1457 0.40553 0.47694 0.65766 1.025 0.80009 1.6663 0.14244 0.64128 0.17534 1.3758 0.12052 8.0137-0.0548 6.6379-0.19734 19.179-0.35631 26.107-0.15898 6.9283-0.33438 8.2438-0.70712 9.7566-0.37275 1.5128-0.94278 3.2229-1.6006 4.955-0.65776 1.7321-1.4032 3.486-2.4556 5.4154-1.0524 1.9294-2.4117 4.0341-3.9246 5.9854-1.5128 1.9513-3.1791 3.7491-4.9331 5.3277-1.754 1.5786-3.5957 2.9379-5.4812 4.1438-1.8855 1.2059-3.8149 2.2583-5.7004 3.1353s-3.7272 1.5786-5.7881 2.1267c-2.0609 0.54814-4.3411 0.94278-6.5555 1.162s-4.363 0.26312-22.543 0.23657c-18.18-0.0265-52.389-0.12352-86.599-0.22048" stroke="#00fdf7"/>
  </g>
 </g>
 <g transform="matrix(.43731 0 0 .43731 -424.19 -442.49)">
  <g>
   <g transform="translate(58.025 23.737)" stroke-width="1px" aria-label="RACC">
    <path d="m2262.1 1284.7h-3.8887l-4.9307-6.8106q-0.5478 0.022-0.8916 0.022-0.1396 0-0.3007 0-0.1612-0.011-0.3331-0.022v4.2324q0 1.375 0.3008 1.708 0.4082 0.4727 1.2246 0.4727h0.5694v0.3975h-6.2412v-0.3975h0.5478q0.9238 0 1.3213-0.6016 0.2256-0.333 0.2256-1.5791v-9.4101q0-1.375-0.3008-1.708-0.4189-0.4727-1.2461-0.4727h-0.5478v-0.3974h5.3066q2.3203 0 3.416 0.3437 1.1065 0.333 1.8692 1.2461 0.7734 0.9023 0.7734 2.1592 0 1.3428-0.8809 2.331-0.8701 0.9883-2.707 1.3965l3.0078 4.1787q1.0313 1.4395 1.7725 1.9121 0.7412 0.4727 1.9336 0.6016zm-10.345-7.4873q0.2041 0 0.3545 0.011 0.1504 0 0.2471 0 2.084 0 3.1367-0.9023 1.0635-0.9024 1.0635-2.2989 0-1.3642-0.8594-2.2129-0.8486-0.8593-2.2558-0.8593-0.6231 0-1.6866 0.2041z"/>
    <path d="m2271.9 1279.8h-5.6396l-0.9883 2.2988q-0.3652 0.8487-0.3652 1.2676 0 0.333 0.3115 0.5908 0.3223 0.2471 1.375 0.3223v0.3975h-4.5869v-0.3975q0.9131-0.1611 1.1816-0.4189 0.5479-0.5157 1.2139-2.0948l5.124-11.988h0.376l5.0703 12.117q0.6123 1.461 1.1065 1.9014 0.5048 0.4297 1.3964 0.4834v0.3975h-5.747v-0.3975q0.8701-0.043 1.1709-0.29 0.3115-0.2471 0.3115-0.6016 0-0.4727-0.4297-1.4932zm-0.3007-0.7949-2.4707-5.8867-2.5352 5.8867z"/>
    <path d="m2291 1269.8 0.333 4.9522h-0.333q-0.666-2.2236-1.9013-3.2012-1.2354-0.9775-2.9649-0.9775-1.4502 0-2.6211 0.7412-1.1709 0.7305-1.8476 2.3418-0.6661 1.6113-0.6661 4.0068 0 1.9766 0.6338 3.4268t1.9014 2.2236q1.2783 0.7735 2.9111 0.7735 1.418 0 2.503-0.6016 1.0849-0.6123 2.3847-2.417l0.333 0.2148q-1.0957 1.9444-2.5566 2.8467-1.4609 0.9024-3.4697 0.9024-3.6201 0-5.6074-2.6856-1.4825-1.998-1.4825-4.7051 0-2.1806 0.9776-4.0068 0.9775-1.8262 2.6855-2.8252 1.7188-1.0098 3.749-1.0098 1.5791 0 3.1153 0.7735 0.4511 0.2363 0.6445 0.2363 0.29 0 0.5049-0.2041 0.2793-0.29 0.3974-0.8057z"/>
    <path d="m2305.7 1269.8 0.333 4.9522h-0.333q-0.6661-2.2236-1.9014-3.2012-1.2354-0.9775-2.9649-0.9775-1.4502 0-2.6211 0.7412-1.1708 0.7305-1.8476 2.3418-0.666 1.6113-0.666 4.0068 0 1.9766 0.6338 3.4268t1.9013 2.2236q1.2784 0.7735 2.9112 0.7735 1.4179 0 2.5029-0.6016 1.085-0.6123 2.3848-2.417l0.333 0.2148q-1.0957 1.9444-2.5567 2.8467-1.4609 0.9024-3.4697 0.9024-3.6201 0-5.6074-2.6856-1.4824-1.998-1.4824-4.7051 0-2.1806 0.9775-4.0068t2.6855-2.8252q1.7188-1.0098 3.7491-1.0098 1.5791 0 3.1152 0.7735 0.4512 0.2363 0.6445 0.2363 0.2901 0 0.5049-0.2041 0.2793-0.29 0.3975-0.8057z"/>
   </g>
   <path d="m2204.3 1453.8-140.82-0.1122" fill="none" stroke="#fff" stroke-linejoin="round" stroke-width="4"/>
   <text x="1134.7668" y="1473.5439" fill="#000000" font-family="'Times New Roman'" stroke-width="1px" style="line-height:0%" xml:space="preserve"><tspan x="1134.7668" y="1473.5439" font-size="40px" style="line-height:1.25"> </tspan></text>
   <text x="1139.5172" y="1494.1288" fill="#000000" font-family="'Times New Roman'" stroke-width="1px" style="line-height:0%" xml:space="preserve"><tspan x="1139.5172" y="1494.1288" font-size="48px" style="line-height:1.25"> </tspan></text>
  </g>
  <g transform="translate(58.025 23.737)">
   <path transform="matrix(.90244 0 0 .90244 -1061.3 -203.36)" d="m2307.1 1490.2a32.461 32.461 0 0 1-32.461 32.461 32.461 32.461 0 0 1-32.461-32.461 32.461 32.461 0 0 1 32.461-32.461 32.461 32.461 0 0 1 32.461 32.461z" fill="#fff" stroke="#181818" stroke-dashoffset="66" stroke-linecap="round" stroke-linejoin="round" stroke-width="2.2162"/>
   <g stroke-width="1px" aria-label="3">
    <path d="m981.41 1130q1.5859-3.7461 3.9922-5.7695 2.4336-2.0508 6.043-2.0508 4.457 0 6.8359 2.8985 1.8046 2.1601 1.8046 4.6211 0 4.0468-5.0859 8.3671 3.418 1.3399 5.168 3.8282 1.75 2.4883 1.75 5.8515 0 4.8125-3.0625 8.3399-3.9922 4.5937-11.566 4.5937-3.7461 0-5.1133-0.9297-1.3398-0.9296-1.3398-1.9961 0-0.7929 0.62891-1.3945 0.65625-0.6015 1.5586-0.6015 0.6836 0 1.3945 0.2187 0.46484 0.1367 2.1055 1.0117 1.6406 0.8477 2.2695 1.0117 1.0117 0.3008 2.1602 0.3008 2.7891 0 4.8398-2.1601 2.0781-2.1602 2.0781-5.1133 0-2.1602-0.95703-4.211-0.71094-1.5312-1.5586-2.3242-1.1758-1.0937-3.2266-1.9687-2.0508-0.9024-4.1836-0.9024h-0.875v-0.8203q2.1602-0.2734 4.3203-1.5586 2.1875-1.2851 3.1719-3.0898 0.98437-1.8047 0.98437-3.9649 0-2.8164-1.7773-4.539-1.75-1.75-4.375-1.75-4.2383 0-7.082 4.539z"/>
   </g>
  </g>
  <g transform="translate(50.107 42.739)">
   <path transform="matrix(.90244 0 0 .90244 -735.41 -49.764)" d="m2307.1 1490.2a32.461 32.461 0 0 1-32.461 32.461 32.461 32.461 0 0 1-32.461-32.461 32.461 32.461 0 0 1 32.461-32.461 32.461 32.461 0 0 1 32.461 32.461z" fill="#fff" stroke="#181818" stroke-dashoffset="66" stroke-linecap="round" stroke-linejoin="round" stroke-width="2.2162"/>
   <g stroke-width="1px" aria-label="6">
    <path d="m1328.3 1275.8v1.0118q-3.6093 0.3554-5.9062 1.4492-2.2695 1.0664-4.5117 3.2812-2.2149 2.2149-3.6914 4.9492-1.4492 2.7071-2.4336 6.4532 3.9375-2.7071 7.9023-2.7071 3.8008 0 6.5899 3.0625 2.789 3.0625 2.789 7.875 0 4.6485-2.8164 8.4766-3.3906 4.6484-8.9687 4.6484-3.8008 0-6.4532-2.5156-5.1953-4.8945-5.1953-12.688 0-4.9765 1.9961-9.4609t5.6875-7.9571q3.7188-3.4726 7.1094-4.6757 3.3906-1.2032 6.3164-1.2032zm-17.008 19.141q-0.4922 3.6914-0.4922 5.9609 0 2.625 0.9571 5.7148 0.9844 3.0625 2.8984 4.8672 1.3945 1.2852 3.3906 1.2852 2.3789 0 4.2383-2.2422 1.8867-2.2422 1.8867-6.3984 0-4.6758-1.8593-8.0938-1.8594-3.418-5.2774-3.418-1.039 0-2.2422 0.4375-1.1757 0.4375-3.5 1.8868z"/>
   </g>
  </g>
  <g transform="translate(75.442 23.737)">
   <path transform="matrix(.90244 0 0 .90244 -976.35 109.84)" d="m2307.1 1490.2a32.461 32.461 0 0 1-32.461 32.461 32.461 32.461 0 0 1-32.461-32.461 32.461 32.461 0 0 1 32.461-32.461 32.461 32.461 0 0 1 32.461 32.461z" fill="#fff" stroke="#181818" stroke-dashoffset="66" stroke-linecap="round" stroke-linejoin="round" stroke-width="2.2162"/>
   <g stroke-width="1px" aria-label="1">
    <path d="m1069.1 1440.1 9.0234-4.4023h0.9024v31.309q0 3.1172 0.2461 3.8828 0.2734 0.7656 1.0937 1.1758 0.8203 0.4101 3.336 0.4648v1.0117h-13.945v-1.0117q2.625-0.055 3.3906-0.4375 0.7656-0.4101 1.0664-1.0664 0.3008-0.6836 0.3008-4.0195v-20.016q0-4.0469-0.2735-5.1953-0.1914-0.875-0.7109-1.2852-0.4922-0.4102-1.2031-0.4102-1.0117 0-2.8164 0.8477z"/>
   </g>
  </g>
  <g transform="translate(58.025 23.737)">
   <g stroke="#fff" stroke-width="2" aria-label="Repsol">
    <path d="m1289.5 1090.4h-3.8887l-4.9306-6.8106q-0.5479 0.022-0.8916 0.022-0.1397 0-0.3008 0-0.1612-0.011-0.333-0.022v4.2324q0 1.375 0.3007 1.7081 0.4083 0.4726 1.2247 0.4726h0.5693v0.3975h-6.2412v-0.3975h0.5478q0.9239 0 1.3213-0.6016 0.2256-0.333 0.2256-1.5791v-9.4101q0-1.375-0.3008-1.708-0.4189-0.4727-1.2461-0.4727h-0.5478v-0.3974h5.3066q2.3203 0 3.416 0.3437 1.1065 0.333 1.8692 1.2461 0.7734 0.9023 0.7734 2.1592 0 1.3428-0.8808 2.331-0.8702 0.9883-2.7071 1.3965l3.0078 4.1787q1.0313 1.4395 1.7725 1.9121 0.7412 0.4727 1.9336 0.6016zm-10.345-7.4873q0.2041 0 0.3545 0.011 0.1504 0 0.247 0 2.084 0 3.1367-0.9023 1.0635-0.9024 1.0635-2.2989 0-1.3642-0.8593-2.2129-0.8487-0.8593-2.2559-0.8593-0.6231 0-1.6865 0.2041z"/>
    <path d="m1291.7 1084.2q-0.011 2.1914 1.0635 3.4375 1.0742 1.2461 2.5244 1.2461 0.9668 0 1.6758-0.5264 0.7197-0.5371 1.2031-1.8262l0.333 0.2149q-0.2255 1.4717-1.3105 2.6855-1.085 1.2031-2.7178 1.2031-1.7724 0-3.04-1.375-1.2569-1.3857-1.2569-3.7167 0-2.5245 1.2891-3.9317 1.2998-1.418 3.2549-1.418 1.6543 0 2.7178 1.0957 1.0634 1.085 1.0634 2.9112zm0-0.6231h4.5547q-0.054-0.9453-0.2256-1.332-0.2685-0.6016-0.8056-0.9453-0.5264-0.3438-1.1065-0.3438-0.8916 0-1.6006 0.6983-0.6982 0.6875-0.8164 1.9228z"/>
    <path d="m1299.1 1081.5 3.0293-1.2246h0.4082v2.2988q0.7627-1.2998 1.5254-1.8154 0.7734-0.5264 1.6221-0.5264 1.4824 0 2.4707 1.1601 1.2138 1.418 1.2138 3.6954 0 2.5459-1.4609 4.2109-1.2031 1.3642-3.0293 1.3642-0.7949 0-1.375-0.2255-0.4297-0.1612-0.9668-0.6446v2.9971q0 1.0098 0.1182 1.2783 0.1289 0.2793 0.4297 0.4405 0.3115 0.1611 1.1171 0.1611v0.3974h-5.1562v-0.3974h0.2685q0.5909 0.011 1.0098-0.2256 0.2041-0.1182 0.3115-0.3867 0.1182-0.2578 0.1182-1.3321v-9.3027q0-0.956-0.086-1.2139-0.086-0.2578-0.2793-0.3867-0.1827-0.1289-0.5049-0.1289-0.2578 0-0.6553 0.1504zm3.4375 1.708v3.6738q0 1.1924 0.097 1.5684 0.1504 0.623 0.7304 1.0957 0.5909 0.4726 1.4825 0.4726 1.0742 0 1.7402-0.8379 0.8701-1.0957 0.8701-3.083 0-2.2558-0.9883-3.4697-0.6875-0.8379-1.6328-0.8379-0.5156 0-1.0205 0.2578-0.3867 0.1934-1.2783 1.1602z"/>
    <path d="m1317.2 1080.2v3.3515h-0.3545q-0.4082-1.5791-1.0528-2.1484-0.6338-0.5693-1.622-0.5693-0.752 0-1.2139 0.3974-0.4619 0.3975-0.4619 0.8809 0 0.6016 0.3437 1.0312 0.333 0.4405 1.3535 0.9346l1.5684 0.7627q2.1807 1.0635 2.1807 2.8037 0 1.3428-1.0205 2.1699-1.0098 0.8164-2.2666 0.8164-0.9024 0-2.0625-0.3222-0.3545-0.1074-0.5801-0.1074-0.2471 0-0.3867 0.2793h-0.3545v-3.5127h0.3545q0.3007 1.5039 1.1494 2.2666 0.8486 0.7627 1.9013 0.7627 0.7413 0 1.2032-0.4297 0.4726-0.4405 0.4726-1.0528 0-0.7412-0.5263-1.2461-0.5157-0.5048-2.0733-1.2783-1.5576-0.7734-2.041-1.3965-0.4834-0.6123-0.4834-1.5468 0-1.2139 0.8272-2.0303 0.8378-0.8164 2.1591-0.8164 0.5801 0 1.4073 0.2471 0.5478 0.1611 0.7304 0.1611 0.1719 0 0.2686-0.075 0.097-0.075 0.2256-0.333z"/>
    <path d="m1324.2 1080.2q2.2344 0 3.5879 1.6973 1.1494 1.4501 1.1494 3.33 0 1.3213-0.6338 2.6748t-1.751 2.041q-1.1064 0.6875-2.4707 0.6875-2.2236 0-3.5341-1.7724-1.1065-1.4932-1.1065-3.3516 0-1.3535 0.666-2.6855 0.6768-1.3428 1.7725-1.9766 1.0957-0.6445 2.3203-0.6445zm-0.333 0.6982q-0.5693 0-1.1494 0.3438-0.5694 0.333-0.9238 1.1816-0.3545 0.8487-0.3545 2.1807 0 2.1484 0.8486 3.706 0.8594 1.5577 2.2559 1.5577 1.0419 0 1.7187-0.8594t0.6768-2.9541q0-2.6211-1.128-4.125-0.7627-1.0313-1.9443-1.0313z"/>
    <path d="m1333.7 1075.1v13.052q0 0.9239 0.1289 1.2246 0.1397 0.3008 0.4189 0.462 0.2793 0.1503 1.042 0.1503v0.3868h-4.8232v-0.3868q0.6768 0 0.9238-0.1396 0.2471-0.1396 0.3867-0.4619 0.1397-0.3223 0.1397-1.2354v-8.9375q0-1.665-0.075-2.041-0.075-0.3867-0.2471-0.5263-0.1611-0.1397-0.4189-0.1397-0.2793 0-0.709 0.1719l-0.1826-0.376 2.9326-1.2031z"/>
   </g>
   <g transform="translate(22.168 1.5834)">
    <path transform="matrix(.90244 0 0 .90244 -704.39 -263.86)" d="m2307.1 1490.2a32.461 32.461 0 0 1-32.461 32.461 32.461 32.461 0 0 1-32.461-32.461 32.461 32.461 0 0 1 32.461-32.461 32.461 32.461 0 0 1 32.461 32.461z" fill="#fff" stroke="#181818" stroke-dashoffset="66" stroke-linecap="round" stroke-linejoin="round" stroke-width="2.2162"/>
    <g stroke-width="1px" aria-label="4">
     <path d="m1360.9 1086.2v3.8828h-4.9765v9.7891h-4.5118v-9.7891h-15.695v-3.5l17.199-24.555h3.0079v24.172zm-9.4883 0v-18.402l-13.016 18.402z"/>
    </g>
   </g>
   <g aria-label="Repsol">
    <path d="m1289.5 1090.4h-3.8887l-4.9306-6.8106q-0.5479 0.022-0.8916 0.022-0.1397 0-0.3008 0-0.1612-0.011-0.333-0.022v4.2324q0 1.375 0.3007 1.7081 0.4083 0.4726 1.2247 0.4726h0.5693v0.3975h-6.2412v-0.3975h0.5478q0.9239 0 1.3213-0.6016 0.2256-0.333 0.2256-1.5791v-9.4101q0-1.375-0.3008-1.708-0.4189-0.4727-1.2461-0.4727h-0.5478v-0.3974h5.3066q2.3203 0 3.416 0.3437 1.1065 0.333 1.8692 1.2461 0.7734 0.9023 0.7734 2.1592 0 1.3428-0.8808 2.331-0.8702 0.9883-2.7071 1.3965l3.0078 4.1787q1.0313 1.4395 1.7725 1.9121 0.7412 0.4727 1.9336 0.6016zm-10.345-7.4873q0.2041 0 0.3545 0.011 0.1504 0 0.247 0 2.084 0 3.1367-0.9023 1.0635-0.9024 1.0635-2.2989 0-1.3642-0.8593-2.2129-0.8487-0.8593-2.2559-0.8593-0.6231 0-1.6865 0.2041z"/>
    <path d="m1291.7 1084.2q-0.011 2.1914 1.0635 3.4375 1.0742 1.2461 2.5244 1.2461 0.9668 0 1.6758-0.5264 0.7197-0.5371 1.2031-1.8262l0.333 0.2149q-0.2255 1.4717-1.3105 2.6855-1.085 1.2031-2.7178 1.2031-1.7724 0-3.04-1.375-1.2569-1.3857-1.2569-3.7167 0-2.5245 1.2891-3.9317 1.2998-1.418 3.2549-1.418 1.6543 0 2.7178 1.0957 1.0634 1.085 1.0634 2.9112zm0-0.6231h4.5547q-0.054-0.9453-0.2256-1.332-0.2685-0.6016-0.8056-0.9453-0.5264-0.3438-1.1065-0.3438-0.8916 0-1.6006 0.6983-0.6982 0.6875-0.8164 1.9228z"/>
    <path d="m1299.1 1081.5 3.0293-1.2246h0.4082v2.2988q0.7627-1.2998 1.5254-1.8154 0.7734-0.5264 1.6221-0.5264 1.4824 0 2.4707 1.1601 1.2138 1.418 1.2138 3.6954 0 2.5459-1.4609 4.2109-1.2031 1.3642-3.0293 1.3642-0.7949 0-1.375-0.2255-0.4297-0.1612-0.9668-0.6446v2.9971q0 1.0098 0.1182 1.2783 0.1289 0.2793 0.4297 0.4405 0.3115 0.1611 1.1171 0.1611v0.3974h-5.1562v-0.3974h0.2685q0.5909 0.011 1.0098-0.2256 0.2041-0.1182 0.3115-0.3867 0.1182-0.2578 0.1182-1.3321v-9.3027q0-0.956-0.086-1.2139-0.086-0.2578-0.2793-0.3867-0.1827-0.1289-0.5049-0.1289-0.2578 0-0.6553 0.1504zm3.4375 1.708v3.6738q0 1.1924 0.097 1.5684 0.1504 0.623 0.7304 1.0957 0.5909 0.4726 1.4825 0.4726 1.0742 0 1.7402-0.8379 0.8701-1.0957 0.8701-3.083 0-2.2558-0.9883-3.4697-0.6875-0.8379-1.6328-0.8379-0.5156 0-1.0205 0.2578-0.3867 0.1934-1.2783 1.1602z"/>
    <path d="m1317.2 1080.2v3.3515h-0.3545q-0.4082-1.5791-1.0528-2.1484-0.6338-0.5693-1.622-0.5693-0.752 0-1.2139 0.3974-0.4619 0.3975-0.4619 0.8809 0 0.6016 0.3437 1.0312 0.333 0.4405 1.3535 0.9346l1.5684 0.7627q2.1807 1.0635 2.1807 2.8037 0 1.3428-1.0205 2.1699-1.0098 0.8164-2.2666 0.8164-0.9024 0-2.0625-0.3222-0.3545-0.1074-0.5801-0.1074-0.2471 0-0.3867 0.2793h-0.3545v-3.5127h0.3545q0.3007 1.5039 1.1494 2.2666 0.8486 0.7627 1.9013 0.7627 0.7413 0 1.2032-0.4297 0.4726-0.4405 0.4726-1.0528 0-0.7412-0.5263-1.2461-0.5157-0.5048-2.0733-1.2783-1.5576-0.7734-2.041-1.3965-0.4834-0.6123-0.4834-1.5468 0-1.2139 0.8272-2.0303 0.8378-0.8164 2.1591-0.8164 0.5801 0 1.4073 0.2471 0.5478 0.1611 0.7304 0.1611 0.1719 0 0.2686-0.075 0.097-0.075 0.2256-0.333z"/>
    <path d="m1324.2 1080.2q2.2344 0 3.5879 1.6973 1.1494 1.4501 1.1494 3.33 0 1.3213-0.6338 2.6748t-1.751 2.041q-1.1064 0.6875-2.4707 0.6875-2.2236 0-3.5341-1.7724-1.1065-1.4932-1.1065-3.3516 0-1.3535 0.666-2.6855 0.6768-1.3428 1.7725-1.9766 1.0957-0.6445 2.3203-0.6445zm-0.333 0.6982q-0.5693 0-1.1494 0.3438-0.5694 0.333-0.9238 1.1816-0.3545 0.8487-0.3545 2.1807 0 2.1484 0.8486 3.706 0.8594 1.5577 2.2559 1.5577 1.0419 0 1.7187-0.8594t0.6768-2.9541q0-2.6211-1.128-4.125-0.7627-1.0313-1.9443-1.0313z"/>
    <path d="m1333.7 1075.1v13.052q0 0.9239 0.1289 1.2246 0.1397 0.3008 0.4189 0.462 0.2793 0.1503 1.042 0.1503v0.3868h-4.8232v-0.3868q0.6768 0 0.9238-0.1396 0.2471-0.1396 0.3867-0.4619 0.1397-0.3223 0.1397-1.2354v-8.9375q0-1.665-0.075-2.041-0.075-0.3867-0.2471-0.5263-0.1611-0.1397-0.4189-0.1397-0.2793 0-0.709 0.1719l-0.1826-0.376 2.9326-1.2031z"/>
   </g>
  </g>
  <g transform="translate(40.19 43.155)">
   <path transform="matrix(.90244 0 0 .90244 -369.85 -268.22)" d="m2307.1 1490.2a32.461 32.461 0 0 1-32.461 32.461 32.461 32.461 0 0 1-32.461-32.461 32.461 32.461 0 0 1 32.461-32.461 32.461 32.461 0 0 1 32.461 32.461z" fill="#fff" stroke="#181818" stroke-dashoffset="66" stroke-linecap="round" stroke-linejoin="round" stroke-width="2.2162"/>
   <g stroke-width="1px" aria-label="9">
    <path d="m1671.9 1095.9v-1.0118q3.5547-0.055 6.6172-1.6406 3.0625-1.6133 5.9062-5.6055 2.8711-3.9921 3.9922-8.7773-4.293 2.7617-7.7656 2.7617-3.9102 0-6.6993-3.0078-2.789-3.0351-2.789-8.0391 0-4.8671 2.789-8.6679 3.3633-4.6211 8.7774-4.6211 4.5664 0 7.8203 3.7734 3.9922 4.6758 3.9922 11.539 0 6.1797-3.0352 11.539-3.0351 5.3321-8.4492 8.8594-4.4023 2.8985-9.5976 2.8985zm16.953-19.059q0.4922-3.5547 0.4922-5.6875 0-2.6524-0.9024-5.7149-0.9023-3.0898-2.5703-4.7304-1.6406-1.6407-3.7461-1.6407-2.4336 0-4.2656 2.1875t-1.832 6.5078q0 5.7696 2.4336 9.0235 1.7773 2.3515 4.375 2.3515 1.2578 0 2.9804-0.6015 1.7227-0.6016 3.0352-1.6953z"/>
   </g>
  </g>
  <g transform="translate(58.025 23.737)">
   <path transform="matrix(.90244 0 0 .90244 -14.777 -289.19)" d="m2307.1 1490.2a32.461 32.461 0 0 1-32.461 32.461 32.461 32.461 0 0 1-32.461-32.461 32.461 32.461 0 0 1 32.461-32.461 32.461 32.461 0 0 1 32.461 32.461z" fill="#fff" stroke="#181818" stroke-dashoffset="66" stroke-linecap="round" stroke-linejoin="round" stroke-width="2.2162"/>
   <g stroke-width="1px" aria-label="12">
    <path d="m2014.4 1041.1 9.0234-4.4024h0.9024v31.309q0 3.1172 0.246 3.8829 0.2735 0.7656 1.0938 1.1757 0.8203 0.4102 3.3359 0.4649v1.0117h-13.945v-1.0117q2.625-0.055 3.3906-0.4375 0.7657-0.4102 1.0665-1.0664 0.3007-0.6836 0.3007-4.0196v-20.016q0-4.0469-0.2734-5.1953-0.1914-0.875-0.7109-1.2852-0.4922-0.4101-1.2032-0.4101-1.0117 0-2.8164 0.8476z"/>
    <path d="m2061.5 1067.4-2.5977 7.1367h-21.875v-1.0117q9.6523-8.8047 13.59-14.383 3.9375-5.5782 3.9375-10.199 0-3.5273-2.1601-5.7968-2.1602-2.2696-5.168-2.2696-2.7344 0-4.9219 1.6133-2.1601 1.586-3.1992 4.6758h-1.0117q0.6836-5.0586 3.5-7.7656 2.8438-2.7071 7.082-2.7071 4.5118 0 7.5196 2.8985 3.0351 2.8984 3.0351 6.8359 0 2.8164-1.3125 5.6328-2.0234 4.4297-6.5625 9.3789-6.8086 7.4375-8.5039 8.9688h9.6797q2.9531 0 4.1289-0.2188 1.2031-0.2187 2.1602-0.875 0.957-0.6836 1.6679-1.914z"/>
   </g>
  </g>
  <g transform="translate(97.587 -3.9562)">
   <path transform="matrix(.90244 0 0 .90244 227.57 140.25)" d="m2307.1 1490.2a32.461 32.461 0 0 1-32.461 32.461 32.461 32.461 0 0 1-32.461-32.461 32.461 32.461 0 0 1 32.461-32.461 32.461 32.461 0 0 1 32.461 32.461z" fill="#fff" stroke="#181818" stroke-dashoffset="66" stroke-linecap="round" stroke-linejoin="round" stroke-width="2.2162"/>
   <g stroke-width="1px" aria-label="16">
    <path d="m2256.6 1470.2 9.0234-4.4024h0.9023v31.309q0 3.1172 0.2461 3.8829 0.2735 0.7656 1.0938 1.1757 0.8203 0.4102 3.3359 0.4649v1.0117h-13.945v-1.0117q2.625-0.055 3.3906-0.4375 0.7657-0.4102 1.0664-1.0664 0.3008-0.6836 0.3008-4.0196v-20.016q0-4.0469-0.2734-5.1953-0.1914-0.875-0.7109-1.2852-0.4922-0.4101-1.2032-0.4101-1.0117 0-2.8164 0.8476z"/>
    <path d="m2303.2 1465.8v1.0118q-3.6093 0.3554-5.9062 1.4492-2.2696 1.0664-4.5117 3.2812-2.2149 2.2149-3.6914 4.9493-1.4493 2.707-2.4336 6.4531 3.9375-2.7071 7.9023-2.7071 3.8008 0 6.5898 3.0625 2.7891 3.0625 2.7891 7.875 0 4.6485-2.8164 8.4766-3.3906 4.6484-8.9687 4.6484-3.8008 0-6.4532-2.5156-5.1953-4.8945-5.1953-12.688 0-4.9765 1.9961-9.4609t5.6875-7.957q3.7188-3.4727 7.1094-4.6758 3.3906-1.2032 6.3164-1.2032zm-17.008 19.141q-0.4922 3.6914-0.4922 5.9609 0 2.625 0.9571 5.7149 0.9843 3.0625 2.8984 4.8671 1.3945 1.2852 3.3906 1.2852 2.3789 0 4.2383-2.2422 1.8867-2.2422 1.8867-6.3984 0-4.6758-1.8594-8.0938-1.8593-3.4179-5.2773-3.4179-1.0391 0-2.2422 0.4375-1.1758 0.4375-3.5 1.8867z"/>
   </g>
  </g>
  <g transform="translate(93.814 17.688)" aria-label="Catalunya">
   <path d="m2160.4 1470.5 0.333 4.9522h-0.333q-0.666-2.2236-1.9013-3.2012-1.2354-0.9775-2.9649-0.9775-1.4502 0-2.6211 0.7412-1.1709 0.7305-1.8476 2.3418-0.666 1.6113-0.666 4.0068 0 1.9766 0.6338 3.4268 0.6337 1.4502 1.9013 2.2236 1.2783 0.7735 2.9112 0.7735 1.4179 0 2.5029-0.6016 1.0849-0.6123 2.3847-2.417l0.3331 0.2148q-1.0957 1.9444-2.5567 2.8467-1.4609 0.9024-3.4697 0.9024-3.6201 0-5.6074-2.6856-1.4825-1.998-1.4825-4.7051 0-2.1806 0.9776-4.0068 0.9775-1.8262 2.6855-2.8252 1.7188-1.0098 3.7491-1.0098 1.5791 0 3.1152 0.7735 0.4512 0.2363 0.6445 0.2363 0.2901 0 0.5049-0.2041 0.2793-0.29 0.3975-0.8057z"/>
   <path d="m2168.1 1484q-1.5146 1.1709-1.9013 1.3535-0.5801 0.2686-1.2354 0.2686-1.0205 0-1.6865-0.6983-0.6553-0.6982-0.6553-1.8369 0-0.7197 0.3223-1.2461 0.4404-0.7305 1.5254-1.375 1.0957-0.6445 3.6308-1.5683v-0.3868q0-1.4716-0.4726-2.0195-0.4619-0.5478-1.3535-0.5478-0.6768 0-1.0742 0.3652-0.4082 0.3652-0.4082 0.8379l0.021 0.623q0 0.4942-0.2578 0.7627-0.247 0.2686-0.6552 0.2686-0.3975 0-0.6553-0.2793-0.2471-0.2793-0.2471-0.7627 0-0.9238 0.9453-1.6973 0.9453-0.7734 2.6533-0.7734 1.3106 0 2.1485 0.4404 0.6338 0.333 0.9345 1.042 0.1934 0.4619 0.1934 1.8906v3.3408q0 1.4073 0.054 1.7295 0.054 0.3116 0.1719 0.419 0.1289 0.1074 0.29 0.1074 0.1719 0 0.3008-0.075 0.2256-0.1396 0.8701-0.7842v0.6016q-1.2031 1.6113-2.2988 1.6113-0.5264 0-0.8379-0.3652t-0.3223-1.2461zm0-0.6982v-3.7491q-1.622 0.6446-2.0947 0.9131-0.8486 0.4727-1.2138 0.9883-0.3653 0.5156-0.3653 1.1279 0 0.7735 0.4619 1.2891 0.4619 0.5049 1.0635 0.5049 0.8164 0 2.1484-1.0742z"/>
   <path d="m2175.1 1472.3v3.2334h2.2988v0.752h-2.2988v6.3808q0 0.9561 0.2686 1.2891 0.2793 0.333 0.709 0.333 0.3545 0 0.6875-0.2148 0.333-0.2256 0.5156-0.6553h0.4189q-0.3759 1.0527-1.0634 1.5898-0.6875 0.5264-1.418 0.5264-0.4942 0-0.9668-0.2686-0.4727-0.2793-0.6983-0.7841-0.2255-0.5157-0.2255-1.5791v-6.6172h-1.5577v-0.3545q0.5909-0.2363 1.2032-0.7949 0.623-0.5694 1.1064-1.3428 0.2471-0.4082 0.6875-1.4932z"/>
   <path d="m2184 1484q-1.5146 1.1709-1.9014 1.3535-0.58 0.2686-1.2353 0.2686-1.0205 0-1.6865-0.6983-0.6553-0.6982-0.6553-1.8369 0-0.7197 0.3222-1.2461 0.4405-0.7305 1.5254-1.375 1.0957-0.6445 3.6309-1.5683v-0.3868q0-1.4716-0.4727-2.0195-0.4619-0.5478-1.3535-0.5478-0.6767 0-1.0742 0.3652-0.4082 0.3652-0.4082 0.8379l0.021 0.623q0 0.4942-0.2578 0.7627-0.2471 0.2686-0.6553 0.2686-0.3975 0-0.6553-0.2793-0.247-0.2793-0.247-0.7627 0-0.9238 0.9453-1.6973 0.9453-0.7734 2.6533-0.7734 1.3105 0 2.1484 0.4404 0.6338 0.333 0.9346 1.042 0.1934 0.4619 0.1934 1.8906v3.3408q0 1.4073 0.054 1.7295 0.054 0.3116 0.1718 0.419 0.129 0.1074 0.2901 0.1074 0.1719 0 0.3008-0.075 0.2256-0.1396 0.8701-0.7842v0.6016q-1.2031 1.6113-2.2988 1.6113-0.5264 0-0.8379-0.3652-0.3116-0.3652-0.3223-1.2461zm0-0.6982v-3.7491q-1.6221 0.6446-2.0947 0.9131-0.8487 0.4727-1.2139 0.9883t-0.3652 1.1279q0 0.7735 0.4619 1.2891 0.4619 0.5049 1.0635 0.5049 0.8164 0 2.1484-1.0742z"/>
   <path d="m2191.5 1470.1v13.052q0 0.9239 0.1289 1.2246 0.1397 0.3008 0.419 0.462 0.2793 0.1503 1.042 0.1503v0.3868h-4.8233v-0.3868q0.6768 0 0.9239-0.1396 0.247-0.1397 0.3867-0.4619 0.1396-0.3223 0.1396-1.2354v-8.9375q0-1.665-0.075-2.041-0.075-0.3867-0.247-0.5264-0.1612-0.1396-0.419-0.1396-0.2793 0-0.709 0.1719l-0.1826-0.376 2.9326-1.2031z"/>
   <path d="m2202.9 1475.6v5.9619q0 1.708 0.075 2.0948 0.086 0.3759 0.2578 0.5263 0.1827 0.1504 0.419 0.1504 0.333 0 0.7519-0.1826l0.1504 0.376-2.9433 1.2138h-0.4834v-2.0839q-1.2676 1.375-1.9336 1.7295-0.666 0.3544-1.4072 0.3544-0.8272 0-1.4395-0.4726-0.6016-0.4834-0.8379-1.2354-0.2363-0.7519-0.2363-2.1269v-4.3936q0-0.6982-0.1504-0.9668-0.1504-0.2685-0.4512-0.4082-0.29-0.1504-1.0635-0.1396v-0.3975h3.4483v6.585q0 1.375 0.4726 1.8047 0.4834 0.4297 1.1602 0.4297 0.4619 0 1.042-0.2901 0.5908-0.29 1.3965-1.1064v-5.5752q0-0.8379-0.3116-1.128-0.3007-0.3007-1.2675-0.3222v-0.3975z"/>
   <path d="m2208.1 1477.3q1.7295-2.084 3.2979-2.084 0.8056 0 1.3857 0.4082 0.5801 0.3974 0.9238 1.3213 0.2364 0.6445 0.2364 1.9765v4.2002q0 0.9346 0.1504 1.2676 0.1181 0.2686 0.3759 0.419 0.2686 0.1503 0.9776 0.1503v0.3868h-4.8662v-0.3868h0.2041q0.6875 0 0.956-0.2041 0.2793-0.2148 0.3867-0.623 0.043-0.1611 0.043-1.0098v-4.0283q0-1.3428-0.3545-1.9443-0.3437-0.6123-1.1709-0.6123-1.2783 0-2.5459 1.3965v5.1884q0 0.9991 0.1182 1.2354 0.1504 0.3115 0.4082 0.4619 0.2685 0.1396 1.0742 0.1396v0.3868h-4.8662v-0.3868h0.2148q0.752 0 1.0098-0.3759 0.2686-0.3868 0.2686-1.461v-3.6523q0-1.7725-0.086-2.1592-0.075-0.3867-0.247-0.5264-0.1612-0.1396-0.4405-0.1396-0.3008 0-0.7197 0.1611l-0.1611-0.3867 2.9648-1.2031h0.4619z"/>
   <path d="m2215.7 1475.6h4.5869v0.3975h-0.2256q-0.4834 0-0.7305 0.2148-0.2363 0.2041-0.2363 0.5156 0 0.419 0.3545 1.1602l2.3955 4.9629 2.2021-5.4356q0.1827-0.4404 0.1827-0.8701 0-0.1933-0.075-0.29-0.086-0.1182-0.2686-0.1826-0.1826-0.075-0.6445-0.075v-0.3975h3.2012v0.3975q-0.3975 0.043-0.6124 0.1719-0.2148 0.1289-0.4726 0.4834-0.097 0.1503-0.3652 0.8271l-4.0069 9.8184q-0.5801 1.4287-1.5254 2.1591-0.9345 0.7305-1.8047 0.7305-0.6337 0-1.042-0.3652-0.4082-0.3653-0.4082-0.8379 0-0.4512 0.2901-0.7305 0.3008-0.2685 0.8164-0.2685 0.3545 0 0.9668 0.2363 0.4297 0.1611 0.5371 0.1611 0.3223 0 0.6982-0.333 0.3868-0.333 0.7735-1.289l0.6982-1.7081-3.5342-7.4228q-0.1611-0.333-0.5156-0.8272-0.2685-0.3759-0.4404-0.5048-0.2471-0.1719-0.7949-0.3008z"/>
   <path d="m2232.8 1484q-1.5147 1.1709-1.9014 1.3535-0.5801 0.2686-1.2354 0.2686-1.0205 0-1.6865-0.6983-0.6553-0.6982-0.6553-1.8369 0-0.7197 0.3223-1.2461 0.4404-0.7305 1.5254-1.375 1.0957-0.6445 3.6309-1.5683v-0.3868q0-1.4716-0.4727-2.0195-0.4619-0.5478-1.3535-0.5478-0.6768 0-1.0742 0.3652-0.4082 0.3652-0.4082 0.8379l0.021 0.623q0 0.4942-0.2578 0.7627-0.247 0.2686-0.6552 0.2686-0.3975 0-0.6553-0.2793-0.2471-0.2793-0.2471-0.7627 0-0.9238 0.9453-1.6973 0.9453-0.7734 2.6533-0.7734 1.3106 0 2.1485 0.4404 0.6338 0.333 0.9346 1.042 0.1933 0.4619 0.1933 1.8906v3.3408q0 1.4073 0.054 1.7295 0.054 0.3116 0.1719 0.419 0.1289 0.1074 0.29 0.1074 0.1719 0 0.3008-0.075 0.2256-0.1396 0.8701-0.7842v0.6016q-1.2031 1.6113-2.2988 1.6113-0.5264 0-0.8379-0.3652t-0.3222-1.2461zm0-0.6982v-3.7491q-1.6221 0.6446-2.0948 0.9131-0.8486 0.4727-1.2138 0.9883-0.3653 0.5156-0.3653 1.1279 0 0.7735 0.4619 1.2891 0.462 0.5049 1.0635 0.5049 0.8164 0 2.1485-1.0742z"/>
  </g>
  <g transform="matrix(.31005 -1.3229 1.3229 .31005 -495.07 3095.7)" stroke-linecap="round">
   <path transform="matrix(-.50092 .11523 .34924 1.5182 1918.2 -810.87)" d="m1695.9 1398.5h-24.481l12.241-21.201z" fill="#f00" stroke="#fff" stroke-width=".61683"/>
   <rect transform="matrix(.2206 .97536 .97536 -.2206 0 0)" x="1763.3" y="1189.9" width="12.409" height="45.403" ry="0" fill="url(#pattern4166)" stroke="#000" stroke-linejoin="round" stroke-width=".55197"/>
  </g>
  <g transform="matrix(1.6103 0 0 1.6103 -1629.3 -250.73)" clip-path="url(#clipPath9724)" stroke="#fff">
   <g stroke-width=".62102px" aria-label="N">
    <path d="m2072.6 921.66h11.5l25.906 31.781v-24.438q0-3.9062-0.875-4.875-1.1562-1.3125-3.6562-1.3125h-1.4688v-1.1562h14.75v1.1562h-1.5q-2.6875 0-3.8125 1.625-0.6875 1-0.6875 4.5625v35.719h-1.125l-27.938-34.125v26.094q0 3.9062 0.8438 4.875 1.1875 1.3125 3.6562 1.3125h1.5v1.1562h-14.75v-1.1562h1.4688q2.7187 0 3.8437-1.625 0.6875-1 0.6875-4.5625v-29.469q-1.8437-2.1562-2.8125-2.8438-0.9375-0.6875-2.7812-1.2812-0.9063-0.28125-2.75-0.28125z" stroke-width=".62102"/>
   </g>
   <path d="m2167.2 926.23-46.639 28.707 0.7033 0.75416 15.013-0.62562-1.6709 14.933 0.7031 0.75399z" fill="#f00" stroke-linecap="round" stroke-linejoin="round" stroke-width=".62102"/>
  </g>
  <g transform="translate(25.428 55.406)">
   <path transform="matrix(.90244 0 0 .90244 -984.69 3.7451)" d="m2307.1 1490.2a32.461 32.461 0 0 1-32.461 32.461 32.461 32.461 0 0 1-32.461-32.461 32.461 32.461 0 0 1 32.461-32.461 32.461 32.461 0 0 1 32.461 32.461z" fill="#fff" stroke="#181818" stroke-dashoffset="66" stroke-linecap="round" stroke-linejoin="round" stroke-width="2.2162"/>
   <g stroke-width="1px" aria-label="2">
    <path d="m1080.2 1360.3-2.5976 7.1368h-21.875v-1.0118q9.6523-8.8047 13.59-14.383t3.9375-10.199q0-3.5273-2.1601-5.7969-2.1602-2.2695-5.168-2.2695-2.7344 0-4.9219 1.6133-2.1601 1.5859-3.1992 4.6758h-1.0117q0.6836-5.0586 3.5-7.7657 2.8437-2.707 7.082-2.707 4.5117 0 7.5195 2.8984 3.0352 2.8985 3.0352 6.836 0 2.8164-1.3125 5.6328-2.0234 4.4297-6.5625 9.3789-6.8086 7.4375-8.5039 8.9687h9.6797q2.9531 0 4.1289-0.2187 1.2031-0.2188 2.1601-0.875 0.9571-0.6836 1.668-1.9141z"/>
   </g>
  </g>
  <path transform="matrix(-.2665 -.64556 -1.9566 .80774 4308 1346.4)" d="m1695.9 1398.5h-24.481l12.241-21.201z" stroke="#fff" stroke-linecap="round" stroke-width=".61683"/>
  <g transform="translate(74.315 68.723)">
   <path transform="matrix(.90244 0 0 .90244 -892.8 -150.72)" d="m2307.1 1490.2a32.461 32.461 0 0 1-32.461 32.461 32.461 32.461 0 0 1-32.461-32.461 32.461 32.461 0 0 1 32.461-32.461 32.461 32.461 0 0 1 32.461 32.461z" fill="#fff" stroke="#181818" stroke-dashoffset="66" stroke-linecap="round" stroke-linejoin="round" stroke-width="2.2162"/>
   <g stroke-width="1px" aria-label="5">
    <path d="m1170.7 1175.2-2.1328 4.6485h-11.156l-2.4336 4.9765q7.2461 1.0664 11.484 5.3867 3.6367 3.7188 3.6367 8.75 0 2.9258-1.2031 5.4141-1.1758 2.4883-2.9805 4.2383t-4.0195 2.8164q-3.1445 1.5039-6.4531 1.5039-3.336 0-4.8672-1.1211-1.5039-1.1484-1.5039-2.5156 0-0.7657 0.6289-1.3399 0.6289-0.6015 1.5859-0.6015 0.711 0 1.2305 0.2187 0.5469 0.2188 1.832 1.1211 2.0508 1.4219 4.1563 1.4219 3.1992 0 5.6054-2.4063 2.4336-2.4336 2.4336-5.9062 0-3.3633-2.1601-6.2617-2.1602-2.9258-5.961-4.5118-2.9804-1.2304-8.121-1.4218l7.1093-14.41z"/>
   </g>
  </g>
  <path transform="matrix(-.274 .64242 1.9471 .83046 -1057.6 -995.85)" d="m1695.9 1398.5h-24.481l12.241-21.201z" stroke="#fff" stroke-linecap="round" stroke-width=".61683"/>
  <g transform="translate(58.025 23.737)">
   <g transform="translate(-36.836 -17.834)">
    <path transform="matrix(.90244 0 0 .90244 -602.73 -42.993)" d="m2307.1 1490.2a32.461 32.461 0 0 1-32.461 32.461 32.461 32.461 0 0 1-32.461-32.461 32.461 32.461 0 0 1 32.461-32.461 32.461 32.461 0 0 1 32.461 32.461z" fill="#fff" stroke="#181818" stroke-dashoffset="66" stroke-linecap="round" stroke-linejoin="round" stroke-width="2.2162"/>
    <g stroke-width="1px" aria-label="7">
     <path d="m1441.8 1282.9h19.879v1.0391l-12.359 36.805h-3.0625l11.074-33.387h-10.199q-3.0898 0-4.4023 0.7382-2.2969 1.2579-3.6914 3.8829l-0.793-0.3008z"/>
    </g>
   </g>
   <path transform="matrix(.51625 -.47039 -1.4257 -1.5647 2560 4288.1)" d="m1695.9 1398.5h-24.481l12.241-21.201z" stroke="#fff" stroke-linecap="round" stroke-width=".61683"/>
   <g transform="translate(35.724 26.919)">
    <path transform="matrix(.90244 0 0 .90244 -521.68 -90.933)" d="m2307.1 1490.2a32.461 32.461 0 0 1-32.461 32.461 32.461 32.461 0 0 1-32.461-32.461 32.461 32.461 0 0 1 32.461-32.461 32.461 32.461 0 0 1 32.461 32.461z" fill="#fff" stroke="#181818" stroke-dashoffset="66" stroke-linecap="round" stroke-linejoin="round" stroke-width="2.2162"/>
    <g stroke-width="1px" aria-label="8">
     <path d="m1527.7 1253.8q-4.4024-3.6094-5.6875-5.7969-1.2578-2.1875-1.2578-4.5391 0-3.6094 2.789-6.207 2.7891-2.625 7.4102-2.625 4.4844 0 7.2187 2.4336 2.7344 2.4336 2.7344 5.5508 0 2.0781-1.4765 4.2382-1.4766 2.1602-6.1524 5.086 4.8125 3.7187 6.3711 5.8515 2.0781 2.7891 2.0781 5.879 0 3.9101-2.9804 6.6992-2.9805 2.7617-7.8203 2.7617-5.2774 0-8.2305-3.3086-2.3516-2.6523-2.3516-5.7969 0-2.4609 1.6406-4.8672 1.668-2.4336 5.7149-5.3593zm4.293-2.9258q3.2812-2.9531 4.1562-4.6485 0.875-1.7226 0.875-3.8828 0-2.8711-1.6133-4.4843-1.6133-1.6407-4.4023-1.6407-2.7891 0-4.5391 1.6133t-1.75 3.7734q0 1.4219 0.711 2.8438 0.7382 1.4219 2.0781 2.707zm-3.0079 3.9648q-2.2695 1.9141-3.3632 4.1836-1.0938 2.2422-1.0938 4.8672 0 3.5273 1.9141 5.6602 1.9414 2.1054 4.9219 2.1054 2.9531 0 4.7304-1.6679 1.7774-1.668 1.7774-4.0469 0-1.9688-1.0391-3.5274-1.9414-2.8984-7.8477-7.5742z"/>
    </g>
   </g>
   <path transform="matrix(-.0028773 .6984 2.1168 .008721 -1422 88.688)" d="m1695.9 1398.5h-24.481l12.241-21.201z" stroke="#fff" stroke-linecap="round" stroke-width=".61683"/>
   <g stroke="#fff" stroke-width="2" aria-label="Europcar">
    <path d="m2179.8 1020.4v5.7579h3.2012q1.2461 0 1.665-0.376 0.5586-0.4942 0.6231-1.7403h0.3974v5.0704h-0.3974q-0.1504-1.0635-0.3008-1.3643-0.1934-0.376-0.6338-0.5908-0.4404-0.2149-1.3535-0.2149h-3.2012v4.8018q0 0.9668 0.086 1.1816 0.086 0.2041 0.3007 0.333 0.2149 0.1182 0.8165 0.1182h2.4707q1.2353 0 1.7939-0.1719 0.5586-0.1718 1.0742-0.6767 0.666-0.666 1.3643-2.0088h0.4297l-1.2569 3.6523h-11.226v-0.3974h0.5157q0.5156 0 0.9775-0.2471 0.3438-0.1719 0.4619-0.5156 0.1289-0.3438 0.1289-1.4073v-9.4638q0-1.3858-0.2793-1.708-0.3867-0.4297-1.289-0.4297h-0.5157v-0.3975h11.226l0.1612 3.1904h-0.419q-0.2256-1.1494-0.5049-1.5791-0.2685-0.4296-0.8056-0.6552-0.4297-0.1612-1.5147-0.1612z"/>
    <path d="m2198 1024.4v5.9619q0 1.708 0.075 2.0947 0.086 0.376 0.2578 0.5264 0.1826 0.1504 0.419 0.1504 0.333 0 0.7519-0.1826l0.1504 0.3759-2.9433 1.2139h-0.4834v-2.084q-1.2676 1.375-1.9336 1.7295t-1.4073 0.3545q-0.8271 0-1.4394-0.4726-0.6016-0.4834-0.8379-1.2354t-0.2363-2.127v-4.3935q0-0.6983-0.1504-0.9668-0.1504-0.2686-0.4512-0.4082-0.29-0.1504-1.0635-0.1397v-0.3974h3.4483v6.5849q0 1.375 0.4726 1.8047 0.4834 0.4297 1.1602 0.4297 0.4619 0 1.042-0.29 0.5908-0.2901 1.3965-1.1065v-5.5752q0-0.8379-0.3116-1.1279-0.3007-0.3008-1.2675-0.3223v-0.3974z"/>
    <path d="m2203.2 1024.1v2.2129q1.2353-2.2129 2.5351-2.2129 0.5908 0 0.9775 0.3653 0.3868 0.3545 0.3868 0.8271 0 0.419-0.2793 0.709t-0.666 0.29q-0.376 0-0.8487-0.3652-0.4619-0.376-0.6875-0.376-0.1933 0-0.4189 0.2149-0.4834 0.4404-0.999 1.4502v4.7158q0 0.8164 0.2041 1.2353 0.1396 0.2901 0.4941 0.4834 0.3545 0.1934 1.0205 0.1934v0.3867h-5.0381v-0.3867q0.752 0 1.1172-0.2363 0.2686-0.1719 0.376-0.5479 0.054-0.1826 0.054-1.042v-3.8134q0-1.7188-0.075-2.0411-0.064-0.333-0.2578-0.4834-0.1826-0.1503-0.4619-0.1503-0.333 0-0.752 0.1611l-0.1074-0.3867 2.9756-1.2032z"/>
    <path d="m2212.5 1024.1q2.2344 0 3.5879 1.6973 1.1494 1.4502 1.1494 3.3301 0 1.3213-0.6338 2.6748t-1.7509 2.041q-1.1065 0.6875-2.4707 0.6875-2.2237 0-3.5342-1.7725-1.1065-1.4931-1.1065-3.3515 0-1.3535 0.666-2.6856 0.6768-1.3427 1.7725-1.9765 1.0957-0.6446 2.3203-0.6446zm-0.333 0.6983q-0.5693 0-1.1494 0.3437-0.5693 0.333-0.9238 1.1817-0.3545 0.8486-0.3545 2.1806 0 2.1485 0.8486 3.7061 0.8594 1.5576 2.2559 1.5576 1.042 0 1.7187-0.8594 0.6768-0.8593 0.6768-2.9541 0-2.6211-1.128-4.125-0.7626-1.0312-1.9443-1.0312z"/>
    <path d="m2218 1025.3 3.0293-1.2246h0.4082v2.2988q0.7627-1.2998 1.5254-1.8154 0.7735-0.5264 1.6221-0.5264 1.4824 0 2.4707 1.1602 1.2139 1.418 1.2139 3.6953 0 2.5459-1.461 4.2109-1.2031 1.3643-3.0293 1.3643-0.7949 0-1.375-0.2256-0.4297-0.1611-0.9668-0.6445v2.9971q0 1.0097 0.1182 1.2783 0.1289 0.2793 0.4297 0.4404 0.3115 0.1611 1.1172 0.1611v0.3975h-5.1563v-0.3975h0.2686q0.5908 0.011 1.0097-0.2255 0.2041-0.1182 0.3116-0.3868 0.1181-0.2578 0.1181-1.332v-9.3027q0-0.9561-0.086-1.2139t-0.2793-0.3867q-0.1826-0.1289-0.5049-0.1289-0.2578 0-0.6553 0.1504zm3.4375 1.708v3.6739q0 1.1923 0.097 1.5683 0.1504 0.6231 0.7305 1.0957 0.5908 0.4727 1.4824 0.4727 1.0742 0 1.7402-0.8379 0.8702-1.0957 0.8702-3.083 0-2.2559-0.9883-3.4697-0.6875-0.8379-1.6328-0.8379-0.5157 0-1.0205 0.2578-0.3868 0.1933-1.2784 1.1601z"/>
    <path d="m2238 1030.5q-0.3974 1.9444-1.5576 2.9971-1.1601 1.042-2.5674 1.042-1.6757 0-2.9218-1.4072t-1.2461-3.8028q0-2.3203 1.375-3.7705 1.3857-1.4502 3.3193-1.4502 1.4502 0 2.3848 0.7735 0.9345 0.7627 0.9345 1.5898 0 0.4082-0.2685 0.666-0.2578 0.2471-0.7305 0.2471-0.6338 0-0.956-0.4082-0.1827-0.2256-0.2471-0.8594-0.054-0.6338-0.4297-0.9668-0.376-0.3222-1.042-0.3222-1.0742 0-1.7295 0.7949-0.8701 1.0527-0.8701 2.7822 0 1.7617 0.8594 3.1153 0.8701 1.3427 2.3418 1.3427 1.0527 0 1.8906-0.7197 0.5908-0.4941 1.1494-1.7939z"/>
    <path d="m2245 1032.8q-1.5147 1.1709-1.9014 1.3535-0.5801 0.2685-1.2354 0.2685-1.0205 0-1.6865-0.6982-0.6553-0.6983-0.6553-1.8369 0-0.7198 0.3223-1.2461 0.4404-0.7305 1.5254-1.375 1.0957-0.6446 3.6309-1.5684v-0.3867q0-1.4717-0.4727-2.0195-0.4619-0.5479-1.3535-0.5479-0.6768 0-1.0742 0.3653-0.4082 0.3652-0.4082 0.8378l0.022 0.6231q0 0.4941-0.2579 0.7627-0.247 0.2685-0.6552 0.2685-0.3975 0-0.6553-0.2793-0.2471-0.2793-0.2471-0.7627 0-0.9238 0.9453-1.6972 0.9453-0.7735 2.6534-0.7735 1.3105 0 2.1484 0.4405 0.6338 0.333 0.9346 1.042 0.1933 0.4619 0.1933 1.8906v3.3408q0 1.4072 0.054 1.7295 0.054 0.3115 0.1719 0.4189 0.1289 0.1075 0.29 0.1075 0.1719 0 0.3008-0.075 0.2256-0.1397 0.8701-0.7842v0.6016q-1.2031 1.6113-2.2988 1.6113-0.5263 0-0.8379-0.3652-0.3115-0.3653-0.3222-1.2461zm0-0.6983v-3.749q-1.6221 0.6445-2.0948 0.9131-0.8486 0.4726-1.2138 0.9883-0.3653 0.5156-0.3653 1.1279 0 0.7734 0.4619 1.2891 0.462 0.5048 1.0635 0.5048 0.8164 0 2.1485-1.0742z"/>
    <path d="m2252.1 1024.1v2.2129q1.2354-2.2129 2.5352-2.2129 0.5908 0 0.9775 0.3653 0.3867 0.3545 0.3867 0.8271 0 0.419-0.2793 0.709t-0.666 0.29q-0.376 0-0.8486-0.3652-0.4619-0.376-0.6875-0.376-0.1934 0-0.419 0.2149-0.4834 0.4404-0.999 1.4502v4.7158q0 0.8164 0.2041 1.2353 0.1397 0.2901 0.4942 0.4834 0.3545 0.1934 1.0205 0.1934v0.3867h-5.0381v-0.3867q0.7519 0 1.1172-0.2363 0.2685-0.1719 0.376-0.5479 0.054-0.1826 0.054-1.042v-3.8134q0-1.7188-0.075-2.0411-0.064-0.333-0.2578-0.4834-0.1827-0.1503-0.462-0.1503-0.333 0-0.7519 0.1611l-0.1074-0.3867 2.9756-1.2032z"/>
   </g>
   <g transform="translate(24.81 -9.0219)">
    <path transform="matrix(.90244 0 0 .90244 216.83 -307.87)" d="m2307.1 1490.2a32.461 32.461 0 0 1-32.461 32.461 32.461 32.461 0 0 1-32.461-32.461 32.461 32.461 0 0 1 32.461-32.461 32.461 32.461 0 0 1 32.461 32.461z" fill="#fff" stroke="#181818" stroke-dashoffset="66" stroke-linecap="round" stroke-linejoin="round" stroke-width="2.2162"/>
    <g stroke-width="1px" aria-label="13">
     <path d="m2247.1 1022.1 9.0235-4.4023h0.9023v31.309q0 3.1172 0.2461 3.8828 0.2734 0.7656 1.0938 1.1758 0.8203 0.4101 3.3359 0.4648v1.0118h-13.945v-1.0118q2.625-0.055 3.3906-0.4375 0.7656-0.4101 1.0664-1.0664 0.3008-0.6836 0.3008-4.0195v-20.016q0-4.0469-0.2734-5.1953-0.1915-0.875-0.711-1.2852-0.4922-0.4102-1.2031-0.4102-1.0117 0-2.8164 0.8477z"/>
     <path d="m2271.4 1025.5q1.5859-3.7461 3.9922-5.7695 2.4336-2.0508 6.0429-2.0508 4.4571 0 6.836 2.8984 1.8047 2.1602 1.8047 4.6211 0 4.0469-5.086 8.3672 3.418 1.3399 5.168 3.8281 1.75 2.4883 1.75 5.8516 0 4.8125-3.0625 8.3399-3.9922 4.5937-11.566 4.5937-3.7461 0-5.1133-0.9297-1.3398-0.9297-1.3398-1.9961 0-0.7929 0.6289-1.3945 0.6562-0.6016 1.5586-0.6016 0.6836 0 1.3945 0.2188 0.4648 0.1367 2.1055 1.0117 1.6406 0.8477 2.2695 1.0117 1.0117 0.3008 2.1601 0.3008 2.7891 0 4.8399-2.1602 2.0781-2.1601 2.0781-5.1132 0-2.1602-0.957-4.211-0.711-1.5312-1.5586-2.3242-1.1758-1.0937-3.2266-1.9687-2.0508-0.9024-4.1836-0.9024h-0.875v-0.8203q2.1602-0.2734 4.3203-1.5586 2.1875-1.2852 3.1719-3.0898 0.9844-1.8047 0.9844-3.9649 0-2.8164-1.7773-4.539-1.75-1.75-4.375-1.75-4.2383 0-7.0821 4.539z"/>
    </g>
   </g>
   <g aria-label="Europcar">
    <path d="m2179.8 1020.4v5.7579h3.2012q1.2461 0 1.665-0.376 0.5586-0.4942 0.6231-1.7403h0.3974v5.0704h-0.3974q-0.1504-1.0635-0.3008-1.3643-0.1934-0.376-0.6338-0.5908-0.4404-0.2149-1.3535-0.2149h-3.2012v4.8018q0 0.9668 0.086 1.1816 0.086 0.2041 0.3007 0.333 0.2149 0.1182 0.8165 0.1182h2.4707q1.2353 0 1.7939-0.1719 0.5586-0.1718 1.0742-0.6767 0.666-0.666 1.3643-2.0088h0.4297l-1.2569 3.6523h-11.226v-0.3974h0.5157q0.5156 0 0.9775-0.2471 0.3438-0.1719 0.4619-0.5156 0.1289-0.3438 0.1289-1.4073v-9.4638q0-1.3858-0.2793-1.708-0.3867-0.4297-1.289-0.4297h-0.5157v-0.3975h11.226l0.1612 3.1904h-0.419q-0.2256-1.1494-0.5049-1.5791-0.2685-0.4296-0.8056-0.6552-0.4297-0.1612-1.5147-0.1612z"/>
    <path d="m2198 1024.4v5.9619q0 1.708 0.075 2.0947 0.086 0.376 0.2578 0.5264 0.1826 0.1504 0.419 0.1504 0.333 0 0.7519-0.1826l0.1504 0.3759-2.9433 1.2139h-0.4834v-2.084q-1.2676 1.375-1.9336 1.7295t-1.4073 0.3545q-0.8271 0-1.4394-0.4726-0.6016-0.4834-0.8379-1.2354t-0.2363-2.127v-4.3935q0-0.6983-0.1504-0.9668-0.1504-0.2686-0.4512-0.4082-0.29-0.1504-1.0635-0.1397v-0.3974h3.4483v6.5849q0 1.375 0.4726 1.8047 0.4834 0.4297 1.1602 0.4297 0.4619 0 1.042-0.29 0.5908-0.2901 1.3965-1.1065v-5.5752q0-0.8379-0.3116-1.1279-0.3007-0.3008-1.2675-0.3223v-0.3974z"/>
    <path d="m2203.2 1024.1v2.2129q1.2353-2.2129 2.5351-2.2129 0.5908 0 0.9775 0.3653 0.3868 0.3545 0.3868 0.8271 0 0.419-0.2793 0.709t-0.666 0.29q-0.376 0-0.8487-0.3652-0.4619-0.376-0.6875-0.376-0.1933 0-0.4189 0.2149-0.4834 0.4404-0.999 1.4502v4.7158q0 0.8164 0.2041 1.2353 0.1396 0.2901 0.4941 0.4834 0.3545 0.1934 1.0205 0.1934v0.3867h-5.0381v-0.3867q0.752 0 1.1172-0.2363 0.2686-0.1719 0.376-0.5479 0.054-0.1826 0.054-1.042v-3.8134q0-1.7188-0.075-2.0411-0.064-0.333-0.2578-0.4834-0.1826-0.1503-0.4619-0.1503-0.333 0-0.752 0.1611l-0.1074-0.3867 2.9756-1.2032z"/>
    <path d="m2212.5 1024.1q2.2344 0 3.5879 1.6973 1.1494 1.4502 1.1494 3.3301 0 1.3213-0.6338 2.6748t-1.7509 2.041q-1.1065 0.6875-2.4707 0.6875-2.2237 0-3.5342-1.7725-1.1065-1.4931-1.1065-3.3515 0-1.3535 0.666-2.6856 0.6768-1.3427 1.7725-1.9765 1.0957-0.6446 2.3203-0.6446zm-0.333 0.6983q-0.5693 0-1.1494 0.3437-0.5693 0.333-0.9238 1.1817-0.3545 0.8486-0.3545 2.1806 0 2.1485 0.8486 3.7061 0.8594 1.5576 2.2559 1.5576 1.042 0 1.7187-0.8594 0.6768-0.8593 0.6768-2.9541 0-2.6211-1.128-4.125-0.7626-1.0312-1.9443-1.0312z"/>
    <path d="m2218 1025.3 3.0293-1.2246h0.4082v2.2988q0.7627-1.2998 1.5254-1.8154 0.7735-0.5264 1.6221-0.5264 1.4824 0 2.4707 1.1602 1.2139 1.418 1.2139 3.6953 0 2.5459-1.461 4.2109-1.2031 1.3643-3.0293 1.3643-0.7949 0-1.375-0.2256-0.4297-0.1611-0.9668-0.6445v2.9971q0 1.0097 0.1182 1.2783 0.1289 0.2793 0.4297 0.4404 0.3115 0.1611 1.1172 0.1611v0.3975h-5.1563v-0.3975h0.2686q0.5908 0.011 1.0097-0.2255 0.2041-0.1182 0.3116-0.3868 0.1181-0.2578 0.1181-1.332v-9.3027q0-0.9561-0.086-1.2139t-0.2793-0.3867q-0.1826-0.1289-0.5049-0.1289-0.2578 0-0.6553 0.1504zm3.4375 1.708v3.6739q0 1.1923 0.097 1.5683 0.1504 0.6231 0.7305 1.0957 0.5908 0.4727 1.4824 0.4727 1.0742 0 1.7402-0.8379 0.8702-1.0957 0.8702-3.083 0-2.2559-0.9883-3.4697-0.6875-0.8379-1.6328-0.8379-0.5157 0-1.0205 0.2578-0.3868 0.1933-1.2784 1.1601z"/>
    <path d="m2238 1030.5q-0.3974 1.9444-1.5576 2.9971-1.1601 1.042-2.5674 1.042-1.6757 0-2.9218-1.4072t-1.2461-3.8028q0-2.3203 1.375-3.7705 1.3857-1.4502 3.3193-1.4502 1.4502 0 2.3848 0.7735 0.9345 0.7627 0.9345 1.5898 0 0.4082-0.2685 0.666-0.2578 0.2471-0.7305 0.2471-0.6338 0-0.956-0.4082-0.1827-0.2256-0.2471-0.8594-0.054-0.6338-0.4297-0.9668-0.376-0.3222-1.042-0.3222-1.0742 0-1.7295 0.7949-0.8701 1.0527-0.8701 2.7822 0 1.7617 0.8594 3.1153 0.8701 1.3427 2.3418 1.3427 1.0527 0 1.8906-0.7197 0.5908-0.4941 1.1494-1.7939z"/>
    <path d="m2245 1032.8q-1.5147 1.1709-1.9014 1.3535-0.5801 0.2685-1.2354 0.2685-1.0205 0-1.6865-0.6982-0.6553-0.6983-0.6553-1.8369 0-0.7198 0.3223-1.2461 0.4404-0.7305 1.5254-1.375 1.0957-0.6446 3.6309-1.5684v-0.3867q0-1.4717-0.4727-2.0195-0.4619-0.5479-1.3535-0.5479-0.6768 0-1.0742 0.3653-0.4082 0.3652-0.4082 0.8378l0.022 0.6231q0 0.4941-0.2579 0.7627-0.247 0.2685-0.6552 0.2685-0.3975 0-0.6553-0.2793-0.2471-0.2793-0.2471-0.7627 0-0.9238 0.9453-1.6972 0.9453-0.7735 2.6534-0.7735 1.3105 0 2.1484 0.4405 0.6338 0.333 0.9346 1.042 0.1933 0.4619 0.1933 1.8906v3.3408q0 1.4072 0.054 1.7295 0.054 0.3115 0.1719 0.4189 0.1289 0.1075 0.29 0.1075 0.1719 0 0.3008-0.075 0.2256-0.1397 0.8701-0.7842v0.6016q-1.2031 1.6113-2.2988 1.6113-0.5263 0-0.8379-0.3652-0.3115-0.3653-0.3222-1.2461zm0-0.6983v-3.749q-1.6221 0.6445-2.0948 0.9131-0.8486 0.4726-1.2138 0.9883-0.3653 0.5156-0.3653 1.1279 0 0.7734 0.4619 1.2891 0.462 0.5048 1.0635 0.5048 0.8164 0 2.1485-1.0742z"/>
    <path d="m2252.1 1024.1v2.2129q1.2354-2.2129 2.5352-2.2129 0.5908 0 0.9775 0.3653 0.3867 0.3545 0.3867 0.8271 0 0.419-0.2793 0.709t-0.666 0.29q-0.376 0-0.8486-0.3652-0.4619-0.376-0.6875-0.376-0.1934 0-0.419 0.2149-0.4834 0.4404-0.999 1.4502v4.7158q0 0.8164 0.2041 1.2353 0.1397 0.2901 0.4942 0.4834 0.3545 0.1934 1.0205 0.1934v0.3867h-5.0381v-0.3867q0.7519 0 1.1172-0.2363 0.2685-0.1719 0.376-0.5479 0.054-0.1826 0.054-1.042v-3.8134q0-1.7188-0.075-2.0411-0.064-0.333-0.2578-0.4834-0.1827-0.1503-0.462-0.1503-0.333 0-0.7519 0.1611l-0.1074-0.3867 2.9756-1.2032z"/>
   </g>
   <path transform="matrix(.6984 .0028773 .008721 -2.1168 1106.9 4017.1)" d="m1695.9 1398.5h-24.481l12.241-21.201z" stroke="#fff" stroke-linecap="round" stroke-width=".61683"/>
  </g>
  <g transform="translate(80.041 47.249)">
   <g transform="translate(-26.2 -25.119)">
    <path transform="matrix(.90244 0 0 .90244 200.76 -132.43)" d="m2307.1 1490.2a32.461 32.461 0 0 1-32.461 32.461 32.461 32.461 0 0 1-32.461-32.461 32.461 32.461 0 0 1 32.461-32.461 32.461 32.461 0 0 1 32.461 32.461z" fill="#fff" stroke="#181818" stroke-dashoffset="66" stroke-linecap="round" stroke-linejoin="round" stroke-width="2.2162"/>
    <g stroke-width="1px" aria-label="14">
     <path d="m2229.7 1197.8 9.0234-4.4024h0.9024v31.309q0 3.1172 0.2461 3.8828 0.2734 0.7657 1.0937 1.1758 0.8203 0.4102 3.336 0.4649v1.0117h-13.945v-1.0117q2.625-0.055 3.3906-0.4375 0.7656-0.4102 1.0664-1.0664 0.3008-0.6836 0.3008-4.0196v-20.016q0-4.0469-0.2735-5.1953-0.1914-0.875-0.7109-1.2852-0.4922-0.4101-1.2031-0.4101-1.0118 0-2.8164 0.8476z"/>
     <path d="m2277.2 1217.6v3.8828h-4.9766v9.7891h-4.5117v-9.7891h-15.695v-3.5l17.199-24.555h3.0078v24.172zm-9.4883 0v-18.402l-13.016 18.402z"/>
    </g>
   </g>
  </g>
  <g transform="translate(58.789 91.166)">
   <path transform="matrix(.90244 0 0 .90244 226.81 -64.015)" d="m2307.1 1490.2a32.461 32.461 0 0 1-32.461 32.461 32.461 32.461 0 0 1-32.461-32.461 32.461 32.461 0 0 1 32.461-32.461 32.461 32.461 0 0 1 32.461 32.461z" fill="#fff" stroke="#181818" stroke-dashoffset="66" stroke-linecap="round" stroke-linejoin="round" stroke-width="2.2162"/>
   <g stroke-width="1px" aria-label="15">
    <path d="m2256.6 1265.9 9.0234-4.4023h0.9023v31.309q0 3.1171 0.2461 3.8828 0.2735 0.7656 1.0938 1.1758 0.8203 0.4101 3.3359 0.4648v1.0117h-13.945v-1.0117q2.625-0.055 3.3906-0.4375 0.7657-0.4102 1.0664-1.0664 0.3008-0.6836 0.3008-4.0195v-20.016q0-4.0468-0.2734-5.1953-0.1914-0.875-0.7109-1.2851-0.4922-0.4102-1.2032-0.4102-1.0117 0-2.8164 0.8477z"/>
    <path d="m2302.4 1262.3-2.1329 4.6484h-11.156l-2.4336 4.9766q7.2461 1.0664 11.484 5.3867 3.6367 3.7188 3.6367 8.75 0 2.9258-1.2031 5.4141-1.1758 2.4883-2.9805 4.2383t-4.0195 2.8164q-3.1446 1.5039-6.4532 1.5039-3.3359 0-4.8671-1.1211-1.5039-1.1485-1.5039-2.5157 0-0.7656 0.6289-1.3398 0.6289-0.6016 1.5859-0.6016 0.7109 0 1.2305 0.2188 0.5468 0.2187 1.832 1.1211 2.0508 1.4219 4.1562 1.4219 3.1993 0 5.6055-2.4063 2.4336-2.4336 2.4336-5.9062 0-3.3633-2.1601-6.2618-2.1602-2.9257-5.961-4.5117-2.9805-1.2304-8.1211-1.4219l7.1094-14.41z"/>
   </g>
  </g>
  <path transform="matrix(-.64306 -.27248 -.82588 1.9491 4595.6 -924.81)" d="m1695.9 1398.5h-24.481l12.241-21.201z" stroke="#fff" stroke-linecap="round" stroke-width=".61683"/>
  <g transform="translate(156.36 64.202)">
   <g aria-label="La Caixa">
    <path d="m1976.5 1310.2 0.3545 0.075-1.2461 3.9531h-11.279v-0.3974h0.5479q0.9238 0 1.3212-0.6016 0.2256-0.3437 0.2256-1.5898v-9.3994q0-1.3643-0.3008-1.708-0.4189-0.4727-1.246-0.4727h-0.5479v-0.3975h6.5957v0.3975q-1.1602-0.011-1.6328 0.2148-0.4619 0.2256-0.6338 0.5694-0.1719 0.3437-0.1719 1.6435v9.1524q0 0.8916 0.1719 1.2246 0.1289 0.2256 0.3975 0.333 0.2685 0.1074 1.6757 0.1074h1.0635q1.6758 0 2.3526-0.2471 0.6767-0.247 1.2353-0.8701 0.5586-0.6338 1.1172-1.9873z"/>
    <path d="m1983.6 1312.8q-1.5146 1.1709-1.9013 1.3535-0.5801 0.2685-1.2354 0.2685-1.0205 0-1.6865-0.6982-0.6553-0.6982-0.6553-1.8369 0-0.7197 0.3223-1.2461 0.4404-0.7305 1.5254-1.375 1.0957-0.6445 3.6308-1.5684v-0.3867q0-1.4717-0.4726-2.0195-0.4619-0.5479-1.3535-0.5479-0.6768 0-1.0742 0.3653-0.4083 0.3652-0.4083 0.8379l0.022 0.623q0 0.4941-0.2578 0.7627-0.247 0.2686-0.6553 0.2686-0.3974 0-0.6552-0.2793-0.2471-0.2793-0.2471-0.7627 0-0.9239 0.9453-1.6973t2.6533-0.7734q1.3106 0 2.1485 0.4404 0.6338 0.333 0.9345 1.042 0.1934 0.4619 0.1934 1.8906v3.3408q0 1.4073 0.054 1.7295 0.054 0.3115 0.1719 0.419 0.1289 0.1074 0.29 0.1074 0.1719 0 0.3008-0.075 0.2256-0.1397 0.8701-0.7842v0.6016q-1.2031 1.6113-2.2988 1.6113-0.5264 0-0.8379-0.3652-0.3115-0.3653-0.3223-1.2461zm0-0.6983v-3.749q-1.622 0.6445-2.0947 0.9131-0.8486 0.4727-1.2139 0.9883-0.3652 0.5156-0.3652 1.1279 0 0.7734 0.4619 1.2891 0.4619 0.5049 1.0635 0.5049 0.8164 0 2.1484-1.0743z"/>
    <path d="m2005.8 1299.4 0.333 4.9522h-0.333q-0.666-2.2237-1.9014-3.2012-1.2353-0.9775-2.9648-0.9775-1.4502 0-2.6211 0.7412-1.1709 0.7304-1.8476 2.3418-0.6661 1.6113-0.6661 4.0068 0 1.9766 0.6338 3.4268t1.9014 2.2236q1.2783 0.7734 2.9111 0.7734 1.418 0 2.503-0.6015 1.0849-0.6123 2.3847-2.417l0.333 0.2148q-1.0957 1.9444-2.5566 2.8467-1.4609 0.9024-3.4697 0.9024-3.6202 0-5.6075-2.6856-1.4824-1.998-1.4824-4.7051 0-2.1806 0.9776-4.0068 0.9775-1.8262 2.6855-2.8252 1.7188-1.0098 3.749-1.0098 1.5791 0 3.1153 0.7735 0.4511 0.2363 0.6445 0.2363 0.29 0 0.5049-0.2041 0.2793-0.29 0.3974-0.8057z"/>
    <path d="m2013.5 1312.8q-1.5146 1.1709-1.9013 1.3535-0.5801 0.2685-1.2354 0.2685-1.0205 0-1.6865-0.6982-0.6553-0.6982-0.6553-1.8369 0-0.7197 0.3223-1.2461 0.4404-0.7305 1.5254-1.375 1.0957-0.6445 3.6308-1.5684v-0.3867q0-1.4717-0.4726-2.0195-0.462-0.5479-1.3536-0.5479-0.6767 0-1.0742 0.3653-0.4082 0.3652-0.4082 0.8379l0.022 0.623q0 0.4941-0.2578 0.7627-0.2471 0.2686-0.6553 0.2686-0.3974 0-0.6552-0.2793-0.2471-0.2793-0.2471-0.7627 0-0.9239 0.9453-1.6973t2.6533-0.7734q1.3106 0 2.1485 0.4404 0.6337 0.333 0.9345 1.042 0.1934 0.4619 0.1934 1.8906v3.3408q0 1.4073 0.054 1.7295 0.054 0.3115 0.1719 0.419 0.1289 0.1074 0.29 0.1074 0.1719 0 0.3008-0.075 0.2256-0.1397 0.8701-0.7842v0.6016q-1.2031 1.6113-2.2988 1.6113-0.5264 0-0.8379-0.3652-0.3115-0.3653-0.3223-1.2461zm0-0.6983v-3.749q-1.6221 0.6445-2.0947 0.9131-0.8486 0.4727-1.2139 0.9883-0.3652 0.5156-0.3652 1.1279 0 0.7734 0.4619 1.2891 0.4619 0.5049 1.0635 0.5049 0.8164 0 2.1484-1.0743z"/>
    <path d="m2020.2 1299q0.4512 0 0.7627 0.3222 0.3223 0.3115 0.3223 0.7627t-0.3223 0.7735q-0.3115 0.3222-0.7627 0.3222t-0.7734-0.3222q-0.3223-0.3223-0.3223-0.7735t0.3115-0.7627q0.3223-0.3222 0.7842-0.3222zm0.8916 5.1455v7.9062q0 0.9238 0.1289 1.2354 0.1397 0.3007 0.3975 0.4511 0.2685 0.1504 0.9668 0.1504v0.3867h-4.7803v-0.3867q0.7197 0 0.9668-0.1396 0.2471-0.1397 0.3867-0.4619 0.1504-0.3223 0.1504-1.2354v-3.792q0-1.6006-0.097-2.0732-0.075-0.3438-0.2363-0.4727-0.1611-0.1396-0.4404-0.1396-0.3008 0-0.7305 0.1611l-0.1504-0.3867 2.9648-1.2031z"/>
    <path d="m2023.4 1304.4h4.6299v0.3975q-0.4404 0-0.623 0.1504-0.1719 0.1503-0.1719 0.3974 0 0.2578 0.376 0.7949 0.1181 0.1719 0.3544 0.5371l0.6983 1.1172 0.8057-1.1172q0.7734-1.0634 0.7734-1.3427 0-0.2256-0.1826-0.376-0.1826-0.1611-0.5908-0.1611v-0.3975h3.33v0.3975q-0.5263 0.032-0.9131 0.29-0.5263 0.3652-1.4394 1.5898l-1.3428 1.794 2.4492 3.5234q0.9024 1.2998 1.2891 1.5684 0.3867 0.2578 0.999 0.29v0.3867h-4.6406v-0.3867q0.4834 0 0.752-0.2148 0.2041-0.1504 0.2041-0.3975 0-0.247-0.6875-1.2461l-1.4395-2.1054-1.5791 2.1054q-0.7305 0.9776-0.7305 1.1602 0 0.2578 0.2364 0.4726 0.247 0.2041 0.7304 0.2256v0.3867h-3.2119v-0.3867q0.3867-0.054 0.6768-0.2685 0.4082-0.3116 1.375-1.5899l2.0625-2.7392-1.8692-2.7071q-0.7949-1.1601-1.2353-1.4502-0.4297-0.3007-1.085-0.3007z"/>
    <path d="m2040.4 1312.8q-1.5147 1.1709-1.9014 1.3535-0.5801 0.2685-1.2353 0.2685-1.0206 0-1.6866-0.6982-0.6552-0.6982-0.6552-1.8369 0-0.7197 0.3222-1.2461 0.4405-0.7305 1.5254-1.375 1.0957-0.6445 3.6309-1.5684v-0.3867q0-1.4717-0.4727-2.0195-0.4619-0.5479-1.3535-0.5479-0.6768 0-1.0742 0.3653-0.4082 0.3652-0.4082 0.8379l0.021 0.623q0 0.4941-0.2578 0.7627-0.2471 0.2686-0.6553 0.2686-0.3975 0-0.6553-0.2793-0.2471-0.2793-0.2471-0.7627 0-0.9239 0.9453-1.6973 0.9454-0.7734 2.6534-0.7734 1.3105 0 2.1484 0.4404 0.6338 0.333 0.9346 1.042 0.1933 0.4619 0.1933 1.8906v3.3408q0 1.4073 0.054 1.7295 0.054 0.3115 0.1719 0.419 0.1289 0.1074 0.2901 0.1074 0.1718 0 0.3007-0.075 0.2256-0.1397 0.8702-0.7842v0.6016q-1.2032 1.6113-2.2989 1.6113-0.5263 0-0.8379-0.3652-0.3115-0.3653-0.3222-1.2461zm0-0.6983v-3.749q-1.6221 0.6445-2.0948 0.9131-0.8486 0.4727-1.2138 0.9883-0.3653 0.5156-0.3653 1.1279 0 0.7734 0.462 1.2891 0.4619 0.5049 1.0634 0.5049 0.8164 0 2.1485-1.0743z"/>
   </g>
   <g transform="translate(-92.42 -1.7076)">
    <path d="m2203.4 1322.9a29.294 29.294 0 0 1-29.294 29.294 29.294 29.294 0 0 1-29.294-29.294 29.294 29.294 0 0 1 29.294-29.294 29.294 29.294 0 0 1 29.294 29.294z" fill="#fff" stroke="#181818" stroke-dashoffset="66" stroke-linecap="round" stroke-linejoin="round" stroke-width="2"/>
    <g stroke-width="1px" aria-label="10">
     <path d="m2152.1 1308.9 9.0234-4.4024h0.9024v31.309q0 3.1172 0.2461 3.8829 0.2734 0.7656 1.0937 1.1757 0.8203 0.4102 3.336 0.4649v1.0117h-13.945v-1.0117q2.625-0.055 3.3907-0.4375 0.7656-0.4102 1.0664-1.0664 0.3008-0.6836 0.3008-4.0196v-20.016q0-4.0469-0.2735-5.1953-0.1914-0.875-0.7109-1.2852-0.4922-0.4101-1.2031-0.4101-1.0118 0-2.8165 0.8476z"/>
     <path d="m2175.6 1324q0-6.3438 1.9141-10.91 1.9141-4.5937 5.0859-6.8359 2.461-1.7774 5.086-1.7774 4.2656 0 7.6562 4.3477 4.2383 5.3867 4.2383 14.602 0 6.4531-1.8594 10.965t-4.7578 6.5625q-2.8711 2.0234-5.5508 2.0234-5.3047 0-8.832-6.2617-2.9805-5.2773-2.9805-12.715zm5.3594 0.6836q0 7.6562 1.8867 12.496 1.5586 4.0742 4.6485 4.0742 1.4765 0 3.0625-1.3125 1.5859-1.3399 2.4062-4.457 1.2578-4.7032 1.2578-13.262 0-6.3437-1.3125-10.582-0.9844-3.1445-2.5429-4.457-1.1211-0.9024-2.7071-0.9024-1.8594 0-3.3086 1.668-1.9687 2.2695-2.6797 7.1367-0.7109 4.8672-0.7109 9.5977z"/>
    </g>
   </g>
  </g>
  <g transform="translate(99.359 11.119)">
   <g transform="translate(-26.35 46.469)">
    <path d="m2202.1 1117.4a29.294 29.294 0 0 1-29.294 29.294 29.294 29.294 0 0 1-29.294-29.294 29.294 29.294 0 0 1 29.294-29.294 29.294 29.294 0 0 1 29.294 29.294z" fill="#fff" stroke="#181818" stroke-dashoffset="66" stroke-linecap="round" stroke-linejoin="round" stroke-width="2"/>
    <g stroke-width="1px" aria-label="11">
     <path d="m2153.2 1103.7 9.0234-4.4023h0.9024v31.309q0 3.1171 0.2461 3.8828 0.2734 0.7656 1.0937 1.1758 0.8203 0.4101 3.336 0.4648v1.0117h-13.945v-1.0117q2.625-0.055 3.3906-0.4375 0.7656-0.4102 1.0664-1.0664 0.3008-0.6836 0.3008-4.0195v-20.016q0-4.0468-0.2735-5.1953-0.1914-0.875-0.7109-1.2851-0.4922-0.4102-1.2031-0.4102-1.0117 0-2.8164 0.8477z"/>
     <path d="m2179.1 1103.7 9.0234-4.4023h0.9024v31.309q0 3.1171 0.2461 3.8828 0.2734 0.7656 1.0937 1.1758 0.8203 0.4101 3.3359 0.4648v1.0117h-13.945v-1.0117q2.625-0.055 3.3907-0.4375 0.7656-0.4102 1.0664-1.0664 0.3007-0.6836 0.3007-4.0195v-20.016q0-4.0468-0.2734-5.1953-0.1914-0.875-0.7109-1.2851-0.4922-0.4102-1.2032-0.4102-1.0117 0-2.8164 0.8477z"/>
    </g>
   </g>
  </g>
  <g fill="#000000" stroke-width="1px">
   <text x="1366.8928" y="1520.1071" font-family="'Times New Roman'" style="line-height:0%" xml:space="preserve"><tspan x="1366.8928" y="1520.1071" font-size="22px" style="line-height:1.25"> </tspan></text>
   <text x="2269.7314" y="1312.2408" font-family="Arial" letter-spacing="0px" word-spacing="0px" style="line-height:0%" xml:space="preserve"><tspan x="2269.7314" y="1312.2408" font-size="35px" style="line-height:1.25"> </tspan></text>
   <text x="1497.9677" y="920.65631" font-family="Arial" letter-spacing="0px" word-spacing="0px" style="line-height:0%" xml:space="preserve"><tspan x="1497.9677" y="920.65631" font-size="35px" style="line-height:1.25"> </tspan></text>
  </g>
  <g transform="translate(58.025 23.737)" stroke-width="1px" aria-label="TV3">
   <path d="m1498.3 1339.8 0.1612 3.4161h-0.4082q-0.1182-0.9024-0.3223-1.2891-0.333-0.6231-0.8916-0.9131-0.5478-0.3008-1.4502-0.3008h-2.0517v11.129q0 1.3428 0.29 1.6758 0.4082 0.4512 1.2568 0.4512h0.5049v0.3974h-6.1767v-0.3974h0.5156q0.9238 0 1.3105-0.5586 0.2364-0.3438 0.2364-1.5684v-11.129h-1.751q-1.0205 0-1.4502 0.1504-0.5586 0.2041-0.9561 0.7842-0.3974 0.5801-0.4726 1.5684h-0.4082l0.1718-3.4161z"/>
   <path d="m1514.6 1339.8v0.3975q-0.7735 0.1396-1.1709 0.4941-0.5694 0.5264-1.0098 1.6114l-5.081 12.396h-0.3975l-5.457-12.558q-0.419-0.9668-0.5909-1.1816-0.2685-0.333-0.666-0.5156-0.3867-0.1934-1.0527-0.2471v-0.3975h5.9512v0.3975q-1.0098 0.097-1.3106 0.3437-0.3008 0.2471-0.3008 0.6338 0 0.5371 0.4942 1.6758l3.706 8.5401 3.4375-8.4327q0.5049-1.2461 0.5049-1.7295 0-0.3115-0.3115-0.5908-0.3115-0.29-1.0527-0.4082-0.054-0.011-0.1827-0.032v-0.3975z"/>
   <path d="m1516 1342.6q0.6231-1.4717 1.5684-2.2666 0.956-0.8056 2.374-0.8056 1.751 0 2.6855 1.1386 0.709 0.8487 0.709 1.8155 0 1.5898-1.998 3.2871 1.3428 0.5263 2.0303 1.5039 0.6875 0.9775 0.6875 2.2988 0 1.8906-1.2032 3.2764-1.5683 1.8047-4.5439 1.8047-1.4717 0-2.0088-0.3653-0.5264-0.3652-0.5264-0.7842 0-0.3115 0.2471-0.5478 0.2578-0.2363 0.6123-0.2363 0.2686 0 0.5479 0.086 0.1826 0.054 0.8271 0.3975 0.6445 0.333 0.8916 0.3974 0.3975 0.1182 0.8486 0.1182 1.0957 0 1.9014-0.8486 0.8164-0.8487 0.8164-2.0088 0-0.8487-0.376-1.6543-0.2793-0.6016-0.6123-0.9131-0.4619-0.4297-1.2675-0.7735-0.8057-0.3544-1.6436-0.3544h-0.3438v-0.3223q0.8487-0.1074 1.6973-0.6123 0.8594-0.5049 1.2461-1.2139t0.3867-1.5576q0-1.1064-0.6982-1.7832-0.6875-0.6875-1.7188-0.6875-1.665 0-2.7822 1.7832z"/>
  </g>
 </g>
</svg>
